solid OpenSCAD_Model
  facet normal 0 0 -1
    outer loop
      vertex 58.7542 -152.372 46
      vertex 61.5072 -153.372 46
      vertex 61.3153 -153.874 46
    endloop
  endfacet
  facet normal 0 0 -1
    outer loop
      vertex 61.5072 -153.372 46
      vertex 58.7542 -152.372 46
      vertex 61.5072 -89.3721 46
    endloop
  endfacet
  facet normal 0 0 -1
    outer loop
      vertex 58.7542 -152.372 46
      vertex 61.3153 -153.874 46
      vertex 60.6414 -154.627 46
    endloop
  endfacet
  facet normal 0 0 -1
    outer loop
      vertex 58.7542 -90.3721 46
      vertex 61.5072 -89.3721 46
      vertex 58.7542 -152.372 46
    endloop
  endfacet
  facet normal 0 0 -1
    outer loop
      vertex 59.8593 -155.111 46
      vertex 60.6414 -154.627 46
      vertex 60.4096 -154.865 46
    endloop
  endfacet
  facet normal -0 0 -1
    outer loop
      vertex 61.5072 -89.3721 46
      vertex 58.7542 -90.3721 46
      vertex 61.3153 -88.8699 46
    endloop
  endfacet
  facet normal -0 0 -1
    outer loop
      vertex 60.6414 -154.627 46
      vertex 59.8593 -155.111 46
      vertex 58.7542 -152.372 46
    endloop
  endfacet
  facet normal -0 0 -1
    outer loop
      vertex 61.3153 -88.8699 46
      vertex 58.7542 -90.3721 46
      vertex 60.6414 -88.1169 46
    endloop
  endfacet
  facet normal 0 0 -1
    outer loop
      vertex 58.7542 -152.372 46
      vertex 59.8593 -155.111 46
      vertex 59.8581 -155.111 46
    endloop
  endfacet
  facet normal 0 -0 -1
    outer loop
      vertex 59.8593 -87.6335 46
      vertex 60.6414 -88.1169 46
      vertex 58.7542 -90.3721 46
    endloop
  endfacet
  facet normal 0 0 -1
    outer loop
      vertex 60.6414 -88.1169 46
      vertex 59.8593 -87.6335 46
      vertex 60.4096 -87.8796 46
    endloop
  endfacet
  facet normal 0 0 -1
    outer loop
      vertex 58.5323 -155.111 46
      vertex 58.7542 -152.372 46
      vertex 59.8581 -155.111 46
    endloop
  endfacet
  facet normal 0 0 -1
    outer loop
      vertex 58.3817 -155.1 46
      vertex 58.7542 -152.372 46
      vertex 58.5323 -155.111 46
    endloop
  endfacet
  facet normal 0 0 -1
    outer loop
      vertex 55.9394 -155.1 46
      vertex 58.7542 -152.372 46
      vertex 58.3817 -155.1 46
    endloop
  endfacet
  facet normal 0 0 -1
    outer loop
      vertex 55.0896 -155.053 46
      vertex 58.7542 -152.372 46
      vertex 55.9394 -155.1 46
    endloop
  endfacet
  facet normal 0 0 -1
    outer loop
      vertex 54.6521 -155.053 46
      vertex 58.7542 -152.372 46
      vertex 55.0896 -155.053 46
    endloop
  endfacet
  facet normal 0 0 -1
    outer loop
      vertex 54.465 -155.038 46
      vertex 58.7542 -152.372 46
      vertex 54.6521 -155.053 46
    endloop
  endfacet
  facet normal 0 0 -1
    outer loop
      vertex 52.2832 -155.038 46
      vertex 58.7542 -152.372 46
      vertex 54.465 -155.038 46
    endloop
  endfacet
  facet normal 0 0 -1
    outer loop
      vertex 51.1969 -154.984 46
      vertex 58.7542 -152.372 46
      vertex 52.2832 -155.038 46
    endloop
  endfacet
  facet normal 0 0 -1
    outer loop
      vertex 50.6138 -154.973 46
      vertex 51.1969 -154.984 46
      vertex 50.8666 -154.984 46
    endloop
  endfacet
  facet normal 0 0 -1
    outer loop
      vertex 51.1969 -154.984 46
      vertex 50.6138 -154.973 46
      vertex 58.7542 -152.372 46
    endloop
  endfacet
  facet normal 0 0 -1
    outer loop
      vertex 48.7081 -154.973 46
      vertex 58.7542 -152.372 46
      vertex 50.6138 -154.973 46
    endloop
  endfacet
  facet normal 0 0 -1
    outer loop
      vertex 47.4925 -154.964 46
      vertex 58.7542 -152.372 46
      vertex 48.7081 -154.973 46
    endloop
  endfacet
  facet normal 0 0 -1
    outer loop
      vertex 47.2431 -154.965 46
      vertex 47.4925 -154.964 46
      vertex 47.4218 -154.965 46
    endloop
  endfacet
  facet normal -0 0 -1
    outer loop
      vertex 47.4925 -154.964 46
      vertex 47.2431 -154.965 46
      vertex 58.7542 -152.372 46
    endloop
  endfacet
  facet normal 0 0 -1
    outer loop
      vertex 45.9444 -155.015 46
      vertex 58.7542 -152.372 46
      vertex 47.2431 -154.965 46
    endloop
  endfacet
  facet normal 0 0 -1
    outer loop
      vertex 43.8632 -155.015 46
      vertex 58.7542 -152.372 46
      vertex 45.9444 -155.015 46
    endloop
  endfacet
  facet normal 0 0 -1
    outer loop
      vertex 43.2248 -155.03 46
      vertex 43.8632 -155.015 46
      vertex 43.6567 -155.03 46
    endloop
  endfacet
  facet normal 0 0 -1
    outer loop
      vertex 27.2961 -152.372 46
      vertex 43.8632 -155.015 46
      vertex 43.2248 -155.03 46
    endloop
  endfacet
  facet normal 0 0 -1
    outer loop
      vertex 39.9674 -155.081 46
      vertex 43.2248 -155.03 46
      vertex 42.3341 -155.081 46
    endloop
  endfacet
  facet normal -0 0 -1
    outer loop
      vertex 43.2248 -155.03 46
      vertex 39.9674 -155.081 46
      vertex 27.2961 -152.372 46
    endloop
  endfacet
  facet normal 0 0 -1
    outer loop
      vertex 39.3556 -155.094 46
      vertex 39.9674 -155.081 46
      vertex 39.8079 -155.094 46
    endloop
  endfacet
  facet normal -0 0 -1
    outer loop
      vertex 39.9674 -155.081 46
      vertex 39.3556 -155.094 46
      vertex 27.2961 -152.372 46
    endloop
  endfacet
  facet normal 0 0 -1
    outer loop
      vertex 27.2961 -152.372 46
      vertex 39.3556 -155.094 46
      vertex 38.5714 -155.129 46
    endloop
  endfacet
  facet normal 0 0 -1
    outer loop
      vertex 27.2961 -152.372 46
      vertex 38.5714 -155.129 46
      vertex 36.016 -155.129 46
    endloop
  endfacet
  facet normal 0 0 -1
    outer loop
      vertex 35.3865 -155.137 46
      vertex 36.016 -155.129 46
      vertex 35.8757 -155.137 46
    endloop
  endfacet
  facet normal -0 0 -1
    outer loop
      vertex 36.016 -155.129 46
      vertex 35.3865 -155.137 46
      vertex 27.2961 -152.372 46
    endloop
  endfacet
  facet normal 0 0 -1
    outer loop
      vertex 27.2961 -152.372 46
      vertex 35.3865 -155.137 46
      vertex 34.6726 -155.157 46
    endloop
  endfacet
  facet normal 0 0 -1
    outer loop
      vertex 27.2961 -152.372 46
      vertex 34.6726 -155.157 46
      vertex 32.0218 -155.157 46
    endloop
  endfacet
  facet normal 0 0 -1
    outer loop
      vertex 27.2961 -152.372 46
      vertex 32.0218 -155.157 46
      vertex 31.8868 -155.162 46
    endloop
  endfacet
  facet normal 0 0 -1
    outer loop
      vertex 27.2961 -152.372 46
      vertex 31.8868 -155.162 46
      vertex 31.3579 -155.162 46
    endloop
  endfacet
  facet normal 0 0 -1
    outer loop
      vertex 27.2961 -152.372 46
      vertex 31.3579 -155.162 46
      vertex 30.6882 -155.172 46
    endloop
  endfacet
  facet normal 0 0 -1
    outer loop
      vertex 27.2961 -152.372 46
      vertex 30.6882 -155.172 46
      vertex 27.9986 -155.172 46
    endloop
  endfacet
  facet normal 0 0 -1
    outer loop
      vertex 27.2961 -152.372 46
      vertex 27.9986 -155.172 46
      vertex 27.8649 -155.174 46
    endloop
  endfacet
  facet normal 0 0 -1
    outer loop
      vertex 43.8632 -155.015 46
      vertex 27.2961 -152.372 46
      vertex 58.7542 -152.372 46
    endloop
  endfacet
  facet normal 0 0 -1
    outer loop
      vertex 25.5165 -154.742 46
      vertex 27.2961 -152.372 46
      vertex 26.2823 -155.174 46
    endloop
  endfacet
  facet normal 0 0 -1
    outer loop
      vertex 26.2823 -155.174 46
      vertex 27.2961 -152.372 46
      vertex 27.8649 -155.174 46
    endloop
  endfacet
  facet normal -0 0 -1
    outer loop
      vertex 59.8593 -87.6335 46
      vertex 58.7542 -90.3721 46
      vertex 59.8581 -87.6332 46
    endloop
  endfacet
  facet normal 0 0 -1
    outer loop
      vertex 58.7542 -90.3721 46
      vertex 58.5323 -87.6332 46
      vertex 59.8581 -87.6332 46
    endloop
  endfacet
  facet normal 0 0 -1
    outer loop
      vertex 58.7542 -90.3721 46
      vertex 58.3817 -87.6443 46
      vertex 58.5323 -87.6332 46
    endloop
  endfacet
  facet normal 0 0 -1
    outer loop
      vertex 58.7542 -90.3721 46
      vertex 55.9394 -87.6443 46
      vertex 58.3817 -87.6443 46
    endloop
  endfacet
  facet normal 0 0 -1
    outer loop
      vertex 58.7542 -90.3721 46
      vertex 55.0896 -87.691 46
      vertex 55.9394 -87.6443 46
    endloop
  endfacet
  facet normal 0 0 -1
    outer loop
      vertex 58.7542 -90.3721 46
      vertex 54.6521 -87.691 46
      vertex 55.0896 -87.691 46
    endloop
  endfacet
  facet normal 0 0 -1
    outer loop
      vertex 58.7542 -90.3721 46
      vertex 54.465 -87.7058 46
      vertex 54.6521 -87.691 46
    endloop
  endfacet
  facet normal 0 0 -1
    outer loop
      vertex 58.7542 -90.3721 46
      vertex 52.2832 -87.7058 46
      vertex 54.465 -87.7058 46
    endloop
  endfacet
  facet normal 0 0 -1
    outer loop
      vertex 58.7542 -90.3721 46
      vertex 51.1969 -87.7601 46
      vertex 52.2832 -87.7058 46
    endloop
  endfacet
  facet normal 0 0 -1
    outer loop
      vertex 50.6138 -87.7707 46
      vertex 51.1969 -87.7601 46
      vertex 58.7542 -90.3721 46
    endloop
  endfacet
  facet normal -0 0 -1
    outer loop
      vertex 51.1969 -87.7601 46
      vertex 50.6138 -87.7707 46
      vertex 50.8666 -87.7601 46
    endloop
  endfacet
  facet normal 0 0 -1
    outer loop
      vertex 58.7542 -90.3721 46
      vertex 48.7081 -87.7707 46
      vertex 50.6138 -87.7707 46
    endloop
  endfacet
  facet normal 0 0 -1
    outer loop
      vertex 58.7542 -90.3721 46
      vertex 47.4925 -87.7804 46
      vertex 48.7081 -87.7707 46
    endloop
  endfacet
  facet normal 0 0 -1
    outer loop
      vertex 47.2431 -87.7789 46
      vertex 47.4925 -87.7804 46
      vertex 58.7542 -90.3721 46
    endloop
  endfacet
  facet normal 0 0 -1
    outer loop
      vertex 47.4925 -87.7804 46
      vertex 47.2431 -87.7789 46
      vertex 47.4218 -87.7789 46
    endloop
  endfacet
  facet normal 0 0 -1
    outer loop
      vertex 58.7542 -90.3721 46
      vertex 45.9444 -87.729 46
      vertex 47.2431 -87.7789 46
    endloop
  endfacet
  facet normal 0 0 -1
    outer loop
      vertex 58.7542 -90.3721 46
      vertex 43.8632 -87.729 46
      vertex 45.9444 -87.729 46
    endloop
  endfacet
  facet normal 0 0 -1
    outer loop
      vertex 27.2961 -90.3721 46
      vertex 43.8632 -87.729 46
      vertex 58.7542 -90.3721 46
    endloop
  endfacet
  facet normal 0 0 -1
    outer loop
      vertex 43.8632 -87.729 46
      vertex 43.2248 -87.7141 46
      vertex 43.6567 -87.7141 46
    endloop
  endfacet
  facet normal -0 0 -1
    outer loop
      vertex 43.8632 -87.729 46
      vertex 27.2961 -90.3721 46
      vertex 43.2248 -87.7141 46
    endloop
  endfacet
  facet normal 0 -0 -1
    outer loop
      vertex 39.9674 -87.6627 46
      vertex 43.2248 -87.7141 46
      vertex 27.2961 -90.3721 46
    endloop
  endfacet
  facet normal 0 0 -1
    outer loop
      vertex 43.2248 -87.7141 46
      vertex 39.9674 -87.6627 46
      vertex 42.3341 -87.6627 46
    endloop
  endfacet
  facet normal 0 -0 -1
    outer loop
      vertex 39.3556 -87.6501 46
      vertex 39.9674 -87.6627 46
      vertex 27.2961 -90.3721 46
    endloop
  endfacet
  facet normal 0 0 -1
    outer loop
      vertex 39.9674 -87.6627 46
      vertex 39.3556 -87.6501 46
      vertex 39.8079 -87.6501 46
    endloop
  endfacet
  facet normal -0 0 -1
    outer loop
      vertex 39.3556 -87.6501 46
      vertex 27.2961 -90.3721 46
      vertex 38.5714 -87.6149 46
    endloop
  endfacet
  facet normal -0 0 -1
    outer loop
      vertex 38.5714 -87.6149 46
      vertex 27.2961 -90.3721 46
      vertex 36.016 -87.6149 46
    endloop
  endfacet
  facet normal 0 -0 -1
    outer loop
      vertex 35.3865 -87.6067 46
      vertex 36.016 -87.6149 46
      vertex 27.2961 -90.3721 46
    endloop
  endfacet
  facet normal 0 0 -1
    outer loop
      vertex 36.016 -87.6149 46
      vertex 35.3865 -87.6067 46
      vertex 35.8757 -87.6067 46
    endloop
  endfacet
  facet normal -0 0 -1
    outer loop
      vertex 35.3865 -87.6067 46
      vertex 27.2961 -90.3721 46
      vertex 34.6726 -87.5869 46
    endloop
  endfacet
  facet normal -0 0 -1
    outer loop
      vertex 34.6726 -87.5869 46
      vertex 27.2961 -90.3721 46
      vertex 32.0218 -87.5869 46
    endloop
  endfacet
  facet normal -0 0 -1
    outer loop
      vertex 32.0218 -87.5869 46
      vertex 27.2961 -90.3721 46
      vertex 31.8868 -87.5823 46
    endloop
  endfacet
  facet normal -0 0 -1
    outer loop
      vertex 31.8868 -87.5823 46
      vertex 27.2961 -90.3721 46
      vertex 31.3579 -87.5823 46
    endloop
  endfacet
  facet normal -0 0 -1
    outer loop
      vertex 31.3579 -87.5823 46
      vertex 27.2961 -90.3721 46
      vertex 30.6882 -87.5725 46
    endloop
  endfacet
  facet normal -0 0 -1
    outer loop
      vertex 30.6882 -87.5725 46
      vertex 27.2961 -90.3721 46
      vertex 27.9986 -87.5725 46
    endloop
  endfacet
  facet normal -0 0 -1
    outer loop
      vertex 27.9986 -87.5725 46
      vertex 27.2961 -90.3721 46
      vertex 27.8649 -87.5702 46
    endloop
  endfacet
  facet normal 0 0 -1
    outer loop
      vertex 27.2961 -90.3721 46
      vertex 26.2823 -87.5702 46
      vertex 27.8649 -87.5702 46
    endloop
  endfacet
  facet normal -0 0 -1
    outer loop
      vertex 27.2961 -152.372 46
      vertex 24.4911 -153.372 46
      vertex 27.2961 -90.3721 46
    endloop
  endfacet
  facet normal 0 0 -1
    outer loop
      vertex 25.5165 -154.742 46
      vertex 26.2823 -155.174 46
      vertex 25.7113 -154.935 46
    endloop
  endfacet
  facet normal 0 0 -1
    outer loop
      vertex 24.4911 -89.3721 46
      vertex 27.2961 -90.3721 46
      vertex 24.4911 -153.372 46
    endloop
  endfacet
  facet normal 0 0 -1
    outer loop
      vertex 25.5165 -154.742 46
      vertex 25.7113 -154.935 46
      vertex 25.7111 -154.935 46
    endloop
  endfacet
  facet normal 0 -0 -1
    outer loop
      vertex 24.7229 -88.807 46
      vertex 27.2961 -90.3721 46
      vertex 24.4911 -89.3721 46
    endloop
  endfacet
  facet normal 0 0 -1
    outer loop
      vertex 24.7229 -153.937 46
      vertex 27.2961 -152.372 46
      vertex 25.5165 -154.742 46
    endloop
  endfacet
  facet normal 0 0 -1
    outer loop
      vertex 27.2961 -90.3721 46
      vertex 25.5165 -88.002 46
      vertex 26.2823 -87.5702 46
    endloop
  endfacet
  facet normal 0 0 -1
    outer loop
      vertex 27.2961 -152.372 46
      vertex 24.7229 -153.937 46
      vertex 24.4911 -153.372 46
    endloop
  endfacet
  facet normal 0 0 -1
    outer loop
      vertex 26.2823 -87.5702 46
      vertex 25.5165 -88.002 46
      vertex 25.7113 -87.8091 46
    endloop
  endfacet
  facet normal 0 0 -1
    outer loop
      vertex 25.7113 -87.8091 46
      vertex 25.5165 -88.002 46
      vertex 25.7111 -87.8092 46
    endloop
  endfacet
  facet normal 0 0 -1
    outer loop
      vertex 27.2961 -90.3721 46
      vertex 24.7229 -88.807 46
      vertex 25.5165 -88.002 46
    endloop
  endfacet
  facet normal -1 0 0
    outer loop
      vertex 27.2961 -152.372 40
      vertex 27.2961 -90.3721 46
      vertex 27.2961 -90.3721 40
    endloop
  endfacet
  facet normal -1 -0 0
    outer loop
      vertex 27.2961 -90.3721 46
      vertex 27.2961 -152.372 40
      vertex 27.2961 -152.372 46
    endloop
  endfacet
  facet normal 1 -0 0
    outer loop
      vertex 58.7542 -152.372 46
      vertex 58.7542 -90.3721 40
      vertex 58.7542 -90.3721 46
    endloop
  endfacet
  facet normal 1 0 0
    outer loop
      vertex 58.7542 -90.3721 40
      vertex 58.7542 -152.372 46
      vertex 58.7542 -152.372 40
    endloop
  endfacet
  facet normal 0 0 -1
    outer loop
      vertex 27.2961 -152.372 40
      vertex 58.7542 -90.3721 40
      vertex 58.7542 -152.372 40
    endloop
  endfacet
  facet normal -0 0 -1
    outer loop
      vertex 58.7542 -90.3721 40
      vertex 27.2961 -152.372 40
      vertex 27.2961 -90.3721 40
    endloop
  endfacet
  facet normal 0 1 -0
    outer loop
      vertex 58.7542 -90.3721 40
      vertex 27.2961 -90.3721 46
      vertex 58.7542 -90.3721 46
    endloop
  endfacet
  facet normal 0 1 0
    outer loop
      vertex 27.2961 -90.3721 46
      vertex 58.7542 -90.3721 40
      vertex 27.2961 -90.3721 40
    endloop
  endfacet
  facet normal 0 -1 0
    outer loop
      vertex 27.2961 -152.372 40
      vertex 58.7542 -152.372 46
      vertex 27.2961 -152.372 46
    endloop
  endfacet
  facet normal 0 -1 -0
    outer loop
      vertex 58.7542 -152.372 46
      vertex 27.2961 -152.372 40
      vertex 58.7542 -152.372 40
    endloop
  endfacet
  facet normal 0.138137 0 0.990413
    outer loop
      vertex 27.1409 -89.3721 54.9438
      vertex 30.667 -153.372 54.452
      vertex 30.667 -89.3721 54.452
    endloop
  endfacet
  facet normal 0.138137 0 0.990413
    outer loop
      vertex 30.667 -153.372 54.452
      vertex 27.1409 -89.3721 54.9438
      vertex 27.1409 -153.372 54.9438
    endloop
  endfacet
  facet normal 0.291264 0 0.956643
    outer loop
      vertex 30.667 -89.3721 54.452
      vertex 31.3367 -153.372 54.2481
      vertex 31.3367 -89.3721 54.2481
    endloop
  endfacet
  facet normal 0.291264 0 0.956643
    outer loop
      vertex 31.3367 -153.372 54.2481
      vertex 30.667 -89.3721 54.452
      vertex 30.667 -153.372 54.452
    endloop
  endfacet
  facet normal 0.167016 0 0.985954
    outer loop
      vertex 26.4508 -89.3721 55.0607
      vertex 27.1409 -153.372 54.9438
      vertex 27.1409 -89.3721 54.9438
    endloop
  endfacet
  facet normal 0.167016 0 0.985954
    outer loop
      vertex 27.1409 -153.372 54.9438
      vertex 26.4508 -89.3721 55.0607
      vertex 26.4508 -153.372 55.0607
    endloop
  endfacet
  facet normal 0.407702 0 0.913115
    outer loop
      vertex 34.8856 -89.3721 53.4202
      vertex 35.5248 -153.372 53.1348
      vertex 35.5248 -89.3721 53.1348
    endloop
  endfacet
  facet normal 0.407702 0 0.913115
    outer loop
      vertex 35.5248 -153.372 53.1348
      vertex 34.8856 -89.3721 53.4202
      vertex 34.8856 -153.372 53.4202
    endloop
  endfacet
  facet normal 0.227184 0 0.973852
    outer loop
      vertex 31.3367 -89.3721 54.2481
      vertex 34.8856 -153.372 53.4202
      vertex 34.8856 -89.3721 53.4202
    endloop
  endfacet
  facet normal 0.227184 0 0.973852
    outer loop
      vertex 34.8856 -153.372 53.4202
      vertex 31.3367 -89.3721 54.2481
      vertex 31.3367 -153.372 54.2481
    endloop
  endfacet
  facet normal 0.294228 0 0.955735
    outer loop
      vertex 35.5248 -89.3721 53.1348
      vertex 38.9618 -153.372 52.0767
      vertex 38.9618 -89.3721 52.0767
    endloop
  endfacet
  facet normal 0.294228 0 0.955735
    outer loop
      vertex 38.9618 -153.372 52.0767
      vertex 35.5248 -89.3721 53.1348
      vertex 35.5248 -153.372 53.1348
    endloop
  endfacet
  facet normal 0.347003 0 0.937864
    outer loop
      vertex 42.7696 -89.3721 50.7753
      vertex 43.4261 -90.6721 50.5324
      vertex 43.4261 -89.3721 50.5324
    endloop
  endfacet
  facet normal 0.347003 0 0.937864
    outer loop
      vertex 43.4261 -90.6721 50.5324
      vertex 42.7696 -89.3721 50.7753
      vertex 43.4261 -152.072 50.5324
    endloop
  endfacet
  facet normal 0.347003 -0 0.937864
    outer loop
      vertex 42.7696 -153.372 50.7753
      vertex 43.4261 -152.072 50.5324
      vertex 42.7696 -89.3721 50.7753
    endloop
  endfacet
  facet normal 0.347003 0 0.937864
    outer loop
      vertex 43.4261 -152.072 50.5324
      vertex 42.7696 -153.372 50.7753
      vertex 43.4261 -153.372 50.5324
    endloop
  endfacet
  facet normal 0.296883 0 0.954914
    outer loop
      vertex 39.5882 -89.3721 51.7644
      vertex 42.7696 -153.372 50.7753
      vertex 42.7696 -89.3721 50.7753
    endloop
  endfacet
  facet normal 0.296883 0 0.954914
    outer loop
      vertex 42.7696 -153.372 50.7753
      vertex 39.5882 -89.3721 51.7644
      vertex 39.5882 -153.372 51.7644
    endloop
  endfacet
  facet normal 0.446185 0 0.894941
    outer loop
      vertex 38.9618 -89.3721 52.0767
      vertex 39.5882 -153.372 51.7644
      vertex 39.5882 -89.3721 51.7644
    endloop
  endfacet
  facet normal 0.446185 0 0.894941
    outer loop
      vertex 39.5882 -153.372 51.7644
      vertex 38.9618 -89.3721 52.0767
      vertex 38.9618 -153.372 52.0767
    endloop
  endfacet
  facet normal 0.177528 -0 0.984116
    outer loop
      vertex 43.4261 -90.6721 50.5324
      vertex 47.2544 -89.3721 49.8418
      vertex 43.4261 -89.3721 50.5324
    endloop
  endfacet
  facet normal 0.177528 0 0.984116
    outer loop
      vertex 47.2544 -89.3721 49.8418
      vertex 43.4261 -90.6721 50.5324
      vertex 47.2544 -153.372 49.8418
    endloop
  endfacet
  facet normal 0.177528 -0 0.984116
    outer loop
      vertex 43.4261 -152.072 50.5324
      vertex 47.2544 -153.372 49.8418
      vertex 43.4261 -90.6721 50.5324
    endloop
  endfacet
  facet normal 0.177528 0 0.984116
    outer loop
      vertex 47.2544 -153.372 49.8418
      vertex 43.4261 -152.072 50.5324
      vertex 43.4261 -153.372 50.5324
    endloop
  endfacet
  facet normal -0.0378088 0 0.999285
    outer loop
      vertex 47.2544 -89.3721 49.8418
      vertex 51.0656 -153.372 49.986
      vertex 51.0656 -89.3721 49.986
    endloop
  endfacet
  facet normal -0.0378088 0 0.999285
    outer loop
      vertex 51.0656 -153.372 49.986
      vertex 47.2544 -89.3721 49.8418
      vertex 47.2544 -153.372 49.8418
    endloop
  endfacet
  facet normal -0.234109 0 0.97221
    outer loop
      vertex 51.0656 -89.3721 49.986
      vertex 54.8621 -153.372 50.9002
      vertex 54.8621 -89.3721 50.9002
    endloop
  endfacet
  facet normal -0.234109 0 0.97221
    outer loop
      vertex 54.8621 -153.372 50.9002
      vertex 51.0656 -89.3721 49.986
      vertex 51.0656 -153.372 49.986
    endloop
  endfacet
  facet normal -0.397571 0 0.917571
    outer loop
      vertex 54.8621 -89.3721 50.9002
      vertex 55.5044 -153.372 51.1785
      vertex 55.5044 -89.3721 51.1785
    endloop
  endfacet
  facet normal -0.397571 0 0.917571
    outer loop
      vertex 55.5044 -153.372 51.1785
      vertex 54.8621 -89.3721 50.9002
      vertex 54.8621 -153.372 50.9002
    endloop
  endfacet
  facet normal -0.305022 0 0.952345
    outer loop
      vertex 55.5044 -89.3721 51.1785
      vertex 58.7821 -153.372 52.2283
      vertex 58.7821 -89.3721 52.2283
    endloop
  endfacet
  facet normal -0.305022 0 0.952345
    outer loop
      vertex 58.7821 -153.372 52.2283
      vertex 55.5044 -89.3721 51.1785
      vertex 55.5044 -153.372 51.1785
    endloop
  endfacet
  facet normal -0.446299 0 0.894884
    outer loop
      vertex 58.7821 -89.3721 52.2283
      vertex 59.4085 -153.372 52.5407
      vertex 59.4085 -89.3721 52.5407
    endloop
  endfacet
  facet normal -0.446299 0 0.894884
    outer loop
      vertex 59.4085 -153.372 52.5407
      vertex 58.7821 -89.3721 52.2283
      vertex 58.7821 -153.372 52.2283
    endloop
  endfacet
  facet normal -0.578968 0 0.81535
    outer loop
      vertex 25.2977 -89.3721 54.2419
      vertex 26.4508 -153.372 55.0607
      vertex 26.4508 -89.3721 55.0607
    endloop
  endfacet
  facet normal -0.578968 0 0.81535
    outer loop
      vertex 26.4508 -153.372 55.0607
      vertex 25.2977 -89.3721 54.2419
      vertex 25.2977 -153.372 54.2419
    endloop
  endfacet
  facet normal -0.995253 0 0.0973249
    outer loop
      vertex 24.4911 -153.372 46
      vertex 25.2961 -89.3721 54.232
      vertex 24.4911 -89.3721 46
    endloop
  endfacet
  facet normal -0.995253 0 0.0973249
    outer loop
      vertex 25.2961 -89.3721 54.232
      vertex 24.4911 -153.372 46
      vertex 25.2961 -153.372 54.232
    endloop
  endfacet
  facet normal -0.987191 0 0.159546
    outer loop
      vertex 25.2961 -153.372 54.232
      vertex 25.2977 -89.3721 54.2419
      vertex 25.2961 -89.3721 54.232
    endloop
  endfacet
  facet normal -0.987191 0 0.159546
    outer loop
      vertex 25.2977 -89.3721 54.2419
      vertex 25.2961 -153.372 54.232
      vertex 25.2977 -153.372 54.2419
    endloop
  endfacet
  facet normal -0.472726 0.577351 0.66573
    outer loop
      vertex 26.2837 -88.3721 54.0748
      vertex 25.2977 -89.3721 54.2419
      vertex 26.4508 -89.3721 55.0607
    endloop
  endfacet
  facet normal -0.566063 0.818611 0.0972027
    outer loop
      vertex 25.7113 -87.8091 46
      vertex 26.282 -88.3721 54.0649
      vertex 26.2837 -88.3721 54.0748
    endloop
  endfacet
  facet normal -0.445247 0.890495 0.0936715
    outer loop
      vertex 26.282 -88.3721 54.0649
      vertex 25.7113 -87.8091 46
      vertex 25.7111 -87.8092 46
    endloop
  endfacet
  facet normal -0.696921 0.707092 0.119673
    outer loop
      vertex 26.282 -88.3721 54.0649
      vertex 25.2961 -89.3721 54.232
      vertex 26.2837 -88.3721 54.0748
    endloop
  endfacet
  facet normal -0.708751 0.698714 0.0973153
    outer loop
      vertex 25.5165 -88.002 46
      vertex 24.7229 -88.807 46
      vertex 25.2961 -89.3721 54.232
    endloop
  endfacet
  facet normal -0.921426 0.377962 0.0901054
    outer loop
      vertex 24.7229 -88.807 46
      vertex 24.4911 -89.3721 46
      vertex 25.2961 -89.3721 54.232
    endloop
  endfacet
  facet normal -0.384357 0.918659 0.0912977
    outer loop
      vertex 26.2823 -87.5702 46
      vertex 25.7113 -87.8091 46
      vertex 26.2837 -88.3721 54.0748
    endloop
  endfacet
  facet normal 0 0.995105 0.0988228
    outer loop
      vertex 27.8649 -87.5702 46
      vertex 26.2823 -87.5702 46
      vertex 26.2837 -88.3721 54.0748
    endloop
  endfacet
  facet normal -0.700362 0.706901 0.0989164
    outer loop
      vertex 25.5165 -88.002 46
      vertex 26.282 -88.3721 54.0649
      vertex 25.7111 -87.8092 46
    endloop
  endfacet
  facet normal -0.700304 0.706958 0.0989136
    outer loop
      vertex 26.282 -88.3721 54.0649
      vertex 25.5165 -88.002 46
      vertex 25.2961 -89.3721 54.232
    endloop
  endfacet
  facet normal -0.698039 0.707117 0.112814
    outer loop
      vertex 26.2837 -88.3721 54.0748
      vertex 25.2961 -89.3721 54.232
      vertex 25.2977 -89.3721 54.2419
    endloop
  endfacet
  facet normal 0.0171102 0.994623 0.102143
    outer loop
      vertex 27.8649 -87.5702 46
      vertex 26.9738 -88.3721 53.9578
      vertex 27.9986 -87.5725 46
    endloop
  endfacet
  facet normal 0.0173213 0.994617 0.102166
    outer loop
      vertex 26.9738 -88.3721 53.9578
      vertex 27.8649 -87.5702 46
      vertex 26.2837 -88.3721 54.0748
    endloop
  endfacet
  facet normal 0.118101 0.707093 0.697189
    outer loop
      vertex 27.1409 -89.3721 54.9438
      vertex 26.2837 -88.3721 54.0748
      vertex 26.4508 -89.3721 55.0607
    endloop
  endfacet
  facet normal 0.118193 0.707128 0.697138
    outer loop
      vertex 26.2837 -88.3721 54.0748
      vertex 27.1409 -89.3721 54.9438
      vertex 26.9738 -88.3721 53.9578
    endloop
  endfacet
  facet normal 0.0952598 0.706938 0.700831
    outer loop
      vertex 30.3757 -88.3721 53.4954
      vertex 26.9738 -88.3721 53.9578
      vertex 27.1409 -89.3721 54.9438
    endloop
  endfacet
  facet normal 0.0145484 0.994189 0.106665
    outer loop
      vertex 30.6882 -87.5725 46
      vertex 30.3757 -88.3721 53.4954
      vertex 31.3579 -87.5823 46
    endloop
  endfacet
  facet normal 0.0144981 0.994189 0.106663
    outer loop
      vertex 30.3757 -88.3721 53.4954
      vertex 30.6882 -87.5725 46
      vertex 26.9738 -88.3721 53.9578
    endloop
  endfacet
  facet normal 0.205947 0.707132 0.676425
    outer loop
      vertex 31.2022 -88.9106 53.8066
      vertex 30.667 -89.3721 54.452
      vertex 31.3367 -89.3721 54.2481
    endloop
  endfacet
  facet normal 0.206003 0.707096 0.676445
    outer loop
      vertex 30.667 -89.3721 54.452
      vertex 31.2022 -88.9106 53.8066
      vertex 30.3757 -88.3721 53.4954
    endloop
  endfacet
  facet normal 0.0982818 0.702706 0.704659
    outer loop
      vertex 30.3757 -88.3721 53.4954
      vertex 27.1409 -89.3721 54.9438
      vertex 30.667 -89.3721 54.452
    endloop
  endfacet
  facet normal -0 0.99499 0.0999766
    outer loop
      vertex 27.9986 -87.5725 46
      vertex 26.9738 -88.3721 53.9578
      vertex 30.6882 -87.5725 46
    endloop
  endfacet
  facet normal 0.205967 0.707065 0.676488
    outer loop
      vertex 31.0454 -88.3721 53.2915
      vertex 30.3757 -88.3721 53.4954
      vertex 31.2022 -88.9106 53.8066
    endloop
  endfacet
  facet normal 0.033842 0.99319 0.111485
    outer loop
      vertex 31.8868 -87.5823 46
      vertex 31.0454 -88.3721 53.2915
      vertex 32.0218 -87.5869 46
    endloop
  endfacet
  facet normal 0.0339469 0.993185 0.111497
    outer loop
      vertex 31.0454 -88.3721 53.2915
      vertex 31.8868 -87.5823 46
      vertex 30.3757 -88.3721 53.4954
    endloop
  endfacet
  facet normal -0 0.994494 0.104791
    outer loop
      vertex 31.3579 -87.5823 46
      vertex 30.3757 -88.3721 53.4954
      vertex 31.8868 -87.5823 46
    endloop
  endfacet
  facet normal 0.0275559 0.992323 0.120568
    outer loop
      vertex 34.6726 -87.5869 46
      vertex 31.0454 -88.3721 53.2915
      vertex 34.4779 -88.3721 52.507
    endloop
  endfacet
  facet normal 0.0275221 0.992324 0.120567
    outer loop
      vertex 34.6726 -87.5869 46
      vertex 34.4779 -88.3721 52.507
      vertex 35.3865 -87.6067 46
    endloop
  endfacet
  facet normal 0.1621 0.700636 0.694862
    outer loop
      vertex 31.3367 -89.3721 54.2481
      vertex 34.8856 -89.3721 53.4202
      vertex 34.4779 -88.3721 52.507
    endloop
  endfacet
  facet normal -0 0.994252 0.107068
    outer loop
      vertex 32.0218 -87.5869 46
      vertex 31.0454 -88.3721 53.2915
      vertex 34.6726 -87.5869 46
    endloop
  endfacet
  facet normal 0.157722 0.706238 0.690182
    outer loop
      vertex 34.4779 -88.3721 52.507
      vertex 31.2022 -88.9106 53.8066
      vertex 31.3367 -89.3721 54.2481
    endloop
  endfacet
  facet normal 0.157754 0.706178 0.690237
    outer loop
      vertex 31.2022 -88.9106 53.8066
      vertex 34.4779 -88.3721 52.507
      vertex 31.0454 -88.3721 53.2915
    endloop
  endfacet
  facet normal 0.288296 0.70709 0.645685
    outer loop
      vertex 35.4643 -89.2237 52.9993
      vertex 34.8856 -89.3721 53.4202
      vertex 35.5248 -89.3721 53.1348
    endloop
  endfacet
  facet normal 0.0578603 0.989976 0.128843
    outer loop
      vertex 35.8757 -87.6067 46
      vertex 35.1171 -88.3721 52.2217
      vertex 36.016 -87.6149 46
    endloop
  endfacet
  facet normal 0.0574888 0.990003 0.128801
    outer loop
      vertex 35.1171 -88.3721 52.2217
      vertex 35.8757 -87.6067 46
      vertex 34.4779 -88.3721 52.507
    endloop
  endfacet
  facet normal 0.288193 0.707134 0.645683
    outer loop
      vertex 35.1171 -88.3721 52.2217
      vertex 34.4779 -88.3721 52.507
      vertex 34.8856 -89.3721 53.4202
    endloop
  endfacet
  facet normal 0.288285 0.707104 0.645675
    outer loop
      vertex 35.1171 -88.3721 52.2217
      vertex 34.8856 -89.3721 53.4202
      vertex 35.4643 -89.2237 52.9993
    endloop
  endfacet
  facet normal -0 0.993153 0.116822
    outer loop
      vertex 35.3865 -87.6067 46
      vertex 34.4779 -88.3721 52.507
      vertex 35.8757 -87.6067 46
    endloop
  endfacet
  facet normal 0.044368 0.988449 0.144917
    outer loop
      vertex 38.5714 -87.6149 46
      vertex 38.5156 -88.3721 51.1818
      vertex 39.3556 -87.6501 46
    endloop
  endfacet
  facet normal 0.0443427 0.98845 0.144917
    outer loop
      vertex 38.5156 -88.3721 51.1818
      vertex 38.5714 -87.6149 46
      vertex 35.1171 -88.3721 52.2217
    endloop
  endfacet
  facet normal 0.209452 0.702311 0.680359
    outer loop
      vertex 38.5156 -88.3721 51.1818
      vertex 35.5248 -89.3721 53.1348
      vertex 38.9618 -89.3721 52.0767
    endloop
  endfacet
  facet normal -0 0.992675 0.120812
    outer loop
      vertex 36.016 -87.6149 46
      vertex 35.1171 -88.3721 52.2217
      vertex 38.5714 -87.6149 46
    endloop
  endfacet
  facet normal 0.207681 0.704417 0.678723
    outer loop
      vertex 35.4643 -89.2237 52.9993
      vertex 38.5156 -88.3721 51.1818
      vertex 35.1171 -88.3721 52.2217
    endloop
  endfacet
  facet normal 0.207691 0.704405 0.678733
    outer loop
      vertex 38.5156 -88.3721 51.1818
      vertex 35.4643 -89.2237 52.9993
      vertex 35.5248 -89.3721 53.1348
    endloop
  endfacet
  facet normal 0.31547 0.707096 0.632846
    outer loop
      vertex 39.348 -88.8336 51.2825
      vertex 38.5156 -88.3721 51.1818
      vertex 38.9618 -89.3721 52.0767
    endloop
  endfacet
  facet normal 0.315467 0.707091 0.632853
    outer loop
      vertex 38.5156 -88.3721 51.1818
      vertex 39.348 -88.8336 51.2825
      vertex 39.1421 -88.3721 50.8695
    endloop
  endfacet
  facet normal 0.315516 0.707071 0.632851
    outer loop
      vertex 39.348 -88.8336 51.2825
      vertex 38.9618 -89.3721 52.0767
      vertex 39.5882 -89.3721 51.7644
    endloop
  endfacet
  facet normal 0.0777796 0.984592 0.15662
    outer loop
      vertex 39.8079 -87.6501 46
      vertex 39.1421 -88.3721 50.8695
      vertex 39.9674 -87.6627 46
    endloop
  endfacet
  facet normal 0.0780915 0.984561 0.156658
    outer loop
      vertex 39.1421 -88.3721 50.8695
      vertex 39.8079 -87.6501 46
      vertex 38.5156 -88.3721 51.1818
    endloop
  endfacet
  facet normal -0 0.990432 0.138001
    outer loop
      vertex 39.3556 -87.6501 46
      vertex 38.5156 -88.3721 51.1818
      vertex 39.8079 -87.6501 46
    endloop
  endfacet
  facet normal 0.0567026 0.981989 0.180227
    outer loop
      vertex 42.3341 -87.6627 46
      vertex 39.1421 -88.3721 50.8695
      vertex 42.4226 -88.3721 49.8374
    endloop
  endfacet
  facet normal 0.0566682 0.981991 0.180229
    outer loop
      vertex 42.3341 -87.6627 46
      vertex 42.4226 -88.3721 49.8374
      vertex 43.2248 -87.7141 46
    endloop
  endfacet
  facet normal 0.212339 0.706684 0.674915
    outer loop
      vertex 42.4226 -88.3721 49.8374
      vertex 39.1421 -88.3721 50.8695
      vertex 42.7696 -89.3721 50.7753
    endloop
  endfacet
  facet normal 0.245381 0.707068 0.663206
    outer loop
      vertex 43.2393 -88.8336 50.0274
      vertex 42.7696 -89.3721 50.7753
      vertex 43.4261 -89.3721 50.5324
    endloop
  endfacet
  facet normal -0 0.989554 0.144161
    outer loop
      vertex 39.9674 -87.6627 46
      vertex 39.1421 -88.3721 50.8695
      vertex 42.3341 -87.6627 46
    endloop
  endfacet
  facet normal 0.245344 0.707089 0.663198
    outer loop
      vertex 43.1858 -88.6796 49.883
      vertex 42.7696 -89.3721 50.7753
      vertex 43.2393 -88.8336 50.0274
    endloop
  endfacet
  facet normal 0.2113 0.702471 0.679622
    outer loop
      vertex 39.348 -88.8336 51.2825
      vertex 42.7696 -89.3721 50.7753
      vertex 39.1421 -88.3721 50.8695
    endloop
  endfacet
  facet normal 0.2113 0.702455 0.679639
    outer loop
      vertex 42.7696 -89.3721 50.7753
      vertex 39.348 -88.8336 51.2825
      vertex 39.5882 -89.3721 51.7644
    endloop
  endfacet
  facet normal -0 0.985615 0.169004
    outer loop
      vertex 43.2248 -87.7141 46
      vertex 42.4226 -88.3721 49.8374
      vertex 43.6567 -87.7141 46
    endloop
  endfacet
  facet normal 0.0706487 0.979124 0.190589
    outer loop
      vertex 43.6567 -87.7141 46
      vertex 43.0791 -88.3721 49.5945
      vertex 43.8632 -87.729 46
    endloop
  endfacet
  facet normal 0.070509 0.979138 0.190569
    outer loop
      vertex 43.0791 -88.3721 49.5945
      vertex 43.6567 -87.7141 46
      vertex 42.4226 -88.3721 49.8374
    endloop
  endfacet
  facet normal 0.245364 0.707118 0.663159
    outer loop
      vertex 43.0791 -88.3721 49.5945
      vertex 42.4226 -88.3721 49.8374
      vertex 42.7696 -89.3721 50.7753
    endloop
  endfacet
  facet normal 0.245054 0.707221 0.663165
    outer loop
      vertex 43.0791 -88.3721 49.5945
      vertex 42.7696 -89.3721 50.7753
      vertex 43.1858 -88.6796 49.883
    endloop
  endfacet
  facet normal 0.037575 0.978062 0.204898
    outer loop
      vertex 45.9444 -87.729 46
      vertex 47.1576 -88.3721 48.8473
      vertex 47.248 -88.0412 47.2512
    endloop
  endfacet
  facet normal 0.0376121 0.978068 0.204861
    outer loop
      vertex 45.9444 -87.729 46
      vertex 47.248 -88.0412 47.2512
      vertex 47.1424 -87.9193 46.6886
    endloop
  endfacet
  facet normal 0.03758 0.978058 0.204914
    outer loop
      vertex 45.9444 -87.729 46
      vertex 47.1424 -87.9193 46.6886
      vertex 47.2431 -87.7789 46
    endloop
  endfacet
  facet normal 0.0375408 0.97806 0.204912
    outer loop
      vertex 47.1576 -88.3721 48.8473
      vertex 45.9444 -87.729 46
      vertex 43.0791 -88.3721 49.5945
    endloop
  endfacet
  facet normal 0.937126 0.348131 0.0244681
    outer loop
      vertex 43.4261 -89.3721 50.5324
      vertex 43.0791 -88.3721 49.5945
      vertex 43.1858 -88.6796 49.883
    endloop
  endfacet
  facet normal -0.171457 -0.704916 -0.688256
    outer loop
      vertex 43.2393 -88.8336 50.0274
      vertex 43.4261 -89.3721 50.5324
      vertex 43.1858 -88.6796 49.883
    endloop
  endfacet
  facet normal -0 0.984369 0.176116
    outer loop
      vertex 43.8632 -87.729 46
      vertex 43.0791 -88.3721 49.5945
      vertex 45.9444 -87.729 46
    endloop
  endfacet
  facet normal 0.126549 0.701329 0.701515
    outer loop
      vertex 47.2517 -89.3231 49.7933
      vertex 43.4261 -89.3721 50.5324
      vertex 47.2544 -89.3721 49.8418
    endloop
  endfacet
  facet normal 0.126353 0.702311 0.700568
    outer loop
      vertex 47.2501 -89.2875 49.7579
      vertex 43.4261 -89.3721 50.5324
      vertex 47.2517 -89.3231 49.7933
    endloop
  endfacet
  facet normal 0.126507 0.701601 0.701251
    outer loop
      vertex 43.4261 -89.3721 50.5324
      vertex 47.2501 -89.2875 49.7579
      vertex 43.0791 -88.3721 49.5945
    endloop
  endfacet
  facet normal 0.127636 0.70593 0.696686
    outer loop
      vertex 47.1576 -88.3721 48.8473
      vertex 43.0791 -88.3721 49.5945
      vertex 47.2501 -89.2875 49.7579
    endloop
  endfacet
  facet normal 0.0210144 0.977915 0.207943
    outer loop
      vertex 47.4925 -87.7804 46
      vertex 47.1424 -87.9193 46.6886
      vertex 47.248 -88.0412 47.2512
    endloop
  endfacet
  facet normal 0.0207485 0.977948 0.207815
    outer loop
      vertex 47.1424 -87.9193 46.6886
      vertex 47.4925 -87.7804 46
      vertex 47.4218 -87.7789 46
    endloop
  endfacet
  facet normal -0 0.97984 0.199782
    outer loop
      vertex 47.2431 -87.7789 46
      vertex 47.1424 -87.9193 46.6886
      vertex 47.4218 -87.7789 46
    endloop
  endfacet
  facet normal -0.0273406 0.703524 0.710146
    outer loop
      vertex 47.1576 -88.3721 48.8473
      vertex 51.2481 -88.4026 49.035
      vertex 51.2537 -88.3721 49.005
    endloop
  endfacet
  facet normal -0.0275903 0.70422 0.709446
    outer loop
      vertex 51.2481 -88.4026 49.035
      vertex 47.2501 -89.2875 49.7579
      vertex 47.2517 -89.3231 49.7933
    endloop
  endfacet
  facet normal -0.027337 0.703592 0.710078
    outer loop
      vertex 51.2481 -88.4026 49.035
      vertex 47.1576 -88.3721 48.8473
      vertex 47.2501 -89.2875 49.7579
    endloop
  endfacet
  facet normal -0.0268963 0.702672 0.711006
    outer loop
      vertex 47.2517 -89.3231 49.7933
      vertex 51.0656 -89.3721 49.986
      vertex 51.0785 -89.2687 49.8843
    endloop
  endfacet
  facet normal -0.0268972 0.702575 0.711101
    outer loop
      vertex 47.2517 -89.3231 49.7933
      vertex 51.0785 -89.2687 49.8843
      vertex 51.2481 -88.4026 49.035
    endloop
  endfacet
  facet normal -0.0269091 0.702467 0.711207
    outer loop
      vertex 51.0656 -89.3721 49.986
      vertex 47.2517 -89.3231 49.7933
      vertex 47.2544 -89.3721 49.8418
    endloop
  endfacet
  facet normal -0 0.980618 0.19593
    outer loop
      vertex 48.7081 -87.7707 46
      vertex 51.2088 -88.2374 48.3358
      vertex 50.6138 -87.7707 46
    endloop
  endfacet
  facet normal 2.58244e-05 0.980623 0.195904
    outer loop
      vertex 51.2088 -88.2374 48.3358
      vertex 48.7081 -87.7707 46
      vertex 51.2607 -88.3451 48.8749
    endloop
  endfacet
  facet normal -0.00780757 0.97919 0.202794
    outer loop
      vertex 51.2607 -88.3451 48.8749
      vertex 47.1576 -88.3721 48.8473
      vertex 51.2537 -88.3721 49.005
    endloop
  endfacet
  facet normal -0.00780638 0.979236 0.202571
    outer loop
      vertex 51.2607 -88.3451 48.8749
      vertex 47.248 -88.0412 47.2512
      vertex 47.1576 -88.3721 48.8473
    endloop
  endfacet
  facet normal -0.00781261 0.979233 0.202586
    outer loop
      vertex 48.7081 -87.7707 46
      vertex 47.248 -88.0412 47.2512
      vertex 51.2607 -88.3451 48.8749
    endloop
  endfacet
  facet normal -0.00781389 0.979234 0.202584
    outer loop
      vertex 47.248 -88.0412 47.2512
      vertex 48.7081 -87.7707 46
      vertex 47.4925 -87.7804 46
    endloop
  endfacet
  facet normal -0.040997 0.97774 0.205774
    outer loop
      vertex 50.6138 -87.7707 46
      vertex 51.5723 -88.1199 47.8502
      vertex 50.8666 -87.7601 46
    endloop
  endfacet
  facet normal -0.0410913 0.977727 0.20582
    outer loop
      vertex 51.5723 -88.1199 47.8502
      vertex 50.6138 -87.7707 46
      vertex 51.2088 -88.2374 48.3358
    endloop
  endfacet
  facet normal 0 0.981612 0.19089
    outer loop
      vertex 51.1969 -87.7601 46
      vertex 50.8666 -87.7601 46
      vertex 51.5723 -88.1199 47.8502
    endloop
  endfacet
  facet normal -0.167716 0.706778 0.687267
    outer loop
      vertex 55.2597 -88.3721 49.9826
      vertex 51.2481 -88.4026 49.035
      vertex 51.0785 -89.2687 49.8843
    endloop
  endfacet
  facet normal -0.167715 0.706786 0.687259
    outer loop
      vertex 51.2481 -88.4026 49.035
      vertex 55.2597 -88.3721 49.9826
      vertex 51.2537 -88.3721 49.005
    endloop
  endfacet
  facet normal -0.16674 0.701937 0.692447
    outer loop
      vertex 51.0785 -89.2687 49.8843
      vertex 54.8621 -89.3721 50.9002
      vertex 54.9503 -89.1504 50.6967
    endloop
  endfacet
  facet normal -0.166768 0.701772 0.692607
    outer loop
      vertex 51.0785 -89.2687 49.8843
      vertex 54.9503 -89.1504 50.6967
      vertex 55.2597 -88.3721 49.9826
    endloop
  endfacet
  facet normal -0.16675 0.7019 0.692482
    outer loop
      vertex 54.8621 -89.3721 50.9002
      vertex 51.0785 -89.2687 49.8843
      vertex 51.0656 -89.3721 49.986
    endloop
  endfacet
  facet normal -0.0489132 0.978485 0.200436
    outer loop
      vertex 55.2597 -88.3721 49.9826
      vertex 51.2607 -88.3451 48.8749
      vertex 51.2537 -88.3721 49.005
    endloop
  endfacet
  facet normal -0.0488476 0.978536 0.200201
    outer loop
      vertex 51.5723 -88.1199 47.8502
      vertex 51.2607 -88.3451 48.8749
      vertex 55.2597 -88.3721 49.9826
    endloop
  endfacet
  facet normal -0.0488687 0.978537 0.200194
    outer loop
      vertex 51.2607 -88.3451 48.8749
      vertex 51.5723 -88.1199 47.8502
      vertex 51.2088 -88.2374 48.3358
    endloop
  endfacet
  facet normal -0.0488665 0.978529 0.200232
    outer loop
      vertex 52.2832 -87.7058 46
      vertex 51.5723 -88.1199 47.8502
      vertex 55.2597 -88.3721 49.9826
    endloop
  endfacet
  facet normal -0.048913 0.97853 0.200215
    outer loop
      vertex 51.5723 -88.1199 47.8502
      vertex 52.2832 -87.7058 46
      vertex 51.1969 -87.7601 46
    endloop
  endfacet
  facet normal 0 0.986292 0.165009
    outer loop
      vertex 54.465 -87.7058 46
      vertex 52.2832 -87.7058 46
      vertex 55.2597 -88.3721 49.9826
    endloop
  endfacet
  facet normal -0.281234 0.707082 0.6488
    outer loop
      vertex 55.2597 -88.3721 49.9826
      vertex 54.9503 -89.1504 50.6967
      vertex 55.5044 -89.3721 51.1785
    endloop
  endfacet
  facet normal -0.28112 0.70712 0.648809
    outer loop
      vertex 55.902 -88.3721 50.2609
      vertex 55.2597 -88.3721 49.9826
      vertex 55.5044 -89.3721 51.1785
    endloop
  endfacet
  facet normal 0 0.987464 0.157845
    outer loop
      vertex 55.0896 -87.691 46
      vertex 54.6521 -87.691 46
      vertex 55.902 -88.3721 50.2609
    endloop
  endfacet
  facet normal -0.0778108 0.980661 0.179583
    outer loop
      vertex 54.6521 -87.691 46
      vertex 55.2597 -88.3721 49.9826
      vertex 55.902 -88.3721 50.2609
    endloop
  endfacet
  facet normal -0.0775743 0.980685 0.179551
    outer loop
      vertex 55.2597 -88.3721 49.9826
      vertex 54.6521 -87.691 46
      vertex 54.465 -87.7058 46
    endloop
  endfacet
  facet normal -0.21694 0.702964 0.677332
    outer loop
      vertex 59.2284 -88.3721 51.3334
      vertex 55.5044 -89.3721 51.1785
      vertex 58.7821 -89.3721 52.2283
    endloop
  endfacet
  facet normal -0.217493 0.705453 0.674562
    outer loop
      vertex 55.902 -88.3721 50.2609
      vertex 55.5044 -89.3721 51.1785
      vertex 59.2284 -88.3721 51.3334
    endloop
  endfacet
  facet normal -0.0540581 0.984361 0.167663
    outer loop
      vertex 55.9394 -87.6443 46
      vertex 55.902 -88.3721 50.2609
      vertex 59.2284 -88.3721 51.3334
    endloop
  endfacet
  facet normal -0.0540946 0.984359 0.167663
    outer loop
      vertex 55.902 -88.3721 50.2609
      vertex 55.9394 -87.6443 46
      vertex 55.0896 -87.691 46
    endloop
  endfacet
  facet normal 0 0.990817 0.135208
    outer loop
      vertex 58.3817 -87.6443 46
      vertex 55.9394 -87.6443 46
      vertex 59.2284 -88.3721 51.3334
    endloop
  endfacet
  facet normal -0.281067 0.707253 0.648687
    outer loop
      vertex 54.9503 -89.1504 50.6967
      vertex 54.8621 -89.3721 50.9002
      vertex 55.5044 -89.3721 51.1785
    endloop
  endfacet
  facet normal 0.240599 0.962398 0.126105
    outer loop
      vertex 59.8581 -87.6332 46
      vertex 59.8593 -88.3721 51.6368
      vertex 59.8593 -87.6335 46
    endloop
  endfacet
  facet normal 0.251486 0.959658 0.125743
    outer loop
      vertex 59.8593 -88.3721 51.6368
      vertex 59.8581 -87.6332 46
      vertex 59.8548 -88.3721 51.6458
    endloop
  endfacet
  facet normal -0.315579 0.707112 0.632774
    outer loop
      vertex 59.2284 -88.3721 51.3334
      vertex 58.7821 -89.3721 52.2283
      vertex 59.8548 -88.3721 51.6458
    endloop
  endfacet
  facet normal -0.315579 0.707112 0.632774
    outer loop
      vertex 59.8548 -88.3721 51.6458
      vertex 58.7821 -89.3721 52.2283
      vertex 59.4085 -89.3721 52.5407
    endloop
  endfacet
  facet normal 0 0.991544 0.129769
    outer loop
      vertex 59.8581 -87.6332 46
      vertex 58.5323 -87.6332 46
      vertex 59.8548 -88.3721 51.6458
    endloop
  endfacet
  facet normal -0.0729117 0.986565 0.146197
    outer loop
      vertex 58.5323 -87.6332 46
      vertex 59.2284 -88.3721 51.3334
      vertex 59.8548 -88.3721 51.6458
    endloop
  endfacet
  facet normal -0.0727163 0.986583 0.146174
    outer loop
      vertex 59.2284 -88.3721 51.3334
      vertex 58.5323 -87.6332 46
      vertex 58.3817 -87.6443 46
    endloop
  endfacet
  facet normal 0.259052 0.57733 0.774327
    outer loop
      vertex 59.8548 -88.3721 51.6458
      vertex 59.4085 -89.3721 52.5407
      vertex 60.7497 -89.3721 52.092
    endloop
  endfacet
  facet normal 0.709298 0.692858 0.129783
    outer loop
      vertex 59.8593 -88.3721 51.6368
      vertex 60.6414 -88.1169 46
      vertex 60.4096 -87.8796 46
    endloop
  endfacet
  facet normal 0.709398 0.692754 0.129792
    outer loop
      vertex 60.6414 -88.1169 46
      vertex 59.8593 -88.3721 51.6368
      vertex 60.7542 -89.3721 52.083
    endloop
  endfacet
  facet normal 0.992425 0 0.12285
    outer loop
      vertex 60.7542 -89.3721 52.083
      vertex 61.5072 -153.372 46
      vertex 61.5072 -89.3721 46
    endloop
  endfacet
  facet normal 0.992425 0 0.12285
    outer loop
      vertex 61.5072 -153.372 46
      vertex 60.7542 -89.3721 52.083
      vertex 60.7542 -153.372 52.083
    endloop
  endfacet
  facet normal 0.405356 0.906411 0.118769
    outer loop
      vertex 59.8593 -87.6335 46
      vertex 59.8593 -88.3721 51.6368
      vertex 60.4096 -87.8796 46
    endloop
  endfacet
  facet normal 0.894427 -0 0.447214
    outer loop
      vertex 60.7497 -153.372 52.092
      vertex 60.7542 -89.3721 52.083
      vertex 60.7497 -89.3721 52.092
    endloop
  endfacet
  facet normal 0.894427 0 0.447214
    outer loop
      vertex 60.7542 -89.3721 52.083
      vertex 60.7497 -153.372 52.092
      vertex 60.7542 -153.372 52.083
    endloop
  endfacet
  facet normal 0.317267 0 0.948336
    outer loop
      vertex 59.4085 -89.3721 52.5407
      vertex 60.7497 -153.372 52.092
      vertex 60.7497 -89.3721 52.092
    endloop
  endfacet
  facet normal 0.317267 0 0.948336
    outer loop
      vertex 60.7497 -153.372 52.092
      vertex 59.4085 -89.3721 52.5407
      vertex 59.4085 -153.372 52.5407
    endloop
  endfacet
  facet normal 0.632465 0.707096 0.316233
    outer loop
      vertex 60.7542 -89.3721 52.083
      vertex 59.8548 -88.3721 51.6458
      vertex 60.7497 -89.3721 52.092
    endloop
  endfacet
  facet normal 0.632465 0.707096 0.316233
    outer loop
      vertex 59.8548 -88.3721 51.6458
      vertex 60.7542 -89.3721 52.083
      vertex 59.8593 -88.3721 51.6368
    endloop
  endfacet
  facet normal 0.739516 0.661833 0.122853
    outer loop
      vertex 61.3153 -88.8699 46
      vertex 60.6414 -88.1169 46
      vertex 60.7542 -89.3721 52.083
    endloop
  endfacet
  facet normal 0.927942 0.354584 0.114868
    outer loop
      vertex 61.3153 -88.8699 46
      vertex 60.7542 -89.3721 52.083
      vertex 61.5072 -89.3721 46
    endloop
  endfacet
  facet normal 0.632465 -0.707096 0.316233
    outer loop
      vertex 59.8548 -154.372 51.6458
      vertex 60.7542 -153.372 52.083
      vertex 60.7497 -153.372 52.092
    endloop
  endfacet
  facet normal 0.632465 -0.707096 0.316233
    outer loop
      vertex 60.7542 -153.372 52.083
      vertex 59.8548 -154.372 51.6458
      vertex 59.8593 -154.372 51.6368
    endloop
  endfacet
  facet normal 0.259052 -0.57733 0.774327
    outer loop
      vertex 60.7497 -153.372 52.092
      vertex 59.4085 -153.372 52.5407
      vertex 59.8548 -154.372 51.6458
    endloop
  endfacet
  facet normal 0.739518 -0.661835 0.122832
    outer loop
      vertex 60.7542 -153.372 52.083
      vertex 60.6414 -154.627 46
      vertex 61.3153 -153.874 46
    endloop
  endfacet
  facet normal 0 -0.991542 0.129787
    outer loop
      vertex 59.8548 -154.372 51.6458
      vertex 58.5323 -155.111 46
      vertex 59.8581 -155.111 46
    endloop
  endfacet
  facet normal 0.927895 -0.354707 0.114862
    outer loop
      vertex 61.5072 -153.372 46
      vertex 60.7542 -153.372 52.083
      vertex 61.3153 -153.874 46
    endloop
  endfacet
  facet normal 0.251518 -0.959648 0.125759
    outer loop
      vertex 59.8581 -155.111 46
      vertex 59.8593 -154.372 51.6368
      vertex 59.8548 -154.372 51.6458
    endloop
  endfacet
  facet normal 0 -0.991515 0.12999
    outer loop
      vertex 59.8593 -154.372 51.6368
      vertex 59.8581 -155.111 46
      vertex 59.8593 -155.111 46
    endloop
  endfacet
  facet normal 0.405216 -0.906464 0.11884
    outer loop
      vertex 59.8593 -154.372 51.6368
      vertex 59.8593 -155.111 46
      vertex 60.4096 -154.865 46
    endloop
  endfacet
  facet normal 0.709406 -0.69275 0.129768
    outer loop
      vertex 59.8593 -154.372 51.6368
      vertex 60.6414 -154.627 46
      vertex 60.7542 -153.372 52.083
    endloop
  endfacet
  facet normal 0.710311 -0.691807 0.129851
    outer loop
      vertex 60.6414 -154.627 46
      vertex 59.8593 -154.372 51.6368
      vertex 60.4096 -154.865 46
    endloop
  endfacet
  facet normal -0.0720653 -0.986639 0.146115
    outer loop
      vertex 58.5323 -155.111 46
      vertex 59.2284 -154.372 51.3334
      vertex 58.3817 -155.1 46
    endloop
  endfacet
  facet normal -0.0729214 -0.986561 0.146216
    outer loop
      vertex 59.2284 -154.372 51.3334
      vertex 58.5323 -155.111 46
      vertex 59.8548 -154.372 51.6458
    endloop
  endfacet
  facet normal -0.315579 -0.707112 0.632774
    outer loop
      vertex 58.7821 -153.372 52.2283
      vertex 59.2284 -154.372 51.3334
      vertex 59.8548 -154.372 51.6458
    endloop
  endfacet
  facet normal -0.315579 -0.707112 0.632774
    outer loop
      vertex 59.4085 -153.372 52.5407
      vertex 58.7821 -153.372 52.2283
      vertex 59.8548 -154.372 51.6458
    endloop
  endfacet
  facet normal -0.281257 -0.706775 0.649126
    outer loop
      vertex 55.5044 -153.372 51.1785
      vertex 54.8621 -153.372 50.9002
      vertex 54.9503 -153.594 50.6967
    endloop
  endfacet
  facet normal -0.21694 -0.702964 0.677332
    outer loop
      vertex 58.7821 -153.372 52.2283
      vertex 55.5044 -153.372 51.1785
      vertex 59.2284 -154.372 51.3334
    endloop
  endfacet
  facet normal 0 -0.990812 0.135244
    outer loop
      vertex 59.2284 -154.372 51.3334
      vertex 55.9394 -155.1 46
      vertex 58.3817 -155.1 46
    endloop
  endfacet
  facet normal -0.217493 -0.705453 0.674562
    outer loop
      vertex 59.2284 -154.372 51.3334
      vertex 55.5044 -153.372 51.1785
      vertex 55.902 -154.372 50.2609
    endloop
  endfacet
  facet normal -0.0544407 -0.984334 0.167701
    outer loop
      vertex 55.9394 -155.1 46
      vertex 55.902 -154.372 50.2609
      vertex 55.0896 -155.053 46
    endloop
  endfacet
  facet normal -0.0540725 -0.984353 0.167708
    outer loop
      vertex 55.902 -154.372 50.2609
      vertex 55.9394 -155.1 46
      vertex 59.2284 -154.372 51.3334
    endloop
  endfacet
  facet normal -0.280823 -0.707219 0.64883
    outer loop
      vertex 55.5044 -153.372 51.1785
      vertex 54.9503 -153.594 50.6967
      vertex 55.2597 -154.372 49.9826
    endloop
  endfacet
  facet normal 0 -0.987468 0.157822
    outer loop
      vertex 55.902 -154.372 50.2609
      vertex 54.6521 -155.053 46
      vertex 55.0896 -155.053 46
    endloop
  endfacet
  facet normal -0.28112 -0.70712 0.648809
    outer loop
      vertex 55.5044 -153.372 51.1785
      vertex 55.2597 -154.372 49.9826
      vertex 55.902 -154.372 50.2609
    endloop
  endfacet
  facet normal -0.0786142 -0.980581 0.179667
    outer loop
      vertex 54.6521 -155.053 46
      vertex 55.2597 -154.372 49.9826
      vertex 54.465 -155.038 46
    endloop
  endfacet
  facet normal -0.0777998 -0.980666 0.179557
    outer loop
      vertex 55.2597 -154.372 49.9826
      vertex 54.6521 -155.053 46
      vertex 55.902 -154.372 50.2609
    endloop
  endfacet
  facet normal -0.166431 -0.703279 0.691158
    outer loop
      vertex 51.0785 -153.475 49.8843
      vertex 54.8621 -153.372 50.9002
      vertex 51.0656 -153.372 49.986
    endloop
  endfacet
  facet normal -0.166942 -0.701463 0.692877
    outer loop
      vertex 54.8621 -153.372 50.9002
      vertex 51.0785 -153.475 49.8843
      vertex 54.9503 -153.594 50.6967
    endloop
  endfacet
  facet normal -0.166863 -0.701921 0.692433
    outer loop
      vertex 54.9503 -153.594 50.6967
      vertex 51.0785 -153.475 49.8843
      vertex 55.2597 -154.372 49.9826
    endloop
  endfacet
  facet normal -0.167714 -0.706413 0.687643
    outer loop
      vertex 51.2481 -154.342 49.035
      vertex 55.2597 -154.372 49.9826
      vertex 51.0785 -153.475 49.8843
    endloop
  endfacet
  facet normal -0.166324 -0.712608 0.681561
    outer loop
      vertex 55.2597 -154.372 49.9826
      vertex 51.2481 -154.342 49.035
      vertex 51.2537 -154.372 49.005
    endloop
  endfacet
  facet normal 0 -0.986304 0.164937
    outer loop
      vertex 55.2597 -154.372 49.9826
      vertex 52.2832 -155.038 46
      vertex 54.465 -155.038 46
    endloop
  endfacet
  facet normal -0.0489132 -0.978485 0.200436
    outer loop
      vertex 51.2607 -154.399 48.8749
      vertex 55.2597 -154.372 49.9826
      vertex 51.2537 -154.372 49.005
    endloop
  endfacet
  facet normal -0.0470322 -0.978551 0.200565
    outer loop
      vertex 51.5723 -154.624 47.8502
      vertex 51.2607 -154.399 48.8749
      vertex 51.2088 -154.507 48.3358
    endloop
  endfacet
  facet normal -0.0488007 -0.978573 0.200032
    outer loop
      vertex 51.2607 -154.399 48.8749
      vertex 51.5723 -154.624 47.8502
      vertex 55.2597 -154.372 49.9826
    endloop
  endfacet
  facet normal -0.0486429 -0.978533 0.200266
    outer loop
      vertex 52.2832 -155.038 46
      vertex 51.5723 -154.624 47.8502
      vertex 51.1969 -154.984 46
    endloop
  endfacet
  facet normal -0.0488854 -0.97854 0.200175
    outer loop
      vertex 51.5723 -154.624 47.8502
      vertex 52.2832 -155.038 46
      vertex 55.2597 -154.372 49.9826
    endloop
  endfacet
  facet normal -0.040385 -0.97785 0.205372
    outer loop
      vertex 50.6138 -154.973 46
      vertex 51.5723 -154.624 47.8502
      vertex 51.2088 -154.507 48.3358
    endloop
  endfacet
  facet normal -0.0425352 -0.977537 0.206427
    outer loop
      vertex 51.5723 -154.624 47.8502
      vertex 50.6138 -154.973 46
      vertex 50.8666 -154.984 46
    endloop
  endfacet
  facet normal 0 -0.981592 0.190992
    outer loop
      vertex 51.5723 -154.624 47.8502
      vertex 50.8666 -154.984 46
      vertex 51.1969 -154.984 46
    endloop
  endfacet
  facet normal -0.000835773 -0.980502 0.196508
    outer loop
      vertex 48.7081 -154.973 46
      vertex 51.2088 -154.507 48.3358
      vertex 51.2607 -154.399 48.8749
    endloop
  endfacet
  facet normal 0 -0.980674 0.195648
    outer loop
      vertex 51.2088 -154.507 48.3358
      vertex 48.7081 -154.973 46
      vertex 50.6138 -154.973 46
    endloop
  endfacet
  facet normal -0.0269091 -0.702467 0.711207
    outer loop
      vertex 47.2517 -153.421 49.7933
      vertex 51.0656 -153.372 49.986
      vertex 47.2544 -153.372 49.8418
    endloop
  endfacet
  facet normal -0.02681 -0.704048 0.709647
    outer loop
      vertex 51.0656 -153.372 49.986
      vertex 47.2517 -153.421 49.7933
      vertex 51.0785 -153.475 49.8843
    endloop
  endfacet
  facet normal -0.0268274 -0.702199 0.711476
    outer loop
      vertex 51.0785 -153.475 49.8843
      vertex 47.2517 -153.421 49.7933
      vertex 51.2481 -154.342 49.035
    endloop
  endfacet
  facet normal -0.0260354 -0.700314 0.71336
    outer loop
      vertex 47.2501 -153.457 49.7579
      vertex 51.2481 -154.342 49.035
      vertex 47.2517 -153.421 49.7933
    endloop
  endfacet
  facet normal -0.027415 -0.703742 0.709927
    outer loop
      vertex 47.1576 -154.372 48.8473
      vertex 51.2481 -154.342 49.035
      vertex 47.2501 -153.457 49.7579
    endloop
  endfacet
  facet normal -0.027116 -0.709373 0.704311
    outer loop
      vertex 51.2481 -154.342 49.035
      vertex 47.1576 -154.372 48.8473
      vertex 51.2537 -154.372 49.005
    endloop
  endfacet
  facet normal -0.00780757 -0.97919 0.202794
    outer loop
      vertex 47.1576 -154.372 48.8473
      vertex 51.2607 -154.399 48.8749
      vertex 51.2537 -154.372 49.005
    endloop
  endfacet
  facet normal -0.00780669 -0.979224 0.20263
    outer loop
      vertex 47.248 -154.703 47.2512
      vertex 51.2607 -154.399 48.8749
      vertex 47.1576 -154.372 48.8473
    endloop
  endfacet
  facet normal -0.00724964 -0.979185 0.202841
    outer loop
      vertex 48.7081 -154.973 46
      vertex 47.248 -154.703 47.2512
      vertex 47.4925 -154.964 46
    endloop
  endfacet
  facet normal -0.00768887 -0.979283 0.20235
    outer loop
      vertex 47.248 -154.703 47.2512
      vertex 48.7081 -154.973 46
      vertex 51.2607 -154.399 48.8749
    endloop
  endfacet
  facet normal 0.0138437 -0.978746 0.204607
    outer loop
      vertex 47.4925 -154.964 46
      vertex 47.1424 -154.825 46.6886
      vertex 47.4218 -154.965 46
    endloop
  endfacet
  facet normal 0.0210593 -0.977881 0.208101
    outer loop
      vertex 47.1424 -154.825 46.6886
      vertex 47.4925 -154.964 46
      vertex 47.248 -154.703 47.2512
    endloop
  endfacet
  facet normal 0 -0.979952 0.199235
    outer loop
      vertex 47.4218 -154.965 46
      vertex 47.1424 -154.825 46.6886
      vertex 47.2431 -154.965 46
    endloop
  endfacet
  facet normal 0.0375352 -0.978067 0.204882
    outer loop
      vertex 45.9444 -155.015 46
      vertex 47.1576 -154.372 48.8473
      vertex 43.0791 -154.372 49.5945
    endloop
  endfacet
  facet normal 0.0373768 -0.978059 0.204947
    outer loop
      vertex 47.1576 -154.372 48.8473
      vertex 45.9444 -155.015 46
      vertex 47.248 -154.703 47.2512
    endloop
  endfacet
  facet normal 0.0372242 -0.978033 0.2051
    outer loop
      vertex 47.248 -154.703 47.2512
      vertex 45.9444 -155.015 46
      vertex 47.1424 -154.825 46.6886
    endloop
  endfacet
  facet normal 0.0376595 -0.978167 0.204379
    outer loop
      vertex 47.1424 -154.825 46.6886
      vertex 45.9444 -155.015 46
      vertex 47.2431 -154.965 46
    endloop
  endfacet
  facet normal 0.127608 -0.706085 0.696534
    outer loop
      vertex 47.2501 -153.457 49.7579
      vertex 43.0791 -154.372 49.5945
      vertex 47.1576 -154.372 48.8473
    endloop
  endfacet
  facet normal 0 -0.984374 0.176089
    outer loop
      vertex 45.9444 -155.015 46
      vertex 43.0791 -154.372 49.5945
      vertex 43.8632 -155.015 46
    endloop
  endfacet
  facet normal 0.126549 -0.701329 0.701515
    outer loop
      vertex 43.4261 -153.372 50.5324
      vertex 47.2517 -153.421 49.7933
      vertex 47.2544 -153.372 49.8418
    endloop
  endfacet
  facet normal 0.127146 -0.698317 0.704406
    outer loop
      vertex 43.4261 -153.372 50.5324
      vertex 47.2501 -153.457 49.7579
      vertex 47.2517 -153.421 49.7933
    endloop
  endfacet
  facet normal 0.126438 -0.701594 0.701269
    outer loop
      vertex 47.2501 -153.457 49.7579
      vertex 43.4261 -153.372 50.5324
      vertex 43.0791 -154.372 49.5945
    endloop
  endfacet
  facet normal 0.601261 0.425373 -0.676419
    outer loop
      vertex 43.2393 -153.911 50.0274
      vertex 43.1858 -154.065 49.883
      vertex 43.4261 -153.372 50.5324
    endloop
  endfacet
  facet normal 0.955347 -0.0601765 -0.289294
    outer loop
      vertex 43.0791 -154.372 49.5945
      vertex 43.4261 -153.372 50.5324
      vertex 43.1858 -154.065 49.883
    endloop
  endfacet
  facet normal 0 -0.985615 0.169004
    outer loop
      vertex 43.6567 -155.03 46
      vertex 42.4226 -154.372 49.8374
      vertex 43.2248 -155.03 46
    endloop
  endfacet
  facet normal 0.243312 -0.707794 0.663194
    outer loop
      vertex 43.1858 -154.065 49.883
      vertex 42.7696 -153.372 50.7753
      vertex 43.0791 -154.372 49.5945
    endloop
  endfacet
  facet normal 0.245364 -0.707118 0.663159
    outer loop
      vertex 42.7696 -153.372 50.7753
      vertex 42.4226 -154.372 49.8374
      vertex 43.0791 -154.372 49.5945
    endloop
  endfacet
  facet normal 0.070509 -0.979138 0.190569
    outer loop
      vertex 43.6567 -155.03 46
      vertex 43.0791 -154.372 49.5945
      vertex 42.4226 -154.372 49.8374
    endloop
  endfacet
  facet normal 0.0711194 -0.979077 0.190656
    outer loop
      vertex 43.0791 -154.372 49.5945
      vertex 43.6567 -155.03 46
      vertex 43.8632 -155.015 46
    endloop
  endfacet
  facet normal 0.244871 -0.707089 0.663373
    outer loop
      vertex 43.2393 -153.911 50.0274
      vertex 42.7696 -153.372 50.7753
      vertex 43.1858 -154.065 49.883
    endloop
  endfacet
  facet normal 0 -0.989566 0.144081
    outer loop
      vertex 42.3341 -155.081 46
      vertex 39.1421 -154.372 50.8695
      vertex 39.9674 -155.081 46
    endloop
  endfacet
  facet normal 0.212339 -0.706684 0.674915
    outer loop
      vertex 39.1421 -154.372 50.8695
      vertex 42.4226 -154.372 49.8374
      vertex 42.7696 -153.372 50.7753
    endloop
  endfacet
  facet normal 0.0566717 -0.982009 0.180129
    outer loop
      vertex 39.1421 -154.372 50.8695
      vertex 42.3341 -155.081 46
      vertex 42.4226 -154.372 49.8374
    endloop
  endfacet
  facet normal 0.0562295 -0.982032 0.180144
    outer loop
      vertex 42.4226 -154.372 49.8374
      vertex 42.3341 -155.081 46
      vertex 43.2248 -155.03 46
    endloop
  endfacet
  facet normal 0.211397 -0.702125 0.67995
    outer loop
      vertex 39.348 -153.911 51.2825
      vertex 42.7696 -153.372 50.7753
      vertex 39.5882 -153.372 51.7644
    endloop
  endfacet
  facet normal 0.2114 -0.702876 0.679173
    outer loop
      vertex 42.7696 -153.372 50.7753
      vertex 39.348 -153.911 51.2825
      vertex 39.1421 -154.372 50.8695
    endloop
  endfacet
  facet normal 0.245495 -0.70674 0.663514
    outer loop
      vertex 43.4261 -153.372 50.5324
      vertex 42.7696 -153.372 50.7753
      vertex 43.2393 -153.911 50.0274
    endloop
  endfacet
  facet normal 0.315662 -0.706743 0.633144
    outer loop
      vertex 39.5882 -153.372 51.7644
      vertex 38.9618 -153.372 52.0767
      vertex 39.348 -153.911 51.2825
    endloop
  endfacet
  facet normal 0.315018 -0.707096 0.633071
    outer loop
      vertex 38.5156 -154.372 51.1818
      vertex 39.348 -153.911 51.2825
      vertex 38.9618 -153.372 52.0767
    endloop
  endfacet
  facet normal 0.315296 -0.707475 0.63251
    outer loop
      vertex 39.348 -153.911 51.2825
      vertex 38.5156 -154.372 51.1818
      vertex 39.1421 -154.372 50.8695
    endloop
  endfacet
  facet normal 0 -0.990432 0.138001
    outer loop
      vertex 39.8079 -155.094 46
      vertex 38.5156 -154.372 51.1818
      vertex 39.3556 -155.094 46
    endloop
  endfacet
  facet normal 0.0780915 -0.984561 0.156658
    outer loop
      vertex 39.8079 -155.094 46
      vertex 39.1421 -154.372 50.8695
      vertex 38.5156 -154.372 51.1818
    endloop
  endfacet
  facet normal 0.0802289 -0.984347 0.156919
    outer loop
      vertex 39.1421 -154.372 50.8695
      vertex 39.8079 -155.094 46
      vertex 39.9674 -155.081 46
    endloop
  endfacet
  facet normal 0.209452 -0.702311 0.680359
    outer loop
      vertex 35.5248 -153.372 53.1348
      vertex 38.5156 -154.372 51.1818
      vertex 38.9618 -153.372 52.0767
    endloop
  endfacet
  facet normal 0.208857 -0.70302 0.67981
    outer loop
      vertex 35.4643 -153.521 52.9993
      vertex 38.5156 -154.372 51.1818
      vertex 35.5248 -153.372 53.1348
    endloop
  endfacet
  facet normal 0.207608 -0.704667 0.678486
    outer loop
      vertex 38.5156 -154.372 51.1818
      vertex 35.4643 -153.521 52.9993
      vertex 35.1171 -154.372 52.2217
    endloop
  endfacet
  facet normal 0 -0.992679 0.12078
    outer loop
      vertex 38.5714 -155.129 46
      vertex 35.1171 -154.372 52.2217
      vertex 36.016 -155.129 46
    endloop
  endfacet
  facet normal 0.0443313 -0.988456 0.144879
    outer loop
      vertex 38.5714 -155.129 46
      vertex 38.5156 -154.372 51.1818
      vertex 35.1171 -154.372 52.2217
    endloop
  endfacet
  facet normal 0.0441167 -0.988465 0.144878
    outer loop
      vertex 38.5156 -154.372 51.1818
      vertex 38.5714 -155.129 46
      vertex 39.3556 -155.094 46
    endloop
  endfacet
  facet normal 0.288193 -0.707134 0.645683
    outer loop
      vertex 34.8856 -153.372 53.4202
      vertex 34.4779 -154.372 52.507
      vertex 35.1171 -154.372 52.2217
    endloop
  endfacet
  facet normal 0.287533 -0.707353 0.645738
    outer loop
      vertex 35.4643 -153.521 52.9993
      vertex 34.8856 -153.372 53.4202
      vertex 35.1171 -154.372 52.2217
    endloop
  endfacet
  facet normal 0.0574593 -0.990013 0.128735
    outer loop
      vertex 35.8757 -155.137 46
      vertex 35.1171 -154.372 52.2217
      vertex 34.4779 -154.372 52.507
    endloop
  endfacet
  facet normal 0.0564553 -0.990086 0.128621
    outer loop
      vertex 35.1171 -154.372 52.2217
      vertex 35.8757 -155.137 46
      vertex 36.016 -155.129 46
    endloop
  endfacet
  facet normal 0 -0.99316 0.116762
    outer loop
      vertex 35.8757 -155.137 46
      vertex 34.4779 -154.372 52.507
      vertex 35.3865 -155.137 46
    endloop
  endfacet
  facet normal 0.288877 -0.705662 0.646986
    outer loop
      vertex 35.5248 -153.372 53.1348
      vertex 34.8856 -153.372 53.4202
      vertex 35.4643 -153.521 52.9993
    endloop
  endfacet
  facet normal 0.1621 -0.700636 0.694862
    outer loop
      vertex 34.8856 -153.372 53.4202
      vertex 31.3367 -153.372 54.2481
      vertex 34.4779 -154.372 52.507
    endloop
  endfacet
  facet normal 0.157681 -0.706507 0.689917
    outer loop
      vertex 34.4779 -154.372 52.507
      vertex 31.2022 -153.834 53.8066
      vertex 31.0454 -154.372 53.2915
    endloop
  endfacet
  facet normal 0.158018 -0.705863 0.690499
    outer loop
      vertex 31.2022 -153.834 53.8066
      vertex 34.4779 -154.372 52.507
      vertex 31.3367 -153.372 54.2481
    endloop
  endfacet
  facet normal 0.027549 -0.992326 0.120538
    outer loop
      vertex 31.0454 -154.372 53.2915
      vertex 34.6726 -155.157 46
      vertex 34.4779 -154.372 52.507
    endloop
  endfacet
  facet normal 0.0277999 -0.992319 0.120544
    outer loop
      vertex 34.4779 -154.372 52.507
      vertex 34.6726 -155.157 46
      vertex 35.3865 -155.137 46
    endloop
  endfacet
  facet normal 0 -0.994255 0.107041
    outer loop
      vertex 34.6726 -155.157 46
      vertex 31.0454 -154.372 53.2915
      vertex 32.0218 -155.157 46
    endloop
  endfacet
  facet normal 0 -0.994491 0.104817
    outer loop
      vertex 31.8868 -155.162 46
      vertex 30.3757 -154.372 53.4954
      vertex 31.3579 -155.162 46
    endloop
  endfacet
  facet normal 0.0339554 -0.993181 0.111525
    outer loop
      vertex 31.8868 -155.162 46
      vertex 31.0454 -154.372 53.2915
      vertex 30.3757 -154.372 53.4954
    endloop
  endfacet
  facet normal 0.0367795 -0.993046 0.111836
    outer loop
      vertex 31.0454 -154.372 53.2915
      vertex 31.8868 -155.162 46
      vertex 32.0218 -155.157 46
    endloop
  endfacet
  facet normal 0.206059 -0.706749 0.676791
    outer loop
      vertex 30.667 -153.372 54.452
      vertex 31.2022 -153.834 53.8066
      vertex 31.3367 -153.372 54.2481
    endloop
  endfacet
  facet normal 0.20552 -0.707096 0.676592
    outer loop
      vertex 31.2022 -153.834 53.8066
      vertex 30.667 -153.372 54.452
      vertex 30.3757 -154.372 53.4954
    endloop
  endfacet
  facet normal 0.205871 -0.707394 0.676174
    outer loop
      vertex 31.2022 -153.834 53.8066
      vertex 30.3757 -154.372 53.4954
      vertex 31.0454 -154.372 53.2915
    endloop
  endfacet
  facet normal 0.0982818 -0.702706 0.704659
    outer loop
      vertex 30.667 -153.372 54.452
      vertex 27.1409 -153.372 54.9438
      vertex 30.3757 -154.372 53.4954
    endloop
  endfacet
  facet normal 0 -0.994985 0.100026
    outer loop
      vertex 30.6882 -155.172 46
      vertex 26.9738 -154.372 53.9578
      vertex 27.9986 -155.172 46
    endloop
  endfacet
  facet normal 0.0145053 -0.994184 0.106716
    outer loop
      vertex 30.6882 -155.172 46
      vertex 30.3757 -154.372 53.4954
      vertex 26.9738 -154.372 53.9578
    endloop
  endfacet
  facet normal 0.0148451 -0.994177 0.10673
    outer loop
      vertex 30.3757 -154.372 53.4954
      vertex 30.6882 -155.172 46
      vertex 31.3579 -155.162 46
    endloop
  endfacet
  facet normal 0.0952598 -0.706938 0.700831
    outer loop
      vertex 27.1409 -153.372 54.9438
      vertex 26.9738 -154.372 53.9578
      vertex 30.3757 -154.372 53.4954
    endloop
  endfacet
  facet normal 0.0173235 -0.994615 0.102179
    outer loop
      vertex 27.8649 -155.174 46
      vertex 26.9738 -154.372 53.9578
      vertex 26.2837 -154.372 54.0748
    endloop
  endfacet
  facet normal 0.0148793 -0.994682 0.101912
    outer loop
      vertex 26.9738 -154.372 53.9578
      vertex 27.8649 -155.174 46
      vertex 27.9986 -155.172 46
    endloop
  endfacet
  facet normal 0.118101 -0.707093 0.697189
    outer loop
      vertex 26.2837 -154.372 54.0748
      vertex 27.1409 -153.372 54.9438
      vertex 26.4508 -153.372 55.0607
    endloop
  endfacet
  facet normal 0.118193 -0.707128 0.697138
    outer loop
      vertex 27.1409 -153.372 54.9438
      vertex 26.2837 -154.372 54.0748
      vertex 26.9738 -154.372 53.9578
    endloop
  endfacet
  facet normal 0 -0.995104 0.0988351
    outer loop
      vertex 26.2837 -154.372 54.0748
      vertex 26.2823 -155.174 46
      vertex 27.8649 -155.174 46
    endloop
  endfacet
  facet normal -0.696921 -0.707092 0.119673
    outer loop
      vertex 26.2837 -154.372 54.0748
      vertex 25.2961 -153.372 54.232
      vertex 26.282 -154.372 54.0649
    endloop
  endfacet
  facet normal -0.472726 -0.577351 0.66573
    outer loop
      vertex 26.4508 -153.372 55.0607
      vertex 25.2977 -153.372 54.2419
      vertex 26.2837 -154.372 54.0748
    endloop
  endfacet
  facet normal -0.708752 -0.698715 0.0973069
    outer loop
      vertex 25.2961 -153.372 54.232
      vertex 24.7229 -153.937 46
      vertex 25.5165 -154.742 46
    endloop
  endfacet
  facet normal -0.698039 -0.707117 0.112814
    outer loop
      vertex 25.2977 -153.372 54.2419
      vertex 25.2961 -153.372 54.232
      vertex 26.2837 -154.372 54.0748
    endloop
  endfacet
  facet normal -0.384493 -0.918601 0.0913034
    outer loop
      vertex 26.2837 -154.372 54.0748
      vertex 25.7113 -154.935 46
      vertex 26.2823 -155.174 46
    endloop
  endfacet
  facet normal -0.700306 -0.706958 0.0989049
    outer loop
      vertex 25.5165 -154.742 46
      vertex 26.282 -154.372 54.0649
      vertex 25.2961 -153.372 54.232
    endloop
  endfacet
  facet normal -0.700728 -0.706537 0.0989257
    outer loop
      vertex 26.282 -154.372 54.0649
      vertex 25.5165 -154.742 46
      vertex 25.7111 -154.935 46
    endloop
  endfacet
  facet normal 0 -0.997572 0.0696392
    outer loop
      vertex 25.7113 -154.935 46
      vertex 26.282 -154.372 54.0649
      vertex 25.7111 -154.935 46
    endloop
  endfacet
  facet normal -0.566063 -0.818611 0.0972027
    outer loop
      vertex 26.282 -154.372 54.0649
      vertex 25.7113 -154.935 46
      vertex 26.2837 -154.372 54.0748
    endloop
  endfacet
  facet normal -0.921403 -0.37802 0.0901031
    outer loop
      vertex 25.2961 -153.372 54.232
      vertex 24.4911 -153.372 46
      vertex 24.7229 -153.937 46
    endloop
  endfacet
endsolid OpenSCAD_Model
