solid OpenSCAD_Model
  facet normal -0.138137 0 0.990413
    outer loop
      vertex 27.1409 153.372 -54.9438
      vertex 30.667 89.3721 -54.452
      vertex 30.667 153.372 -54.452
    endloop
  endfacet
  facet normal -0.138137 0 0.990413
    outer loop
      vertex 30.667 89.3721 -54.452
      vertex 27.1409 153.372 -54.9438
      vertex 27.1409 89.3721 -54.9438
    endloop
  endfacet
  facet normal -0.291264 0 0.956643
    outer loop
      vertex 30.667 153.372 -54.452
      vertex 31.3367 89.3721 -54.2481
      vertex 31.3367 153.372 -54.2481
    endloop
  endfacet
  facet normal -0.291264 0 0.956643
    outer loop
      vertex 31.3367 89.3721 -54.2481
      vertex 30.667 153.372 -54.452
      vertex 30.667 89.3721 -54.452
    endloop
  endfacet
  facet normal -0.167016 0 0.985954
    outer loop
      vertex 26.4508 153.372 -55.0607
      vertex 27.1409 89.3721 -54.9438
      vertex 27.1409 153.372 -54.9438
    endloop
  endfacet
  facet normal -0.167016 0 0.985954
    outer loop
      vertex 27.1409 89.3721 -54.9438
      vertex 26.4508 153.372 -55.0607
      vertex 26.4508 89.3721 -55.0607
    endloop
  endfacet
  facet normal -0.407702 0 0.913115
    outer loop
      vertex 34.8856 153.372 -53.4202
      vertex 35.5248 89.3721 -53.1348
      vertex 35.5248 153.372 -53.1348
    endloop
  endfacet
  facet normal -0.407702 0 0.913115
    outer loop
      vertex 35.5248 89.3721 -53.1348
      vertex 34.8856 153.372 -53.4202
      vertex 34.8856 89.3721 -53.4202
    endloop
  endfacet
  facet normal -0.227184 0 0.973852
    outer loop
      vertex 31.3367 153.372 -54.2481
      vertex 34.8856 89.3721 -53.4202
      vertex 34.8856 153.372 -53.4202
    endloop
  endfacet
  facet normal -0.227184 0 0.973852
    outer loop
      vertex 34.8856 89.3721 -53.4202
      vertex 31.3367 153.372 -54.2481
      vertex 31.3367 89.3721 -54.2481
    endloop
  endfacet
  facet normal -0.294228 0 0.955735
    outer loop
      vertex 35.5248 153.372 -53.1348
      vertex 38.9618 89.3721 -52.0767
      vertex 38.9618 153.372 -52.0767
    endloop
  endfacet
  facet normal -0.294228 0 0.955735
    outer loop
      vertex 38.9618 89.3721 -52.0767
      vertex 35.5248 153.372 -53.1348
      vertex 35.5248 89.3721 -53.1348
    endloop
  endfacet
  facet normal -0.296883 0 0.954914
    outer loop
      vertex 39.5882 153.372 -51.7644
      vertex 42.7696 89.3721 -50.7753
      vertex 42.7696 153.372 -50.7753
    endloop
  endfacet
  facet normal -0.296883 0 0.954914
    outer loop
      vertex 42.7696 89.3721 -50.7753
      vertex 39.5882 153.372 -51.7644
      vertex 39.5882 89.3721 -51.7644
    endloop
  endfacet
  facet normal -0.347003 0 0.937864
    outer loop
      vertex 42.7696 153.372 -50.7753
      vertex 43.4261 152.072 -50.5324
      vertex 43.4261 153.372 -50.5324
    endloop
  endfacet
  facet normal -0.347003 0 0.937864
    outer loop
      vertex 43.4261 152.072 -50.5324
      vertex 42.7696 153.372 -50.7753
      vertex 43.4261 90.6721 -50.5324
    endloop
  endfacet
  facet normal -0.347003 0 0.937864
    outer loop
      vertex 42.7696 89.3721 -50.7753
      vertex 43.4261 90.6721 -50.5324
      vertex 42.7696 153.372 -50.7753
    endloop
  endfacet
  facet normal -0.347003 0 0.937864
    outer loop
      vertex 43.4261 90.6721 -50.5324
      vertex 42.7696 89.3721 -50.7753
      vertex 43.4261 89.3721 -50.5324
    endloop
  endfacet
  facet normal -0.446185 0 0.894941
    outer loop
      vertex 38.9618 153.372 -52.0767
      vertex 39.5882 89.3721 -51.7644
      vertex 39.5882 153.372 -51.7644
    endloop
  endfacet
  facet normal -0.446185 0 0.894941
    outer loop
      vertex 39.5882 89.3721 -51.7644
      vertex 38.9618 153.372 -52.0767
      vertex 38.9618 89.3721 -52.0767
    endloop
  endfacet
  facet normal -0.177528 0 0.984116
    outer loop
      vertex 43.4261 152.072 -50.5324
      vertex 47.2544 153.372 -49.8418
      vertex 43.4261 153.372 -50.5324
    endloop
  endfacet
  facet normal -0.177528 0 0.984116
    outer loop
      vertex 47.2544 153.372 -49.8418
      vertex 43.4261 152.072 -50.5324
      vertex 47.2544 89.3721 -49.8418
    endloop
  endfacet
  facet normal -0.177528 0 0.984116
    outer loop
      vertex 43.4261 90.6721 -50.5324
      vertex 47.2544 89.3721 -49.8418
      vertex 43.4261 152.072 -50.5324
    endloop
  endfacet
  facet normal -0.177528 0 0.984116
    outer loop
      vertex 47.2544 89.3721 -49.8418
      vertex 43.4261 90.6721 -50.5324
      vertex 43.4261 89.3721 -50.5324
    endloop
  endfacet
  facet normal 0.0378088 0 0.999285
    outer loop
      vertex 47.2544 153.372 -49.8418
      vertex 51.0656 89.3721 -49.986
      vertex 51.0656 153.372 -49.986
    endloop
  endfacet
  facet normal 0.0378088 0 0.999285
    outer loop
      vertex 51.0656 89.3721 -49.986
      vertex 47.2544 153.372 -49.8418
      vertex 47.2544 89.3721 -49.8418
    endloop
  endfacet
  facet normal 0.234109 0 0.97221
    outer loop
      vertex 51.0656 153.372 -49.986
      vertex 54.8621 89.3721 -50.9002
      vertex 54.8621 153.372 -50.9002
    endloop
  endfacet
  facet normal 0.234109 0 0.97221
    outer loop
      vertex 54.8621 89.3721 -50.9002
      vertex 51.0656 153.372 -49.986
      vertex 51.0656 89.3721 -49.986
    endloop
  endfacet
  facet normal 0.397571 0 0.917571
    outer loop
      vertex 54.8621 153.372 -50.9002
      vertex 55.5044 89.3721 -51.1785
      vertex 55.5044 153.372 -51.1785
    endloop
  endfacet
  facet normal 0.397571 0 0.917571
    outer loop
      vertex 55.5044 89.3721 -51.1785
      vertex 54.8621 153.372 -50.9002
      vertex 54.8621 89.3721 -50.9002
    endloop
  endfacet
  facet normal 0.305022 0 0.952345
    outer loop
      vertex 55.5044 153.372 -51.1785
      vertex 58.7821 89.3721 -52.2283
      vertex 58.7821 153.372 -52.2283
    endloop
  endfacet
  facet normal 0.305022 0 0.952345
    outer loop
      vertex 58.7821 89.3721 -52.2283
      vertex 55.5044 153.372 -51.1785
      vertex 55.5044 89.3721 -51.1785
    endloop
  endfacet
  facet normal 0.446299 0 0.894884
    outer loop
      vertex 58.7821 153.372 -52.2283
      vertex 59.4085 89.3721 -52.5407
      vertex 59.4085 153.372 -52.5407
    endloop
  endfacet
  facet normal 0.446299 0 0.894884
    outer loop
      vertex 59.4085 89.3721 -52.5407
      vertex 58.7821 153.372 -52.2283
      vertex 58.7821 89.3721 -52.2283
    endloop
  endfacet
  facet normal 0.578968 0 0.81535
    outer loop
      vertex 25.2977 153.372 -54.2419
      vertex 26.4508 89.3721 -55.0607
      vertex 26.4508 153.372 -55.0607
    endloop
  endfacet
  facet normal 0.578968 0 0.81535
    outer loop
      vertex 26.4508 89.3721 -55.0607
      vertex 25.2977 153.372 -54.2419
      vertex 25.2977 89.3721 -54.2419
    endloop
  endfacet
  facet normal 1 -0 0
    outer loop
      vertex 24.2961 89.3721 -42
      vertex 24.2961 153.372 -44.005
      vertex 24.2961 153.372 -42
    endloop
  endfacet
  facet normal 1 0 0
    outer loop
      vertex 24.2961 153.372 -44.005
      vertex 24.2961 89.3721 -42
      vertex 24.2961 89.3721 -44.005
    endloop
  endfacet
  facet normal 0.995254 0 0.0973163
    outer loop
      vertex 24.2961 153.372 -44.005
      vertex 25.2961 89.3721 -54.232
      vertex 25.2961 153.372 -54.232
    endloop
  endfacet
  facet normal 0.995254 0 0.0973163
    outer loop
      vertex 25.2961 89.3721 -54.232
      vertex 24.2961 153.372 -44.005
      vertex 24.2961 89.3721 -44.005
    endloop
  endfacet
  facet normal 0.987191 -0 0.159546
    outer loop
      vertex 25.2961 89.3721 -54.232
      vertex 25.2977 153.372 -54.2419
      vertex 25.2961 153.372 -54.232
    endloop
  endfacet
  facet normal 0.987191 0 0.159546
    outer loop
      vertex 25.2977 153.372 -54.2419
      vertex 25.2961 89.3721 -54.232
      vertex 25.2977 89.3721 -54.2419
    endloop
  endfacet
  facet normal 0.472726 0.577351 0.66573
    outer loop
      vertex 26.2837 88.3721 -54.0748
      vertex 26.4508 89.3721 -55.0607
      vertex 25.2977 89.3721 -54.2419
    endloop
  endfacet
  facet normal 0.566057 0.818616 0.0972017
    outer loop
      vertex 26.2837 88.3721 -54.0748
      vertex 26.282 88.3721 -54.0649
      vertex 25.5699 87.67 -44.005
    endloop
  endfacet
  facet normal 0.696921 0.707092 0.119673
    outer loop
      vertex 26.282 88.3721 -54.0649
      vertex 26.2837 88.3721 -54.0748
      vertex 25.2961 89.3721 -54.232
    endloop
  endfacet
  facet normal 0.925234 0.379397 0
    outer loop
      vertex 24.584 88.67 -42
      vertex 24.2961 89.3721 -44.005
      vertex 24.2961 89.3721 -42
    endloop
  endfacet
  facet normal 0.925234 0.379397 0
    outer loop
      vertex 24.2961 89.3721 -44.005
      vertex 24.584 88.67 -42
      vertex 24.584 88.67 -44.005
    endloop
  endfacet
  facet normal 0 1 0
    outer loop
      vertex 58.065 87.3721 -44.005
      vertex 59.8593 87.3721 -42
      vertex 59.8593 87.3721 -44.005
    endloop
  endfacet
  facet normal 0 1 0
    outer loop
      vertex 54.7092 87.3721 -44.005
      vertex 59.8593 87.3721 -42
      vertex 58.065 87.3721 -44.005
    endloop
  endfacet
  facet normal 0 1 0
    outer loop
      vertex 54.0669 87.3721 -44.005
      vertex 59.8593 87.3721 -42
      vertex 54.7092 87.3721 -44.005
    endloop
  endfacet
  facet normal 0 1 0
    outer loop
      vertex 50.7921 87.3721 -44.005
      vertex 59.8593 87.3721 -42
      vertex 54.0669 87.3721 -44.005
    endloop
  endfacet
  facet normal 0 1 0
    outer loop
      vertex 50.1057 87.3721 -44.005
      vertex 59.8593 87.3721 -42
      vertex 50.7921 87.3721 -44.005
    endloop
  endfacet
  facet normal 0 1 0
    outer loop
      vertex 47.5347 87.3721 -44.005
      vertex 59.8593 87.3721 -42
      vertex 50.1057 87.3721 -44.005
    endloop
  endfacet
  facet normal 0 1 0
    outer loop
      vertex 44.2983 87.3721 -44.005
      vertex 59.8593 87.3721 -42
      vertex 47.5347 87.3721 -44.005
    endloop
  endfacet
  facet normal 0 1 0
    outer loop
      vertex 43.6418 87.3721 -44.005
      vertex 59.8593 87.3721 -42
      vertex 44.2983 87.3721 -44.005
    endloop
  endfacet
  facet normal 0 1 0
    outer loop
      vertex 59.8593 87.3721 -42
      vertex 43.6418 87.3721 -44.005
      vertex 26.282 87.3721 -42
    endloop
  endfacet
  facet normal 0 1 -0
    outer loop
      vertex 40.3055 87.3721 -44.005
      vertex 26.282 87.3721 -42
      vertex 43.6418 87.3721 -44.005
    endloop
  endfacet
  facet normal 0 1 -0
    outer loop
      vertex 39.679 87.3721 -44.005
      vertex 26.282 87.3721 -42
      vertex 40.3055 87.3721 -44.005
    endloop
  endfacet
  facet normal 0 1 -0
    outer loop
      vertex 36.3042 87.3721 -44.005
      vertex 26.282 87.3721 -42
      vertex 39.679 87.3721 -44.005
    endloop
  endfacet
  facet normal 0 1 -0
    outer loop
      vertex 35.665 87.3721 -44.005
      vertex 26.282 87.3721 -42
      vertex 36.3042 87.3721 -44.005
    endloop
  endfacet
  facet normal 0 1 -0
    outer loop
      vertex 32.289 87.3721 -44.005
      vertex 26.282 87.3721 -42
      vertex 35.665 87.3721 -44.005
    endloop
  endfacet
  facet normal 0 1 -0
    outer loop
      vertex 31.6193 87.3721 -44.005
      vertex 26.282 87.3721 -42
      vertex 32.289 87.3721 -44.005
    endloop
  endfacet
  facet normal 0 1 -0
    outer loop
      vertex 28.2556 87.3721 -44.005
      vertex 26.282 87.3721 -42
      vertex 31.6193 87.3721 -44.005
    endloop
  endfacet
  facet normal 0 1 0
    outer loop
      vertex 26.282 87.3721 -42
      vertex 28.2556 87.3721 -44.005
      vertex 26.282 87.3721 -44.005
    endloop
  endfacet
  facet normal 0.708729 0.698736 0.0973178
    outer loop
      vertex 25.5699 87.67 -44.005
      vertex 25.2961 89.3721 -54.232
      vertex 24.584 88.67 -44.005
    endloop
  endfacet
  facet normal 0.921471 0.377854 0.0901017
    outer loop
      vertex 24.584 88.67 -44.005
      vertex 25.2961 89.3721 -54.232
      vertex 24.2961 89.3721 -44.005
    endloop
  endfacet
  facet normal 0.384319 0.918675 0.0912956
    outer loop
      vertex 26.282 87.3721 -44.005
      vertex 26.2837 88.3721 -54.0748
      vertex 25.5699 87.67 -44.005
    endloop
  endfacet
  facet normal 0.38593 0.922528 -0
    outer loop
      vertex 26.282 87.3721 -44.005
      vertex 25.5699 87.67 -42
      vertex 26.282 87.3721 -42
    endloop
  endfacet
  facet normal 0.38593 0.922528 0
    outer loop
      vertex 25.5699 87.67 -42
      vertex 26.282 87.3721 -44.005
      vertex 25.5699 87.67 -44.005
    endloop
  endfacet
  facet normal 0 0.995105 0.0988208
    outer loop
      vertex 28.2556 87.3721 -44.005
      vertex 26.2837 88.3721 -54.0748
      vertex 26.282 87.3721 -44.005
    endloop
  endfacet
  facet normal 0.700304 0.706958 0.0989117
    outer loop
      vertex 25.5699 87.67 -44.005
      vertex 26.282 88.3721 -54.0649
      vertex 25.2961 89.3721 -54.232
    endloop
  endfacet
  facet normal 0.712109 0.702069 0
    outer loop
      vertex 25.5699 87.67 -42
      vertex 24.584 88.67 -44.005
      vertex 24.584 88.67 -42
    endloop
  endfacet
  facet normal 0.712109 0.702069 0
    outer loop
      vertex 24.584 88.67 -44.005
      vertex 25.5699 87.67 -42
      vertex 25.5699 87.67 -44.005
    endloop
  endfacet
  facet normal 0.698039 0.707117 0.112814
    outer loop
      vertex 26.2837 88.3721 -54.0748
      vertex 25.2977 89.3721 -54.2419
      vertex 25.2961 89.3721 -54.232
    endloop
  endfacet
  facet normal -0.017321 0.994617 0.102164
    outer loop
      vertex 28.2556 87.3721 -44.005
      vertex 26.9738 88.3721 -53.9578
      vertex 26.2837 88.3721 -54.0748
    endloop
  endfacet
  facet normal -0.118193 0.707128 0.697138
    outer loop
      vertex 27.1409 89.3721 -54.9438
      vertex 26.2837 88.3721 -54.0748
      vertex 26.9738 88.3721 -53.9578
    endloop
  endfacet
  facet normal -0.118101 0.707093 0.697189
    outer loop
      vertex 26.2837 88.3721 -54.0748
      vertex 27.1409 89.3721 -54.9438
      vertex 26.4508 89.3721 -55.0607
    endloop
  endfacet
  facet normal -0.0952598 0.706938 0.700831
    outer loop
      vertex 30.3757 88.3721 -53.4954
      vertex 27.1409 89.3721 -54.9438
      vertex 26.9738 88.3721 -53.9578
    endloop
  endfacet
  facet normal -0.0144973 0.99419 0.106657
    outer loop
      vertex 31.6193 87.3721 -44.005
      vertex 30.3757 88.3721 -53.4954
      vertex 26.9738 88.3721 -53.9578
    endloop
  endfacet
  facet normal -0.205947 0.707132 0.676425
    outer loop
      vertex 30.667 89.3721 -54.452
      vertex 31.2022 88.9106 -53.8066
      vertex 31.3367 89.3721 -54.2481
    endloop
  endfacet
  facet normal -0.206003 0.707096 0.676445
    outer loop
      vertex 31.2022 88.9106 -53.8066
      vertex 30.667 89.3721 -54.452
      vertex 30.3757 88.3721 -53.4954
    endloop
  endfacet
  facet normal -0.0982818 0.702706 0.704659
    outer loop
      vertex 30.3757 88.3721 -53.4954
      vertex 30.667 89.3721 -54.452
      vertex 27.1409 89.3721 -54.9438
    endloop
  endfacet
  facet normal -0 0.99499 0.0999709
    outer loop
      vertex 28.2556 87.3721 -44.005
      vertex 31.6193 87.3721 -44.005
      vertex 26.9738 88.3721 -53.9578
    endloop
  endfacet
  facet normal -0.205967 0.707065 0.676488
    outer loop
      vertex 31.0454 88.3721 -53.2915
      vertex 31.2022 88.9106 -53.8066
      vertex 30.3757 88.3721 -53.4954
    endloop
  endfacet
  facet normal -0.0339464 0.993185 0.111495
    outer loop
      vertex 32.289 87.3721 -44.005
      vertex 31.0454 88.3721 -53.2915
      vertex 30.3757 88.3721 -53.4954
    endloop
  endfacet
  facet normal -0 0.994494 0.10479
    outer loop
      vertex 31.6193 87.3721 -44.005
      vertex 32.289 87.3721 -44.005
      vertex 30.3757 88.3721 -53.4954
    endloop
  endfacet
  facet normal -0.0275549 0.992323 0.120564
    outer loop
      vertex 31.0454 88.3721 -53.2915
      vertex 35.665 87.3721 -44.005
      vertex 34.4779 88.3721 -52.507
    endloop
  endfacet
  facet normal -0.1621 0.700636 0.694862
    outer loop
      vertex 34.8856 89.3721 -53.4202
      vertex 31.3367 89.3721 -54.2481
      vertex 34.4779 88.3721 -52.507
    endloop
  endfacet
  facet normal -0 0.994252 0.107064
    outer loop
      vertex 32.289 87.3721 -44.005
      vertex 35.665 87.3721 -44.005
      vertex 31.0454 88.3721 -53.2915
    endloop
  endfacet
  facet normal -0.157754 0.706178 0.690237
    outer loop
      vertex 34.4779 88.3721 -52.507
      vertex 31.2022 88.9106 -53.8066
      vertex 31.0454 88.3721 -53.2915
    endloop
  endfacet
  facet normal -0.157722 0.706238 0.690182
    outer loop
      vertex 31.2022 88.9106 -53.8066
      vertex 34.4779 88.3721 -52.507
      vertex 31.3367 89.3721 -54.2481
    endloop
  endfacet
  facet normal -0.288296 0.70709 0.645685
    outer loop
      vertex 35.4643 89.2237 -52.9993
      vertex 35.5248 89.3721 -53.1348
      vertex 34.8856 89.3721 -53.4202
    endloop
  endfacet
  facet normal -0.0574849 0.990004 0.128792
    outer loop
      vertex 36.3042 87.3721 -44.005
      vertex 35.1171 88.3721 -52.2217
      vertex 34.4779 88.3721 -52.507
    endloop
  endfacet
  facet normal -0.288193 0.707134 0.645683
    outer loop
      vertex 35.1171 88.3721 -52.2217
      vertex 34.8856 89.3721 -53.4202
      vertex 34.4779 88.3721 -52.507
    endloop
  endfacet
  facet normal -0.288285 0.707104 0.645675
    outer loop
      vertex 35.1171 88.3721 -52.2217
      vertex 35.4643 89.2237 -52.9993
      vertex 34.8856 89.3721 -53.4202
    endloop
  endfacet
  facet normal -0 0.993154 0.116814
    outer loop
      vertex 35.665 87.3721 -44.005
      vertex 36.3042 87.3721 -44.005
      vertex 34.4779 88.3721 -52.507
    endloop
  endfacet
  facet normal -0.0443428 0.98845 0.144917
    outer loop
      vertex 39.679 87.3721 -44.005
      vertex 38.5156 88.3721 -51.1818
      vertex 35.1171 88.3721 -52.2217
    endloop
  endfacet
  facet normal -0.209452 0.702311 0.680359
    outer loop
      vertex 38.5156 88.3721 -51.1818
      vertex 38.9618 89.3721 -52.0767
      vertex 35.5248 89.3721 -53.1348
    endloop
  endfacet
  facet normal -0 0.992675 0.120812
    outer loop
      vertex 36.3042 87.3721 -44.005
      vertex 39.679 87.3721 -44.005
      vertex 35.1171 88.3721 -52.2217
    endloop
  endfacet
  facet normal -0.207681 0.704417 0.678723
    outer loop
      vertex 38.5156 88.3721 -51.1818
      vertex 35.4643 89.2237 -52.9993
      vertex 35.1171 88.3721 -52.2217
    endloop
  endfacet
  facet normal -0.207691 0.704405 0.678733
    outer loop
      vertex 35.4643 89.2237 -52.9993
      vertex 38.5156 88.3721 -51.1818
      vertex 35.5248 89.3721 -53.1348
    endloop
  endfacet
  facet normal -0.315467 0.707091 0.632853
    outer loop
      vertex 39.348 88.8336 -51.2825
      vertex 38.5156 88.3721 -51.1818
      vertex 39.1421 88.3721 -50.8695
    endloop
  endfacet
  facet normal -0.31547 0.707096 0.632846
    outer loop
      vertex 38.5156 88.3721 -51.1818
      vertex 39.348 88.8336 -51.2825
      vertex 38.9618 89.3721 -52.0767
    endloop
  endfacet
  facet normal -0.315516 0.707071 0.632851
    outer loop
      vertex 39.348 88.8336 -51.2825
      vertex 39.5882 89.3721 -51.7644
      vertex 38.9618 89.3721 -52.0767
    endloop
  endfacet
  facet normal -0.078094 0.98456 0.156663
    outer loop
      vertex 40.3055 87.3721 -44.005
      vertex 39.1421 88.3721 -50.8695
      vertex 38.5156 88.3721 -51.1818
    endloop
  endfacet
  facet normal -0 0.990432 0.138005
    outer loop
      vertex 39.679 87.3721 -44.005
      vertex 40.3055 87.3721 -44.005
      vertex 38.5156 88.3721 -51.1818
    endloop
  endfacet
  facet normal -0.0567005 0.981991 0.180221
    outer loop
      vertex 39.1421 88.3721 -50.8695
      vertex 43.6418 87.3721 -44.005
      vertex 42.4226 88.3721 -49.8374
    endloop
  endfacet
  facet normal -0.212339 0.706684 0.674915
    outer loop
      vertex 42.4226 88.3721 -49.8374
      vertex 42.7696 89.3721 -50.7753
      vertex 39.1421 88.3721 -50.8695
    endloop
  endfacet
  facet normal -0.245381 0.707068 0.663206
    outer loop
      vertex 43.2393 88.8336 -50.0274
      vertex 43.4261 89.3721 -50.5324
      vertex 42.7696 89.3721 -50.7753
    endloop
  endfacet
  facet normal -0 0.989555 0.144155
    outer loop
      vertex 40.3055 87.3721 -44.005
      vertex 43.6418 87.3721 -44.005
      vertex 39.1421 88.3721 -50.8695
    endloop
  endfacet
  facet normal -0.245344 0.707089 0.663198
    outer loop
      vertex 43.1858 88.6796 -49.883
      vertex 43.2393 88.8336 -50.0274
      vertex 42.7696 89.3721 -50.7753
    endloop
  endfacet
  facet normal -0.2113 0.702471 0.679622
    outer loop
      vertex 42.7696 89.3721 -50.7753
      vertex 39.348 88.8336 -51.2825
      vertex 39.1421 88.3721 -50.8695
    endloop
  endfacet
  facet normal -0.2113 0.702455 0.679639
    outer loop
      vertex 39.348 88.8336 -51.2825
      vertex 42.7696 89.3721 -50.7753
      vertex 39.5882 89.3721 -51.7644
    endloop
  endfacet
  facet normal -0 0.985618 0.16899
    outer loop
      vertex 43.6418 87.3721 -44.005
      vertex 44.2983 87.3721 -44.005
      vertex 42.4226 88.3721 -49.8374
    endloop
  endfacet
  facet normal -0.0705034 0.979142 0.190554
    outer loop
      vertex 44.2983 87.3721 -44.005
      vertex 43.0791 88.3721 -49.5945
      vertex 42.4226 88.3721 -49.8374
    endloop
  endfacet
  facet normal -0.245364 0.707118 0.663159
    outer loop
      vertex 43.0791 88.3721 -49.5945
      vertex 42.7696 89.3721 -50.7753
      vertex 42.4226 88.3721 -49.8374
    endloop
  endfacet
  facet normal -0.245054 0.707221 0.663165
    outer loop
      vertex 43.0791 88.3721 -49.5945
      vertex 43.1858 88.6796 -49.883
      vertex 42.7696 89.3721 -50.7753
    endloop
  endfacet
  facet normal -0.0375811 0.978051 0.20495
    outer loop
      vertex 43.0791 88.3721 -49.5945
      vertex 47.3669 87.6061 -45.1528
      vertex 47.1424 87.9193 -46.6886
    endloop
  endfacet
  facet normal -0.0375379 0.978064 0.204896
    outer loop
      vertex 43.0791 88.3721 -49.5945
      vertex 47.248 88.0412 -47.2512
      vertex 47.1576 88.3721 -48.8473
    endloop
  endfacet
  facet normal -0.0373345 0.978102 0.20475
    outer loop
      vertex 47.4023 87.4768 -44.5293
      vertex 43.0791 88.3721 -49.5945
      vertex 47.5347 87.3721 -44.005
    endloop
  endfacet
  facet normal -0.0375914 0.978048 0.20496
    outer loop
      vertex 47.3669 87.6061 -45.1528
      vertex 43.0791 88.3721 -49.5945
      vertex 47.4023 87.4768 -44.5293
    endloop
  endfacet
  facet normal -0.0375267 0.978068 0.204877
    outer loop
      vertex 47.248 88.0412 -47.2512
      vertex 43.0791 88.3721 -49.5945
      vertex 47.1424 87.9193 -46.6886
    endloop
  endfacet
  facet normal 0.171457 -0.704916 -0.688256
    outer loop
      vertex 43.4261 89.3721 -50.5324
      vertex 43.2393 88.8336 -50.0274
      vertex 43.1858 88.6796 -49.883
    endloop
  endfacet
  facet normal -0.937126 0.348131 0.0244681
    outer loop
      vertex 43.0791 88.3721 -49.5945
      vertex 43.4261 89.3721 -50.5324
      vertex 43.1858 88.6796 -49.883
    endloop
  endfacet
  facet normal -0 0.98437 0.176111
    outer loop
      vertex 44.2983 87.3721 -44.005
      vertex 47.5347 87.3721 -44.005
      vertex 43.0791 88.3721 -49.5945
    endloop
  endfacet
  facet normal -0.126353 0.702311 0.700568
    outer loop
      vertex 43.4261 89.3721 -50.5324
      vertex 47.2501 89.2875 -49.7579
      vertex 47.2517 89.3231 -49.7933
    endloop
  endfacet
  facet normal -0.126549 0.701329 0.701515
    outer loop
      vertex 43.4261 89.3721 -50.5324
      vertex 47.2517 89.3231 -49.7933
      vertex 47.2544 89.3721 -49.8418
    endloop
  endfacet
  facet normal -0.126507 0.701601 0.701251
    outer loop
      vertex 47.2501 89.2875 -49.7579
      vertex 43.4261 89.3721 -50.5324
      vertex 43.0791 88.3721 -49.5945
    endloop
  endfacet
  facet normal -0.127636 0.70593 0.696686
    outer loop
      vertex 47.1576 88.3721 -48.8473
      vertex 47.2501 89.2875 -49.7579
      vertex 43.0791 88.3721 -49.5945
    endloop
  endfacet
  facet normal -0.0209164 0.977913 0.207961
    outer loop
      vertex 47.5583 87.7102 -45.6635
      vertex 47.248 88.0412 -47.2512
      vertex 47.1424 87.9193 -46.6886
    endloop
  endfacet
  facet normal 0.000178556 0.979838 0.199795
    outer loop
      vertex 47.3669 87.6061 -45.1528
      vertex 47.5583 87.7102 -45.6635
      vertex 47.1424 87.9193 -46.6886
    endloop
  endfacet
  facet normal 0.0275903 0.70422 0.709446
    outer loop
      vertex 47.2501 89.2875 -49.7579
      vertex 51.2481 88.4026 -49.035
      vertex 47.2517 89.3231 -49.7933
    endloop
  endfacet
  facet normal 0.027337 0.703592 0.710078
    outer loop
      vertex 47.1576 88.3721 -48.8473
      vertex 51.2481 88.4026 -49.035
      vertex 47.2501 89.2875 -49.7579
    endloop
  endfacet
  facet normal 0.0273406 0.703524 0.710146
    outer loop
      vertex 51.2481 88.4026 -49.035
      vertex 47.1576 88.3721 -48.8473
      vertex 51.2537 88.3721 -49.005
    endloop
  endfacet
  facet normal 0.0269091 0.702467 0.711207
    outer loop
      vertex 47.2517 89.3231 -49.7933
      vertex 51.0656 89.3721 -49.986
      vertex 47.2544 89.3721 -49.8418
    endloop
  endfacet
  facet normal 0.0268963 0.702672 0.711006
    outer loop
      vertex 51.0656 89.3721 -49.986
      vertex 47.2517 89.3231 -49.7933
      vertex 51.0785 89.2687 -49.8843
    endloop
  endfacet
  facet normal 0.0268972 0.702575 0.711101
    outer loop
      vertex 51.0785 89.2687 -49.8843
      vertex 47.2517 89.3231 -49.7933
      vertex 51.2481 88.4026 -49.035
    endloop
  endfacet
  facet normal 0 0.980638 0.195828
    outer loop
      vertex 50.1057 87.3721 -44.005
      vertex 47.4023 87.4768 -44.5293
      vertex 47.5347 87.3721 -44.005
    endloop
  endfacet
  facet normal -1.93175e-05 0.980619 0.195924
    outer loop
      vertex 51.2088 88.2374 -48.3358
      vertex 47.4023 87.4768 -44.5293
      vertex 50.1057 87.3721 -44.005
    endloop
  endfacet
  facet normal -4.19899e-05 0.980623 0.195902
    outer loop
      vertex 47.4023 87.4768 -44.5293
      vertex 51.2088 88.2374 -48.3358
      vertex 51.2607 88.3451 -48.8749
    endloop
  endfacet
  facet normal 0.0080321 0.979226 0.202614
    outer loop
      vertex 47.4023 87.4768 -44.5293
      vertex 47.5583 87.7102 -45.6635
      vertex 47.3669 87.6061 -45.1528
    endloop
  endfacet
  facet normal 0.00782588 0.979227 0.202617
    outer loop
      vertex 51.2607 88.3451 -48.8749
      vertex 47.248 88.0412 -47.2512
      vertex 47.5583 87.7102 -45.6635
    endloop
  endfacet
  facet normal 0.0077944 0.979234 0.202583
    outer loop
      vertex 51.2607 88.3451 -48.8749
      vertex 47.5583 87.7102 -45.6635
      vertex 47.4023 87.4768 -44.5293
    endloop
  endfacet
  facet normal 0.00780638 0.979236 0.202571
    outer loop
      vertex 47.248 88.0412 -47.2512
      vertex 51.2607 88.3451 -48.8749
      vertex 47.1576 88.3721 -48.8473
    endloop
  endfacet
  facet normal 0.00780757 0.97919 0.202794
    outer loop
      vertex 47.1576 88.3721 -48.8473
      vertex 51.2607 88.3451 -48.8749
      vertex 51.2537 88.3721 -49.005
    endloop
  endfacet
  facet normal 0.0410938 0.977727 0.205818
    outer loop
      vertex 51.5723 88.1199 -47.8502
      vertex 51.2088 88.2374 -48.3358
      vertex 50.1057 87.3721 -44.005
    endloop
  endfacet
  facet normal 0 0.98161 0.1909
    outer loop
      vertex 50.7921 87.3721 -44.005
      vertex 51.5723 88.1199 -47.8502
      vertex 50.1057 87.3721 -44.005
    endloop
  endfacet
  facet normal 0.167716 0.706778 0.687267
    outer loop
      vertex 51.2481 88.4026 -49.035
      vertex 55.2597 88.3721 -49.9826
      vertex 51.0785 89.2687 -49.8843
    endloop
  endfacet
  facet normal 0.167715 0.706786 0.687259
    outer loop
      vertex 55.2597 88.3721 -49.9826
      vertex 51.2481 88.4026 -49.035
      vertex 51.2537 88.3721 -49.005
    endloop
  endfacet
  facet normal 0.166768 0.701772 0.692607
    outer loop
      vertex 54.9503 89.1504 -50.6967
      vertex 51.0785 89.2687 -49.8843
      vertex 55.2597 88.3721 -49.9826
    endloop
  endfacet
  facet normal 0.16674 0.701937 0.692447
    outer loop
      vertex 54.8621 89.3721 -50.9002
      vertex 51.0785 89.2687 -49.8843
      vertex 54.9503 89.1504 -50.6967
    endloop
  endfacet
  facet normal 0.16675 0.7019 0.692482
    outer loop
      vertex 51.0785 89.2687 -49.8843
      vertex 54.8621 89.3721 -50.9002
      vertex 51.0656 89.3721 -49.986
    endloop
  endfacet
  facet normal 0.0488687 0.978537 0.200194
    outer loop
      vertex 51.5723 88.1199 -47.8502
      vertex 51.2607 88.3451 -48.8749
      vertex 51.2088 88.2374 -48.3358
    endloop
  endfacet
  facet normal 0.0488476 0.978536 0.200201
    outer loop
      vertex 55.2597 88.3721 -49.9826
      vertex 51.2607 88.3451 -48.8749
      vertex 51.5723 88.1199 -47.8502
    endloop
  endfacet
  facet normal 0.0489132 0.978485 0.200436
    outer loop
      vertex 51.2607 88.3451 -48.8749
      vertex 55.2597 88.3721 -49.9826
      vertex 51.2537 88.3721 -49.005
    endloop
  endfacet
  facet normal 0.0488559 0.978533 0.200214
    outer loop
      vertex 55.2597 88.3721 -49.9826
      vertex 51.5723 88.1199 -47.8502
      vertex 50.7921 87.3721 -44.005
    endloop
  endfacet
  facet normal 0 0.986294 0.164998
    outer loop
      vertex 54.0669 87.3721 -44.005
      vertex 55.2597 88.3721 -49.9826
      vertex 50.7921 87.3721 -44.005
    endloop
  endfacet
  facet normal 0.281234 0.707082 0.6488
    outer loop
      vertex 55.2597 88.3721 -49.9826
      vertex 55.5044 89.3721 -51.1785
      vertex 54.9503 89.1504 -50.6967
    endloop
  endfacet
  facet normal 0.28112 0.70712 0.648809
    outer loop
      vertex 55.902 88.3721 -50.2609
      vertex 55.5044 89.3721 -51.1785
      vertex 55.2597 88.3721 -49.9826
    endloop
  endfacet
  facet normal 0 0.987464 0.157845
    outer loop
      vertex 54.7092 87.3721 -44.005
      vertex 55.902 88.3721 -50.2609
      vertex 54.0669 87.3721 -44.005
    endloop
  endfacet
  facet normal 0.0778108 0.980661 0.179583
    outer loop
      vertex 55.902 88.3721 -50.2609
      vertex 55.2597 88.3721 -49.9826
      vertex 54.0669 87.3721 -44.005
    endloop
  endfacet
  facet normal 0.21694 0.702964 0.677332
    outer loop
      vertex 59.2284 88.3721 -51.3334
      vertex 58.7821 89.3721 -52.2283
      vertex 55.5044 89.3721 -51.1785
    endloop
  endfacet
  facet normal 0.217493 0.705453 0.674562
    outer loop
      vertex 55.902 88.3721 -50.2609
      vertex 59.2284 88.3721 -51.3334
      vertex 55.5044 89.3721 -51.1785
    endloop
  endfacet
  facet normal 0.0540558 0.984362 0.167656
    outer loop
      vertex 59.2284 88.3721 -51.3334
      vertex 55.902 88.3721 -50.2609
      vertex 54.7092 87.3721 -44.005
    endloop
  endfacet
  facet normal 0 0.990818 0.135202
    outer loop
      vertex 58.065 87.3721 -44.005
      vertex 59.2284 88.3721 -51.3334
      vertex 54.7092 87.3721 -44.005
    endloop
  endfacet
  facet normal 0.281067 0.707253 0.648687
    outer loop
      vertex 54.9503 89.1504 -50.6967
      vertex 55.5044 89.3721 -51.1785
      vertex 54.8621 89.3721 -50.9002
    endloop
  endfacet
  facet normal -0.251489 0.959657 0.125745
    outer loop
      vertex 59.8593 87.3721 -44.005
      vertex 59.8593 88.3721 -51.6368
      vertex 59.8548 88.3721 -51.6458
    endloop
  endfacet
  facet normal 0.315579 0.707112 0.632774
    outer loop
      vertex 59.2284 88.3721 -51.3334
      vertex 59.8548 88.3721 -51.6458
      vertex 58.7821 89.3721 -52.2283
    endloop
  endfacet
  facet normal 0.315579 0.707112 0.632774
    outer loop
      vertex 59.8548 88.3721 -51.6458
      vertex 59.4085 89.3721 -52.5407
      vertex 58.7821 89.3721 -52.2283
    endloop
  endfacet
  facet normal 0 0.991544 0.12977
    outer loop
      vertex 59.8593 87.3721 -44.005
      vertex 59.8548 88.3721 -51.6458
      vertex 58.065 87.3721 -44.005
    endloop
  endfacet
  facet normal 0.0729118 0.986565 0.146197
    outer loop
      vertex 59.8548 88.3721 -51.6458
      vertex 59.2284 88.3721 -51.3334
      vertex 58.065 87.3721 -44.005
    endloop
  endfacet
  facet normal -0.317267 0 0.948336
    outer loop
      vertex 59.4085 153.372 -52.5407
      vertex 60.7497 89.3721 -52.092
      vertex 60.7497 153.372 -52.092
    endloop
  endfacet
  facet normal -0.317267 0 0.948336
    outer loop
      vertex 60.7497 89.3721 -52.092
      vertex 59.4085 153.372 -52.5407
      vertex 59.4085 89.3721 -52.5407
    endloop
  endfacet
  facet normal -0.259052 0.57733 0.774327
    outer loop
      vertex 59.8548 88.3721 -51.6458
      vertex 60.7497 89.3721 -52.092
      vertex 59.4085 89.3721 -52.5407
    endloop
  endfacet
  facet normal -0.709397 0.692754 0.129795
    outer loop
      vertex 60.6044 87.7052 -44.005
      vertex 60.7542 89.3721 -52.083
      vertex 59.8593 88.3721 -51.6368
    endloop
  endfacet
  facet normal -0.992425 0 0.122855
    outer loop
      vertex 60.7542 89.3721 -52.083
      vertex 61.7542 153.372 -44.005
      vertex 60.7542 153.372 -52.083
    endloop
  endfacet
  facet normal -0.992425 0 0.122855
    outer loop
      vertex 61.7542 153.372 -44.005
      vertex 60.7542 89.3721 -52.083
      vertex 61.7542 89.3721 -44.005
    endloop
  endfacet
  facet normal -0.405238 0.906463 0.118774
    outer loop
      vertex 59.8593 87.3721 -44.005
      vertex 60.6044 87.7052 -44.005
      vertex 59.8593 88.3721 -51.6368
    endloop
  endfacet
  facet normal -0.408127 0.912925 0
    outer loop
      vertex 60.6044 87.7052 -44.005
      vertex 59.8593 87.3721 -42
      vertex 60.6044 87.7052 -42
    endloop
  endfacet
  facet normal -0.408127 0.912925 0
    outer loop
      vertex 59.8593 87.3721 -42
      vertex 60.6044 87.7052 -44.005
      vertex 59.8593 87.3721 -44.005
    endloop
  endfacet
  facet normal -1 0 0
    outer loop
      vertex 61.7542 89.3721 -44.005
      vertex 61.7542 153.372 -42
      vertex 61.7542 153.372 -44.005
    endloop
  endfacet
  facet normal -1 -0 0
    outer loop
      vertex 61.7542 153.372 -42
      vertex 61.7542 89.3721 -44.005
      vertex 61.7542 89.3721 -42
    endloop
  endfacet
  facet normal -0.894427 0 0.447214
    outer loop
      vertex 60.7497 89.3721 -52.092
      vertex 60.7542 153.372 -52.083
      vertex 60.7497 153.372 -52.092
    endloop
  endfacet
  facet normal -0.894427 0 0.447214
    outer loop
      vertex 60.7542 153.372 -52.083
      vertex 60.7497 89.3721 -52.092
      vertex 60.7542 89.3721 -52.083
    endloop
  endfacet
  facet normal -0.632465 0.707096 0.316233
    outer loop
      vertex 60.7542 89.3721 -52.083
      vertex 59.8548 88.3721 -51.6458
      vertex 59.8593 88.3721 -51.6368
    endloop
  endfacet
  facet normal -0.632465 0.707096 0.316233
    outer loop
      vertex 59.8548 88.3721 -51.6458
      vertex 60.7542 89.3721 -52.083
      vertex 60.7497 89.3721 -52.092
    endloop
  endfacet
  facet normal -0.739536 0.661811 0.122851
    outer loop
      vertex 61.4993 88.7052 -44.005
      vertex 60.7542 89.3721 -52.083
      vertex 60.6044 87.7052 -44.005
    endloop
  endfacet
  facet normal -0.927911 0.354663 0.114869
    outer loop
      vertex 61.4993 88.7052 -44.005
      vertex 61.7542 89.3721 -44.005
      vertex 60.7542 89.3721 -52.083
    endloop
  endfacet
  facet normal -0.745181 0.666862 0
    outer loop
      vertex 60.6044 87.7052 -44.005
      vertex 61.4993 88.7052 -42
      vertex 61.4993 88.7052 -44.005
    endloop
  endfacet
  facet normal -0.745181 0.666862 0
    outer loop
      vertex 61.4993 88.7052 -42
      vertex 60.6044 87.7052 -44.005
      vertex 60.6044 87.7052 -42
    endloop
  endfacet
  facet normal -0.934094 0.357026 0
    outer loop
      vertex 61.4993 88.7052 -44.005
      vertex 61.7542 89.3721 -42
      vertex 61.7542 89.3721 -44.005
    endloop
  endfacet
  facet normal -0.934094 0.357026 0
    outer loop
      vertex 61.7542 89.3721 -42
      vertex 61.4993 88.7052 -44.005
      vertex 61.4993 88.7052 -42
    endloop
  endfacet
  facet normal -0.632465 -0.707096 0.316233
    outer loop
      vertex 59.8548 154.372 -51.6458
      vertex 60.7542 153.372 -52.083
      vertex 59.8593 154.372 -51.6368
    endloop
  endfacet
  facet normal -0.632465 -0.707096 0.316233
    outer loop
      vertex 60.7542 153.372 -52.083
      vertex 59.8548 154.372 -51.6458
      vertex 60.7497 153.372 -52.092
    endloop
  endfacet
  facet normal -0.259052 -0.57733 0.774327
    outer loop
      vertex 60.7497 153.372 -52.092
      vertex 59.8548 154.372 -51.6458
      vertex 59.4085 153.372 -52.5407
    endloop
  endfacet
  facet normal -0.739536 -0.66181 0.122859
    outer loop
      vertex 60.7542 153.372 -52.083
      vertex 61.4993 154.039 -44.005
      vertex 60.6044 155.039 -44.005
    endloop
  endfacet
  facet normal 0 -0.991544 0.12977
    outer loop
      vertex 59.8548 154.372 -51.6458
      vertex 59.8593 155.372 -44.005
      vertex 58.065 155.372 -44.005
    endloop
  endfacet
  facet normal -0.927929 -0.354616 0.114871
    outer loop
      vertex 61.7542 153.372 -44.005
      vertex 61.4993 154.039 -44.005
      vertex 60.7542 153.372 -52.083
    endloop
  endfacet
  facet normal -0.251489 -0.959657 0.125745
    outer loop
      vertex 59.8593 154.372 -51.6368
      vertex 59.8593 155.372 -44.005
      vertex 59.8548 154.372 -51.6458
    endloop
  endfacet
  facet normal -0.405136 -0.906508 0.11878
    outer loop
      vertex 59.8593 154.372 -51.6368
      vertex 60.6044 155.039 -44.005
      vertex 59.8593 155.372 -44.005
    endloop
  endfacet
  facet normal -0.709394 -0.692756 0.129804
    outer loop
      vertex 60.7542 153.372 -52.083
      vertex 60.6044 155.039 -44.005
      vertex 59.8593 154.372 -51.6368
    endloop
  endfacet
  facet normal 0.0729118 -0.986565 0.146197
    outer loop
      vertex 58.065 155.372 -44.005
      vertex 59.2284 154.372 -51.3334
      vertex 59.8548 154.372 -51.6458
    endloop
  endfacet
  facet normal 0.315579 -0.707112 0.632774
    outer loop
      vertex 59.8548 154.372 -51.6458
      vertex 59.2284 154.372 -51.3334
      vertex 58.7821 153.372 -52.2283
    endloop
  endfacet
  facet normal 0.315579 -0.707112 0.632774
    outer loop
      vertex 59.4085 153.372 -52.5407
      vertex 59.8548 154.372 -51.6458
      vertex 58.7821 153.372 -52.2283
    endloop
  endfacet
  facet normal 0.281257 -0.706775 0.649126
    outer loop
      vertex 55.5044 153.372 -51.1785
      vertex 54.9503 153.594 -50.6967
      vertex 54.8621 153.372 -50.9002
    endloop
  endfacet
  facet normal 0.21694 -0.702964 0.677332
    outer loop
      vertex 58.7821 153.372 -52.2283
      vertex 59.2284 154.372 -51.3334
      vertex 55.5044 153.372 -51.1785
    endloop
  endfacet
  facet normal 0 -0.990818 0.135202
    outer loop
      vertex 54.7092 155.372 -44.005
      vertex 59.2284 154.372 -51.3334
      vertex 58.065 155.372 -44.005
    endloop
  endfacet
  facet normal 0.217493 -0.705453 0.674562
    outer loop
      vertex 59.2284 154.372 -51.3334
      vertex 55.902 154.372 -50.2609
      vertex 55.5044 153.372 -51.1785
    endloop
  endfacet
  facet normal 0.0540558 -0.984362 0.167656
    outer loop
      vertex 55.902 154.372 -50.2609
      vertex 59.2284 154.372 -51.3334
      vertex 54.7092 155.372 -44.005
    endloop
  endfacet
  facet normal 0.280823 -0.707219 0.64883
    outer loop
      vertex 55.5044 153.372 -51.1785
      vertex 55.2597 154.372 -49.9826
      vertex 54.9503 153.594 -50.6967
    endloop
  endfacet
  facet normal 0 -0.987464 0.157845
    outer loop
      vertex 55.902 154.372 -50.2609
      vertex 54.7092 155.372 -44.005
      vertex 54.0669 155.372 -44.005
    endloop
  endfacet
  facet normal 0.28112 -0.70712 0.648809
    outer loop
      vertex 55.5044 153.372 -51.1785
      vertex 55.902 154.372 -50.2609
      vertex 55.2597 154.372 -49.9826
    endloop
  endfacet
  facet normal 0.0778108 -0.980661 0.179583
    outer loop
      vertex 55.2597 154.372 -49.9826
      vertex 55.902 154.372 -50.2609
      vertex 54.0669 155.372 -44.005
    endloop
  endfacet
  facet normal 0.166431 -0.703279 0.691158
    outer loop
      vertex 54.8621 153.372 -50.9002
      vertex 51.0785 153.475 -49.8843
      vertex 51.0656 153.372 -49.986
    endloop
  endfacet
  facet normal 0.166863 -0.701921 0.692433
    outer loop
      vertex 51.0785 153.475 -49.8843
      vertex 54.9503 153.594 -50.6967
      vertex 55.2597 154.372 -49.9826
    endloop
  endfacet
  facet normal 0.166942 -0.701463 0.692877
    outer loop
      vertex 51.0785 153.475 -49.8843
      vertex 54.8621 153.372 -50.9002
      vertex 54.9503 153.594 -50.6967
    endloop
  endfacet
  facet normal 0.166324 -0.712608 0.681561
    outer loop
      vertex 51.2481 154.342 -49.035
      vertex 55.2597 154.372 -49.9826
      vertex 51.2537 154.372 -49.005
    endloop
  endfacet
  facet normal 0.167714 -0.706413 0.687643
    outer loop
      vertex 55.2597 154.372 -49.9826
      vertex 51.2481 154.342 -49.035
      vertex 51.0785 153.475 -49.8843
    endloop
  endfacet
  facet normal 0 -0.986294 0.164998
    outer loop
      vertex 55.2597 154.372 -49.9826
      vertex 54.0669 155.372 -44.005
      vertex 50.7921 155.372 -44.005
    endloop
  endfacet
  facet normal 0.0470322 -0.978551 0.200565
    outer loop
      vertex 51.2607 154.399 -48.8749
      vertex 51.5723 154.624 -47.8502
      vertex 51.2088 154.507 -48.3358
    endloop
  endfacet
  facet normal 0.0489132 -0.978485 0.200436
    outer loop
      vertex 55.2597 154.372 -49.9826
      vertex 51.2607 154.399 -48.8749
      vertex 51.2537 154.372 -49.005
    endloop
  endfacet
  facet normal 0.0489484 -0.978515 0.200281
    outer loop
      vertex 51.5723 154.624 -47.8502
      vertex 55.2597 154.372 -49.9826
      vertex 50.7921 155.372 -44.005
    endloop
  endfacet
  facet normal 0.0488007 -0.978573 0.200032
    outer loop
      vertex 51.2607 154.399 -48.8749
      vertex 55.2597 154.372 -49.9826
      vertex 51.5723 154.624 -47.8502
    endloop
  endfacet
  facet normal 0.0401619 -0.977826 0.205533
    outer loop
      vertex 51.2088 154.507 -48.3358
      vertex 51.5723 154.624 -47.8502
      vertex 50.1057 155.372 -44.005
    endloop
  endfacet
  facet normal 0 -0.9816 0.190949
    outer loop
      vertex 51.5723 154.624 -47.8502
      vertex 50.7921 155.372 -44.005
      vertex 50.1057 155.372 -44.005
    endloop
  endfacet
  facet normal 0 -0.98053 0.196368
    outer loop
      vertex 47.4023 155.267 -44.5293
      vertex 50.1057 155.372 -44.005
      vertex 47.5347 155.372 -44.005
    endloop
  endfacet
  facet normal 9.69353e-05 -0.980626 0.195887
    outer loop
      vertex 47.4023 155.267 -44.5293
      vertex 51.2088 154.507 -48.3358
      vertex 50.1057 155.372 -44.005
    endloop
  endfacet
  facet normal 0.00073279 -0.980504 0.196499
    outer loop
      vertex 51.2088 154.507 -48.3358
      vertex 47.4023 155.267 -44.5293
      vertex 51.2607 154.399 -48.8749
    endloop
  endfacet
  facet normal 0.02681 -0.704048 0.709647
    outer loop
      vertex 47.2517 153.421 -49.7933
      vertex 51.0656 153.372 -49.986
      vertex 51.0785 153.475 -49.8843
    endloop
  endfacet
  facet normal 0.0268274 -0.702199 0.711476
    outer loop
      vertex 47.2517 153.421 -49.7933
      vertex 51.0785 153.475 -49.8843
      vertex 51.2481 154.342 -49.035
    endloop
  endfacet
  facet normal 0.0269091 -0.702467 0.711207
    outer loop
      vertex 51.0656 153.372 -49.986
      vertex 47.2517 153.421 -49.7933
      vertex 47.2544 153.372 -49.8418
    endloop
  endfacet
  facet normal 0.027116 -0.709373 0.704311
    outer loop
      vertex 47.1576 154.372 -48.8473
      vertex 51.2481 154.342 -49.035
      vertex 51.2537 154.372 -49.005
    endloop
  endfacet
  facet normal 0.0260354 -0.700314 0.71336
    outer loop
      vertex 51.2481 154.342 -49.035
      vertex 47.2501 153.457 -49.7579
      vertex 47.2517 153.421 -49.7933
    endloop
  endfacet
  facet normal 0.027415 -0.703742 0.709927
    outer loop
      vertex 51.2481 154.342 -49.035
      vertex 47.1576 154.372 -48.8473
      vertex 47.2501 153.457 -49.7579
    endloop
  endfacet
  facet normal 0.00738532 -0.979317 0.202198
    outer loop
      vertex 47.5583 155.034 -45.6635
      vertex 47.4023 155.267 -44.5293
      vertex 47.3669 155.138 -45.1528
    endloop
  endfacet
  facet normal 0.00780669 -0.979224 0.20263
    outer loop
      vertex 51.2607 154.399 -48.8749
      vertex 47.248 154.703 -47.2512
      vertex 47.1576 154.372 -48.8473
    endloop
  endfacet
  facet normal 0.00742486 -0.979315 0.202203
    outer loop
      vertex 47.5583 155.034 -45.6635
      vertex 51.2607 154.399 -48.8749
      vertex 47.4023 155.267 -44.5293
    endloop
  endfacet
  facet normal 0.00780326 -0.979226 0.202622
    outer loop
      vertex 47.248 154.703 -47.2512
      vertex 51.2607 154.399 -48.8749
      vertex 47.5583 155.034 -45.6635
    endloop
  endfacet
  facet normal 0.00780757 -0.97919 0.202794
    outer loop
      vertex 51.2607 154.399 -48.8749
      vertex 47.1576 154.372 -48.8473
      vertex 51.2537 154.372 -49.005
    endloop
  endfacet
  facet normal -0.0213695 -0.977886 0.208044
    outer loop
      vertex 47.248 154.703 -47.2512
      vertex 47.5583 155.034 -45.6635
      vertex 47.1424 154.825 -46.6886
    endloop
  endfacet
  facet normal 0.000301918 -0.979866 0.199655
    outer loop
      vertex 47.5583 155.034 -45.6635
      vertex 47.3669 155.138 -45.1528
      vertex 47.1424 154.825 -46.6886
    endloop
  endfacet
  facet normal -0.037078 -0.978167 0.204485
    outer loop
      vertex 43.0791 154.372 -49.5945
      vertex 47.3669 155.138 -45.1528
      vertex 47.4023 155.267 -44.5293
    endloop
  endfacet
  facet normal -0.0375925 -0.978033 0.205031
    outer loop
      vertex 43.0791 154.372 -49.5945
      vertex 47.248 154.703 -47.2512
      vertex 47.1424 154.825 -46.6886
    endloop
  endfacet
  facet normal -0.0375488 -0.978051 0.204955
    outer loop
      vertex 47.248 154.703 -47.2512
      vertex 43.0791 154.372 -49.5945
      vertex 47.1576 154.372 -48.8473
    endloop
  endfacet
  facet normal -0.037427 -0.978086 0.204808
    outer loop
      vertex 47.3669 155.138 -45.1528
      vertex 43.0791 154.372 -49.5945
      vertex 47.1424 154.825 -46.6886
    endloop
  endfacet
  facet normal -0.0383542 -0.9779 0.205527
    outer loop
      vertex 43.0791 154.372 -49.5945
      vertex 47.4023 155.267 -44.5293
      vertex 47.5347 155.372 -44.005
    endloop
  endfacet
  facet normal -0.127608 -0.706085 0.696534
    outer loop
      vertex 47.2501 153.457 -49.7579
      vertex 47.1576 154.372 -48.8473
      vertex 43.0791 154.372 -49.5945
    endloop
  endfacet
  facet normal 0 -0.98437 0.176111
    outer loop
      vertex 47.5347 155.372 -44.005
      vertex 44.2983 155.372 -44.005
      vertex 43.0791 154.372 -49.5945
    endloop
  endfacet
  facet normal -0.126438 -0.701594 0.701269
    outer loop
      vertex 43.4261 153.372 -50.5324
      vertex 47.2501 153.457 -49.7579
      vertex 43.0791 154.372 -49.5945
    endloop
  endfacet
  facet normal -0.127146 -0.698317 0.704406
    outer loop
      vertex 47.2501 153.457 -49.7579
      vertex 43.4261 153.372 -50.5324
      vertex 47.2517 153.421 -49.7933
    endloop
  endfacet
  facet normal -0.126549 -0.701329 0.701515
    outer loop
      vertex 47.2517 153.421 -49.7933
      vertex 43.4261 153.372 -50.5324
      vertex 47.2544 153.372 -49.8418
    endloop
  endfacet
  facet normal -0.961075 -0.266889 -0.0714445
    outer loop
      vertex 43.2393 153.911 -50.0274
      vertex 43.0791 154.372 -49.5945
      vertex 43.1858 154.065 -49.883
    endloop
  endfacet
  facet normal -0.913204 0.0610071 -0.40291
    outer loop
      vertex 43.0791 154.372 -49.5945
      vertex 43.2393 153.911 -50.0274
      vertex 43.4261 153.372 -50.5324
    endloop
  endfacet
  facet normal 0 -0.985618 0.16899
    outer loop
      vertex 44.2983 155.372 -44.005
      vertex 43.6418 155.372 -44.005
      vertex 42.4226 154.372 -49.8374
    endloop
  endfacet
  facet normal -0.243312 -0.707794 0.663194
    outer loop
      vertex 43.1858 154.065 -49.883
      vertex 43.0791 154.372 -49.5945
      vertex 42.7696 153.372 -50.7753
    endloop
  endfacet
  facet normal -0.245364 -0.707118 0.663159
    outer loop
      vertex 42.7696 153.372 -50.7753
      vertex 43.0791 154.372 -49.5945
      vertex 42.4226 154.372 -49.8374
    endloop
  endfacet
  facet normal -0.0705034 -0.979142 0.190554
    outer loop
      vertex 43.0791 154.372 -49.5945
      vertex 44.2983 155.372 -44.005
      vertex 42.4226 154.372 -49.8374
    endloop
  endfacet
  facet normal -0.244871 -0.707089 0.663373
    outer loop
      vertex 43.2393 153.911 -50.0274
      vertex 43.1858 154.065 -49.883
      vertex 42.7696 153.372 -50.7753
    endloop
  endfacet
  facet normal 0 -0.989555 0.144155
    outer loop
      vertex 43.6418 155.372 -44.005
      vertex 40.3055 155.372 -44.005
      vertex 39.1421 154.372 -50.8695
    endloop
  endfacet
  facet normal -0.212339 -0.706684 0.674915
    outer loop
      vertex 39.1421 154.372 -50.8695
      vertex 42.7696 153.372 -50.7753
      vertex 42.4226 154.372 -49.8374
    endloop
  endfacet
  facet normal -0.0567005 -0.981991 0.180221
    outer loop
      vertex 43.6418 155.372 -44.005
      vertex 39.1421 154.372 -50.8695
      vertex 42.4226 154.372 -49.8374
    endloop
  endfacet
  facet normal -0.2114 -0.702876 0.679173
    outer loop
      vertex 39.348 153.911 -51.2825
      vertex 42.7696 153.372 -50.7753
      vertex 39.1421 154.372 -50.8695
    endloop
  endfacet
  facet normal -0.211397 -0.702125 0.67995
    outer loop
      vertex 42.7696 153.372 -50.7753
      vertex 39.348 153.911 -51.2825
      vertex 39.5882 153.372 -51.7644
    endloop
  endfacet
  facet normal -0.245495 -0.70674 0.663514
    outer loop
      vertex 43.4261 153.372 -50.5324
      vertex 43.2393 153.911 -50.0274
      vertex 42.7696 153.372 -50.7753
    endloop
  endfacet
  facet normal -0.315662 -0.706743 0.633144
    outer loop
      vertex 39.5882 153.372 -51.7644
      vertex 39.348 153.911 -51.2825
      vertex 38.9618 153.372 -52.0767
    endloop
  endfacet
  facet normal -0.315296 -0.707475 0.63251
    outer loop
      vertex 38.5156 154.372 -51.1818
      vertex 39.348 153.911 -51.2825
      vertex 39.1421 154.372 -50.8695
    endloop
  endfacet
  facet normal -0.315018 -0.707096 0.633071
    outer loop
      vertex 39.348 153.911 -51.2825
      vertex 38.5156 154.372 -51.1818
      vertex 38.9618 153.372 -52.0767
    endloop
  endfacet
  facet normal 0 -0.990432 0.138005
    outer loop
      vertex 40.3055 155.372 -44.005
      vertex 39.679 155.372 -44.005
      vertex 38.5156 154.372 -51.1818
    endloop
  endfacet
  facet normal -0.078094 -0.98456 0.156663
    outer loop
      vertex 38.5156 154.372 -51.1818
      vertex 39.1421 154.372 -50.8695
      vertex 40.3055 155.372 -44.005
    endloop
  endfacet
  facet normal -0.209452 -0.702311 0.680359
    outer loop
      vertex 38.5156 154.372 -51.1818
      vertex 35.5248 153.372 -53.1348
      vertex 38.9618 153.372 -52.0767
    endloop
  endfacet
  facet normal -0.207608 -0.704667 0.678486
    outer loop
      vertex 35.4643 153.521 -52.9993
      vertex 38.5156 154.372 -51.1818
      vertex 35.1171 154.372 -52.2217
    endloop
  endfacet
  facet normal -0.208857 -0.70302 0.67981
    outer loop
      vertex 38.5156 154.372 -51.1818
      vertex 35.4643 153.521 -52.9993
      vertex 35.5248 153.372 -53.1348
    endloop
  endfacet
  facet normal 0 -0.992675 0.120812
    outer loop
      vertex 39.679 155.372 -44.005
      vertex 36.3042 155.372 -44.005
      vertex 35.1171 154.372 -52.2217
    endloop
  endfacet
  facet normal -0.0443428 -0.98845 0.144917
    outer loop
      vertex 38.5156 154.372 -51.1818
      vertex 39.679 155.372 -44.005
      vertex 35.1171 154.372 -52.2217
    endloop
  endfacet
  facet normal -0.288193 -0.707134 0.645683
    outer loop
      vertex 34.8856 153.372 -53.4202
      vertex 35.1171 154.372 -52.2217
      vertex 34.4779 154.372 -52.507
    endloop
  endfacet
  facet normal -0.287533 -0.707353 0.645738
    outer loop
      vertex 35.4643 153.521 -52.9993
      vertex 35.1171 154.372 -52.2217
      vertex 34.8856 153.372 -53.4202
    endloop
  endfacet
  facet normal -0.0574849 -0.990004 0.128792
    outer loop
      vertex 35.1171 154.372 -52.2217
      vertex 36.3042 155.372 -44.005
      vertex 34.4779 154.372 -52.507
    endloop
  endfacet
  facet normal 0 -0.993154 0.116814
    outer loop
      vertex 36.3042 155.372 -44.005
      vertex 35.665 155.372 -44.005
      vertex 34.4779 154.372 -52.507
    endloop
  endfacet
  facet normal -0.288877 -0.705662 0.646986
    outer loop
      vertex 35.4643 153.521 -52.9993
      vertex 34.8856 153.372 -53.4202
      vertex 35.5248 153.372 -53.1348
    endloop
  endfacet
  facet normal -0.1621 -0.700636 0.694862
    outer loop
      vertex 31.3367 153.372 -54.2481
      vertex 34.8856 153.372 -53.4202
      vertex 34.4779 154.372 -52.507
    endloop
  endfacet
  facet normal -0.157681 -0.706507 0.689917
    outer loop
      vertex 31.2022 153.834 -53.8066
      vertex 34.4779 154.372 -52.507
      vertex 31.0454 154.372 -53.2915
    endloop
  endfacet
  facet normal -0.158018 -0.705863 0.690499
    outer loop
      vertex 34.4779 154.372 -52.507
      vertex 31.2022 153.834 -53.8066
      vertex 31.3367 153.372 -54.2481
    endloop
  endfacet
  facet normal -0.0275549 -0.992323 0.120564
    outer loop
      vertex 35.665 155.372 -44.005
      vertex 31.0454 154.372 -53.2915
      vertex 34.4779 154.372 -52.507
    endloop
  endfacet
  facet normal 0 -0.994252 0.107064
    outer loop
      vertex 35.665 155.372 -44.005
      vertex 32.289 155.372 -44.005
      vertex 31.0454 154.372 -53.2915
    endloop
  endfacet
  facet normal 0 -0.994494 0.10479
    outer loop
      vertex 32.289 155.372 -44.005
      vertex 31.6193 155.372 -44.005
      vertex 30.3757 154.372 -53.4954
    endloop
  endfacet
  facet normal -0.0339464 -0.993185 0.111495
    outer loop
      vertex 30.3757 154.372 -53.4954
      vertex 31.0454 154.372 -53.2915
      vertex 32.289 155.372 -44.005
    endloop
  endfacet
  facet normal -0.20552 -0.707096 0.676592
    outer loop
      vertex 30.667 153.372 -54.452
      vertex 31.2022 153.834 -53.8066
      vertex 30.3757 154.372 -53.4954
    endloop
  endfacet
  facet normal -0.206059 -0.706749 0.676791
    outer loop
      vertex 31.2022 153.834 -53.8066
      vertex 30.667 153.372 -54.452
      vertex 31.3367 153.372 -54.2481
    endloop
  endfacet
  facet normal -0.205871 -0.707394 0.676174
    outer loop
      vertex 31.2022 153.834 -53.8066
      vertex 31.0454 154.372 -53.2915
      vertex 30.3757 154.372 -53.4954
    endloop
  endfacet
  facet normal -0.0982818 -0.702706 0.704659
    outer loop
      vertex 30.667 153.372 -54.452
      vertex 30.3757 154.372 -53.4954
      vertex 27.1409 153.372 -54.9438
    endloop
  endfacet
  facet normal 0 -0.99499 0.0999709
    outer loop
      vertex 31.6193 155.372 -44.005
      vertex 28.2556 155.372 -44.005
      vertex 26.9738 154.372 -53.9578
    endloop
  endfacet
  facet normal -0.0144973 -0.99419 0.106657
    outer loop
      vertex 30.3757 154.372 -53.4954
      vertex 31.6193 155.372 -44.005
      vertex 26.9738 154.372 -53.9578
    endloop
  endfacet
  facet normal -0.0952598 -0.706938 0.700831
    outer loop
      vertex 27.1409 153.372 -54.9438
      vertex 30.3757 154.372 -53.4954
      vertex 26.9738 154.372 -53.9578
    endloop
  endfacet
  facet normal -0.017321 -0.994617 0.102164
    outer loop
      vertex 26.9738 154.372 -53.9578
      vertex 28.2556 155.372 -44.005
      vertex 26.2837 154.372 -54.0748
    endloop
  endfacet
  facet normal -0.118193 -0.707128 0.697138
    outer loop
      vertex 26.2837 154.372 -54.0748
      vertex 27.1409 153.372 -54.9438
      vertex 26.9738 154.372 -53.9578
    endloop
  endfacet
  facet normal -0.118101 -0.707093 0.697189
    outer loop
      vertex 27.1409 153.372 -54.9438
      vertex 26.2837 154.372 -54.0748
      vertex 26.4508 153.372 -55.0607
    endloop
  endfacet
  facet normal 0 -0.995105 0.0988208
    outer loop
      vertex 26.2837 154.372 -54.0748
      vertex 28.2556 155.372 -44.005
      vertex 26.282 155.372 -44.005
    endloop
  endfacet
  facet normal 0.696921 -0.707092 0.119673
    outer loop
      vertex 26.2837 154.372 -54.0748
      vertex 26.282 154.372 -54.0649
      vertex 25.2961 153.372 -54.232
    endloop
  endfacet
  facet normal 0.472726 -0.577351 0.66573
    outer loop
      vertex 26.4508 153.372 -55.0607
      vertex 26.2837 154.372 -54.0748
      vertex 25.2977 153.372 -54.2419
    endloop
  endfacet
  facet normal 0.70873 -0.698737 0.097311
    outer loop
      vertex 25.2961 153.372 -54.232
      vertex 25.5699 155.074 -44.005
      vertex 24.584 154.074 -44.005
    endloop
  endfacet
  facet normal 0.698039 -0.707117 0.112814
    outer loop
      vertex 25.2977 153.372 -54.2419
      vertex 26.2837 154.372 -54.0748
      vertex 25.2961 153.372 -54.232
    endloop
  endfacet
  facet normal 0.384429 -0.91863 0.0912911
    outer loop
      vertex 26.2837 154.372 -54.0748
      vertex 26.282 155.372 -44.005
      vertex 25.5699 155.074 -44.005
    endloop
  endfacet
  facet normal 0.700306 -0.706958 0.0989048
    outer loop
      vertex 26.282 154.372 -54.0649
      vertex 25.5699 155.074 -44.005
      vertex 25.2961 153.372 -54.232
    endloop
  endfacet
  facet normal 0.566003 -0.818654 0.0971924
    outer loop
      vertex 26.282 154.372 -54.0649
      vertex 26.2837 154.372 -54.0748
      vertex 25.5699 155.074 -44.005
    endloop
  endfacet
  facet normal 0.921452 -0.3779 0.0900999
    outer loop
      vertex 25.2961 153.372 -54.232
      vertex 24.584 154.074 -44.005
      vertex 24.2961 153.372 -44.005
    endloop
  endfacet
  facet normal -0.745181 -0.666862 0
    outer loop
      vertex 61.4993 154.039 -44.005
      vertex 60.6044 155.039 -42
      vertex 60.6044 155.039 -44.005
    endloop
  endfacet
  facet normal -0.745181 -0.666862 0
    outer loop
      vertex 60.6044 155.039 -42
      vertex 61.4993 154.039 -44.005
      vertex 61.4993 154.039 -42
    endloop
  endfacet
  facet normal 0 0 0
    outer loop
      vertex 59.8593 155.372 -44.005
      vertex 54.7092 155.372 -44.005
      vertex 58.065 155.372 -44.005
    endloop
  endfacet
  facet normal 0 0 0
    outer loop
      vertex 59.8593 155.372 -44.005
      vertex 54.0669 155.372 -44.005
      vertex 54.7092 155.372 -44.005
    endloop
  endfacet
  facet normal 0 0 0
    outer loop
      vertex 59.8593 155.372 -44.005
      vertex 50.7921 155.372 -44.005
      vertex 54.0669 155.372 -44.005
    endloop
  endfacet
  facet normal 0 0 0
    outer loop
      vertex 59.8593 155.372 -44.005
      vertex 50.1057 155.372 -44.005
      vertex 50.7921 155.372 -44.005
    endloop
  endfacet
  facet normal 0 0 0
    outer loop
      vertex 59.8593 155.372 -44.005
      vertex 47.5347 155.372 -44.005
      vertex 50.1057 155.372 -44.005
    endloop
  endfacet
  facet normal 0 0 0
    outer loop
      vertex 59.8593 155.372 -44.005
      vertex 44.2983 155.372 -44.005
      vertex 47.5347 155.372 -44.005
    endloop
  endfacet
  facet normal 0 0 0
    outer loop
      vertex 59.8593 155.372 -44.005
      vertex 43.6418 155.372 -44.005
      vertex 44.2983 155.372 -44.005
    endloop
  endfacet
  facet normal 0 0 0
    outer loop
      vertex 59.8593 155.372 -44.005
      vertex 40.3055 155.372 -44.005
      vertex 43.6418 155.372 -44.005
    endloop
  endfacet
  facet normal 0 0 0
    outer loop
      vertex 59.8593 155.372 -44.005
      vertex 39.679 155.372 -44.005
      vertex 40.3055 155.372 -44.005
    endloop
  endfacet
  facet normal 0 0 0
    outer loop
      vertex 59.8593 155.372 -44.005
      vertex 36.3042 155.372 -44.005
      vertex 39.679 155.372 -44.005
    endloop
  endfacet
  facet normal 0 0 0
    outer loop
      vertex 59.8593 155.372 -44.005
      vertex 35.665 155.372 -44.005
      vertex 36.3042 155.372 -44.005
    endloop
  endfacet
  facet normal 0 0 0
    outer loop
      vertex 59.8593 155.372 -44.005
      vertex 32.289 155.372 -44.005
      vertex 35.665 155.372 -44.005
    endloop
  endfacet
  facet normal 0 0 0
    outer loop
      vertex 59.8593 155.372 -44.005
      vertex 31.6193 155.372 -44.005
      vertex 32.289 155.372 -44.005
    endloop
  endfacet
  facet normal 0 0 0
    outer loop
      vertex 59.8593 155.372 -44.005
      vertex 28.2556 155.372 -44.005
      vertex 31.6193 155.372 -44.005
    endloop
  endfacet
  facet normal 0 0 0
    outer loop
      vertex 26.282 155.372 -44.005
      vertex 28.2556 155.372 -44.005
      vertex 59.8593 155.372 -44.005
    endloop
  endfacet
  facet normal -0.934112 -0.356979 0
    outer loop
      vertex 61.7542 153.372 -44.005
      vertex 61.4993 154.039 -42
      vertex 61.4993 154.039 -44.005
    endloop
  endfacet
  facet normal -0.934112 -0.356979 0
    outer loop
      vertex 61.4993 154.039 -42
      vertex 61.7542 153.372 -44.005
      vertex 61.7542 153.372 -42
    endloop
  endfacet
  facet normal 0 -1 0
    outer loop
      vertex 26.282 155.372 -44.005
      vertex 59.8593 155.372 -42
      vertex 26.282 155.372 -42
    endloop
  endfacet
  facet normal 0 -1 -0
    outer loop
      vertex 59.8593 155.372 -42
      vertex 26.282 155.372 -44.005
      vertex 59.8593 155.372 -44.005
    endloop
  endfacet
  facet normal -0.408025 -0.912971 0
    outer loop
      vertex 59.8593 155.372 -44.005
      vertex 60.6044 155.039 -42
      vertex 59.8593 155.372 -42
    endloop
  endfacet
  facet normal -0.408025 -0.912971 -0
    outer loop
      vertex 60.6044 155.039 -42
      vertex 59.8593 155.372 -44.005
      vertex 60.6044 155.039 -44.005
    endloop
  endfacet
  facet normal 0.712109 -0.702069 0
    outer loop
      vertex 24.584 154.074 -42
      vertex 25.5699 155.074 -44.005
      vertex 25.5699 155.074 -42
    endloop
  endfacet
  facet normal 0.712109 -0.702069 0
    outer loop
      vertex 25.5699 155.074 -44.005
      vertex 24.584 154.074 -42
      vertex 24.584 154.074 -44.005
    endloop
  endfacet
  facet normal 0.925215 -0.379444 0
    outer loop
      vertex 24.2961 153.372 -42
      vertex 24.584 154.074 -44.005
      vertex 24.584 154.074 -42
    endloop
  endfacet
  facet normal 0.925215 -0.379444 0
    outer loop
      vertex 24.584 154.074 -44.005
      vertex 24.2961 153.372 -42
      vertex 24.2961 153.372 -44.005
    endloop
  endfacet
  facet normal 0.386041 -0.922482 0
    outer loop
      vertex 25.5699 155.074 -44.005
      vertex 26.282 155.372 -42
      vertex 25.5699 155.074 -42
    endloop
  endfacet
  facet normal 0.386041 -0.922482 0
    outer loop
      vertex 26.282 155.372 -42
      vertex 25.5699 155.074 -44.005
      vertex 26.282 155.372 -44.005
    endloop
  endfacet
  facet normal 0 1 -0
    outer loop
      vertex 59.8593 156.372 -56
      vertex 26.282 156.372 -42
      vertex 59.8593 156.372 -42
    endloop
  endfacet
  facet normal 0 1 0
    outer loop
      vertex 26.282 156.372 -42
      vertex 59.8593 156.372 -56
      vertex 26.282 156.372 -56
    endloop
  endfacet
  facet normal 0.408002 0.912981 -0
    outer loop
      vertex 61.3496 155.706 -56
      vertex 59.8593 156.372 -42
      vertex 61.3496 155.706 -42
    endloop
  endfacet
  facet normal 0.408002 0.912981 0
    outer loop
      vertex 59.8593 156.372 -42
      vertex 61.3496 155.706 -56
      vertex 59.8593 156.372 -56
    endloop
  endfacet
  facet normal 0.745181 0.666862 0
    outer loop
      vertex 62.2445 154.706 -42
      vertex 61.3496 155.706 -56
      vertex 61.3496 155.706 -42
    endloop
  endfacet
  facet normal 0.745181 0.666862 0
    outer loop
      vertex 61.3496 155.706 -56
      vertex 62.2445 154.706 -42
      vertex 62.2445 154.706 -56
    endloop
  endfacet
  facet normal 0.934109 -0.356988 0
    outer loop
      vertex 62.2445 88.0384 -42
      vertex 62.7542 89.3721 -56
      vertex 62.7542 89.3721 -42
    endloop
  endfacet
  facet normal 0.934109 -0.356988 0
    outer loop
      vertex 62.7542 89.3721 -56
      vertex 62.2445 88.0384 -42
      vertex 62.2445 88.0384 -56
    endloop
  endfacet
  facet normal -0.38593 -0.922528 0
    outer loop
      vertex 24.8578 86.9679 -56
      vertex 26.282 86.3721 -42
      vertex 24.8578 86.9679 -42
    endloop
  endfacet
  facet normal -0.38593 -0.922528 -0
    outer loop
      vertex 26.282 86.3721 -42
      vertex 24.8578 86.9679 -56
      vertex 26.282 86.3721 -56
    endloop
  endfacet
  facet normal 0.934136 0.356918 0
    outer loop
      vertex 62.7542 153.372 -42
      vertex 62.2445 154.706 -56
      vertex 62.2445 154.706 -42
    endloop
  endfacet
  facet normal 0.934136 0.356918 0
    outer loop
      vertex 62.2445 154.706 -56
      vertex 62.7542 153.372 -42
      vertex 62.7542 153.372 -56
    endloop
  endfacet
  facet normal -0.925234 -0.379397 0
    outer loop
      vertex 23.8719 87.9679 -56
      vertex 23.2961 89.3721 -42
      vertex 23.2961 89.3721 -56
    endloop
  endfacet
  facet normal -0.925234 -0.379397 0
    outer loop
      vertex 23.2961 89.3721 -42
      vertex 23.8719 87.9679 -56
      vertex 23.8719 87.9679 -42
    endloop
  endfacet
  facet normal -0.712109 -0.702069 0
    outer loop
      vertex 24.8578 86.9679 -56
      vertex 23.8719 87.9679 -42
      vertex 23.8719 87.9679 -56
    endloop
  endfacet
  facet normal -0.712109 -0.702069 0
    outer loop
      vertex 23.8719 87.9679 -42
      vertex 24.8578 86.9679 -56
      vertex 24.8578 86.9679 -42
    endloop
  endfacet
  facet normal 0 0 -1
    outer loop
      vertex 59.8593 86.3721 -56
      vertex 62.7542 89.3721 -56
      vertex 62.2445 88.0384 -56
    endloop
  endfacet
  facet normal 0 0 -1
    outer loop
      vertex 62.7542 89.3721 -56
      vertex 23.2961 89.3721 -56
      vertex 62.7542 153.372 -56
    endloop
  endfacet
  facet normal 0 0 -1
    outer loop
      vertex 59.8593 86.3721 -56
      vertex 62.2445 88.0384 -56
      vertex 61.3496 87.0384 -56
    endloop
  endfacet
  facet normal 0 0 -1
    outer loop
      vertex 26.282 86.3721 -56
      vertex 62.7542 89.3721 -56
      vertex 59.8593 86.3721 -56
    endloop
  endfacet
  facet normal 0 0 -1
    outer loop
      vertex 23.2961 153.372 -56
      vertex 62.7542 153.372 -56
      vertex 23.2961 89.3721 -56
    endloop
  endfacet
  facet normal 0 0 -1
    outer loop
      vertex 62.2445 154.706 -56
      vertex 59.8593 156.372 -56
      vertex 61.3496 155.706 -56
    endloop
  endfacet
  facet normal -0 0 -1
    outer loop
      vertex 62.7542 89.3721 -56
      vertex 26.282 86.3721 -56
      vertex 23.2961 89.3721 -56
    endloop
  endfacet
  facet normal 0 -0 -1
    outer loop
      vertex 26.282 156.372 -56
      vertex 62.7542 153.372 -56
      vertex 23.2961 153.372 -56
    endloop
  endfacet
  facet normal 0 0 -1
    outer loop
      vertex 23.2961 89.3721 -56
      vertex 26.282 86.3721 -56
      vertex 24.8578 86.9679 -56
    endloop
  endfacet
  facet normal 0 0 -1
    outer loop
      vertex 62.7542 153.372 -56
      vertex 59.8593 156.372 -56
      vertex 62.2445 154.706 -56
    endloop
  endfacet
  facet normal 0 0 -1
    outer loop
      vertex 23.2961 89.3721 -56
      vertex 24.8578 86.9679 -56
      vertex 23.8719 87.9679 -56
    endloop
  endfacet
  facet normal 0 0 -1
    outer loop
      vertex 62.7542 153.372 -56
      vertex 26.282 156.372 -56
      vertex 59.8593 156.372 -56
    endloop
  endfacet
  facet normal 0 0 -1
    outer loop
      vertex 26.282 156.372 -56
      vertex 23.2961 153.372 -56
      vertex 24.8578 155.776 -56
    endloop
  endfacet
  facet normal 0 0 -1
    outer loop
      vertex 24.8578 155.776 -56
      vertex 23.2961 153.372 -56
      vertex 23.8719 154.776 -56
    endloop
  endfacet
  facet normal -1 0 0
    outer loop
      vertex 23.2961 89.3721 -56
      vertex 23.2961 153.372 -42
      vertex 23.2961 153.372 -56
    endloop
  endfacet
  facet normal -1 -0 0
    outer loop
      vertex 23.2961 153.372 -42
      vertex 23.2961 89.3721 -56
      vertex 23.2961 89.3721 -42
    endloop
  endfacet
  facet normal 0 0 1
    outer loop
      vertex 61.7542 153.372 -42
      vertex 62.7542 153.372 -42
      vertex 62.2445 154.706 -42
    endloop
  endfacet
  facet normal 0 0 1
    outer loop
      vertex 62.7542 153.372 -42
      vertex 61.7542 153.372 -42
      vertex 62.7542 89.3721 -42
    endloop
  endfacet
  facet normal 0 0 1
    outer loop
      vertex 61.7542 89.3721 -42
      vertex 62.7542 89.3721 -42
      vertex 61.7542 153.372 -42
    endloop
  endfacet
  facet normal 0 0 1
    outer loop
      vertex 62.2445 154.706 -42
      vertex 61.4993 154.039 -42
      vertex 61.7542 153.372 -42
    endloop
  endfacet
  facet normal 0 0 1
    outer loop
      vertex 61.3496 155.706 -42
      vertex 61.4993 154.039 -42
      vertex 62.2445 154.706 -42
    endloop
  endfacet
  facet normal 0 0 1
    outer loop
      vertex 61.3496 155.706 -42
      vertex 60.6044 155.039 -42
      vertex 61.4993 154.039 -42
    endloop
  endfacet
  facet normal 0 0 1
    outer loop
      vertex 59.8593 156.372 -42
      vertex 60.6044 155.039 -42
      vertex 61.3496 155.706 -42
    endloop
  endfacet
  facet normal 0 0 1
    outer loop
      vertex 59.8593 156.372 -42
      vertex 59.8593 155.372 -42
      vertex 60.6044 155.039 -42
    endloop
  endfacet
  facet normal -0 0 1
    outer loop
      vertex 26.282 156.372 -42
      vertex 59.8593 155.372 -42
      vertex 59.8593 156.372 -42
    endloop
  endfacet
  facet normal 0 0 1
    outer loop
      vertex 26.282 156.372 -42
      vertex 26.282 155.372 -42
      vertex 59.8593 155.372 -42
    endloop
  endfacet
  facet normal 0 0 1
    outer loop
      vertex 26.282 156.372 -42
      vertex 25.5699 155.074 -42
      vertex 26.282 155.372 -42
    endloop
  endfacet
  facet normal -0 0 1
    outer loop
      vertex 24.8578 155.776 -42
      vertex 25.5699 155.074 -42
      vertex 26.282 156.372 -42
    endloop
  endfacet
  facet normal 0 0 1
    outer loop
      vertex 24.8578 155.776 -42
      vertex 24.584 154.074 -42
      vertex 25.5699 155.074 -42
    endloop
  endfacet
  facet normal -0 0 1
    outer loop
      vertex 23.8719 154.776 -42
      vertex 24.584 154.074 -42
      vertex 24.8578 155.776 -42
    endloop
  endfacet
  facet normal 0 0 1
    outer loop
      vertex 23.2961 153.372 -42
      vertex 24.2961 153.372 -42
      vertex 23.8719 154.776 -42
    endloop
  endfacet
  facet normal 0 0 1
    outer loop
      vertex 24.584 154.074 -42
      vertex 23.8719 154.776 -42
      vertex 24.2961 153.372 -42
    endloop
  endfacet
  facet normal 0 0 1
    outer loop
      vertex 62.7542 89.3721 -42
      vertex 61.7542 89.3721 -42
      vertex 62.2445 88.0384 -42
    endloop
  endfacet
  facet normal -0 0 1
    outer loop
      vertex 61.4993 88.7052 -42
      vertex 62.2445 88.0384 -42
      vertex 61.7542 89.3721 -42
    endloop
  endfacet
  facet normal 0 0 1
    outer loop
      vertex 61.4993 88.7052 -42
      vertex 61.3496 87.0384 -42
      vertex 62.2445 88.0384 -42
    endloop
  endfacet
  facet normal -0 0 1
    outer loop
      vertex 60.6044 87.7052 -42
      vertex 61.3496 87.0384 -42
      vertex 61.4993 88.7052 -42
    endloop
  endfacet
  facet normal -0 0 1
    outer loop
      vertex 59.8593 87.3721 -42
      vertex 61.3496 87.0384 -42
      vertex 60.6044 87.7052 -42
    endloop
  endfacet
  facet normal 0 0 1
    outer loop
      vertex 59.8593 87.3721 -42
      vertex 59.8593 86.3721 -42
      vertex 61.3496 87.0384 -42
    endloop
  endfacet
  facet normal -0 0 1
    outer loop
      vertex 26.282 87.3721 -42
      vertex 59.8593 86.3721 -42
      vertex 59.8593 87.3721 -42
    endloop
  endfacet
  facet normal 0 0 1
    outer loop
      vertex 26.282 87.3721 -42
      vertex 26.282 86.3721 -42
      vertex 59.8593 86.3721 -42
    endloop
  endfacet
  facet normal 0 0 1
    outer loop
      vertex 25.5699 87.67 -42
      vertex 26.282 86.3721 -42
      vertex 26.282 87.3721 -42
    endloop
  endfacet
  facet normal 0 0 1
    outer loop
      vertex 25.5699 87.67 -42
      vertex 24.8578 86.9679 -42
      vertex 26.282 86.3721 -42
    endloop
  endfacet
  facet normal 0 0 1
    outer loop
      vertex 24.584 88.67 -42
      vertex 24.8578 86.9679 -42
      vertex 25.5699 87.67 -42
    endloop
  endfacet
  facet normal 0 0 1
    outer loop
      vertex 23.8719 87.9679 -42
      vertex 24.584 88.67 -42
      vertex 24.2961 89.3721 -42
    endloop
  endfacet
  facet normal 0 0 1
    outer loop
      vertex 24.584 88.67 -42
      vertex 23.8719 87.9679 -42
      vertex 24.8578 86.9679 -42
    endloop
  endfacet
  facet normal 0 0 1
    outer loop
      vertex 24.2961 153.372 -42
      vertex 23.2961 153.372 -42
      vertex 24.2961 89.3721 -42
    endloop
  endfacet
  facet normal 0 0 1
    outer loop
      vertex 23.2961 89.3721 -42
      vertex 24.2961 89.3721 -42
      vertex 23.2961 153.372 -42
    endloop
  endfacet
  facet normal 0 0 1
    outer loop
      vertex 24.2961 89.3721 -42
      vertex 23.2961 89.3721 -42
      vertex 23.8719 87.9679 -42
    endloop
  endfacet
  facet normal -0.712109 0.702069 0
    outer loop
      vertex 23.8719 154.776 -56
      vertex 24.8578 155.776 -42
      vertex 24.8578 155.776 -56
    endloop
  endfacet
  facet normal -0.712109 0.702069 0
    outer loop
      vertex 24.8578 155.776 -42
      vertex 23.8719 154.776 -56
      vertex 23.8719 154.776 -42
    endloop
  endfacet
  facet normal -0.925215 0.379444 0
    outer loop
      vertex 23.2961 153.372 -56
      vertex 23.8719 154.776 -42
      vertex 23.8719 154.776 -56
    endloop
  endfacet
  facet normal -0.925215 0.379444 0
    outer loop
      vertex 23.8719 154.776 -42
      vertex 23.2961 153.372 -56
      vertex 23.2961 153.372 -42
    endloop
  endfacet
  facet normal -0.386041 0.922482 0
    outer loop
      vertex 26.282 156.372 -56
      vertex 24.8578 155.776 -42
      vertex 26.282 156.372 -42
    endloop
  endfacet
  facet normal -0.386041 0.922482 0
    outer loop
      vertex 24.8578 155.776 -42
      vertex 26.282 156.372 -56
      vertex 24.8578 155.776 -56
    endloop
  endfacet
  facet normal 0 -1 0
    outer loop
      vertex 26.282 86.3721 -56
      vertex 59.8593 86.3721 -42
      vertex 26.282 86.3721 -42
    endloop
  endfacet
  facet normal 0 -1 -0
    outer loop
      vertex 59.8593 86.3721 -42
      vertex 26.282 86.3721 -56
      vertex 59.8593 86.3721 -56
    endloop
  endfacet
  facet normal 0.408155 -0.912913 0
    outer loop
      vertex 59.8593 86.3721 -56
      vertex 61.3496 87.0384 -42
      vertex 59.8593 86.3721 -42
    endloop
  endfacet
  facet normal 0.408155 -0.912913 0
    outer loop
      vertex 61.3496 87.0384 -42
      vertex 59.8593 86.3721 -56
      vertex 61.3496 87.0384 -56
    endloop
  endfacet
  facet normal 0.745181 -0.666862 0
    outer loop
      vertex 61.3496 87.0384 -42
      vertex 62.2445 88.0384 -56
      vertex 62.2445 88.0384 -42
    endloop
  endfacet
  facet normal 0.745181 -0.666862 0
    outer loop
      vertex 62.2445 88.0384 -56
      vertex 61.3496 87.0384 -42
      vertex 61.3496 87.0384 -56
    endloop
  endfacet
  facet normal 1 -0 0
    outer loop
      vertex 62.7542 89.3721 -42
      vertex 62.7542 153.372 -56
      vertex 62.7542 153.372 -42
    endloop
  endfacet
  facet normal 1 0 0
    outer loop
      vertex 62.7542 153.372 -56
      vertex 62.7542 89.3721 -42
      vertex 62.7542 89.3721 -56
    endloop
  endfacet
endsolid OpenSCAD_Model
