solid OpenSCAD_Model
  facet normal 0.432699 0 0.901539
    outer loop
      vertex 10.6898 -89.7154 47.5448
      vertex 11.3209 -161.715 47.2419
      vertex 11.3209 -89.7154 47.2419
    endloop
  endfacet
  facet normal 0.432699 0 0.901539
    outer loop
      vertex 11.3209 -161.715 47.2419
      vertex 10.6898 -89.7154 47.5448
      vertex 10.6898 -161.715 47.5448
    endloop
  endfacet
  facet normal 0.36661 0 0.930375
    outer loop
      vertex 6.23854 -89.7154 49.2988
      vertex 10.6898 -161.715 47.5448
      vertex 10.6898 -89.7154 47.5448
    endloop
  endfacet
  facet normal 0.36661 0 0.930375
    outer loop
      vertex 10.6898 -161.715 47.5448
      vertex 6.23854 -89.7154 49.2988
      vertex 6.23854 -161.715 49.2988
    endloop
  endfacet
  facet normal 0.334145 0 0.942522
    outer loop
      vertex 5.57878 -89.7154 49.5327
      vertex 6.23854 -161.715 49.2988
      vertex 6.23854 -89.7154 49.2988
    endloop
  endfacet
  facet normal 0.334145 0 0.942522
    outer loop
      vertex 6.23854 -161.715 49.2988
      vertex 5.57878 -89.7154 49.5327
      vertex 5.57878 -161.715 49.5327
    endloop
  endfacet
  facet normal 0.334228 0 0.942492
    outer loop
      vertex 4.35353 -89.7154 49.9672
      vertex 5.57878 -161.715 49.5327
      vertex 5.57878 -89.7154 49.5327
    endloop
  endfacet
  facet normal 0.334228 0 0.942492
    outer loop
      vertex 5.57878 -161.715 49.5327
      vertex 4.35353 -89.7154 49.9672
      vertex 4.35353 -161.715 49.9672
    endloop
  endfacet
  facet normal 0.415179 0 0.90974
    outer loop
      vertex 11.3209 -89.7154 47.2419
      vertex 16.6821 -161.715 44.7952
      vertex 16.6821 -89.7154 44.7952
    endloop
  endfacet
  facet normal 0.415179 0 0.90974
    outer loop
      vertex 16.6821 -161.715 44.7952
      vertex 11.3209 -89.7154 47.2419
      vertex 11.3209 -161.715 47.2419
    endloop
  endfacet
  facet normal 0.352963 0 0.935637
    outer loop
      vertex 17.3139 -89.7154 44.4939
      vertex 23.0598 -161.715 42.3263
      vertex 23.0598 -89.7154 42.3263
    endloop
  endfacet
  facet normal 0.352963 0 0.935637
    outer loop
      vertex 23.0598 -161.715 42.3263
      vertex 17.3139 -89.7154 44.4939
      vertex 17.3139 -161.715 44.4939
    endloop
  endfacet
  facet normal 0.430449 0 0.902615
    outer loop
      vertex 16.6821 -89.7154 44.7952
      vertex 17.3139 -161.715 44.4939
      vertex 17.3139 -89.7154 44.4939
    endloop
  endfacet
  facet normal 0.430449 0 0.902615
    outer loop
      vertex 17.3139 -161.715 44.4939
      vertex 16.6821 -89.7154 44.7952
      vertex 16.6821 -161.715 44.7952
    endloop
  endfacet
  facet normal 0.145853 0 0.989306
    outer loop
      vertex 23.0598 -89.7154 42.3263
      vertex 28.2935 -161.715 41.5547
      vertex 28.2935 -89.7154 41.5547
    endloop
  endfacet
  facet normal 0.145853 0 0.989306
    outer loop
      vertex 28.2935 -161.715 41.5547
      vertex 23.0598 -89.7154 42.3263
      vertex 23.0598 -161.715 42.3263
    endloop
  endfacet
  facet normal -0.145855 0 0.989306
    outer loop
      vertex 28.2935 -89.7154 41.5547
      vertex 33.5271 -161.715 42.3263
      vertex 33.5271 -89.7154 42.3263
    endloop
  endfacet
  facet normal -0.145855 0 0.989306
    outer loop
      vertex 33.5271 -161.715 42.3263
      vertex 28.2935 -89.7154 41.5547
      vertex 28.2935 -161.715 41.5547
    endloop
  endfacet
  facet normal -0.352963 0 0.935637
    outer loop
      vertex 33.5271 -89.7154 42.3263
      vertex 39.273 -91.0154 44.4939
      vertex 39.273 -89.7154 44.4939
    endloop
  endfacet
  facet normal -0.352963 0 0.935637
    outer loop
      vertex 39.273 -91.0154 44.4939
      vertex 33.5271 -89.7154 42.3263
      vertex 39.273 -160.415 44.4939
    endloop
  endfacet
  facet normal -0.352963 0 0.935637
    outer loop
      vertex 33.5271 -161.715 42.3263
      vertex 39.273 -160.415 44.4939
      vertex 33.5271 -89.7154 42.3263
    endloop
  endfacet
  facet normal -0.352963 0 0.935637
    outer loop
      vertex 39.273 -160.415 44.4939
      vertex 33.5271 -161.715 42.3263
      vertex 39.273 -161.015 44.4939
    endloop
  endfacet
  facet normal -0.352963 0 0.935637
    outer loop
      vertex 39.273 -161.015 44.4939
      vertex 33.5271 -161.715 42.3263
      vertex 39.273 -161.715 44.4939
    endloop
  endfacet
  facet normal -0.426615 0.00387832 0.904425
    outer loop
      vertex 39.2783 -160.415 44.4964
      vertex 39.273 -160.415 44.4939
      vertex 39.2782 -160.426 44.4964
    endloop
  endfacet
  facet normal -0.430582 0 0.902551
    outer loop
      vertex 39.9048 -90.4155 44.7952
      vertex 39.5646 -161.015 44.6329
      vertex 39.9048 -161.715 44.7952
    endloop
  endfacet
  facet normal -0.430364 -1.29053e-06 0.902655
    outer loop
      vertex 39.2783 -160.415 44.4964
      vertex 39.5646 -161.015 44.6329
      vertex 39.9048 -90.4155 44.7952
    endloop
  endfacet
  facet normal -0.423769 0.00385245 0.905762
    outer loop
      vertex 39.2782 -160.426 44.4964
      vertex 39.5646 -161.015 44.6329
      vertex 39.2783 -160.415 44.4964
    endloop
  endfacet
  facet normal -0.430294 -3.25857e-05 0.902689
    outer loop
      vertex 39.5646 -161.015 44.6329
      vertex 39.2782 -160.426 44.4964
      vertex 39.273 -161.015 44.4939
    endloop
  endfacet
  facet normal -0.430449 0 0.902615
    outer loop
      vertex 39.273 -91.0154 44.4939
      vertex 39.9048 -90.4155 44.7952
      vertex 39.273 -90.4155 44.4939
    endloop
  endfacet
  facet normal -0.430449 -3.5796e-07 0.902615
    outer loop
      vertex 39.9048 -90.4155 44.7952
      vertex 39.273 -91.0154 44.4939
      vertex 39.2783 -160.415 44.4964
    endloop
  endfacet
  facet normal -0.426619 0 0.904432
    outer loop
      vertex 39.2783 -160.415 44.4964
      vertex 39.273 -91.0154 44.4939
      vertex 39.273 -160.415 44.4939
    endloop
  endfacet
  facet normal -0.433294 0 0.901252
    outer loop
      vertex 39.273 -160.426 44.4939
      vertex 39.273 -161.015 44.4939
      vertex 39.2782 -160.426 44.4964
    endloop
  endfacet
  facet normal -0.430449 0 0.902615
    outer loop
      vertex 39.273 -89.7154 44.4939
      vertex 39.9048 -90.4155 44.7952
      vertex 39.9048 -89.7154 44.7952
    endloop
  endfacet
  facet normal -0.430449 0 0.902615
    outer loop
      vertex 39.9048 -90.4155 44.7952
      vertex 39.273 -89.7154 44.4939
      vertex 39.273 -90.4155 44.4939
    endloop
  endfacet
  facet normal -0.942506 0 0.334189
    outer loop
      vertex 0.0690937 -161.715 40.8763
      vertex 2.07425 -89.7154 46.5314
      vertex 0.0690937 -89.7154 40.8763
    endloop
  endfacet
  facet normal -0.942506 0 0.334189
    outer loop
      vertex 2.07425 -89.7154 46.5314
      vertex 0.0690937 -161.715 40.8763
      vertex 2.07425 -161.715 46.5314
    endloop
  endfacet
  facet normal -1 0 -2.6282e-07
    outer loop
      vertex -0.933474 -161.715 0
      vertex -0.933484 -89.7154 38.0488
      vertex -0.933474 -89.7154 0
    endloop
  endfacet
  facet normal -1 -0 -2.6282e-07
    outer loop
      vertex -0.933484 -89.7154 38.0488
      vertex -0.933474 -161.715 0
      vertex -0.933484 -161.715 38.0488
    endloop
  endfacet
  facet normal -0.942504 0 0.334194
    outer loop
      vertex -0.933484 -161.715 38.0488
      vertex 0.0690937 -89.7154 40.8763
      vertex -0.933484 -89.7154 38.0488
    endloop
  endfacet
  facet normal -0.942504 0 0.334194
    outer loop
      vertex 0.0690937 -89.7154 40.8763
      vertex -0.933484 -161.715 38.0488
      vertex 0.0690937 -161.715 40.8763
    endloop
  endfacet
  facet normal -0.430134 0 0.902765
    outer loop
      vertex 3.07683 -89.7154 49.3589
      vertex 4.35353 -161.715 49.9672
      vertex 4.35353 -89.7154 49.9672
    endloop
  endfacet
  facet normal -0.430134 0 0.902765
    outer loop
      vertex 4.35353 -161.715 49.9672
      vertex 3.07683 -89.7154 49.3589
      vertex 3.07683 -161.715 49.3589
    endloop
  endfacet
  facet normal -0.942504 0 0.334195
    outer loop
      vertex 2.07425 -161.715 46.5314
      vertex 3.07683 -89.7154 49.3589
      vertex 2.07425 -89.7154 46.5314
    endloop
  endfacet
  facet normal -0.942504 0 0.334195
    outer loop
      vertex 3.07683 -89.7154 49.3589
      vertex 2.07425 -161.715 46.5314
      vertex 3.07683 -161.715 49.3589
    endloop
  endfacet
  facet normal -0.988805 0.148321 -0.0163093
    outer loop
      vertex -0.187137 -88.9236 0
      vertex -0.933484 -89.7154 38.0488
      vertex -0.187122 -88.9235 0
    endloop
  endfacet
  facet normal -0.666453 0.707106 0.236309
    outer loop
      vertex 4.01933 -88.7154 49.0247
      vertex 0.0090189 -88.7154 37.7146
      vertex 3.07683 -89.7154 49.3589
    endloop
  endfacet
  facet normal -0.727709 0.685886 1.46643e-08
    outer loop
      vertex -0.187122 -88.9235 0
      vertex 0.0090189 -88.7154 37.7146
      vertex 0.00901814 -88.7154 0
    endloop
  endfacet
  facet normal -0.727718 0.685876 1.16455e-07
    outer loop
      vertex 0.0090189 -88.7154 37.7146
      vertex -0.187122 -88.9235 0
      vertex -0.933484 -89.7154 38.0488
    endloop
  endfacet
  facet normal -0.666451 0.707107 0.236311
    outer loop
      vertex 0.0090189 -88.7154 37.7146
      vertex -0.933484 -89.7154 38.0488
      vertex 0.0690937 -89.7154 40.8763
    endloop
  endfacet
  facet normal -0.666458 0.707101 0.236309
    outer loop
      vertex 2.07425 -89.7154 46.5314
      vertex 0.0090189 -88.7154 37.7146
      vertex 0.0690937 -89.7154 40.8763
    endloop
  endfacet
  facet normal 0 1 -0
    outer loop
      vertex 0.688392 -88.7154 0
      vertex 0.0090189 -88.7154 37.7146
      vertex 4.01933 -88.7154 49.0247
    endloop
  endfacet
  facet normal 0 1 0
    outer loop
      vertex 0.0090189 -88.7154 37.7146
      vertex 0.688392 -88.7154 0
      vertex 0.00901814 -88.7154 0
    endloop
  endfacet
  facet normal -0.351203 0.577349 0.737105
    outer loop
      vertex 4.01933 -88.7154 49.0247
      vertex 3.07683 -89.7154 49.3589
      vertex 4.35353 -89.7154 49.9672
    endloop
  endfacet
  facet normal -0.727689 0.685907 -1.91252e-07
    outer loop
      vertex -0.933474 -89.7154 0
      vertex -0.933484 -89.7154 38.0488
      vertex -0.187137 -88.9236 0
    endloop
  endfacet
  facet normal 0 1 -0
    outer loop
      vertex 4.29344 -88.7154 6.5
      vertex 4.01933 -88.7154 49.0247
      vertex 5.37742 -88.7154 6.5
    endloop
  endfacet
  facet normal 0 1 0
    outer loop
      vertex 0.688392 -88.7154 0
      vertex 4.29344 -88.7154 6.5
      vertex 4.29344 -88.7154 0
    endloop
  endfacet
  facet normal 0 1 0
    outer loop
      vertex 4.29344 -88.7154 6.5
      vertex 0.688392 -88.7154 0
      vertex 4.01933 -88.7154 49.0247
    endloop
  endfacet
  facet normal -0.666438 0.707121 0.236307
    outer loop
      vertex 3.07683 -89.7154 49.3589
      vertex 0.0090189 -88.7154 37.7146
      vertex 2.07425 -89.7154 46.5314
    endloop
  endfacet
  facet normal 0.236335 0.707106 0.666443
    outer loop
      vertex 5.57878 -89.7154 49.5327
      vertex 4.01933 -88.7154 49.0247
      vertex 4.35353 -89.7154 49.9672
    endloop
  endfacet
  facet normal 0.236334 0.707105 0.666445
    outer loop
      vertex 5.24459 -88.7154 48.5902
      vertex 4.01933 -88.7154 49.0247
      vertex 5.57878 -89.7154 49.5327
    endloop
  endfacet
  facet normal 0 1 0
    outer loop
      vertex 5.24459 -88.7154 48.5902
      vertex 4.67909 -88.7154 48.7907
      vertex 4.01933 -88.7154 49.0247
    endloop
  endfacet
  facet normal 0 1 -0
    outer loop
      vertex 5.37742 -88.7154 6.5
      vertex 4.67909 -88.7154 48.7907
      vertex 5.56048 -88.7154 6.5
    endloop
  endfacet
  facet normal 0 1 0
    outer loop
      vertex 4.67909 -88.7154 48.7907
      vertex 5.37742 -88.7154 6.5
      vertex 4.01933 -88.7154 49.0247
    endloop
  endfacet
  facet normal 0.236277 0.707105 0.666465
    outer loop
      vertex 6.23854 -89.7154 49.2988
      vertex 5.24459 -88.7154 48.5902
      vertex 5.57878 -89.7154 49.5327
    endloop
  endfacet
  facet normal 0.23628 0.707106 0.666463
    outer loop
      vertex 5.24459 -88.7154 48.5902
      vertex 6.23854 -89.7154 49.2988
      vertex 5.90434 -88.7154 48.3563
    endloop
  endfacet
  facet normal 0.305956 0.707127 0.637466
    outer loop
      vertex 11.3209 -89.7154 47.2419
      vertex 10.2571 -88.7154 46.6432
      vertex 10.6898 -89.7154 47.5448
    endloop
  endfacet
  facet normal 0.305887 0.707095 0.637534
    outer loop
      vertex 10.2571 -88.7154 46.6432
      vertex 11.3209 -89.7154 47.2419
      vertex 10.8882 -88.7154 46.3404
    endloop
  endfacet
  facet normal 0 1 0
    outer loop
      vertex 9.86712 -88.7154 6.5
      vertex 10.2571 -88.7154 46.6432
      vertex 11.0878 -88.7154 6.5
    endloop
  endfacet
  facet normal 0 1 0
    outer loop
      vertex 10.2571 -88.7154 46.6432
      vertex 9.86712 -88.7154 6.5
      vertex 5.90434 -88.7154 48.3563
    endloop
  endfacet
  facet normal 0 1 -0
    outer loop
      vertex 9.5348 -88.7154 6.5
      vertex 5.90434 -88.7154 48.3563
      vertex 9.86712 -88.7154 6.5
    endloop
  endfacet
  facet normal 0 1 0
    outer loop
      vertex 5.90434 -88.7154 48.3563
      vertex 9.5348 -88.7154 6.5
      vertex 5.24459 -88.7154 48.5902
    endloop
  endfacet
  facet normal 0 1 0
    outer loop
      vertex 5.24459 -88.7154 48.5902
      vertex 9.5348 -88.7154 6.5
      vertex 4.67909 -88.7154 48.7907
    endloop
  endfacet
  facet normal 0 1 -0
    outer loop
      vertex 5.56048 -88.7154 6.5
      vertex 4.67909 -88.7154 48.7907
      vertex 9.5348 -88.7154 6.5
    endloop
  endfacet
  facet normal 0.259562 0.706206 0.658711
    outer loop
      vertex 10.2571 -88.7154 46.6432
      vertex 6.23854 -89.7154 49.2988
      vertex 10.6898 -89.7154 47.5448
    endloop
  endfacet
  facet normal 0.259035 0.706899 0.658175
    outer loop
      vertex 10.2571 -88.7154 46.6432
      vertex 5.90434 -88.7154 48.3563
      vertex 6.23854 -89.7154 49.2988
    endloop
  endfacet
  facet normal 0 1 -0
    outer loop
      vertex 11.0878 -88.7154 6.5
      vertex 10.2571 -88.7154 46.6432
      vertex 11.535 -88.7154 6.5
    endloop
  endfacet
  facet normal 0 1 -0
    outer loop
      vertex 11.535 -88.7154 6.5
      vertex 10.8882 -88.7154 46.3404
      vertex 11.717 -88.7154 6.5
    endloop
  endfacet
  facet normal 0 1 0
    outer loop
      vertex 10.8882 -88.7154 46.3404
      vertex 11.535 -88.7154 6.5
      vertex 10.2571 -88.7154 46.6432
    endloop
  endfacet
  facet normal 0 1 -0
    outer loop
      vertex 11.717 -88.7154 6.5
      vertex 10.8882 -88.7154 46.3404
      vertex 15.5108 -88.7154 6.5
    endloop
  endfacet
  facet normal 0 1 0
    outer loop
      vertex 15.5108 -88.7154 6.5
      vertex 16.2517 -88.7154 43.8926
      vertex 17.0659 -88.7154 6.5
    endloop
  endfacet
  facet normal 0 1 0
    outer loop
      vertex 16.2517 -88.7154 43.8926
      vertex 15.5108 -88.7154 6.5
      vertex 10.8882 -88.7154 46.3404
    endloop
  endfacet
  facet normal 0.293607 0.707045 0.643337
    outer loop
      vertex 16.2517 -88.7154 43.8926
      vertex 10.8882 -88.7154 46.3404
      vertex 16.6821 -89.7154 44.7952
    endloop
  endfacet
  facet normal 0.293609 0.707028 0.643354
    outer loop
      vertex 16.6821 -89.7154 44.7952
      vertex 10.8882 -88.7154 46.3404
      vertex 11.3209 -89.7154 47.2419
    endloop
  endfacet
  facet normal 0 1 -0
    outer loop
      vertex 17.5043 -88.7154 6.5
      vertex 16.8835 -88.7154 43.5913
      vertex 17.6957 -88.7154 6.5
    endloop
  endfacet
  facet normal 0 1 0
    outer loop
      vertex 16.8835 -88.7154 43.5913
      vertex 17.5043 -88.7154 6.5
      vertex 16.2517 -88.7154 43.8926
    endloop
  endfacet
  facet normal 0.304379 0.707095 0.638256
    outer loop
      vertex 17.3139 -89.7154 44.4939
      vertex 16.2517 -88.7154 43.8926
      vertex 16.6821 -89.7154 44.7952
    endloop
  endfacet
  facet normal 0.304379 0.707095 0.638256
    outer loop
      vertex 16.2517 -88.7154 43.8926
      vertex 17.3139 -89.7154 44.4939
      vertex 16.8835 -88.7154 43.5913
    endloop
  endfacet
  facet normal 0 1 -0
    outer loop
      vertex 17.0659 -88.7154 6.5
      vertex 16.2517 -88.7154 43.8926
      vertex 17.5043 -88.7154 6.5
    endloop
  endfacet
  facet normal 0.249653 0.706907 0.661783
    outer loop
      vertex 23.0496 -89.6795 42.2918
      vertex 17.3139 -89.7154 44.4939
      vertex 23.0598 -89.7154 42.3263
    endloop
  endfacet
  facet normal 0.250405 0.704832 0.663708
    outer loop
      vertex 23.0437 -89.6581 42.2713
      vertex 17.3139 -89.7154 44.4939
      vertex 23.0496 -89.6795 42.2918
    endloop
  endfacet
  facet normal 0.250034 0.705838 0.662778
    outer loop
      vertex 17.3139 -89.7154 44.4939
      vertex 23.0437 -89.6581 42.2713
      vertex 16.8835 -88.7154 43.5913
    endloop
  endfacet
  facet normal 0 1 -0
    outer loop
      vertex 22.7064 -88.7154 40.18
      vertex 16.8835 -88.7154 43.5913
      vertex 22.7806 -88.7154 41.3661
    endloop
  endfacet
  facet normal 0 1 0
    outer loop
      vertex 22.7689 -88.7154 32.9408
      vertex 16.8835 -88.7154 43.5913
      vertex 22.7064 -88.7154 40.18
    endloop
  endfacet
  facet normal 0 1 -0
    outer loop
      vertex 22.4658 -88.7154 26.1619
      vertex 16.8835 -88.7154 43.5913
      vertex 22.7689 -88.7154 32.9408
    endloop
  endfacet
  facet normal 0 1 0
    outer loop
      vertex 21.2136 -88.7154 6.5
      vertex 22.4658 -88.7154 26.1619
      vertex 22.8322 -88.7154 6.5
    endloop
  endfacet
  facet normal 0 1 0
    outer loop
      vertex 22.4658 -88.7154 26.1619
      vertex 21.2136 -88.7154 6.5
      vertex 16.8835 -88.7154 43.5913
    endloop
  endfacet
  facet normal 0.250022 0.706016 0.662594
    outer loop
      vertex 22.7806 -88.7154 41.3661
      vertex 16.8835 -88.7154 43.5913
      vertex 23.0437 -89.6581 42.2713
    endloop
  endfacet
  facet normal 0 1 -0
    outer loop
      vertex 17.6957 -88.7154 6.5
      vertex 16.8835 -88.7154 43.5913
      vertex 21.2136 -88.7154 6.5
    endloop
  endfacet
  facet normal 0 1 -0
    outer loop
      vertex 22.8322 -88.7154 6.5
      vertex 22.4658 -88.7154 26.1619
      vertex 23.1977 -88.7154 6.5
    endloop
  endfacet
  facet normal 0 1 0
    outer loop
      vertex 23.4111 -88.7154 6.5
      vertex 22.4658 -88.7154 26.1619
      vertex 22.7689 -88.7154 32.9408
    endloop
  endfacet
  facet normal 0 1 0
    outer loop
      vertex 22.4658 -88.7154 26.1619
      vertex 23.4111 -88.7154 6.5
      vertex 23.1977 -88.7154 6.5
    endloop
  endfacet
  facet normal 0 1 0
    outer loop
      vertex 29.9291 -88.7154 6.5
      vertex 33.818 -88.7154 32.9408
      vertex 33.1758 -88.7154 6.5
    endloop
  endfacet
  facet normal 0 1 -0
    outer loop
      vertex 33.818 -88.7154 32.9408
      vertex 29.9291 -88.7154 6.5
      vertex 33.8805 -88.7154 40.18
    endloop
  endfacet
  facet normal 0 1 0
    outer loop
      vertex 26.6578 -88.7154 6.5
      vertex 22.7689 -88.7154 32.9408
      vertex 22.7064 -88.7154 40.18
    endloop
  endfacet
  facet normal 0 1 0
    outer loop
      vertex 22.7689 -88.7154 32.9408
      vertex 26.6578 -88.7154 6.5
      vertex 23.4111 -88.7154 6.5
    endloop
  endfacet
  facet normal 0 1 0
    outer loop
      vertex 28.2935 -88.7154 40.5546
      vertex 22.7064 -88.7154 40.18
      vertex 22.7806 -88.7154 41.3661
    endloop
  endfacet
  facet normal 0 1 0
    outer loop
      vertex 26.6578 -88.7154 6.5
      vertex 28.2935 -88.7154 40.5546
      vertex 28.2934 -88.7154 6.5
    endloop
  endfacet
  facet normal 0 1 0
    outer loop
      vertex 28.2935 -88.7154 40.5546
      vertex 26.6578 -88.7154 6.5
      vertex 22.7064 -88.7154 40.18
    endloop
  endfacet
  facet normal 0.103905 0.702804 0.703754
    outer loop
      vertex 28.2935 -88.7676 40.6069
      vertex 23.0437 -89.6581 42.2713
      vertex 23.0496 -89.6795 42.2918
    endloop
  endfacet
  facet normal 0.103456 0.70377 0.702855
    outer loop
      vertex 28.2935 -88.7676 40.6069
      vertex 22.7806 -88.7154 41.3661
      vertex 23.0437 -89.6581 42.2713
    endloop
  endfacet
  facet normal 0.103429 0.703987 0.702641
    outer loop
      vertex 22.7806 -88.7154 41.3661
      vertex 28.2935 -88.7676 40.6069
      vertex 28.2935 -88.7154 40.5546
    endloop
  endfacet
  facet normal 0.103538 0.704321 0.702291
    outer loop
      vertex 28.2935 -89.7154 41.5547
      vertex 23.0496 -89.6795 42.2918
      vertex 23.0598 -89.7154 42.3263
    endloop
  endfacet
  facet normal 0.103672 0.703297 0.703297
    outer loop
      vertex 23.0496 -89.6795 42.2918
      vertex 28.2935 -89.7154 41.5547
      vertex 28.2935 -88.7676 40.6069
    endloop
  endfacet
  facet normal 0 1 0
    outer loop
      vertex 33.8805 -88.7154 40.18
      vertex 28.2935 -88.7154 40.5546
      vertex 33.8063 -88.7154 41.3661
    endloop
  endfacet
  facet normal 0 1 -0
    outer loop
      vertex 29.9291 -88.7154 6.5
      vertex 28.2935 -88.7154 40.5546
      vertex 33.8805 -88.7154 40.18
    endloop
  endfacet
  facet normal 0 1 0
    outer loop
      vertex 28.2935 -88.7154 40.5546
      vertex 29.9291 -88.7154 6.5
      vertex 28.2934 -88.7154 6.5
    endloop
  endfacet
  facet normal -0.103907 0.702804 0.703754
    outer loop
      vertex 33.5432 -89.6581 42.2713
      vertex 28.2935 -88.7676 40.6069
      vertex 33.5373 -89.6795 42.2918
    endloop
  endfacet
  facet normal -0.103458 0.70377 0.702855
    outer loop
      vertex 33.8063 -88.7154 41.3661
      vertex 28.2935 -88.7676 40.6069
      vertex 33.5432 -89.6581 42.2713
    endloop
  endfacet
  facet normal -0.103431 0.703987 0.702641
    outer loop
      vertex 28.2935 -88.7676 40.6069
      vertex 33.8063 -88.7154 41.3661
      vertex 28.2935 -88.7154 40.5546
    endloop
  endfacet
  facet normal -0.10354 0.704321 0.70229
    outer loop
      vertex 33.5373 -89.6795 42.2918
      vertex 28.2935 -89.7154 41.5547
      vertex 33.5271 -89.7154 42.3263
    endloop
  endfacet
  facet normal -0.103674 0.703296 0.703296
    outer loop
      vertex 28.2935 -89.7154 41.5547
      vertex 33.5373 -89.6795 42.2918
      vertex 28.2935 -88.7676 40.6069
    endloop
  endfacet
  facet normal 0 1 0
    outer loop
      vertex 33.1758 -88.7154 6.5
      vertex 34.1211 -88.7154 26.1619
      vertex 33.3892 -88.7154 6.5
    endloop
  endfacet
  facet normal 0 1 0
    outer loop
      vertex 34.1211 -88.7154 26.1619
      vertex 33.1758 -88.7154 6.5
      vertex 33.818 -88.7154 32.9408
    endloop
  endfacet
  facet normal 0 1 -0
    outer loop
      vertex 33.7547 -88.7154 6.5
      vertex 33.3892 -88.7154 6.5
      vertex 34.1211 -88.7154 26.1619
    endloop
  endfacet
  facet normal -0.250022 0.706016 0.662594
    outer loop
      vertex 33.8063 -88.7154 41.3661
      vertex 33.5432 -89.6581 42.2713
      vertex 39.7034 -88.7154 43.5913
    endloop
  endfacet
  facet normal 0 1 -0
    outer loop
      vertex 38.8912 -88.7154 6.5
      vertex 35.3733 -88.7154 6.5
      vertex 39.7034 -88.7154 43.5913
    endloop
  endfacet
  facet normal 0 1 0
    outer loop
      vertex 39.7034 -88.7154 43.5913
      vertex 33.8805 -88.7154 40.18
      vertex 33.8063 -88.7154 41.3661
    endloop
  endfacet
  facet normal 0 1 0
    outer loop
      vertex 39.7034 -88.7154 43.5913
      vertex 33.818 -88.7154 32.9408
      vertex 33.8805 -88.7154 40.18
    endloop
  endfacet
  facet normal 0 1 0
    outer loop
      vertex 39.7034 -88.7154 43.5913
      vertex 34.1211 -88.7154 26.1619
      vertex 33.818 -88.7154 32.9408
    endloop
  endfacet
  facet normal 0 1 -0
    outer loop
      vertex 35.3733 -88.7154 6.5
      vertex 34.1211 -88.7154 26.1619
      vertex 39.7034 -88.7154 43.5913
    endloop
  endfacet
  facet normal 0 1 0
    outer loop
      vertex 34.1211 -88.7154 26.1619
      vertex 35.3733 -88.7154 6.5
      vertex 33.7547 -88.7154 6.5
    endloop
  endfacet
  facet normal -0.250034 0.705838 0.662778
    outer loop
      vertex 33.5432 -89.6581 42.2713
      vertex 39.273 -89.7154 44.4939
      vertex 39.7034 -88.7154 43.5913
    endloop
  endfacet
  facet normal -0.249653 0.706907 0.661783
    outer loop
      vertex 39.273 -89.7154 44.4939
      vertex 33.5373 -89.6795 42.2918
      vertex 33.5271 -89.7154 42.3263
    endloop
  endfacet
  facet normal -0.250405 0.704832 0.663708
    outer loop
      vertex 39.273 -89.7154 44.4939
      vertex 33.5432 -89.6581 42.2713
      vertex 33.5373 -89.6795 42.2918
    endloop
  endfacet
  facet normal 0 0 0
    outer loop
      vertex 39.273 -91.0154 44.4939
      vertex 39.273 -90.4155 44.4939
      vertex 39.273 -89.7154 44.4939
    endloop
  endfacet
  facet normal 0 1 0
    outer loop
      vertex 43.919 -88.7154 6.5
      vertex 45.5004 -88.7154 33.0611
      vertex 45.5004 -88.7154 6.5
    endloop
  endfacet
  facet normal 0 1 0
    outer loop
      vertex 45.5004 -88.7154 33.0611
      vertex 43.919 -88.7154 6.5
      vertex 40.3352 -88.7154 43.8926
    endloop
  endfacet
  facet normal 0 1 0
    outer loop
      vertex 43.919 -88.7154 6.5
      vertex 39.0826 -88.7154 6.5
      vertex 40.3352 -88.7154 43.8926
    endloop
  endfacet
  facet normal -0.304379 0.707095 0.638256
    outer loop
      vertex 40.3352 -88.7154 43.8926
      vertex 39.7034 -88.7154 43.5913
      vertex 39.9048 -89.7154 44.7952
    endloop
  endfacet
  facet normal -0.304379 0.707095 0.638256
    outer loop
      vertex 39.7034 -88.7154 43.5913
      vertex 39.273 -89.7154 44.4939
      vertex 39.9048 -89.7154 44.7952
    endloop
  endfacet
  facet normal 0 1 0
    outer loop
      vertex 39.0826 -88.7154 6.5
      vertex 39.7034 -88.7154 43.5913
      vertex 40.3352 -88.7154 43.8926
    endloop
  endfacet
  facet normal 0 1 0
    outer loop
      vertex 39.7034 -88.7154 43.5913
      vertex 39.0826 -88.7154 6.5
      vertex 38.8912 -88.7154 6.5
    endloop
  endfacet
  facet normal 1 -0 0
    outer loop
      vertex 46.403 -161.715 33.4915
      vertex 46.403 -89.7154 0
      vertex 46.403 -89.7154 33.4915
    endloop
  endfacet
  facet normal 1 0 0
    outer loop
      vertex 46.403 -89.7154 0
      vertex 46.403 -161.715 33.4915
      vertex 46.403 -161.715 0
    endloop
  endfacet
  facet normal 0.742438 0.669915 0
    outer loop
      vertex 45.5004 -88.7154 33.0611
      vertex 45.7729 -89.0174 6.5
      vertex 45.5004 -88.7154 6.5
    endloop
  endfacet
  facet normal 0.742289 0.67008 0
    outer loop
      vertex 45.7729 -89.0174 6.5
      vertex 46.403 -89.7154 33.4915
      vertex 45.7729 -89.0174 3.13169
    endloop
  endfacet
  facet normal 0.742334 0.67003 -2.36959e-06
    outer loop
      vertex 46.403 -89.7154 33.4915
      vertex 45.7729 -89.0174 6.5
      vertex 45.5004 -88.7154 33.0611
    endloop
  endfacet
  facet normal 0.638235 0.707126 0.304348
    outer loop
      vertex 46.403 -89.7154 33.4915
      vertex 40.3352 -88.7154 43.8926
      vertex 41.2379 -89.7154 44.323
    endloop
  endfacet
  facet normal 0.742289 0.67008 0
    outer loop
      vertex 45.7729 -89.0174 3.13169
      vertex 46.403 -89.7154 0
      vertex 45.7729 -89.0174 0
    endloop
  endfacet
  facet normal 0.742289 0.67008 -0
    outer loop
      vertex 46.403 -89.7154 0
      vertex 45.7729 -89.0174 3.13169
      vertex 46.403 -89.7154 33.4915
    endloop
  endfacet
  facet normal 0.638262 0.707095 0.304367
    outer loop
      vertex 45.5004 -88.7154 33.0611
      vertex 40.3352 -88.7154 43.8926
      vertex 46.403 -89.7154 33.4915
    endloop
  endfacet
  facet normal 0.902626 -0 0.430426
    outer loop
      vertex 41.2379 -161.715 44.323
      vertex 46.403 -89.7154 33.4915
      vertex 41.2379 -89.7154 44.323
    endloop
  endfacet
  facet normal 0.902626 0 0.430426
    outer loop
      vertex 46.403 -89.7154 33.4915
      vertex 41.2379 -161.715 44.323
      vertex 46.403 -161.715 33.4915
    endloop
  endfacet
  facet normal 0.272617 0.577346 0.769644
    outer loop
      vertex 40.3352 -88.7154 43.8926
      vertex 39.9048 -89.7154 44.7952
      vertex 41.2379 -89.7154 44.323
    endloop
  endfacet
  facet normal 0.333885 -0 0.942614
    outer loop
      vertex 39.9048 -90.4155 44.7952
      vertex 41.2379 -89.7154 44.323
      vertex 39.9048 -89.7154 44.7952
    endloop
  endfacet
  facet normal 0.333885 0 0.942614
    outer loop
      vertex 41.2379 -89.7154 44.323
      vertex 39.9048 -90.4155 44.7952
      vertex 41.2379 -161.715 44.323
    endloop
  endfacet
  facet normal 0.333885 0 0.942614
    outer loop
      vertex 41.2379 -161.715 44.323
      vertex 39.9048 -90.4155 44.7952
      vertex 39.9048 -161.715 44.7952
    endloop
  endfacet
  facet normal 0.272617 -0.577346 0.769644
    outer loop
      vertex 41.2379 -161.715 44.323
      vertex 39.9048 -161.715 44.7952
      vertex 40.3352 -162.715 43.8926
    endloop
  endfacet
  facet normal 0.638235 -0.707126 0.304348
    outer loop
      vertex 41.2379 -161.715 44.323
      vertex 40.3352 -162.715 43.8926
      vertex 46.403 -161.715 33.4915
    endloop
  endfacet
  facet normal 0 -1 -0
    outer loop
      vertex 40.3352 -162.715 43.8926
      vertex 38.8649 -162.715 0
      vertex 44.542 -162.715 0
    endloop
  endfacet
  facet normal 0.742719 -0.669603 0
    outer loop
      vertex 46.403 -161.715 33.4915
      vertex 45.7079 -162.486 0
      vertex 46.403 -161.715 0
    endloop
  endfacet
  facet normal 0.638262 -0.707095 0.304367
    outer loop
      vertex 46.403 -161.715 33.4915
      vertex 40.3352 -162.715 43.8926
      vertex 45.5004 -162.715 33.0611
    endloop
  endfacet
  facet normal 0.74233 -0.670035 1.80122e-05
    outer loop
      vertex 45.5004 -162.715 33.0611
      vertex 45.7079 -162.486 0
      vertex 46.403 -161.715 33.4915
    endloop
  endfacet
  facet normal 0.741037 -0.671464 0
    outer loop
      vertex 45.7079 -162.486 0
      vertex 45.5004 -162.715 33.0611
      vertex 45.5004 -162.715 0
    endloop
  endfacet
  facet normal 0 -1 0
    outer loop
      vertex 44.542 -162.715 0
      vertex 45.5004 -162.715 33.0611
      vertex 40.3352 -162.715 43.8926
    endloop
  endfacet
  facet normal 0 -1 -0
    outer loop
      vertex 45.5004 -162.715 33.0611
      vertex 44.542 -162.715 0
      vertex 45.5004 -162.715 0
    endloop
  endfacet
  facet normal -0.433294 0 0.901252
    outer loop
      vertex 39.2782 -160.426 44.4964
      vertex 39.273 -160.415 44.4939
      vertex 39.273 -160.426 44.4939
    endloop
  endfacet
  facet normal -0.430294 0 0.902689
    outer loop
      vertex 39.273 -161.715 44.4939
      vertex 39.5646 -161.015 44.6329
      vertex 39.273 -161.015 44.4939
    endloop
  endfacet
  facet normal -0.430449 7.93507e-05 0.902615
    outer loop
      vertex 39.5646 -161.015 44.6329
      vertex 39.273 -161.715 44.4939
      vertex 39.9048 -161.715 44.7952
    endloop
  endfacet
  facet normal 0 -1 0
    outer loop
      vertex 38.8649 -162.715 0
      vertex 39.7034 -162.715 43.5913
      vertex 38.7489 -162.715 0
    endloop
  endfacet
  facet normal 0 -1 -0
    outer loop
      vertex 39.7034 -162.715 43.5913
      vertex 38.8649 -162.715 0
      vertex 40.3352 -162.715 43.8926
    endloop
  endfacet
  facet normal -0.304379 -0.707095 0.638256
    outer loop
      vertex 39.9048 -161.715 44.7952
      vertex 39.7034 -162.715 43.5913
      vertex 40.3352 -162.715 43.8926
    endloop
  endfacet
  facet normal -0.304379 -0.707095 0.638256
    outer loop
      vertex 39.9048 -161.715 44.7952
      vertex 39.273 -161.715 44.4939
      vertex 39.7034 -162.715 43.5913
    endloop
  endfacet
  facet normal 0 0 0
    outer loop
      vertex 39.273 -160.415 44.4939
      vertex 39.273 -161.015 44.4939
      vertex 39.273 -160.426 44.4939
    endloop
  endfacet
  facet normal -0.249929 -0.706279 0.662349
    outer loop
      vertex 39.7034 -162.715 43.5913
      vertex 33.5432 -161.773 42.2713
      vertex 33.8063 -162.715 41.3661
    endloop
  endfacet
  facet normal 0 -1 0
    outer loop
      vertex 33.8805 -162.715 40.18
      vertex 39.7034 -162.715 43.5913
      vertex 33.8063 -162.715 41.3661
    endloop
  endfacet
  facet normal 0 -1 0
    outer loop
      vertex 33.818 -162.715 32.9408
      vertex 39.7034 -162.715 43.5913
      vertex 33.8805 -162.715 40.18
    endloop
  endfacet
  facet normal 0 -1 0
    outer loop
      vertex 34.1211 -162.715 26.1619
      vertex 39.7034 -162.715 43.5913
      vertex 33.818 -162.715 32.9408
    endloop
  endfacet
  facet normal 0 -1 0
    outer loop
      vertex 34.6145 -162.715 0
      vertex 34.1211 -162.715 26.1619
      vertex 33.6336 -162.715 0
    endloop
  endfacet
  facet normal 0 -1 0
    outer loop
      vertex 34.1211 -162.715 26.1619
      vertex 34.6145 -162.715 0
      vertex 39.7034 -162.715 43.5913
    endloop
  endfacet
  facet normal 0 -1 0
    outer loop
      vertex 39.7034 -162.715 43.5913
      vertex 34.6145 -162.715 0
      vertex 38.7489 -162.715 0
    endloop
  endfacet
  facet normal -0.25 -0.705922 0.662702
    outer loop
      vertex 33.5373 -161.751 42.2918
      vertex 39.273 -161.715 44.4939
      vertex 33.5271 -161.715 42.3263
    endloop
  endfacet
  facet normal -0.253918 -0.694956 0.672728
    outer loop
      vertex 33.5432 -161.773 42.2713
      vertex 39.273 -161.715 44.4939
      vertex 33.5373 -161.751 42.2918
    endloop
  endfacet
  facet normal -0.24996 -0.705835 0.66281
    outer loop
      vertex 39.273 -161.715 44.4939
      vertex 33.5432 -161.773 42.2713
      vertex 39.7034 -162.715 43.5913
    endloop
  endfacet
  facet normal 0 -1 0
    outer loop
      vertex 33.0179 -162.715 0
      vertex 34.1211 -162.715 26.1619
      vertex 33.818 -162.715 32.9408
    endloop
  endfacet
  facet normal 0 -1 0
    outer loop
      vertex 34.1211 -162.715 26.1619
      vertex 33.0179 -162.715 0
      vertex 33.1472 -162.715 0
    endloop
  endfacet
  facet normal 0 -1 0
    outer loop
      vertex 34.1211 -162.715 26.1619
      vertex 33.1472 -162.715 0
      vertex 33.6336 -162.715 0
    endloop
  endfacet
  facet normal 0 -1 0
    outer loop
      vertex 28.2935 -162.715 40.5546
      vertex 33.8805 -162.715 40.18
      vertex 33.8063 -162.715 41.3661
    endloop
  endfacet
  facet normal 0 -1 0
    outer loop
      vertex 29.1665 -162.715 0
      vertex 28.2935 -162.715 40.5546
      vertex 28.2934 -162.715 0
    endloop
  endfacet
  facet normal 0 -1 0
    outer loop
      vertex 28.2935 -162.715 40.5546
      vertex 29.1665 -162.715 0
      vertex 33.8805 -162.715 40.18
    endloop
  endfacet
  facet normal 0 -1 0
    outer loop
      vertex 27.4204 -162.715 0
      vertex 22.7689 -162.715 32.9408
      vertex 23.569 -162.715 0
    endloop
  endfacet
  facet normal 0 -1 0
    outer loop
      vertex 22.7689 -162.715 32.9408
      vertex 27.4204 -162.715 0
      vertex 22.7064 -162.715 40.18
    endloop
  endfacet
  facet normal 0 -1 0
    outer loop
      vertex 29.1665 -162.715 0
      vertex 33.818 -162.715 32.9408
      vertex 33.8805 -162.715 40.18
    endloop
  endfacet
  facet normal 0 -1 0
    outer loop
      vertex 33.818 -162.715 32.9408
      vertex 29.1665 -162.715 0
      vertex 33.0179 -162.715 0
    endloop
  endfacet
  facet normal -0.108429 -0.693115 0.712625
    outer loop
      vertex 28.2935 -162.663 40.6069
      vertex 33.5432 -161.773 42.2713
      vertex 33.5373 -161.751 42.2918
    endloop
  endfacet
  facet normal -0.1034 -0.704032 0.7026
    outer loop
      vertex 28.2935 -162.663 40.6069
      vertex 33.8063 -162.715 41.3661
      vertex 33.5432 -161.773 42.2713
    endloop
  endfacet
  facet normal -0.103234 -0.705349 0.701303
    outer loop
      vertex 33.8063 -162.715 41.3661
      vertex 28.2935 -162.663 40.6069
      vertex 28.2935 -162.715 40.5546
    endloop
  endfacet
  facet normal -0.103683 -0.703333 0.703259
    outer loop
      vertex 28.2935 -161.715 41.5547
      vertex 33.5373 -161.751 42.2918
      vertex 33.5271 -161.715 42.3263
    endloop
  endfacet
  facet normal -0.103698 -0.70322 0.703369
    outer loop
      vertex 33.5373 -161.751 42.2918
      vertex 28.2935 -161.715 41.5547
      vertex 28.2935 -162.663 40.6069
    endloop
  endfacet
  facet normal 0 -1 0
    outer loop
      vertex 22.7064 -162.715 40.18
      vertex 28.2935 -162.715 40.5546
      vertex 22.7806 -162.715 41.3661
    endloop
  endfacet
  facet normal 0 -1 0
    outer loop
      vertex 27.4204 -162.715 0
      vertex 28.2935 -162.715 40.5546
      vertex 22.7064 -162.715 40.18
    endloop
  endfacet
  facet normal 0 -1 0
    outer loop
      vertex 28.2935 -162.715 40.5546
      vertex 27.4204 -162.715 0
      vertex 28.2934 -162.715 0
    endloop
  endfacet
  facet normal 0.108427 -0.693115 0.712625
    outer loop
      vertex 23.0437 -161.773 42.2713
      vertex 28.2935 -162.663 40.6069
      vertex 23.0496 -161.751 42.2918
    endloop
  endfacet
  facet normal 0.103398 -0.704032 0.702601
    outer loop
      vertex 22.7806 -162.715 41.3661
      vertex 28.2935 -162.663 40.6069
      vertex 23.0437 -161.773 42.2713
    endloop
  endfacet
  facet normal 0.103232 -0.705349 0.701303
    outer loop
      vertex 28.2935 -162.663 40.6069
      vertex 22.7806 -162.715 41.3661
      vertex 28.2935 -162.715 40.5546
    endloop
  endfacet
  facet normal 0.103681 -0.703333 0.703259
    outer loop
      vertex 23.0496 -161.751 42.2918
      vertex 28.2935 -161.715 41.5547
      vertex 23.0598 -161.715 42.3263
    endloop
  endfacet
  facet normal 0.103696 -0.703221 0.703369
    outer loop
      vertex 28.2935 -161.715 41.5547
      vertex 23.0496 -161.751 42.2918
      vertex 28.2935 -162.663 40.6069
    endloop
  endfacet
  facet normal 0 -1 0
    outer loop
      vertex 23.4397 -162.715 0
      vertex 22.4658 -162.715 26.1619
      vertex 22.9533 -162.715 0
    endloop
  endfacet
  facet normal 0 -1 0
    outer loop
      vertex 23.569 -162.715 0
      vertex 22.4658 -162.715 26.1619
      vertex 23.4397 -162.715 0
    endloop
  endfacet
  facet normal 0 -1 0
    outer loop
      vertex 22.4658 -162.715 26.1619
      vertex 23.569 -162.715 0
      vertex 22.7689 -162.715 32.9408
    endloop
  endfacet
  facet normal 0.249929 -0.706279 0.662349
    outer loop
      vertex 16.8835 -162.715 43.5913
      vertex 22.7806 -162.715 41.3661
      vertex 23.0437 -161.773 42.2713
    endloop
  endfacet
  facet normal 0 -1 0
    outer loop
      vertex 16.8835 -162.715 43.5913
      vertex 22.7064 -162.715 40.18
      vertex 22.7806 -162.715 41.3661
    endloop
  endfacet
  facet normal 0 -1 0
    outer loop
      vertex 16.8835 -162.715 43.5913
      vertex 22.7689 -162.715 32.9408
      vertex 22.7064 -162.715 40.18
    endloop
  endfacet
  facet normal 0 -1 0
    outer loop
      vertex 16.8835 -162.715 43.5913
      vertex 22.4658 -162.715 26.1619
      vertex 22.7689 -162.715 32.9408
    endloop
  endfacet
  facet normal 0 -1 0
    outer loop
      vertex 21.9724 -162.715 0
      vertex 22.4658 -162.715 26.1619
      vertex 16.8835 -162.715 43.5913
    endloop
  endfacet
  facet normal 0 -1 -0
    outer loop
      vertex 22.4658 -162.715 26.1619
      vertex 21.9724 -162.715 0
      vertex 22.9533 -162.715 0
    endloop
  endfacet
  facet normal 0.24996 -0.705835 0.66281
    outer loop
      vertex 23.0437 -161.773 42.2713
      vertex 17.3139 -161.715 44.4939
      vertex 16.8835 -162.715 43.5913
    endloop
  endfacet
  facet normal 0.25 -0.705922 0.662702
    outer loop
      vertex 17.3139 -161.715 44.4939
      vertex 23.0496 -161.751 42.2918
      vertex 23.0598 -161.715 42.3263
    endloop
  endfacet
  facet normal 0.253918 -0.694956 0.672728
    outer loop
      vertex 17.3139 -161.715 44.4939
      vertex 23.0437 -161.773 42.2713
      vertex 23.0496 -161.751 42.2918
    endloop
  endfacet
  facet normal 0 -1 0
    outer loop
      vertex 21.9724 -162.715 0
      vertex 16.8835 -162.715 43.5913
      vertex 17.838 -162.715 0
    endloop
  endfacet
  facet normal 0 -1 0
    outer loop
      vertex 17.722 -162.715 0
      vertex 16.8835 -162.715 43.5913
      vertex 16.2517 -162.715 43.8926
    endloop
  endfacet
  facet normal 0 -1 0
    outer loop
      vertex 16.8835 -162.715 43.5913
      vertex 17.722 -162.715 0
      vertex 17.838 -162.715 0
    endloop
  endfacet
  facet normal 0.304379 -0.707095 0.638256
    outer loop
      vertex 16.2517 -162.715 43.8926
      vertex 17.3139 -161.715 44.4939
      vertex 16.6821 -161.715 44.7952
    endloop
  endfacet
  facet normal 0.304379 -0.707095 0.638256
    outer loop
      vertex 17.3139 -161.715 44.4939
      vertex 16.2517 -162.715 43.8926
      vertex 16.8835 -162.715 43.5913
    endloop
  endfacet
  facet normal 0 -1 0
    outer loop
      vertex 17.722 -162.715 0
      vertex 16.2517 -162.715 43.8926
      vertex 17.2074 -162.715 0
    endloop
  endfacet
  facet normal 0.293609 -0.707028 0.643354
    outer loop
      vertex 11.3209 -161.715 47.2419
      vertex 10.8882 -162.715 46.3404
      vertex 16.6821 -161.715 44.7952
    endloop
  endfacet
  facet normal 0 -1 0
    outer loop
      vertex 16.2649 -162.715 0
      vertex 16.2517 -162.715 43.8926
      vertex 10.8882 -162.715 46.3404
    endloop
  endfacet
  facet normal 0 -1 0
    outer loop
      vertex 16.2517 -162.715 43.8926
      vertex 16.2649 -162.715 0
      vertex 17.2074 -162.715 0
    endloop
  endfacet
  facet normal 0 -1 0
    outer loop
      vertex 16.2649 -162.715 0
      vertex 10.8882 -162.715 46.3404
      vertex 11.8523 -162.715 0
    endloop
  endfacet
  facet normal 0.293607 -0.707045 0.643337
    outer loop
      vertex 10.8882 -162.715 46.3404
      vertex 16.2517 -162.715 43.8926
      vertex 16.6821 -161.715 44.7952
    endloop
  endfacet
  facet normal 0 -1 0
    outer loop
      vertex 11.742 -162.715 0
      vertex 10.2571 -162.715 46.6432
      vertex 11.2223 -162.715 0
    endloop
  endfacet
  facet normal 0 -1 0
    outer loop
      vertex 11.742 -162.715 0
      vertex 10.8882 -162.715 46.3404
      vertex 10.2571 -162.715 46.6432
    endloop
  endfacet
  facet normal 0 -1 0
    outer loop
      vertex 10.8882 -162.715 46.3404
      vertex 11.742 -162.715 0
      vertex 11.8523 -162.715 0
    endloop
  endfacet
  facet normal 0.305956 -0.707127 0.637466
    outer loop
      vertex 10.2571 -162.715 46.6432
      vertex 11.3209 -161.715 47.2419
      vertex 10.6898 -161.715 47.5448
    endloop
  endfacet
  facet normal 0.305887 -0.707095 0.637534
    outer loop
      vertex 11.3209 -161.715 47.2419
      vertex 10.2571 -162.715 46.6432
      vertex 10.8882 -162.715 46.3404
    endloop
  endfacet
  facet normal 0 -1 0
    outer loop
      vertex 10.2811 -162.715 0
      vertex 4.67909 -162.715 48.7907
      vertex 5.69595 -162.715 0
    endloop
  endfacet
  facet normal 0.259035 -0.706899 0.658175
    outer loop
      vertex 6.23854 -161.715 49.2988
      vertex 5.90434 -162.715 48.3563
      vertex 10.2571 -162.715 46.6432
    endloop
  endfacet
  facet normal 0.259562 -0.706206 0.658711
    outer loop
      vertex 10.6898 -161.715 47.5448
      vertex 6.23854 -161.715 49.2988
      vertex 10.2571 -162.715 46.6432
    endloop
  endfacet
  facet normal 0 -1 0
    outer loop
      vertex 10.4825 -162.715 0
      vertex 10.2571 -162.715 46.6432
      vertex 5.90434 -162.715 48.3563
    endloop
  endfacet
  facet normal 0 -1 0
    outer loop
      vertex 10.2571 -162.715 46.6432
      vertex 10.4825 -162.715 0
      vertex 11.2223 -162.715 0
    endloop
  endfacet
  facet normal 0 -1 0
    outer loop
      vertex 10.2811 -162.715 0
      vertex 5.24459 -162.715 48.5902
      vertex 4.67909 -162.715 48.7907
    endloop
  endfacet
  facet normal 0 -1 0
    outer loop
      vertex 10.2811 -162.715 0
      vertex 5.90434 -162.715 48.3563
      vertex 5.24459 -162.715 48.5902
    endloop
  endfacet
  facet normal 0 -1 0
    outer loop
      vertex 5.90434 -162.715 48.3563
      vertex 10.2811 -162.715 0
      vertex 10.4825 -162.715 0
    endloop
  endfacet
  facet normal 0 -1 0
    outer loop
      vertex 0.688392 -162.715 0
      vertex 0.0090189 -162.715 37.7146
      vertex 0.00901814 -162.715 0
    endloop
  endfacet
  facet normal 0 -1 0
    outer loop
      vertex 0.0090189 -162.715 37.7146
      vertex 0.688392 -162.715 0
      vertex 4.01933 -162.715 49.0247
    endloop
  endfacet
  facet normal 0.236335 -0.707106 0.666443
    outer loop
      vertex 4.35353 -161.715 49.9672
      vertex 4.01933 -162.715 49.0247
      vertex 5.57878 -161.715 49.5327
    endloop
  endfacet
  facet normal 0 -1 0
    outer loop
      vertex 5.58501 -162.715 0
      vertex 4.67909 -162.715 48.7907
      vertex 4.01933 -162.715 49.0247
    endloop
  endfacet
  facet normal 0 -1 0
    outer loop
      vertex 4.67909 -162.715 48.7907
      vertex 5.58501 -162.715 0
      vertex 5.69595 -162.715 0
    endloop
  endfacet
  facet normal 0 -1 0
    outer loop
      vertex 4.67909 -162.715 48.7907
      vertex 5.24459 -162.715 48.5902
      vertex 4.01933 -162.715 49.0247
    endloop
  endfacet
  facet normal 0 -1 -0
    outer loop
      vertex 4.01933 -162.715 49.0247
      vertex 0.688392 -162.715 0
      vertex 5.58501 -162.715 0
    endloop
  endfacet
  facet normal 0.236277 -0.707105 0.666465
    outer loop
      vertex 5.24459 -162.715 48.5902
      vertex 6.23854 -161.715 49.2988
      vertex 5.57878 -161.715 49.5327
    endloop
  endfacet
  facet normal 0.23628 -0.707106 0.666463
    outer loop
      vertex 6.23854 -161.715 49.2988
      vertex 5.24459 -162.715 48.5902
      vertex 5.90434 -162.715 48.3563
    endloop
  endfacet
  facet normal 0.236334 -0.707105 0.666445
    outer loop
      vertex 5.57878 -161.715 49.5327
      vertex 4.01933 -162.715 49.0247
      vertex 5.24459 -162.715 48.5902
    endloop
  endfacet
  facet normal -0.727776 -0.685815 -1.91274e-07
    outer loop
      vertex -0.187137 -162.507 0
      vertex -0.933484 -161.715 38.0488
      vertex -0.933474 -161.715 0
    endloop
  endfacet
  facet normal -0.666453 -0.707106 0.236309
    outer loop
      vertex 3.07683 -161.715 49.3589
      vertex 0.0090189 -162.715 37.7146
      vertex 4.01933 -162.715 49.0247
    endloop
  endfacet
  facet normal -0.666451 -0.707107 0.236311
    outer loop
      vertex 0.0690937 -161.715 40.8763
      vertex -0.933484 -161.715 38.0488
      vertex 0.0090189 -162.715 37.7146
    endloop
  endfacet
  facet normal 0 -0.999783 0.0208109
    outer loop
      vertex -0.187122 -162.507 0
      vertex -0.933484 -161.715 38.0488
      vertex -0.187137 -162.507 0
    endloop
  endfacet
  facet normal -0.351203 -0.577349 0.737105
    outer loop
      vertex 4.35353 -161.715 49.9672
      vertex 3.07683 -161.715 49.3589
      vertex 4.01933 -162.715 49.0247
    endloop
  endfacet
  facet normal -0.727544 -0.686061 1.4661e-08
    outer loop
      vertex 0.0090189 -162.715 37.7146
      vertex -0.187122 -162.507 0
      vertex 0.00901814 -162.715 0
    endloop
  endfacet
  facet normal -0.727718 -0.685877 1.9317e-06
    outer loop
      vertex -0.187122 -162.507 0
      vertex 0.0090189 -162.715 37.7146
      vertex -0.933484 -161.715 38.0488
    endloop
  endfacet
  facet normal -0.666458 -0.707101 0.236309
    outer loop
      vertex 0.0690937 -161.715 40.8763
      vertex 0.0090189 -162.715 37.7146
      vertex 2.07425 -161.715 46.5314
    endloop
  endfacet
  facet normal -0.666438 -0.707121 0.236307
    outer loop
      vertex 2.07425 -161.715 46.5314
      vertex 0.0090189 -162.715 37.7146
      vertex 3.07683 -161.715 49.3589
    endloop
  endfacet
  facet normal -0 0 1
    outer loop
      vertex 2.17926 -59.0462 6.5
      vertex 5.74121 -69.1514 6.5
      vertex 7.60195 -59.0462 6.5
    endloop
  endfacet
  facet normal 0 0 1
    outer loop
      vertex 2.17926 -59.0462 6.5
      vertex -0.633938 -65.4312 6.5
      vertex 5.74121 -69.1514 6.5
    endloop
  endfacet
  facet normal 0 0 1
    outer loop
      vertex 2.17926 -59.0462 6.5
      vertex -3.64746 -62.1994 6.5
      vertex -0.633938 -65.4312 6.5
    endloop
  endfacet
  facet normal 0 -0 1
    outer loop
      vertex -3.64746 -62.1994 6.5
      vertex 2.17926 -59.0462 6.5
      vertex -5.19064 -59.0462 6.5
    endloop
  endfacet
  facet normal 0 0 1
    outer loop
      vertex 33.4327 -57.9351 6.5
      vertex 30.7729 -65.1391 6.5
      vertex 35.2365 -57.9974 6.5
    endloop
  endfacet
  facet normal 0 0 1
    outer loop
      vertex 29.9132 -57.8135 6.5
      vertex 30.7729 -65.1391 6.5
      vertex 33.4327 -57.9351 6.5
    endloop
  endfacet
  facet normal 0 0 1
    outer loop
      vertex 27.5144 -57.7505 6.5
      vertex 30.7729 -65.1391 6.5
      vertex 29.9132 -57.8135 6.5
    endloop
  endfacet
  facet normal 0 0 1
    outer loop
      vertex 30.7729 -65.1391 6.5
      vertex 28.2934 -88.7154 6.5
      vertex 29.9291 -88.7154 6.5
    endloop
  endfacet
  facet normal 0 0 1
    outer loop
      vertex 26.6516 -57.7279 6.5
      vertex 30.7729 -65.1391 6.5
      vertex 27.5144 -57.7505 6.5
    endloop
  endfacet
  facet normal 0 0 1
    outer loop
      vertex 30.7729 -65.1391 6.5
      vertex 26.6578 -88.7154 6.5
      vertex 28.2934 -88.7154 6.5
    endloop
  endfacet
  facet normal 0 0 1
    outer loop
      vertex 18.3306 -57.5804 6.5
      vertex 30.7729 -65.1391 6.5
      vertex 26.6516 -57.7279 6.5
    endloop
  endfacet
  facet normal 0 0 1
    outer loop
      vertex 30.7729 -65.1391 6.5
      vertex 23.4111 -88.7154 6.5
      vertex 26.6578 -88.7154 6.5
    endloop
  endfacet
  facet normal 0 0 1
    outer loop
      vertex 30.7729 -65.1391 6.5
      vertex 23.1977 -88.7154 6.5
      vertex 23.4111 -88.7154 6.5
    endloop
  endfacet
  facet normal 0 0 1
    outer loop
      vertex 30.7729 -65.1391 6.5
      vertex 22.8322 -88.7154 6.5
      vertex 23.1977 -88.7154 6.5
    endloop
  endfacet
  facet normal 0 0 1
    outer loop
      vertex 5.74121 -69.1514 6.5
      vertex 30.7729 -65.1391 6.5
      vertex 18.3306 -57.5804 6.5
    endloop
  endfacet
  facet normal 0 0 1
    outer loop
      vertex 30.7729 -65.1391 6.5
      vertex 21.2136 -88.7154 6.5
      vertex 22.8322 -88.7154 6.5
    endloop
  endfacet
  facet normal 0 0 1
    outer loop
      vertex 5.34632 -72.0257 6.5
      vertex 30.7729 -65.1391 6.5
      vertex 5.46072 -71.193 6.5
    endloop
  endfacet
  facet normal 0 0 1
    outer loop
      vertex 30.7729 -65.1391 6.5
      vertex 5.34632 -72.0257 6.5
      vertex 21.2136 -88.7154 6.5
    endloop
  endfacet
  facet normal 0 0 1
    outer loop
      vertex 21.2136 -88.7154 6.5
      vertex 5.34632 -72.0257 6.5
      vertex 17.6957 -88.7154 6.5
    endloop
  endfacet
  facet normal 0 0 1
    outer loop
      vertex 17.6957 -88.7154 6.5
      vertex 5.34632 -72.0257 6.5
      vertex 17.5043 -88.7154 6.5
    endloop
  endfacet
  facet normal 0 0 1
    outer loop
      vertex 5.74121 -69.1514 6.5
      vertex 18.3306 -57.5804 6.5
      vertex 12.1662 -57.4711 6.5
    endloop
  endfacet
  facet normal 0 0 1
    outer loop
      vertex 30.7729 -65.1391 6.5
      vertex 5.74121 -69.1514 6.5
      vertex 5.46072 -71.193 6.5
    endloop
  endfacet
  facet normal 0 0 1
    outer loop
      vertex 17.0659 -88.7154 6.5
      vertex 5.34632 -72.0257 6.5
      vertex 15.5108 -88.7154 6.5
    endloop
  endfacet
  facet normal 0 0 1
    outer loop
      vertex 15.5108 -88.7154 6.5
      vertex 5.34632 -72.0257 6.5
      vertex 11.717 -88.7154 6.5
    endloop
  endfacet
  facet normal 0 0 1
    outer loop
      vertex 5.74121 -69.1514 6.5
      vertex 12.1662 -57.4711 6.5
      vertex 10.2223 -58.142 6.5
    endloop
  endfacet
  facet normal 0 0 1
    outer loop
      vertex 17.5043 -88.7154 6.5
      vertex 5.34632 -72.0257 6.5
      vertex 17.0659 -88.7154 6.5
    endloop
  endfacet
  facet normal 0 0 1
    outer loop
      vertex 11.717 -88.7154 6.5
      vertex 5.34632 -72.0257 6.5
      vertex 11.535 -88.7154 6.5
    endloop
  endfacet
  facet normal 0 0 1
    outer loop
      vertex 5.74121 -69.1514 6.5
      vertex 10.2223 -58.142 6.5
      vertex 7.60195 -59.0462 6.5
    endloop
  endfacet
  facet normal 0 0 1
    outer loop
      vertex 11.535 -88.7154 6.5
      vertex 5.34632 -72.0257 6.5
      vertex 11.0878 -88.7154 6.5
    endloop
  endfacet
  facet normal -0 0 1
    outer loop
      vertex 5.08377 -72.2392 6.5
      vertex 11.0878 -88.7154 6.5
      vertex 5.34632 -72.0257 6.5
    endloop
  endfacet
  facet normal -0 0 1
    outer loop
      vertex 4.97463 -72.3279 6.5
      vertex 11.0878 -88.7154 6.5
      vertex 5.08377 -72.2392 6.5
    endloop
  endfacet
  facet normal 0 0 1
    outer loop
      vertex 11.0878 -88.7154 6.5
      vertex 4.97463 -72.3279 6.5
      vertex 9.86712 -88.7154 6.5
    endloop
  endfacet
  facet normal 0 0 1
    outer loop
      vertex 9.86712 -88.7154 6.5
      vertex 4.97463 -72.3279 6.5
      vertex 9.5348 -88.7154 6.5
    endloop
  endfacet
  facet normal 0 0 1
    outer loop
      vertex 9.5348 -88.7154 6.5
      vertex 4.97463 -72.3279 6.5
      vertex 5.56048 -88.7154 6.5
    endloop
  endfacet
  facet normal 0 0 1
    outer loop
      vertex 5.56048 -88.7154 6.5
      vertex 4.97463 -72.3279 6.5
      vertex 5.37742 -88.7154 6.5
    endloop
  endfacet
  facet normal -0 0 1
    outer loop
      vertex 4.29344 -72.3408 6.5
      vertex 5.37742 -88.7154 6.5
      vertex 4.97463 -72.3279 6.5
    endloop
  endfacet
  facet normal 0 0 1
    outer loop
      vertex 5.37742 -88.7154 6.5
      vertex 4.29344 -72.3408 6.5
      vertex 4.29344 -88.7154 6.5
    endloop
  endfacet
  facet normal 0 0 1
    outer loop
      vertex 45.7729 -65.1391 6.5
      vertex 45.5004 -88.7154 6.5
      vertex 45.7729 -89.0174 6.5
    endloop
  endfacet
  facet normal 0 0 1
    outer loop
      vertex 45.7729 -65.1391 6.5
      vertex 43.919 -88.7154 6.5
      vertex 45.5004 -88.7154 6.5
    endloop
  endfacet
  facet normal 0 0 1
    outer loop
      vertex 45.7729 -65.1391 6.5
      vertex 39.0826 -88.7154 6.5
      vertex 43.919 -88.7154 6.5
    endloop
  endfacet
  facet normal 0 0 1
    outer loop
      vertex 45.7729 -65.1391 6.5
      vertex 38.8912 -88.7154 6.5
      vertex 39.0826 -88.7154 6.5
    endloop
  endfacet
  facet normal -0 0 1
    outer loop
      vertex 30.7729 -65.1391 6.5
      vertex 38.8912 -88.7154 6.5
      vertex 45.7729 -65.1391 6.5
    endloop
  endfacet
  facet normal 0 0 1
    outer loop
      vertex 38.8912 -88.7154 6.5
      vertex 30.7729 -65.1391 6.5
      vertex 35.3733 -88.7154 6.5
    endloop
  endfacet
  facet normal 0 0 1
    outer loop
      vertex 35.3733 -88.7154 6.5
      vertex 30.7729 -65.1391 6.5
      vertex 33.7547 -88.7154 6.5
    endloop
  endfacet
  facet normal 0 0 1
    outer loop
      vertex 33.7547 -88.7154 6.5
      vertex 30.7729 -65.1391 6.5
      vertex 33.3892 -88.7154 6.5
    endloop
  endfacet
  facet normal 0 0 1
    outer loop
      vertex 33.3892 -88.7154 6.5
      vertex 30.7729 -65.1391 6.5
      vertex 33.1758 -88.7154 6.5
    endloop
  endfacet
  facet normal 0 0 1
    outer loop
      vertex 33.1758 -88.7154 6.5
      vertex 30.7729 -65.1391 6.5
      vertex 29.9291 -88.7154 6.5
    endloop
  endfacet
  facet normal -0.731374 -0.681976 0
    outer loop
      vertex -0.633939 -65.4312 0
      vertex -3.64746 -62.1994 6.5
      vertex -3.64746 -62.1994 0
    endloop
  endfacet
  facet normal -0.731374 -0.681977 1.12519e-07
    outer loop
      vertex -3.64746 -62.1994 6.5
      vertex -0.633939 -65.4312 0
      vertex -0.633938 -65.4312 6.5
    endloop
  endfacet
  facet normal -1 0 0
    outer loop
      vertex 4.29344 -88.7154 0
      vertex 4.29344 -72.3408 6.5
      vertex 4.29344 -72.3408 0
    endloop
  endfacet
  facet normal -1 -0 0
    outer loop
      vertex 4.29344 -72.3408 6.5
      vertex 4.29344 -88.7154 0
      vertex 4.29344 -88.7154 6.5
    endloop
  endfacet
  facet normal 1 0 0
    outer loop
      vertex 45.7729 -89.0174 3.13169
      vertex 45.7729 -65.1391 6.5
      vertex 45.7729 -89.0174 6.5
    endloop
  endfacet
  facet normal 1 0 0
    outer loop
      vertex 45.7729 -65.1391 6.5
      vertex 45.7729 -89.0174 3.13169
      vertex 45.7729 -65.1391 0
    endloop
  endfacet
  facet normal 1 0 0
    outer loop
      vertex 45.7729 -65.1391 0
      vertex 45.7729 -89.0174 3.13169
      vertex 45.7729 -89.0174 0
    endloop
  endfacet
  facet normal 0.0345176 0.999404 0
    outer loop
      vertex 35.2365 -57.9974 6.5
      vertex 35.2365 -57.9974 4.12593
      vertex 33.4327 -57.9351 6.5
    endloop
  endfacet
  facet normal 0.0345298 0.999404 9.23746e-06
    outer loop
      vertex 35.2365 -57.9974 4.12593
      vertex 29.9132 -57.8135 6.5
      vertex 33.4327 -57.9351 6.5
    endloop
  endfacet
  facet normal 0.0345256 0.999404 0
    outer loop
      vertex 29.9132 -57.8135 0
      vertex 35.2365 -57.9974 4.12593
      vertex 35.2365 -57.9974 0
    endloop
  endfacet
  facet normal 0.0345256 0.999404 0
    outer loop
      vertex 35.2365 -57.9974 4.12593
      vertex 29.9132 -57.8135 0
      vertex 29.9132 -57.8135 6.5
    endloop
  endfacet
  facet normal 0.0262669 0.999655 0
    outer loop
      vertex 28.4594 -57.7753 0
      vertex 29.9132 -57.8135 6.5
      vertex 29.9132 -57.8135 0
    endloop
  endfacet
  facet normal 0.0262541 0.999655 2.86968e-06
    outer loop
      vertex 29.9132 -57.8135 6.5
      vertex 28.4594 -57.7753 0
      vertex 27.5144 -57.7505 6.5
    endloop
  endfacet
  facet normal 0.0262136 0.999656 -3.01869e-06
    outer loop
      vertex 26.6518 -57.7279 0
      vertex 27.5144 -57.7505 6.5
      vertex 28.4594 -57.7753 0
    endloop
  endfacet
  facet normal 0.0261848 0.999657 8.05686e-07
    outer loop
      vertex 27.5144 -57.7505 6.5
      vertex 26.6518 -57.7279 0
      vertex 26.6516 -57.7279 6.5
    endloop
  endfacet
  facet normal 0.0177286 0.999843 5.45497e-07
    outer loop
      vertex 22.078 -57.6468 0
      vertex 26.6516 -57.7279 6.5
      vertex 26.6518 -57.7279 0
    endloop
  endfacet
  facet normal 0.0177235 0.999843 4.19817e-06
    outer loop
      vertex 26.6516 -57.7279 6.5
      vertex 22.078 -57.6468 0
      vertex 18.3306 -57.5804 6.5
    endloop
  endfacet
  facet normal 0.0177236 0.999843 4.26247e-06
    outer loop
      vertex 12.1662 -57.4711 0
      vertex 18.3306 -57.5804 6.5
      vertex 22.078 -57.6468 0
    endloop
  endfacet
  facet normal 0.0177281 0.999843 0
    outer loop
      vertex 18.3306 -57.5804 6.5
      vertex 12.1662 -57.4711 0
      vertex 12.1662 -57.4711 6.5
    endloop
  endfacet
  facet normal -0.326247 0.945285 0
    outer loop
      vertex 12.1662 -57.4711 0
      vertex 10.2223 -58.142 6.5
      vertex 12.1662 -57.4711 6.5
    endloop
  endfacet
  facet normal -0.326229 0.945291 6.1596e-06
    outer loop
      vertex 10.2223 -58.142 6.5
      vertex 12.1662 -57.4711 0
      vertex 9.19004 -58.4982 0
    endloop
  endfacet
  facet normal 0 1 -0
    outer loop
      vertex 7.60195 -59.0462 0
      vertex 2.17926 -59.0462 6.5
      vertex 7.60195 -59.0462 6.5
    endloop
  endfacet
  facet normal 0 1 0
    outer loop
      vertex 2.17926 -59.0462 6.5
      vertex 7.60195 -59.0462 0
      vertex -2.14297 -59.0462 0
    endloop
  endfacet
  facet normal -0.326194 0.945303 4.56216e-08
    outer loop
      vertex 9.19004 -58.4982 0
      vertex 7.60195 -59.0462 6.5
      vertex 10.2223 -58.142 6.5
    endloop
  endfacet
  facet normal -0.326194 0.945303 0
    outer loop
      vertex 7.60195 -59.0462 6.5
      vertex 9.19004 -58.4982 0
      vertex 7.60195 -59.0462 0
    endloop
  endfacet
  facet normal 0 1 -0
    outer loop
      vertex -2.14297 -59.0462 0
      vertex -5.19064 -59.0462 6.5
      vertex 2.17926 -59.0462 6.5
    endloop
  endfacet
  facet normal 0 1 0
    outer loop
      vertex -5.19064 -59.0462 6.5
      vertex -2.14297 -59.0462 0
      vertex -5.19064 -59.0462 0
    endloop
  endfacet
  facet normal -0.898203 -0.439582 0
    outer loop
      vertex -3.64746 -62.1994 0
      vertex -5.19064 -59.0462 6.5
      vertex -5.19064 -59.0462 0
    endloop
  endfacet
  facet normal -0.898203 -0.439582 0
    outer loop
      vertex -5.19064 -59.0462 6.5
      vertex -3.64746 -62.1994 0
      vertex -3.64746 -62.1994 6.5
    endloop
  endfacet
  facet normal -0.504009 -0.863698 7.75398e-08
    outer loop
      vertex -0.633939 -65.4312 0
      vertex 5.74121 -69.1514 6.5
      vertex -0.633938 -65.4312 6.5
    endloop
  endfacet
  facet normal -0.504009 -0.863699 -0
    outer loop
      vertex 5.74121 -69.1514 6.5
      vertex -0.633939 -65.4312 0
      vertex 5.74121 -69.1514 0
    endloop
  endfacet
  facet normal -0.990694 0.13611 1.52414e-06
    outer loop
      vertex 5.34632 -72.0257 6.5
      vertex 5.41565 -71.521 0
      vertex 5.34631 -72.0257 0
    endloop
  endfacet
  facet normal -0.990694 0.136106 1.20603e-06
    outer loop
      vertex 5.41565 -71.521 0
      vertex 5.34632 -72.0257 6.5
      vertex 5.46072 -71.193 6.5
    endloop
  endfacet
  facet normal -0.990694 0.136109 0
    outer loop
      vertex 5.74121 -69.1514 0
      vertex 5.46072 -71.193 6.5
      vertex 5.74121 -69.1514 6.5
    endloop
  endfacet
  facet normal -0.990694 0.136112 9.1284e-07
    outer loop
      vertex 5.46072 -71.193 6.5
      vertex 5.74121 -69.1514 0
      vertex 5.41565 -71.521 0
    endloop
  endfacet
  facet normal -0.630694 0.776031 5.59426e-06
    outer loop
      vertex 5.04077 -72.2741 0
      vertex 4.97463 -72.3279 6.5
      vertex 5.08377 -72.2392 6.5
    endloop
  endfacet
  facet normal -0.631025 0.775762 0
    outer loop
      vertex 4.97463 -72.3279 6.5
      vertex 5.04077 -72.2741 0
      vertex 4.97463 -72.3279 0
    endloop
  endfacet
  facet normal -0.63091 0.775856 9.7063e-07
    outer loop
      vertex 5.34631 -72.0257 0
      vertex 5.08377 -72.2392 6.5
      vertex 5.34632 -72.0257 6.5
    endloop
  endfacet
  facet normal -0.63082 0.775929 6.97551e-06
    outer loop
      vertex 5.08377 -72.2392 6.5
      vertex 5.34631 -72.0257 0
      vertex 5.04077 -72.2741 0
    endloop
  endfacet
  facet normal -0.0189341 0.999821 0
    outer loop
      vertex 4.97463 -72.3279 0
      vertex 4.29344 -72.3408 6.5
      vertex 4.97463 -72.3279 6.5
    endloop
  endfacet
  facet normal -0.0189341 0.999821 0
    outer loop
      vertex 4.29344 -72.3408 6.5
      vertex 4.97463 -72.3279 0
      vertex 4.29344 -72.3408 0
    endloop
  endfacet
  facet normal 0.847996 -0.530002 0
    outer loop
      vertex 30.7729 -65.1391 6.5
      vertex 35.2365 -57.9974 4.12593
      vertex 35.2365 -57.9974 6.5
    endloop
  endfacet
  facet normal 0.847996 -0.530002 0
    outer loop
      vertex 30.7729 -65.1391 0
      vertex 35.2365 -57.9974 4.12593
      vertex 30.7729 -65.1391 6.5
    endloop
  endfacet
  facet normal 0.847996 -0.530002 0
    outer loop
      vertex 35.2365 -57.9974 4.12593
      vertex 30.7729 -65.1391 0
      vertex 35.2365 -57.9974 0
    endloop
  endfacet
  facet normal 0 1 -0
    outer loop
      vertex 45.7729 -65.1391 0
      vertex 30.7729 -65.1391 6.5
      vertex 45.7729 -65.1391 6.5
    endloop
  endfacet
  facet normal 0 1 0
    outer loop
      vertex 30.7729 -65.1391 6.5
      vertex 45.7729 -65.1391 0
      vertex 30.7729 -65.1391 0
    endloop
  endfacet
  facet normal 0 0 -1
    outer loop
      vertex 38.7489 -162.715 0
      vertex 46.403 -89.7154 0
      vertex 46.403 -161.715 0
    endloop
  endfacet
  facet normal 0 0 -1
    outer loop
      vertex 44.542 -162.715 0
      vertex 46.403 -161.715 0
      vertex 45.7079 -162.486 0
    endloop
  endfacet
  facet normal 0 0 -1
    outer loop
      vertex 38.7489 -162.715 0
      vertex 46.403 -161.715 0
      vertex 38.8649 -162.715 0
    endloop
  endfacet
  facet normal 0 0 -1
    outer loop
      vertex 44.542 -162.715 0
      vertex 45.7079 -162.486 0
      vertex 45.5004 -162.715 0
    endloop
  endfacet
  facet normal 0 0 -1
    outer loop
      vertex 46.403 -161.715 0
      vertex 44.542 -162.715 0
      vertex 38.8649 -162.715 0
    endloop
  endfacet
  facet normal 0 0 -1
    outer loop
      vertex 34.6145 -162.715 0
      vertex 46.403 -89.7154 0
      vertex 38.7489 -162.715 0
    endloop
  endfacet
  facet normal 0 0 -1
    outer loop
      vertex 33.6336 -162.715 0
      vertex 46.403 -89.7154 0
      vertex 34.6145 -162.715 0
    endloop
  endfacet
  facet normal 0 0 -1
    outer loop
      vertex 33.1472 -162.715 0
      vertex 46.403 -89.7154 0
      vertex 33.6336 -162.715 0
    endloop
  endfacet
  facet normal 0 0 -1
    outer loop
      vertex 33.0179 -162.715 0
      vertex 46.403 -89.7154 0
      vertex 33.1472 -162.715 0
    endloop
  endfacet
  facet normal 0 0 -1
    outer loop
      vertex 29.1665 -162.715 0
      vertex 46.403 -89.7154 0
      vertex 33.0179 -162.715 0
    endloop
  endfacet
  facet normal 0 0 -1
    outer loop
      vertex 28.2934 -162.715 0
      vertex 46.403 -89.7154 0
      vertex 29.1665 -162.715 0
    endloop
  endfacet
  facet normal 0 -0 -1
    outer loop
      vertex 30.7729 -65.1391 0
      vertex 45.7729 -89.0174 0
      vertex 4.29344 -88.7154 0
    endloop
  endfacet
  facet normal 0 0 -1
    outer loop
      vertex 45.7729 -89.0174 0
      vertex 30.7729 -65.1391 0
      vertex 45.7729 -65.1391 0
    endloop
  endfacet
  facet normal 0 0 -1
    outer loop
      vertex 27.4204 -162.715 0
      vertex 46.403 -89.7154 0
      vertex 28.2934 -162.715 0
    endloop
  endfacet
  facet normal 0 -0 -1
    outer loop
      vertex 5.34631 -72.0257 0
      vertex 30.7729 -65.1391 0
      vertex 4.29344 -88.7154 0
    endloop
  endfacet
  facet normal 0 0 -1
    outer loop
      vertex 23.569 -162.715 0
      vertex 46.403 -89.7154 0
      vertex 27.4204 -162.715 0
    endloop
  endfacet
  facet normal 0 0 -1
    outer loop
      vertex 4.29344 -88.7154 0
      vertex 46.403 -89.7154 0
      vertex 23.569 -162.715 0
    endloop
  endfacet
  facet normal 0 0 -1
    outer loop
      vertex 30.7729 -65.1391 0
      vertex 28.4594 -57.7753 0
      vertex 29.9132 -57.8135 0
    endloop
  endfacet
  facet normal 0 0 -1
    outer loop
      vertex 46.403 -89.7154 0
      vertex 4.29344 -88.7154 0
      vertex 45.7729 -89.0174 0
    endloop
  endfacet
  facet normal 0 0 -1
    outer loop
      vertex 4.29344 -88.7154 0
      vertex 23.569 -162.715 0
      vertex 23.4397 -162.715 0
    endloop
  endfacet
  facet normal 0 0 -1
    outer loop
      vertex 4.29344 -88.7154 0
      vertex 23.4397 -162.715 0
      vertex 22.9533 -162.715 0
    endloop
  endfacet
  facet normal 0 -0 -1
    outer loop
      vertex 5.41565 -71.521 0
      vertex 30.7729 -65.1391 0
      vertex 5.34631 -72.0257 0
    endloop
  endfacet
  facet normal 0 0 -1
    outer loop
      vertex 4.29344 -88.7154 0
      vertex 22.9533 -162.715 0
      vertex 21.9724 -162.715 0
    endloop
  endfacet
  facet normal 0 0 -1
    outer loop
      vertex 4.29344 -88.7154 0
      vertex 21.9724 -162.715 0
      vertex 17.838 -162.715 0
    endloop
  endfacet
  facet normal 0 0 -1
    outer loop
      vertex 4.29344 -88.7154 0
      vertex 17.838 -162.715 0
      vertex 17.722 -162.715 0
    endloop
  endfacet
  facet normal 0 0 -1
    outer loop
      vertex 4.29344 -88.7154 0
      vertex 17.722 -162.715 0
      vertex 17.2074 -162.715 0
    endloop
  endfacet
  facet normal 0 0 -1
    outer loop
      vertex 4.29344 -88.7154 0
      vertex 17.2074 -162.715 0
      vertex 16.2649 -162.715 0
    endloop
  endfacet
  facet normal 0 0 -1
    outer loop
      vertex 30.7729 -65.1391 0
      vertex 26.6518 -57.7279 0
      vertex 28.4594 -57.7753 0
    endloop
  endfacet
  facet normal 0 0 -1
    outer loop
      vertex 4.29344 -88.7154 0
      vertex 16.2649 -162.715 0
      vertex 11.8523 -162.715 0
    endloop
  endfacet
  facet normal 0 0 -1
    outer loop
      vertex 4.29344 -88.7154 0
      vertex 11.8523 -162.715 0
      vertex 11.742 -162.715 0
    endloop
  endfacet
  facet normal 0 0 -1
    outer loop
      vertex 4.29344 -88.7154 0
      vertex 11.742 -162.715 0
      vertex 11.2223 -162.715 0
    endloop
  endfacet
  facet normal 0 0 -1
    outer loop
      vertex 4.29344 -88.7154 0
      vertex 11.2223 -162.715 0
      vertex 10.4825 -162.715 0
    endloop
  endfacet
  facet normal 0 0 -1
    outer loop
      vertex 4.29344 -88.7154 0
      vertex 10.4825 -162.715 0
      vertex 10.2811 -162.715 0
    endloop
  endfacet
  facet normal 0 0 -1
    outer loop
      vertex 30.7729 -65.1391 0
      vertex 22.078 -57.6468 0
      vertex 26.6518 -57.7279 0
    endloop
  endfacet
  facet normal 0 -0 -1
    outer loop
      vertex 5.74121 -69.1514 0
      vertex 30.7729 -65.1391 0
      vertex 5.41565 -71.521 0
    endloop
  endfacet
  facet normal -0 0 -1
    outer loop
      vertex 30.7729 -65.1391 0
      vertex 5.74121 -69.1514 0
      vertex 22.078 -57.6468 0
    endloop
  endfacet
  facet normal 0 0 -1
    outer loop
      vertex -0.933474 -89.7154 0
      vertex 10.2811 -162.715 0
      vertex 5.69595 -162.715 0
    endloop
  endfacet
  facet normal 0 0 -1
    outer loop
      vertex -0.933474 -161.715 0
      vertex 5.69595 -162.715 0
      vertex 5.58501 -162.715 0
    endloop
  endfacet
  facet normal 0 0 -1
    outer loop
      vertex 9.19004 -58.4982 0
      vertex 5.74121 -69.1514 0
      vertex 7.60195 -59.0462 0
    endloop
  endfacet
  facet normal 0 0 -1
    outer loop
      vertex 12.1662 -57.4711 0
      vertex 5.74121 -69.1514 0
      vertex 9.19004 -58.4982 0
    endloop
  endfacet
  facet normal -0 0 -1
    outer loop
      vertex 22.078 -57.6468 0
      vertex 5.74121 -69.1514 0
      vertex 12.1662 -57.4711 0
    endloop
  endfacet
  facet normal 0 0 -1
    outer loop
      vertex 5.34631 -72.0257 0
      vertex 4.29344 -88.7154 0
      vertex 5.04077 -72.2741 0
    endloop
  endfacet
  facet normal 0 0 -1
    outer loop
      vertex 5.04077 -72.2741 0
      vertex 4.29344 -88.7154 0
      vertex 4.97463 -72.3279 0
    endloop
  endfacet
  facet normal 0 0 -1
    outer loop
      vertex -0.933474 -161.715 0
      vertex 5.58501 -162.715 0
      vertex 0.688392 -162.715 0
    endloop
  endfacet
  facet normal 0 0 -1
    outer loop
      vertex 5.69595 -162.715 0
      vertex -0.933474 -161.715 0
      vertex -0.933474 -89.7154 0
    endloop
  endfacet
  facet normal 0 0 -1
    outer loop
      vertex -0.187137 -162.507 0
      vertex 0.688392 -162.715 0
      vertex 0.00901814 -162.715 0
    endloop
  endfacet
  facet normal 0 0 -1
    outer loop
      vertex -0.933474 -161.715 0
      vertex 0.688392 -162.715 0
      vertex -0.187137 -162.507 0
    endloop
  endfacet
  facet normal -0 0 1
    outer loop
      vertex -0.187137 -162.507 0
      vertex 0.00901814 -162.715 0
      vertex -0.187122 -162.507 0
    endloop
  endfacet
  facet normal 0 0 -1
    outer loop
      vertex 10.2811 -162.715 0
      vertex -0.933474 -89.7154 0
      vertex 4.29344 -88.7154 0
    endloop
  endfacet
  facet normal -0 0 -1
    outer loop
      vertex 0.688392 -88.7154 0
      vertex -0.187122 -88.9235 0
      vertex 0.00901814 -88.7154 0
    endloop
  endfacet
  facet normal -0 0 -1
    outer loop
      vertex 4.29344 -88.7154 0
      vertex -0.933474 -89.7154 0
      vertex 0.688392 -88.7154 0
    endloop
  endfacet
  facet normal 0 -0 -1
    outer loop
      vertex -0.187137 -88.9236 0
      vertex 0.688392 -88.7154 0
      vertex -0.933474 -89.7154 0
    endloop
  endfacet
  facet normal 0 0 -1
    outer loop
      vertex 0.688392 -88.7154 0
      vertex -0.187137 -88.9236 0
      vertex -0.187122 -88.9235 0
    endloop
  endfacet
  facet normal -0 0 -1
    outer loop
      vertex 35.2365 -57.9974 0
      vertex 30.7729 -65.1391 0
      vertex 29.9132 -57.8135 0
    endloop
  endfacet
  facet normal 0 0 -1
    outer loop
      vertex -0.633939 -65.4312 0
      vertex 7.60195 -59.0462 0
      vertex 5.74121 -69.1514 0
    endloop
  endfacet
  facet normal 0 0 -1
    outer loop
      vertex -0.633939 -65.4312 0
      vertex -2.14297 -59.0462 0
      vertex 7.60195 -59.0462 0
    endloop
  endfacet
  facet normal 0 0 -1
    outer loop
      vertex -3.64746 -62.1994 0
      vertex -2.14297 -59.0462 0
      vertex -0.633939 -65.4312 0
    endloop
  endfacet
  facet normal -0 0 -1
    outer loop
      vertex -2.14297 -59.0462 0
      vertex -3.64746 -62.1994 0
      vertex -5.19064 -59.0462 0
    endloop
  endfacet
  facet normal 0 0 -1
    outer loop
      vertex 4.97463 -72.3279 0
      vertex 4.29344 -88.7154 0
      vertex 4.29344 -72.3408 0
    endloop
  endfacet
endsolid OpenSCAD_Model
