solid OpenSCAD_Model
  facet normal 0.142791 0 0.989753
    outer loop
      vertex 26.643 -89.7115 52.4177
      vertex 30.3548 -153.711 51.8822
      vertex 30.3548 -89.7115 51.8822
    endloop
  endfacet
  facet normal 0.142791 0 0.989753
    outer loop
      vertex 30.3548 -153.711 51.8822
      vertex 26.643 -89.7115 52.4177
      vertex 26.643 -153.711 52.4177
    endloop
  endfacet
  facet normal 0.167155 0 0.985931
    outer loop
      vertex 25.9529 -89.7115 52.5347
      vertex 26.643 -153.711 52.4177
      vertex 26.643 -89.7115 52.4177
    endloop
  endfacet
  facet normal 0.167155 0 0.985931
    outer loop
      vertex 26.643 -153.711 52.4177
      vertex 25.9529 -89.7115 52.5347
      vertex 25.9529 -153.711 52.5347
    endloop
  endfacet
  facet normal 0.233256 0 0.972415
    outer loop
      vertex 31.0245 -89.7115 51.6783
      vertex 34.7473 -91.0115 50.7853
      vertex 34.7473 -89.7115 50.7853
    endloop
  endfacet
  facet normal 0.233256 0 0.972415
    outer loop
      vertex 34.7473 -91.0115 50.7853
      vertex 31.0245 -89.7115 51.6783
      vertex 34.7473 -152.411 50.7853
    endloop
  endfacet
  facet normal 0.233256 -0 0.972415
    outer loop
      vertex 31.0245 -153.711 51.6783
      vertex 34.7473 -152.411 50.7853
      vertex 31.0245 -89.7115 51.6783
    endloop
  endfacet
  facet normal 0.233256 0 0.972415
    outer loop
      vertex 34.7473 -152.411 50.7853
      vertex 31.0245 -153.711 51.6783
      vertex 34.7473 -153.711 50.7853
    endloop
  endfacet
  facet normal 0.291264 0 0.956643
    outer loop
      vertex 30.3548 -89.7115 51.8822
      vertex 31.0245 -153.711 51.6783
      vertex 31.0245 -89.7115 51.6783
    endloop
  endfacet
  facet normal 0.291264 0 0.956643
    outer loop
      vertex 31.0245 -153.711 51.6783
      vertex 30.3548 -89.7115 51.8822
      vertex 30.3548 -153.711 51.8822
    endloop
  endfacet
  facet normal 0.296591 0 0.955005
    outer loop
      vertex 35.3865 -91.0115 50.5
      vertex 38.8811 -91.0115 49.4147
      vertex 38.8811 -89.7115 49.4147
    endloop
  endfacet
  facet normal 0.296591 0 0.955005
    outer loop
      vertex 38.8811 -91.0115 49.4147
      vertex 35.3865 -91.0115 50.5
      vertex 38.8811 -152.411 49.4147
    endloop
  endfacet
  facet normal 0.296591 -0 0.955005
    outer loop
      vertex 35.3865 -91.0115 50.5
      vertex 38.8811 -89.7115 49.4147
      vertex 35.3865 -89.7115 50.5
    endloop
  endfacet
  facet normal 0.296591 -0 0.955005
    outer loop
      vertex 35.3865 -152.411 50.5
      vertex 38.8811 -152.411 49.4147
      vertex 35.3865 -91.0115 50.5
    endloop
  endfacet
  facet normal 0.296591 0 0.955005
    outer loop
      vertex 38.8811 -152.411 49.4147
      vertex 35.3865 -152.411 50.5
      vertex 38.8811 -153.711 49.4147
    endloop
  endfacet
  facet normal 0.296591 0 0.955005
    outer loop
      vertex 38.8811 -153.711 49.4147
      vertex 35.3865 -152.411 50.5
      vertex 35.3865 -153.711 50.5
    endloop
  endfacet
  facet normal 0.407583 0 0.913168
    outer loop
      vertex 34.7473 -91.0115 50.7853
      vertex 35.3865 -152.411 50.5
      vertex 35.3865 -91.0115 50.5
    endloop
  endfacet
  facet normal 0.407583 0 0.913168
    outer loop
      vertex 35.3865 -152.411 50.5
      vertex 34.7473 -91.0115 50.7853
      vertex 34.7473 -152.411 50.7853
    endloop
  endfacet
  facet normal 0.291705 0 0.956508
    outer loop
      vertex 39.5075 -91.0115 49.1024
      vertex 42.5406 -91.0115 48.1774
      vertex 42.5406 -89.7115 48.1774
    endloop
  endfacet
  facet normal 0.291705 -0 0.956508
    outer loop
      vertex 39.5075 -91.0115 49.1024
      vertex 42.5406 -89.7115 48.1774
      vertex 39.5075 -89.7115 49.1024
    endloop
  endfacet
  facet normal 0.291705 -0 0.956508
    outer loop
      vertex 39.5075 -152.411 49.1024
      vertex 42.5406 -91.0115 48.1774
      vertex 39.5075 -91.0115 49.1024
    endloop
  endfacet
  facet normal 0.291705 0 0.956508
    outer loop
      vertex 42.5406 -91.0115 48.1774
      vertex 39.5075 -152.411 49.1024
      vertex 42.5406 -153.711 48.1774
    endloop
  endfacet
  facet normal 0.291705 0 0.956508
    outer loop
      vertex 42.5406 -153.711 48.1774
      vertex 39.5075 -152.411 49.1024
      vertex 39.5075 -153.711 49.1024
    endloop
  endfacet
  facet normal 0.446185 0 0.894941
    outer loop
      vertex 38.8811 -91.0115 49.4147
      vertex 39.5075 -152.411 49.1024
      vertex 39.5075 -91.0115 49.1024
    endloop
  endfacet
  facet normal 0.446185 0 0.894941
    outer loop
      vertex 39.5075 -152.411 49.1024
      vertex 38.8811 -91.0115 49.4147
      vertex 38.8811 -152.411 49.4147
    endloop
  endfacet
  facet normal 0.172825 -0 0.984953
    outer loop
      vertex 43.1971 -91.0115 47.9345
      vertex 46.6502 -89.7115 47.3286
      vertex 43.1971 -89.7115 47.9345
    endloop
  endfacet
  facet normal 0.172825 0 0.984953
    outer loop
      vertex 46.6502 -89.7115 47.3286
      vertex 43.1971 -91.0115 47.9345
      vertex 46.6502 -153.711 47.3286
    endloop
  endfacet
  facet normal 0.172825 -0 0.984953
    outer loop
      vertex 43.1971 -152.411 47.9345
      vertex 46.6502 -153.711 47.3286
      vertex 43.1971 -91.0115 47.9345
    endloop
  endfacet
  facet normal 0.172825 0 0.984953
    outer loop
      vertex 46.6502 -153.711 47.3286
      vertex 43.1971 -152.411 47.9345
      vertex 43.1971 -153.711 47.9345
    endloop
  endfacet
  facet normal 0.347003 0 0.937864
    outer loop
      vertex 42.5406 -91.0115 48.1774
      vertex 43.1971 -152.411 47.9345
      vertex 43.1971 -91.0115 47.9345
    endloop
  endfacet
  facet normal 0.347003 -0 0.937864
    outer loop
      vertex 42.5406 -153.711 48.1774
      vertex 43.1971 -152.411 47.9345
      vertex 42.5406 -91.0115 48.1774
    endloop
  endfacet
  facet normal 0.347003 0 0.937864
    outer loop
      vertex 43.1971 -152.411 47.9345
      vertex 42.5406 -153.711 48.1774
      vertex 43.1971 -153.711 47.9345
    endloop
  endfacet
  facet normal -0.0365983 0 0.99933
    outer loop
      vertex 46.6502 -89.7115 47.3286
      vertex 50.0388 -153.711 47.4527
      vertex 50.0388 -89.7115 47.4527
    endloop
  endfacet
  facet normal -0.0365983 0 0.99933
    outer loop
      vertex 50.0388 -153.711 47.4527
      vertex 46.6502 -89.7115 47.3286
      vertex 46.6502 -153.711 47.3286
    endloop
  endfacet
  facet normal -0.229064 0 0.973411
    outer loop
      vertex 50.0388 -89.7115 47.4527
      vertex 53.52 -153.711 48.2719
      vertex 53.52 -89.7115 48.2719
    endloop
  endfacet
  facet normal -0.229064 0 0.973411
    outer loop
      vertex 53.52 -153.711 48.2719
      vertex 50.0388 -89.7115 47.4527
      vertex 50.0388 -153.711 47.4527
    endloop
  endfacet
  facet normal -0.302185 0 0.953249
    outer loop
      vertex 54.1623 -89.7115 48.5502
      vertex 57.3673 -153.711 49.5662
      vertex 57.3673 -89.7115 49.5662
    endloop
  endfacet
  facet normal -0.302185 0 0.953249
    outer loop
      vertex 57.3673 -153.711 49.5662
      vertex 54.1623 -89.7115 48.5502
      vertex 54.1623 -153.711 48.5502
    endloop
  endfacet
  facet normal -0.397571 0 0.917571
    outer loop
      vertex 53.52 -89.7115 48.2719
      vertex 54.1623 -153.711 48.5502
      vertex 54.1623 -89.7115 48.5502
    endloop
  endfacet
  facet normal -0.397571 0 0.917571
    outer loop
      vertex 54.1623 -153.711 48.5502
      vertex 53.52 -89.7115 48.2719
      vertex 53.52 -153.711 48.2719
    endloop
  endfacet
  facet normal -0.446299 0 0.894884
    outer loop
      vertex 57.3673 -89.7115 49.5662
      vertex 57.9937 -153.711 49.8786
      vertex 57.9937 -89.7115 49.8786
    endloop
  endfacet
  facet normal -0.446299 0 0.894884
    outer loop
      vertex 57.9937 -153.711 49.8786
      vertex 57.3673 -89.7115 49.5662
      vertex 57.3673 -153.711 49.5662
    endloop
  endfacet
  facet normal -1 0 0
    outer loop
      vertex 24.2986 -153.711 0
      vertex 24.2986 -89.7115 48.758
      vertex 24.2986 -89.7115 0
    endloop
  endfacet
  facet normal -1 -0 0
    outer loop
      vertex 24.2986 -89.7115 48.758
      vertex 24.2986 -153.711 0
      vertex 24.2986 -153.711 48.758
    endloop
  endfacet
  facet normal -0.579002 0 0.815326
    outer loop
      vertex 24.7999 -89.7115 51.7159
      vertex 25.9529 -153.711 52.5347
      vertex 25.9529 -89.7115 52.5347
    endloop
  endfacet
  facet normal -0.579002 0 0.815326
    outer loop
      vertex 25.9529 -153.711 52.5347
      vertex 24.7999 -89.7115 51.7159
      vertex 24.7999 -153.711 51.7159
    endloop
  endfacet
  facet normal -0.985941 0 0.167096
    outer loop
      vertex 24.2986 -153.711 48.758
      vertex 24.7999 -89.7115 51.7159
      vertex 24.2986 -89.7115 48.758
    endloop
  endfacet
  facet normal -0.985941 0 0.167096
    outer loop
      vertex 24.7999 -89.7115 51.7159
      vertex 24.2986 -153.711 48.758
      vertex 24.7999 -153.711 51.7159
    endloop
  endfacet
  facet normal -0.697179 0.707093 0.118157
    outer loop
      vertex 25.2845 -88.7115 48.5909
      vertex 24.2986 -89.7115 48.758
      vertex 24.7999 -89.7115 51.7159
    endloop
  endfacet
  facet normal -0.697179 0.707093 0.118157
    outer loop
      vertex 25.2845 -88.7115 48.5909
      vertex 24.7999 -89.7115 51.7159
      vertex 25.7858 -88.7115 51.5488
    endloop
  endfacet
  facet normal -0.472759 0.577335 0.66572
    outer loop
      vertex 25.7858 -88.7115 51.5488
      vertex 24.7999 -89.7115 51.7159
      vertex 25.9529 -89.7115 52.5347
    endloop
  endfacet
  facet normal -0.712304 0.701871 7.99772e-06
    outer loop
      vertex 24.2986 -89.7115 0
      vertex 25.2845 -88.7115 48.5909
      vertex 24.4668 -89.5408 0
    endloop
  endfacet
  facet normal -0.712109 0.702069 0
    outer loop
      vertex 25.2845 -88.7115 48.5909
      vertex 24.2986 -89.7115 0
      vertex 24.2986 -89.7115 48.758
    endloop
  endfacet
  facet normal -0.712069 0.702109 0
    outer loop
      vertex 25.2845 -88.7115 0
      vertex 24.4668 -89.5408 0
      vertex 25.2845 -88.7115 48.5909
    endloop
  endfacet
  facet normal 0 1 -0
    outer loop
      vertex 25.3659 -88.7115 0
      vertex 25.2845 -88.7115 48.5909
      vertex 25.7858 -88.7115 51.5488
    endloop
  endfacet
  facet normal 0 1 0
    outer loop
      vertex 25.2845 -88.7115 48.5909
      vertex 25.3659 -88.7115 0
      vertex 25.2845 -88.7115 0
    endloop
  endfacet
  facet normal 0 1 -0
    outer loop
      vertex 26.4375 -88.7115 7.5
      vertex 25.7858 -88.7115 51.5488
      vertex 27.197 -88.7115 7.5
    endloop
  endfacet
  facet normal 0 1 0
    outer loop
      vertex 25.3659 -88.7115 0
      vertex 26.4375 -88.7115 7.5
      vertex 26.4375 -88.7115 0
    endloop
  endfacet
  facet normal 0 1 0
    outer loop
      vertex 26.4375 -88.7115 7.5
      vertex 25.3659 -88.7115 0
      vertex 25.7858 -88.7115 51.5488
    endloop
  endfacet
  facet normal 0.118183 0.707087 0.697181
    outer loop
      vertex 26.476 -88.7115 51.4318
      vertex 25.7858 -88.7115 51.5488
      vertex 26.643 -89.7115 52.4177
    endloop
  endfacet
  facet normal 0 1 -0
    outer loop
      vertex 27.197 -88.7115 7.5
      vertex 26.476 -88.7115 51.4318
      vertex 27.3926 -88.7115 7.5
    endloop
  endfacet
  facet normal 0 1 0
    outer loop
      vertex 26.476 -88.7115 51.4318
      vertex 27.197 -88.7115 7.5
      vertex 25.7858 -88.7115 51.5488
    endloop
  endfacet
  facet normal 0.118199 0.707093 0.697172
    outer loop
      vertex 26.643 -89.7115 52.4177
      vertex 25.7858 -88.7115 51.5488
      vertex 25.9529 -89.7115 52.5347
    endloop
  endfacet
  facet normal 0 1 0
    outer loop
      vertex 26.476 -88.7115 51.4318
      vertex 29.9309 -88.7115 7.5
      vertex 27.3926 -88.7115 7.5
    endloop
  endfacet
  facet normal 0 1 -0
    outer loop
      vertex 30.7332 -88.7115 50.7216
      vertex 30.0635 -88.7115 50.9256
      vertex 30.7332 -88.7115 50.7217
    endloop
  endfacet
  facet normal 0.205988 0.706991 0.676559
    outer loop
      vertex 30.7332 -88.7115 50.7217
      vertex 30.0635 -88.7115 50.9256
      vertex 30.8212 -89.0137 51.0107
    endloop
  endfacet
  facet normal 0.101556 0.702967 0.703934
    outer loop
      vertex 30.0635 -88.7115 50.9256
      vertex 26.643 -89.7115 52.4177
      vertex 30.3548 -89.7115 51.8822
    endloop
  endfacet
  facet normal 0.0988165 0.706952 0.700324
    outer loop
      vertex 30.0635 -88.7115 50.9256
      vertex 26.476 -88.7115 51.4318
      vertex 26.643 -89.7115 52.4177
    endloop
  endfacet
  facet normal 0 1 0
    outer loop
      vertex 29.9309 -88.7115 7.5
      vertex 30.0635 -88.7115 50.9256
      vertex 30.9499 -88.7115 7.5
    endloop
  endfacet
  facet normal 0 1 0
    outer loop
      vertex 30.0635 -88.7115 50.9256
      vertex 29.9309 -88.7115 7.5
      vertex 26.476 -88.7115 51.4318
    endloop
  endfacet
  facet normal 0.205958 0.707096 0.676459
    outer loop
      vertex 31.0245 -89.7115 51.6783
      vertex 30.0635 -88.7115 50.9256
      vertex 30.3548 -89.7115 51.8822
    endloop
  endfacet
  facet normal 0.206069 0.707142 0.676377
    outer loop
      vertex 30.8212 -89.0137 51.0107
      vertex 30.0635 -88.7115 50.9256
      vertex 31.0245 -89.7115 51.6783
    endloop
  endfacet
  facet normal 0 1 -0
    outer loop
      vertex 31.4272 -88.7115 7.5
      vertex 30.7332 -88.7115 50.7216
      vertex 31.6184 -88.7115 7.5
    endloop
  endfacet
  facet normal 0 1 0
    outer loop
      vertex 30.7332 -88.7115 50.7216
      vertex 31.4272 -88.7115 7.5
      vertex 30.0635 -88.7115 50.9256
    endloop
  endfacet
  facet normal 0 1 -0
    outer loop
      vertex 30.9499 -88.7115 7.5
      vertex 30.0635 -88.7115 50.9256
      vertex 31.4272 -88.7115 7.5
    endloop
  endfacet
  facet normal 0.288256 0.707186 0.645597
    outer loop
      vertex 34.9789 -88.7115 49.5868
      vertex 34.3397 -88.7115 49.8722
      vertex 35.09 -88.9841 49.8358
    endloop
  endfacet
  facet normal 0 1 0
    outer loop
      vertex 34.3397 -88.7115 49.8722
      vertex 30.7332 -88.7115 50.7216
      vertex 30.7332 -88.7115 50.7217
    endloop
  endfacet
  facet normal 0 1 0
    outer loop
      vertex 34.1453 -88.7115 7.5
      vertex 34.3397 -88.7115 49.8722
      vertex 35.1798 -88.7115 7.5
    endloop
  endfacet
  facet normal 0 1 0
    outer loop
      vertex 34.3397 -88.7115 49.8722
      vertex 34.1453 -88.7115 7.5
      vertex 30.7332 -88.7115 50.7216
    endloop
  endfacet
  facet normal 0.166346 0.701015 0.693475
    outer loop
      vertex 34.3397 -88.7115 49.8722
      vertex 31.0245 -89.7115 51.6783
      vertex 34.7473 -89.7115 50.7853
    endloop
  endfacet
  facet normal 0.162256 0.70641 0.688955
    outer loop
      vertex 34.3397 -88.7115 49.8722
      vertex 30.8212 -89.0137 51.0107
      vertex 31.0245 -89.7115 51.6783
    endloop
  endfacet
  facet normal 0.162314 0.70626 0.689094
    outer loop
      vertex 30.8212 -89.0137 51.0107
      vertex 34.3397 -88.7115 49.8722
      vertex 30.7332 -88.7115 50.7217
    endloop
  endfacet
  facet normal 0 1 0
    outer loop
      vertex 30.7332 -88.7115 50.7216
      vertex 34.1453 -88.7115 7.5
      vertex 31.6184 -88.7115 7.5
    endloop
  endfacet
  facet normal 0 1 -0
    outer loop
      vertex 35.1798 -88.7115 7.5
      vertex 34.3397 -88.7115 49.8722
      vertex 35.6322 -88.7115 7.5
    endloop
  endfacet
  facet normal 0 1 -0
    outer loop
      vertex 35.6322 -88.7115 7.5
      vertex 34.9789 -88.7115 49.5868
      vertex 35.8173 -88.7115 7.5
    endloop
  endfacet
  facet normal 0 1 0
    outer loop
      vertex 34.9789 -88.7115 49.5868
      vertex 35.6322 -88.7115 7.5
      vertex 34.3397 -88.7115 49.8722
    endloop
  endfacet
  facet normal 0.288162 0.706875 0.64598
    outer loop
      vertex 35.09 -88.9841 49.8358
      vertex 34.3397 -88.7115 49.8722
      vertex 35.1216 -89.0615 49.9064
    endloop
  endfacet
  facet normal 0.288195 0.707131 0.645686
    outer loop
      vertex 35.2202 -89.3035 50.1274
      vertex 34.7473 -89.7115 50.7853
      vertex 35.3865 -89.7115 50.5
    endloop
  endfacet
  facet normal 0.288277 0.707104 0.645678
    outer loop
      vertex 34.3397 -88.7115 49.8722
      vertex 35.2202 -89.3035 50.1274
      vertex 35.1216 -89.0615 49.9064
    endloop
  endfacet
  facet normal 0.288259 0.707087 0.645705
    outer loop
      vertex 35.2202 -89.3035 50.1274
      vertex 34.3397 -88.7115 49.8722
      vertex 34.7473 -89.7115 50.7853
    endloop
  endfacet
  facet normal 0.407583 0 0.913168
    outer loop
      vertex 35.3865 -89.7115 50.5
      vertex 34.7473 -89.7115 50.7853
      vertex 35.3865 -91.0115 50.5
    endloop
  endfacet
  facet normal 0.407583 0 0.913168
    outer loop
      vertex 34.7473 -89.7115 50.7853
      vertex 34.7473 -91.0115 50.7853
      vertex 35.3865 -91.0115 50.5
    endloop
  endfacet
  facet normal 0 1 0
    outer loop
      vertex 34.9789 -88.7115 49.5868
      vertex 38.2417 -88.7115 7.5
      vertex 35.8173 -88.7115 7.5
    endloop
  endfacet
  facet normal 0 1 0
    outer loop
      vertex 38.2417 -88.7115 7.5
      vertex 38.4349 -88.7115 48.5197
      vertex 39.2505 -88.7115 7.5
    endloop
  endfacet
  facet normal 0 1 0
    outer loop
      vertex 38.4349 -88.7115 48.5197
      vertex 38.2417 -88.7115 7.5
      vertex 34.9789 -88.7115 49.5868
    endloop
  endfacet
  facet normal 0.211082 0.70249 0.679671
    outer loop
      vertex 38.4349 -88.7115 48.5197
      vertex 35.3865 -89.7115 50.5
      vertex 38.8811 -89.7115 49.4147
    endloop
  endfacet
  facet normal 0.209356 0.704561 0.678059
    outer loop
      vertex 38.4349 -88.7115 48.5197
      vertex 35.2202 -89.3035 50.1274
      vertex 35.3865 -89.7115 50.5
    endloop
  endfacet
  facet normal 0.209501 0.704263 0.678324
    outer loop
      vertex 38.4349 -88.7115 48.5197
      vertex 35.09 -88.9841 49.8358
      vertex 35.1216 -89.0615 49.9064
    endloop
  endfacet
  facet normal 0.209344 0.704622 0.677999
    outer loop
      vertex 35.09 -88.9841 49.8358
      vertex 38.4349 -88.7115 48.5197
      vertex 34.9789 -88.7115 49.5868
    endloop
  endfacet
  facet normal 0.209368 0.70454 0.678077
    outer loop
      vertex 35.2202 -89.3035 50.1274
      vertex 38.4349 -88.7115 48.5197
      vertex 35.1216 -89.0615 49.9064
    endloop
  endfacet
  facet normal 0.315444 0.707142 0.632808
    outer loop
      vertex 39.0614 -88.7115 48.2074
      vertex 38.4349 -88.7115 48.5197
      vertex 39.2175 -89.0615 48.5207
    endloop
  endfacet
  facet normal 0 1 -0
    outer loop
      vertex 39.6896 -88.7115 7.5
      vertex 39.0614 -88.7115 48.2074
      vertex 39.875 -88.7115 7.5
    endloop
  endfacet
  facet normal 0 1 0
    outer loop
      vertex 39.0614 -88.7115 48.2074
      vertex 39.6896 -88.7115 7.5
      vertex 38.4349 -88.7115 48.5197
    endloop
  endfacet
  facet normal 0 1 -0
    outer loop
      vertex 39.2505 -88.7115 7.5
      vertex 38.4349 -88.7115 48.5197
      vertex 39.6896 -88.7115 7.5
    endloop
  endfacet
  facet normal 0.446185 0 0.894941
    outer loop
      vertex 39.5075 -89.7115 49.1024
      vertex 38.8811 -89.7115 49.4147
      vertex 39.5075 -91.0115 49.1024
    endloop
  endfacet
  facet normal 0.446185 0 0.894941
    outer loop
      vertex 38.8811 -89.7115 49.4147
      vertex 38.8811 -91.0115 49.4147
      vertex 39.5075 -91.0115 49.1024
    endloop
  endfacet
  facet normal 0.315505 0.707096 0.632828
    outer loop
      vertex 39.2175 -89.0615 48.5207
      vertex 38.8811 -89.7115 49.4147
      vertex 39.5075 -89.7115 49.1024
    endloop
  endfacet
  facet normal 0.315438 0.707128 0.632826
    outer loop
      vertex 38.8811 -89.7115 49.4147
      vertex 39.2175 -89.0615 48.5207
      vertex 38.4349 -88.7115 48.5197
    endloop
  endfacet
  facet normal 0 1 0
    outer loop
      vertex 42.1047 -88.7115 7.5
      vertex 42.1936 -88.7115 47.2396
      vertex 43.0401 -88.7115 7.5
    endloop
  endfacet
  facet normal 0 1 0
    outer loop
      vertex 42.1936 -88.7115 47.2396
      vertex 42.1047 -88.7115 7.5
      vertex 39.0614 -88.7115 48.2074
    endloop
  endfacet
  facet normal 0.615403 0.660081 0.430782
    outer loop
      vertex 39.0614 -88.7115 48.2074
      vertex 39.2175 -89.0615 48.5207
      vertex 39.5075 -89.7115 49.1024
    endloop
  endfacet
  facet normal 0.245283 0.707257 0.663041
    outer loop
      vertex 42.8502 -88.7115 46.9967
      vertex 42.1936 -88.7115 47.2396
      vertex 42.8772 -88.7893 47.0697
    endloop
  endfacet
  facet normal 0.20891 0.706555 0.676118
    outer loop
      vertex 42.1936 -88.7115 47.2396
      vertex 39.0614 -88.7115 48.2074
      vertex 42.5406 -89.7115 48.1774
    endloop
  endfacet
  facet normal 0 1 -0
    outer loop
      vertex 39.875 -88.7115 7.5
      vertex 39.0614 -88.7115 48.2074
      vertex 42.1047 -88.7115 7.5
    endloop
  endfacet
  facet normal 0.207694 0.702179 0.681035
    outer loop
      vertex 42.5406 -89.7115 48.1774
      vertex 39.0614 -88.7115 48.2074
      vertex 39.5075 -89.7115 49.1024
    endloop
  endfacet
  facet normal 0 1 -0
    outer loop
      vertex 43.0401 -88.7115 7.5
      vertex 42.1936 -88.7115 47.2396
      vertex 43.4959 -88.7115 7.5
    endloop
  endfacet
  facet normal 0.245398 0.707021 0.663251
    outer loop
      vertex 43.0218 -89.206 47.4605
      vertex 42.5406 -89.7115 48.1774
      vertex 43.1971 -89.7115 47.9345
    endloop
  endfacet
  facet normal 0.245534 0.707336 0.662864
    outer loop
      vertex 42.1936 -88.7115 47.2396
      vertex 43.0218 -89.206 47.4605
      vertex 42.9716 -89.0615 47.3249
    endloop
  endfacet
  facet normal 0.245288 0.707085 0.663223
    outer loop
      vertex 43.0218 -89.206 47.4605
      vertex 42.1936 -88.7115 47.2396
      vertex 42.5406 -89.7115 48.1774
    endloop
  endfacet
  facet normal 0.245322 0.706977 0.663326
    outer loop
      vertex 42.8772 -88.7893 47.0697
      vertex 42.1936 -88.7115 47.2396
      vertex 42.9716 -89.0615 47.3249
    endloop
  endfacet
  facet normal 0 1 -0
    outer loop
      vertex 43.4959 -88.7115 7.5
      vertex 42.8502 -88.7115 46.9967
      vertex 43.6951 -88.7115 7.5
    endloop
  endfacet
  facet normal 0 1 0
    outer loop
      vertex 42.8502 -88.7115 46.9967
      vertex 43.4959 -88.7115 7.5
      vertex 42.1936 -88.7115 47.2396
    endloop
  endfacet
  facet normal 0.347003 0 0.937864
    outer loop
      vertex 42.5406 -89.7115 48.1774
      vertex 42.5406 -91.0115 48.1774
      vertex 43.1971 -91.0115 47.9345
    endloop
  endfacet
  facet normal 0.347003 0 0.937864
    outer loop
      vertex 43.1971 -89.7115 47.9345
      vertex 42.5406 -89.7115 48.1774
      vertex 43.1971 -91.0115 47.9345
    endloop
  endfacet
  facet normal 0 1 0
    outer loop
      vertex 46.2209 -88.7115 0
      vertex 45.5744 -88.7115 7.5
      vertex 42.8502 -88.7115 46.9967
    endloop
  endfacet
  facet normal 0 1 0
    outer loop
      vertex 45.5744 -88.7115 7.5
      vertex 46.2209 -88.7115 0
      vertex 45.5744 -88.7115 0
    endloop
  endfacet
  facet normal 0 1 0
    outer loop
      vertex 42.8502 -88.7115 46.9967
      vertex 45.5744 -88.7115 7.5
      vertex 43.6951 -88.7115 7.5
    endloop
  endfacet
  facet normal 0 1 0
    outer loop
      vertex 46.6309 -88.7115 27.4366
      vertex 42.8502 -88.7115 46.9967
      vertex 46.5544 -88.7115 46.3341
    endloop
  endfacet
  facet normal 0 1 -0
    outer loop
      vertex 46.5306 -88.7115 21.2893
      vertex 42.8502 -88.7115 46.9967
      vertex 46.6309 -88.7115 27.4366
    endloop
  endfacet
  facet normal 0 1 0
    outer loop
      vertex 46.7122 -88.7115 7.34801
      vertex 42.8502 -88.7115 46.9967
      vertex 46.5306 -88.7115 21.2893
    endloop
  endfacet
  facet normal 0 1 0
    outer loop
      vertex 46.2209 -88.7115 0
      vertex 46.7122 -88.7115 7.34801
      vertex 46.7419 -88.7115 0
    endloop
  endfacet
  facet normal 0 1 0
    outer loop
      vertex 46.7122 -88.7115 7.34801
      vertex 46.2209 -88.7115 0
      vertex 42.8502 -88.7115 46.9967
    endloop
  endfacet
  facet normal 0.123274 0.700871 0.702554
    outer loop
      vertex 46.6475 -89.6588 47.2765
      vertex 43.1971 -89.7115 47.9345
      vertex 46.6502 -89.7115 47.3286
    endloop
  endfacet
  facet normal 0.123167 0.701409 0.702037
    outer loop
      vertex 46.646 -89.6176 47.2356
      vertex 43.1971 -89.7115 47.9345
      vertex 46.6475 -89.6588 47.2765
    endloop
  endfacet
  facet normal 0.123213 0.701203 0.702234
    outer loop
      vertex 46.646 -89.6176 47.2356
      vertex 43.0218 -89.206 47.4605
      vertex 43.1971 -89.7115 47.9345
    endloop
  endfacet
  facet normal 0.123228 0.701506 0.701929
    outer loop
      vertex 46.646 -89.6176 47.2356
      vertex 42.9716 -89.0615 47.3249
      vertex 43.0218 -89.206 47.4605
    endloop
  endfacet
  facet normal 0.123183 0.701151 0.702291
    outer loop
      vertex 46.646 -89.6176 47.2356
      vertex 42.8772 -88.7893 47.0697
      vertex 42.9716 -89.0615 47.3249
    endloop
  endfacet
  facet normal 0.123262 0.701448 0.701981
    outer loop
      vertex 42.8772 -88.7893 47.0697
      vertex 46.646 -89.6176 47.2356
      vertex 42.8502 -88.7115 46.9967
    endloop
  endfacet
  facet normal 0.124685 0.706107 0.697041
    outer loop
      vertex 46.5544 -88.7115 46.3341
      vertex 42.8502 -88.7115 46.9967
      vertex 46.646 -89.6176 47.2356
    endloop
  endfacet
  facet normal 0 1 -0
    outer loop
      vertex 46.7122 -88.7115 7.34801
      vertex 46.5306 -88.7115 21.2893
      vertex 46.8748 -88.7115 11.5331
    endloop
  endfacet
  facet normal 0 1 0
    outer loop
      vertex 46.8748 -88.7115 11.5331
      vertex 46.5306 -88.7115 21.2893
      vertex 46.6309 -88.7115 27.4366
    endloop
  endfacet
  facet normal -0.0266019 0.703513 0.710184
    outer loop
      vertex 46.5544 -88.7115 46.3341
      vertex 50.2196 -88.7424 46.502
      vertex 50.2252 -88.7115 46.4716
    endloop
  endfacet
  facet normal -0.0266263 0.70378 0.709919
    outer loop
      vertex 50.2196 -88.7424 46.502
      vertex 46.646 -89.6176 47.2356
      vertex 46.6475 -89.6588 47.2765
    endloop
  endfacet
  facet normal -0.0265917 0.703703 0.709996
    outer loop
      vertex 50.2196 -88.7424 46.502
      vertex 46.5544 -88.7115 46.3341
      vertex 46.646 -89.6176 47.2356
    endloop
  endfacet
  facet normal 0 1 0
    outer loop
      vertex 46.7997 -88.7115 0
      vertex 50.1824 -88.7115 39.4937
      vertex 49.2909 -88.7115 0
    endloop
  endfacet
  facet normal 0 1 -0
    outer loop
      vertex 50.1824 -88.7115 39.4937
      vertex 46.7997 -88.7115 0
      vertex 50.2307 -88.7115 45.0407
    endloop
  endfacet
  facet normal -0.0260393 0.702437 0.711269
    outer loop
      vertex 46.6475 -89.6588 47.2765
      vertex 50.0388 -89.7115 47.4527
      vertex 50.0521 -89.5977 47.3408
    endloop
  endfacet
  facet normal -0.0260393 0.702544 0.711164
    outer loop
      vertex 46.6475 -89.6588 47.2765
      vertex 50.0521 -89.5977 47.3408
      vertex 50.2196 -88.7424 46.502
    endloop
  endfacet
  facet normal -0.0260596 0.702133 0.711569
    outer loop
      vertex 50.0388 -89.7115 47.4527
      vertex 46.6475 -89.6588 47.2765
      vertex 46.6502 -89.7115 47.3286
    endloop
  endfacet
  facet normal 0 1 0
    outer loop
      vertex 50.2307 -88.7115 45.0407
      vertex 46.5544 -88.7115 46.3341
      vertex 50.2252 -88.7115 46.4716
    endloop
  endfacet
  facet normal 0 1 0
    outer loop
      vertex 50.2307 -88.7115 45.0407
      vertex 46.6309 -88.7115 27.4366
      vertex 46.5544 -88.7115 46.3341
    endloop
  endfacet
  facet normal 0 1 0
    outer loop
      vertex 50.2307 -88.7115 45.0407
      vertex 46.8748 -88.7115 11.5331
      vertex 46.6309 -88.7115 27.4366
    endloop
  endfacet
  facet normal 0 1 0
    outer loop
      vertex 46.7997 -88.7115 0
      vertex 46.8748 -88.7115 11.5331
      vertex 50.2307 -88.7115 45.0407
    endloop
  endfacet
  facet normal 0 1 0
    outer loop
      vertex 46.8748 -88.7115 11.5331
      vertex 46.7997 -88.7115 0
      vertex 46.7122 -88.7115 7.34801
    endloop
  endfacet
  facet normal 0 1 0
    outer loop
      vertex 46.7122 -88.7115 7.34801
      vertex 46.7997 -88.7115 0
      vertex 46.7419 -88.7115 0
    endloop
  endfacet
  facet normal 0 1 -0
    outer loop
      vertex 49.9398 -88.7115 0
      vertex 49.4116 -88.7115 0
      vertex 50.5673 -88.7115 33.3598
    endloop
  endfacet
  facet normal 0 1 0
    outer loop
      vertex 49.2909 -88.7115 0
      vertex 50.5673 -88.7115 33.3598
      vertex 49.4116 -88.7115 0
    endloop
  endfacet
  facet normal 0 1 0
    outer loop
      vertex 50.5673 -88.7115 33.3598
      vertex 49.2909 -88.7115 0
      vertex 50.1824 -88.7115 39.4937
    endloop
  endfacet
  facet normal 0 1 -0
    outer loop
      vertex 52.9327 -88.7115 0
      vertex 50.4779 -88.7115 0
      vertex 53.9176 -88.7115 47.3543
    endloop
  endfacet
  facet normal -0.163248 0.701468 0.693753
    outer loop
      vertex 50.0521 -89.5977 47.3408
      vertex 53.52 -89.7115 48.2719
      vertex 53.7785 -89.0615 47.6755
    endloop
  endfacet
  facet normal -0.16325 0.701509 0.693711
    outer loop
      vertex 50.0521 -89.5977 47.3408
      vertex 53.7785 -89.0615 47.6755
      vertex 53.9176 -88.7115 47.3543
    endloop
  endfacet
  facet normal -0.16328 0.701356 0.693858
    outer loop
      vertex 53.52 -89.7115 48.2719
      vertex 50.0521 -89.5977 47.3408
      vertex 50.0388 -89.7115 47.4527
    endloop
  endfacet
  facet normal -0.164462 0.706882 0.687946
    outer loop
      vertex 53.9176 -88.7115 47.3543
      vertex 50.2196 -88.7424 46.502
      vertex 50.0521 -89.5977 47.3408
    endloop
  endfacet
  facet normal -0.16449 0.706751 0.688074
    outer loop
      vertex 50.2196 -88.7424 46.502
      vertex 53.9176 -88.7115 47.3543
      vertex 50.2252 -88.7115 46.4716
    endloop
  endfacet
  facet normal 0 1 0
    outer loop
      vertex 53.9176 -88.7115 47.3543
      vertex 50.2307 -88.7115 45.0407
      vertex 50.2252 -88.7115 46.4716
    endloop
  endfacet
  facet normal 0 1 0
    outer loop
      vertex 53.9176 -88.7115 47.3543
      vertex 50.1824 -88.7115 39.4937
      vertex 50.2307 -88.7115 45.0407
    endloop
  endfacet
  facet normal 0 1 0
    outer loop
      vertex 53.9176 -88.7115 47.3543
      vertex 50.5673 -88.7115 33.3598
      vertex 50.1824 -88.7115 39.4937
    endloop
  endfacet
  facet normal 0 1 0
    outer loop
      vertex 50.4779 -88.7115 0
      vertex 50.5673 -88.7115 33.3598
      vertex 53.9176 -88.7115 47.3543
    endloop
  endfacet
  facet normal 0 1 0
    outer loop
      vertex 50.5673 -88.7115 33.3598
      vertex 50.4779 -88.7115 0
      vertex 49.9398 -88.7115 0
    endloop
  endfacet
  facet normal -0.28119 0.707113 0.648786
    outer loop
      vertex 53.7785 -89.0615 47.6755
      vertex 53.52 -89.7115 48.2719
      vertex 54.5599 -88.7115 47.6327
    endloop
  endfacet
  facet normal 0 1 0
    outer loop
      vertex 53.0432 -88.7115 0
      vertex 53.9176 -88.7115 47.3543
      vertex 54.5599 -88.7115 47.6327
    endloop
  endfacet
  facet normal 0 1 0
    outer loop
      vertex 53.9176 -88.7115 47.3543
      vertex 53.0432 -88.7115 0
      vertex 52.9327 -88.7115 0
    endloop
  endfacet
  facet normal -0.281133 0.707088 0.648838
    outer loop
      vertex 54.5599 -88.7115 47.6327
      vertex 53.52 -89.7115 48.2719
      vertex 54.1623 -89.7115 48.5502
    endloop
  endfacet
  facet normal 0 1 -0
    outer loop
      vertex 53.574 -88.7115 0
      vertex 53.0432 -88.7115 0
      vertex 54.5599 -88.7115 47.6327
    endloop
  endfacet
  facet normal -0.2812 0.707133 0.64876
    outer loop
      vertex 53.9176 -88.7115 47.3543
      vertex 53.7785 -89.0615 47.6755
      vertex 54.5599 -88.7115 47.6327
    endloop
  endfacet
  facet normal 0 1 -0
    outer loop
      vertex 57.8135 -88.7115 48.6712
      vertex 54.5599 -88.7115 47.6327
      vertex 57.8135 -88.7115 48.6713
    endloop
  endfacet
  facet normal 0 1 0
    outer loop
      vertex 54.1249 -88.7115 0
      vertex 54.5599 -88.7115 47.6327
      vertex 57.8135 -88.7115 48.6712
    endloop
  endfacet
  facet normal 0 1 0
    outer loop
      vertex 54.5599 -88.7115 47.6327
      vertex 54.1249 -88.7115 0
      vertex 53.574 -88.7115 0
    endloop
  endfacet
  facet normal 0 1 -0
    outer loop
      vertex 56.8484 -88.7115 0
      vertex 54.1249 -88.7115 0
      vertex 57.8135 -88.7115 48.6712
    endloop
  endfacet
  facet normal -0.214975 0.702793 0.678135
    outer loop
      vertex 54.1623 -89.7115 48.5502
      vertex 57.5732 -89.2499 49.1531
      vertex 57.8135 -88.7115 48.6713
    endloop
  endfacet
  facet normal -0.214975 0.702784 0.678145
    outer loop
      vertex 57.5732 -89.2499 49.1531
      vertex 54.1623 -89.7115 48.5502
      vertex 57.3673 -89.7115 49.5662
    endloop
  endfacet
  facet normal -0.215572 0.705317 0.675319
    outer loop
      vertex 54.5599 -88.7115 47.6327
      vertex 54.1623 -89.7115 48.5502
      vertex 57.8135 -88.7115 48.6713
    endloop
  endfacet
  facet normal 0 1 0
    outer loop
      vertex 59.5517 -88.7115 0
      vertex 56.9536 -88.7115 0
      vertex 58.44 -88.7115 48.9836
    endloop
  endfacet
  facet normal 0 1 0
    outer loop
      vertex 58.44 -88.7115 48.9836
      vertex 57.8135 -88.7115 48.6712
      vertex 57.8135 -88.7115 48.6713
    endloop
  endfacet
  facet normal 0 1 0
    outer loop
      vertex 56.9536 -88.7115 0
      vertex 57.8135 -88.7115 48.6712
      vertex 58.44 -88.7115 48.9836
    endloop
  endfacet
  facet normal 0 1 0
    outer loop
      vertex 57.8135 -88.7115 48.6712
      vertex 56.9536 -88.7115 0
      vertex 56.8484 -88.7115 0
    endloop
  endfacet
  facet normal 0 1 0
    outer loop
      vertex 59.5517 -88.7115 0
      vertex 59.7787 -88.7115 46.2989
      vertex 59.7787 -88.7115 0
    endloop
  endfacet
  facet normal 0 1 0
    outer loop
      vertex 59.7787 -88.7115 46.2989
      vertex 59.5517 -88.7115 0
      vertex 58.44 -88.7115 48.9836
    endloop
  endfacet
  facet normal 1 -0 0
    outer loop
      vertex 60.6736 -153.711 46.7452
      vertex 60.6736 -89.7115 0
      vertex 60.6736 -89.7115 46.7452
    endloop
  endfacet
  facet normal 1 0 0
    outer loop
      vertex 60.6736 -89.7115 0
      vertex 60.6736 -153.711 46.7452
      vertex 60.6736 -153.711 0
    endloop
  endfacet
  facet normal -0.31546 0.707107 0.632838
    outer loop
      vertex 57.8135 -88.7115 48.6713
      vertex 57.5732 -89.2499 49.1531
      vertex 58.44 -88.7115 48.9836
    endloop
  endfacet
  facet normal 0.894913 -0 0.44624
    outer loop
      vertex 59.3349 -153.711 49.4299
      vertex 60.6736 -89.7115 46.7452
      vertex 59.3349 -89.7115 49.4299
    endloop
  endfacet
  facet normal 0.894913 0 0.44624
    outer loop
      vertex 60.6736 -89.7115 46.7452
      vertex 59.3349 -153.711 49.4299
      vertex 60.6736 -153.711 46.7452
    endloop
  endfacet
  facet normal 0.745211 0.666829 0
    outer loop
      vertex 60.5146 -89.5339 0
      vertex 59.7787 -88.7115 0
      vertex 59.7787 -88.7115 46.2989
    endloop
  endfacet
  facet normal 0.317267 0 0.948336
    outer loop
      vertex 57.9937 -89.7115 49.8786
      vertex 59.3349 -153.711 49.4299
      vertex 59.3349 -89.7115 49.4299
    endloop
  endfacet
  facet normal 0.317267 0 0.948336
    outer loop
      vertex 59.3349 -153.711 49.4299
      vertex 57.9937 -89.7115 49.8786
      vertex 57.9937 -153.711 49.8786
    endloop
  endfacet
  facet normal 0.632795 0.707112 0.315537
    outer loop
      vertex 59.7787 -88.7115 46.2989
      vertex 58.44 -88.7115 48.9836
      vertex 59.3349 -89.7115 49.4299
    endloop
  endfacet
  facet normal 0.745044 0.667016 -5.9584e-06
    outer loop
      vertex 59.7787 -88.7115 46.2989
      vertex 60.6736 -89.7115 0
      vertex 60.5146 -89.5339 0
    endloop
  endfacet
  facet normal 0.745181 0.666862 -0
    outer loop
      vertex 60.6736 -89.7115 0
      vertex 59.7787 -88.7115 46.2989
      vertex 60.6736 -89.7115 46.7452
    endloop
  endfacet
  facet normal 0.632795 0.707112 0.315537
    outer loop
      vertex 59.7787 -88.7115 46.2989
      vertex 59.3349 -89.7115 49.4299
      vertex 60.6736 -89.7115 46.7452
    endloop
  endfacet
  facet normal -0.315592 0.707083 0.632799
    outer loop
      vertex 57.9937 -89.7115 49.8786
      vertex 57.5732 -89.2499 49.1531
      vertex 57.3673 -89.7115 49.5662
    endloop
  endfacet
  facet normal -0.315494 0.707144 0.632781
    outer loop
      vertex 57.5732 -89.2499 49.1531
      vertex 57.9937 -89.7115 49.8786
      vertex 58.44 -88.7115 48.9836
    endloop
  endfacet
  facet normal 0.25904 0.577382 0.774292
    outer loop
      vertex 58.44 -88.7115 48.9836
      vertex 57.9937 -89.7115 49.8786
      vertex 59.3349 -89.7115 49.4299
    endloop
  endfacet
  facet normal -0.315728 -0.706777 0.633073
    outer loop
      vertex 57.5732 -154.173 49.1531
      vertex 57.9937 -153.711 49.8786
      vertex 57.3673 -153.711 49.5662
    endloop
  endfacet
  facet normal -0.315132 -0.707144 0.632961
    outer loop
      vertex 57.9937 -153.711 49.8786
      vertex 57.5732 -154.173 49.1531
      vertex 58.44 -154.711 48.9836
    endloop
  endfacet
  facet normal 0.632795 -0.707112 0.315537
    outer loop
      vertex 60.6736 -153.711 46.7452
      vertex 59.3349 -153.711 49.4299
      vertex 59.7787 -154.711 46.2989
    endloop
  endfacet
  facet normal 0 -1 0
    outer loop
      vertex 59.5517 -154.711 0
      vertex 59.7787 -154.711 46.2989
      vertex 58.44 -154.711 48.9836
    endloop
  endfacet
  facet normal 0 -1 -0
    outer loop
      vertex 59.7787 -154.711 46.2989
      vertex 59.5517 -154.711 0
      vertex 59.7787 -154.711 0
    endloop
  endfacet
  facet normal 0.632795 -0.707112 0.315537
    outer loop
      vertex 59.3349 -153.711 49.4299
      vertex 58.44 -154.711 48.9836
      vertex 59.7787 -154.711 46.2989
    endloop
  endfacet
  facet normal 0.25904 -0.577382 0.774292
    outer loop
      vertex 59.3349 -153.711 49.4299
      vertex 57.9937 -153.711 49.8786
      vertex 58.44 -154.711 48.9836
    endloop
  endfacet
  facet normal -0.315342 -0.70737 0.632603
    outer loop
      vertex 58.44 -154.711 48.9836
      vertex 57.5732 -154.173 49.1531
      vertex 57.8135 -154.711 48.6713
    endloop
  endfacet
  facet normal 0.745181 -0.666862 0
    outer loop
      vertex 59.7787 -154.711 46.2989
      vertex 60.6736 -153.711 0
      vertex 60.6736 -153.711 46.7452
    endloop
  endfacet
  facet normal 0.745789 -0.666182 2.64427e-05
    outer loop
      vertex 60.6736 -153.711 0
      vertex 59.7787 -154.711 46.2989
      vertex 60.5146 -153.889 0
    endloop
  endfacet
  facet normal 0 -1 -0
    outer loop
      vertex 58.44 -154.711 48.9836
      vertex 56.9536 -154.711 0
      vertex 59.5517 -154.711 0
    endloop
  endfacet
  facet normal 0.745049 -0.667009 0
    outer loop
      vertex 59.7787 -154.711 46.2989
      vertex 59.7787 -154.711 0
      vertex 60.5146 -153.889 0
    endloop
  endfacet
  facet normal 0 -1 0
    outer loop
      vertex 57.8135 -154.711 48.6712
      vertex 58.44 -154.711 48.9836
      vertex 57.8135 -154.711 48.6713
    endloop
  endfacet
  facet normal 0 -1 0
    outer loop
      vertex 56.9536 -154.711 0
      vertex 57.8135 -154.711 48.6712
      vertex 56.8484 -154.711 0
    endloop
  endfacet
  facet normal 0 -1 -0
    outer loop
      vertex 57.8135 -154.711 48.6712
      vertex 56.9536 -154.711 0
      vertex 58.44 -154.711 48.9836
    endloop
  endfacet
  facet normal -0.215067 -0.702476 0.678435
    outer loop
      vertex 54.1623 -153.711 48.5502
      vertex 57.5732 -154.173 49.1531
      vertex 57.3673 -153.711 49.5662
    endloop
  endfacet
  facet normal -0.21504 -0.70307 0.677828
    outer loop
      vertex 57.5732 -154.173 49.1531
      vertex 54.1623 -153.711 48.5502
      vertex 57.8135 -154.711 48.6713
    endloop
  endfacet
  facet normal 0 -1 0
    outer loop
      vertex 54.5599 -154.711 47.6327
      vertex 57.8135 -154.711 48.6712
      vertex 57.8135 -154.711 48.6713
    endloop
  endfacet
  facet normal 0 -1 0
    outer loop
      vertex 54.1249 -154.711 0
      vertex 54.5599 -154.711 47.6327
      vertex 53.574 -154.711 0
    endloop
  endfacet
  facet normal 0 -1 -0
    outer loop
      vertex 54.5599 -154.711 47.6327
      vertex 54.1249 -154.711 0
      vertex 57.8135 -154.711 48.6712
    endloop
  endfacet
  facet normal 0 -1 0
    outer loop
      vertex 57.8135 -154.711 48.6712
      vertex 54.1249 -154.711 0
      vertex 56.8484 -154.711 0
    endloop
  endfacet
  facet normal -0.215572 -0.705317 0.675319
    outer loop
      vertex 57.8135 -154.711 48.6713
      vertex 54.1623 -153.711 48.5502
      vertex 54.5599 -154.711 47.6327
    endloop
  endfacet
  facet normal -0.28119 -0.707113 0.648786
    outer loop
      vertex 54.5599 -154.711 47.6327
      vertex 53.52 -153.711 48.2719
      vertex 53.7785 -154.361 47.6755
    endloop
  endfacet
  facet normal -0.2812 -0.707133 0.64876
    outer loop
      vertex 54.5599 -154.711 47.6327
      vertex 53.7785 -154.361 47.6755
      vertex 53.9176 -154.711 47.3543
    endloop
  endfacet
  facet normal -0.281133 -0.707088 0.648838
    outer loop
      vertex 54.1623 -153.711 48.5502
      vertex 53.52 -153.711 48.2719
      vertex 54.5599 -154.711 47.6327
    endloop
  endfacet
  facet normal 0 -1 0
    outer loop
      vertex 54.5599 -154.711 47.6327
      vertex 53.0432 -154.711 0
      vertex 53.574 -154.711 0
    endloop
  endfacet
  facet normal 0 -1 0
    outer loop
      vertex 53.0432 -154.711 0
      vertex 53.9176 -154.711 47.3543
      vertex 52.9328 -154.711 0
    endloop
  endfacet
  facet normal 0 -1 -0
    outer loop
      vertex 53.9176 -154.711 47.3543
      vertex 53.0432 -154.711 0
      vertex 54.5599 -154.711 47.6327
    endloop
  endfacet
  facet normal -0.16342 -0.70073 0.694457
    outer loop
      vertex 50.0521 -153.825 47.3408
      vertex 53.52 -153.711 48.2719
      vertex 50.0388 -153.711 47.4527
    endloop
  endfacet
  facet normal -0.163211 -0.701464 0.693765
    outer loop
      vertex 53.52 -153.711 48.2719
      vertex 50.0521 -153.825 47.3408
      vertex 53.7785 -154.361 47.6755
    endloop
  endfacet
  facet normal -0.163213 -0.701505 0.693723
    outer loop
      vertex 53.7785 -154.361 47.6755
      vertex 50.0521 -153.825 47.3408
      vertex 53.9176 -154.711 47.3543
    endloop
  endfacet
  facet normal 0 -1 0
    outer loop
      vertex 50.2307 -154.711 45.0406
      vertex 53.9176 -154.711 47.3543
      vertex 50.2252 -154.711 46.4716
    endloop
  endfacet
  facet normal 0 -1 0
    outer loop
      vertex 50.1824 -154.711 39.4937
      vertex 53.9176 -154.711 47.3543
      vertex 50.2307 -154.711 45.0406
    endloop
  endfacet
  facet normal 0 -1 0
    outer loop
      vertex 50.5673 -154.711 33.3598
      vertex 53.9176 -154.711 47.3543
      vertex 50.1824 -154.711 39.4937
    endloop
  endfacet
  facet normal 0 -1 0
    outer loop
      vertex 50.4779 -154.711 0
      vertex 50.5673 -154.711 33.3598
      vertex 49.9398 -154.711 0
    endloop
  endfacet
  facet normal 0 -1 -0
    outer loop
      vertex 50.5673 -154.711 33.3598
      vertex 50.4779 -154.711 0
      vertex 53.9176 -154.711 47.3543
    endloop
  endfacet
  facet normal -0.164361 -0.706596 0.688264
    outer loop
      vertex 50.2196 -154.681 46.502
      vertex 53.9176 -154.711 47.3543
      vertex 50.0521 -153.825 47.3408
    endloop
  endfacet
  facet normal -0.162044 -0.717128 0.677842
    outer loop
      vertex 53.9176 -154.711 47.3543
      vertex 50.2196 -154.681 46.502
      vertex 50.2252 -154.711 46.4716
    endloop
  endfacet
  facet normal 0 -1 0
    outer loop
      vertex 53.9176 -154.711 47.3543
      vertex 50.4779 -154.711 0
      vertex 52.9328 -154.711 0
    endloop
  endfacet
  facet normal 0 -1 0
    outer loop
      vertex 50.5673 -154.711 33.3598
      vertex 49.4116 -154.711 0
      vertex 49.9398 -154.711 0
    endloop
  endfacet
  facet normal 0 -1 0
    outer loop
      vertex 49.2909 -154.711 0
      vertex 50.5673 -154.711 33.3598
      vertex 50.1824 -154.711 39.4937
    endloop
  endfacet
  facet normal 0 -1 0
    outer loop
      vertex 50.5673 -154.711 33.3598
      vertex 49.2909 -154.711 0
      vertex 49.4116 -154.711 0
    endloop
  endfacet
  facet normal 0 -1 0
    outer loop
      vertex 46.7997 -154.711 0
      vertex 50.1824 -154.711 39.4937
      vertex 50.2307 -154.711 45.0406
    endloop
  endfacet
  facet normal 0 -1 0
    outer loop
      vertex 50.1824 -154.711 39.4937
      vertex 46.7997 -154.711 0
      vertex 49.2909 -154.711 0
    endloop
  endfacet
  facet normal 0 -1 0
    outer loop
      vertex 46.5544 -154.711 46.3341
      vertex 50.2307 -154.711 45.0406
      vertex 50.2252 -154.711 46.4716
    endloop
  endfacet
  facet normal 0 -1 0
    outer loop
      vertex 46.6309 -154.711 27.4367
      vertex 50.2307 -154.711 45.0406
      vertex 46.5544 -154.711 46.3341
    endloop
  endfacet
  facet normal 0 -1 0
    outer loop
      vertex 46.8748 -154.711 11.5329
      vertex 50.2307 -154.711 45.0406
      vertex 46.6309 -154.711 27.4367
    endloop
  endfacet
  facet normal 0 -1 0
    outer loop
      vertex 46.7997 -154.711 0
      vertex 46.8748 -154.711 11.5329
      vertex 46.7122 -154.711 7.3478
    endloop
  endfacet
  facet normal 0 -1 0
    outer loop
      vertex 46.7997 -154.711 0
      vertex 46.7122 -154.711 7.3478
      vertex 46.7419 -154.711 0
    endloop
  endfacet
  facet normal 0 -1 -0
    outer loop
      vertex 46.8748 -154.711 11.5329
      vertex 46.7997 -154.711 0
      vertex 50.2307 -154.711 45.0406
    endloop
  endfacet
  facet normal -0.0275499 -0.705469 0.708205
    outer loop
      vertex 46.646 -153.805 47.2356
      vertex 50.2196 -154.681 46.502
      vertex 46.6475 -153.764 47.2765
    endloop
  endfacet
  facet normal -0.0267627 -0.703731 0.709963
    outer loop
      vertex 46.5544 -154.711 46.3341
      vertex 50.2196 -154.681 46.502
      vertex 46.646 -153.805 47.2356
    endloop
  endfacet
  facet normal -0.0262098 -0.713939 0.699717
    outer loop
      vertex 50.2196 -154.681 46.502
      vertex 46.5544 -154.711 46.3341
      vertex 50.2252 -154.711 46.4716
    endloop
  endfacet
  facet normal -0.0261325 -0.700109 0.713557
    outer loop
      vertex 46.6475 -153.764 47.2765
      vertex 50.0388 -153.711 47.4527
      vertex 46.6502 -153.711 47.3286
    endloop
  endfacet
  facet normal -0.0260192 -0.70181 0.711889
    outer loop
      vertex 50.0388 -153.711 47.4527
      vertex 46.6475 -153.764 47.2765
      vertex 50.0521 -153.825 47.3408
    endloop
  endfacet
  facet normal -0.0260189 -0.70225 0.711455
    outer loop
      vertex 50.0521 -153.825 47.3408
      vertex 46.6475 -153.764 47.2765
      vertex 50.2196 -154.681 46.502
    endloop
  endfacet
  facet normal 0 -1 -0
    outer loop
      vertex 46.6309 -154.711 27.4367
      vertex 46.5306 -154.711 21.2893
      vertex 46.8748 -154.711 11.5329
    endloop
  endfacet
  facet normal -0 -1 0
    outer loop
      vertex 46.8748 -154.711 11.5329
      vertex 46.5306 -154.711 21.2893
      vertex 46.7122 -154.711 7.3478
    endloop
  endfacet
  facet normal 0.124678 -0.706146 0.697003
    outer loop
      vertex 42.8502 -154.711 46.9967
      vertex 46.5544 -154.711 46.3341
      vertex 46.646 -153.805 47.2356
    endloop
  endfacet
  facet normal 0.123617 -0.698845 0.70451
    outer loop
      vertex 43.1971 -153.711 47.9345
      vertex 46.6475 -153.764 47.2765
      vertex 46.6502 -153.711 47.3286
    endloop
  endfacet
  facet normal 0.122761 -0.703149 0.700366
    outer loop
      vertex 43.1971 -153.711 47.9345
      vertex 46.646 -153.805 47.2356
      vertex 46.6475 -153.764 47.2765
    endloop
  endfacet
  facet normal 0.123271 -0.700851 0.702576
    outer loop
      vertex 43.0218 -154.217 47.4605
      vertex 46.646 -153.805 47.2356
      vertex 43.1971 -153.711 47.9345
    endloop
  endfacet
  facet normal 0.123369 -0.702773 0.700635
    outer loop
      vertex 42.9716 -154.361 47.3249
      vertex 46.646 -153.805 47.2356
      vertex 43.0218 -154.217 47.4605
    endloop
  endfacet
  facet normal 0.123028 -0.700073 0.703393
    outer loop
      vertex 42.8772 -154.634 47.0697
      vertex 46.646 -153.805 47.2356
      vertex 42.9716 -154.361 47.3249
    endloop
  endfacet
  facet normal 0.124416 -0.705288 0.697917
    outer loop
      vertex 46.646 -153.805 47.2356
      vertex 42.8772 -154.634 47.0697
      vertex 42.8502 -154.711 46.9967
    endloop
  endfacet
  facet normal 0 -1 0
    outer loop
      vertex 42.8502 -154.711 46.9967
      vertex 46.6309 -154.711 27.4367
      vertex 46.5544 -154.711 46.3341
    endloop
  endfacet
  facet normal 0 -1 0
    outer loop
      vertex 42.8502 -154.711 46.9967
      vertex 46.5306 -154.711 21.2893
      vertex 46.6309 -154.711 27.4367
    endloop
  endfacet
  facet normal 0 -1 0
    outer loop
      vertex 42.8502 -154.711 46.9967
      vertex 46.7122 -154.711 7.3478
      vertex 46.5306 -154.711 21.2893
    endloop
  endfacet
  facet normal 0 -1 0
    outer loop
      vertex 46.2209 -154.711 0
      vertex 46.7122 -154.711 7.3478
      vertex 42.8502 -154.711 46.9967
    endloop
  endfacet
  facet normal 0 -1 -0
    outer loop
      vertex 46.7122 -154.711 7.3478
      vertex 46.2209 -154.711 0
      vertex 46.7419 -154.711 0
    endloop
  endfacet
  facet normal 0 -1 0
    outer loop
      vertex 46.2209 -154.711 0
      vertex 42.8502 -154.711 46.9967
      vertex 43.8555 -154.711 0
    endloop
  endfacet
  facet normal 0 -1 0
    outer loop
      vertex 43.7417 -154.711 0
      vertex 42.1936 -154.711 47.2396
      vertex 43.1999 -154.711 0
    endloop
  endfacet
  facet normal 0.245519 -0.706671 0.663578
    outer loop
      vertex 42.5406 -153.711 48.1774
      vertex 43.0218 -154.217 47.4605
      vertex 43.1971 -153.711 47.9345
    endloop
  endfacet
  facet normal 0.244815 -0.707085 0.663398
    outer loop
      vertex 42.1936 -154.711 47.2396
      vertex 43.0218 -154.217 47.4605
      vertex 42.5406 -153.711 48.1774
    endloop
  endfacet
  facet normal 0.246257 -0.70856 0.661287
    outer loop
      vertex 43.0218 -154.217 47.4605
      vertex 42.1936 -154.711 47.2396
      vertex 42.9716 -154.361 47.3249
    endloop
  endfacet
  facet normal 0 -1 0
    outer loop
      vertex 43.7417 -154.711 0
      vertex 42.8502 -154.711 46.9967
      vertex 42.1936 -154.711 47.2396
    endloop
  endfacet
  facet normal 0 -1 0
    outer loop
      vertex 42.8502 -154.711 46.9967
      vertex 43.7417 -154.711 0
      vertex 43.8555 -154.711 0
    endloop
  endfacet
  facet normal 0.244708 -0.705938 0.664657
    outer loop
      vertex 42.9716 -154.361 47.3249
      vertex 42.1936 -154.711 47.2396
      vertex 42.8772 -154.634 47.0697
    endloop
  endfacet
  facet normal 0.615403 -0.660081 0.430782
    outer loop
      vertex 39.0614 -154.711 48.2074
      vertex 39.5075 -153.711 49.1024
      vertex 39.2175 -154.361 48.5207
    endloop
  endfacet
  facet normal 0 -1 0
    outer loop
      vertex 42.6654 -154.711 0
      vertex 42.1936 -154.711 47.2396
      vertex 39.0614 -154.711 48.2074
    endloop
  endfacet
  facet normal 0 -1 0
    outer loop
      vertex 42.1936 -154.711 47.2396
      vertex 42.6654 -154.711 0
      vertex 43.1999 -154.711 0
    endloop
  endfacet
  facet normal 0.207694 -0.702179 0.681035
    outer loop
      vertex 39.5075 -153.711 49.1024
      vertex 39.0614 -154.711 48.2074
      vertex 42.5406 -153.711 48.1774
    endloop
  endfacet
  facet normal 0.20891 -0.706555 0.676118
    outer loop
      vertex 42.5406 -153.711 48.1774
      vertex 39.0614 -154.711 48.2074
      vertex 42.1936 -154.711 47.2396
    endloop
  endfacet
  facet normal 0 -1 0
    outer loop
      vertex 39.0614 -154.711 48.2074
      vertex 40.025 -154.711 0
      vertex 42.6654 -154.711 0
    endloop
  endfacet
  facet normal 0.244011 -0.710901 0.659604
    outer loop
      vertex 42.8772 -154.634 47.0697
      vertex 42.1936 -154.711 47.2396
      vertex 42.8502 -154.711 46.9967
    endloop
  endfacet
  facet normal 0 -1 0
    outer loop
      vertex 39.919 -154.711 0
      vertex 39.0614 -154.711 48.2074
      vertex 38.4349 -154.711 48.5197
    endloop
  endfacet
  facet normal 0 -1 0
    outer loop
      vertex 39.0614 -154.711 48.2074
      vertex 39.919 -154.711 0
      vertex 40.025 -154.711 0
    endloop
  endfacet
  facet normal 0.315505 -0.707096 0.632828
    outer loop
      vertex 38.8811 -153.711 49.4147
      vertex 39.2175 -154.361 48.5207
      vertex 39.5075 -153.711 49.1024
    endloop
  endfacet
  facet normal 0.315438 -0.707128 0.632826
    outer loop
      vertex 39.2175 -154.361 48.5207
      vertex 38.8811 -153.711 49.4147
      vertex 38.4349 -154.711 48.5197
    endloop
  endfacet
  facet normal 0.315444 -0.707142 0.632808
    outer loop
      vertex 39.2175 -154.361 48.5207
      vertex 38.4349 -154.711 48.5197
      vertex 39.0614 -154.711 48.2074
    endloop
  endfacet
  facet normal 0.446185 0 0.894941
    outer loop
      vertex 38.8811 -152.411 49.4147
      vertex 38.8811 -153.711 49.4147
      vertex 39.5075 -152.411 49.1024
    endloop
  endfacet
  facet normal 0.446185 0 0.894941
    outer loop
      vertex 39.5075 -152.411 49.1024
      vertex 38.8811 -153.711 49.4147
      vertex 39.5075 -153.711 49.1024
    endloop
  endfacet
  facet normal 0 -1 0
    outer loop
      vertex 39.919 -154.711 0
      vertex 38.4349 -154.711 48.5197
      vertex 39.3996 -154.711 0
    endloop
  endfacet
  facet normal 0.211082 -0.70249 0.679671
    outer loop
      vertex 38.8811 -153.711 49.4147
      vertex 35.3865 -153.711 50.5
      vertex 38.4349 -154.711 48.5197
    endloop
  endfacet
  facet normal 0.208673 -0.705991 0.676781
    outer loop
      vertex 38.4349 -154.711 48.5197
      vertex 35.2202 -154.12 50.1274
      vertex 35.1216 -154.361 49.9064
    endloop
  endfacet
  facet normal 0.209115 -0.705403 0.677257
    outer loop
      vertex 38.4349 -154.711 48.5197
      vertex 35.09 -154.439 49.8358
      vertex 34.9789 -154.711 49.5868
    endloop
  endfacet
  facet normal 0.210057 -0.70372 0.678715
    outer loop
      vertex 35.2202 -154.12 50.1274
      vertex 38.4349 -154.711 48.5197
      vertex 35.3865 -153.711 50.5
    endloop
  endfacet
  facet normal 0.210795 -0.701548 0.680731
    outer loop
      vertex 35.09 -154.439 49.8358
      vertex 38.4349 -154.711 48.5197
      vertex 35.1216 -154.361 49.9064
    endloop
  endfacet
  facet normal 0 -1 0
    outer loop
      vertex 38.8232 -154.711 0
      vertex 34.9789 -154.711 49.5868
      vertex 35.9668 -154.711 0
    endloop
  endfacet
  facet normal 0 -1 0
    outer loop
      vertex 38.8232 -154.711 0
      vertex 38.4349 -154.711 48.5197
      vertex 34.9789 -154.711 49.5868
    endloop
  endfacet
  facet normal 0 -1 0
    outer loop
      vertex 38.4349 -154.711 48.5197
      vertex 38.8232 -154.711 0
      vertex 39.3996 -154.711 0
    endloop
  endfacet
  facet normal 0.288547 -0.706265 0.646476
    outer loop
      vertex 34.7473 -153.711 50.7853
      vertex 35.2202 -154.12 50.1274
      vertex 35.3865 -153.711 50.5
    endloop
  endfacet
  facet normal 0.287336 -0.707087 0.646116
    outer loop
      vertex 34.3397 -154.711 49.8722
      vertex 35.2202 -154.12 50.1274
      vertex 34.7473 -153.711 50.7853
    endloop
  endfacet
  facet normal 0.289016 -0.708565 0.643743
    outer loop
      vertex 35.2202 -154.12 50.1274
      vertex 34.3397 -154.711 49.8722
      vertex 35.1216 -154.361 49.9064
    endloop
  endfacet
  facet normal 0.286778 -0.704134 0.649579
    outer loop
      vertex 35.1216 -154.361 49.9064
      vertex 34.3397 -154.711 49.8722
      vertex 35.09 -154.439 49.8358
    endloop
  endfacet
  facet normal 0.407583 0 0.913168
    outer loop
      vertex 35.3865 -152.411 50.5
      vertex 34.7473 -153.711 50.7853
      vertex 35.3865 -153.711 50.5
    endloop
  endfacet
  facet normal 0 -1 0
    outer loop
      vertex 35.861 -154.711 0
      vertex 34.9789 -154.711 49.5868
      vertex 34.3397 -154.711 49.8722
    endloop
  endfacet
  facet normal 0 -1 0
    outer loop
      vertex 34.9789 -154.711 49.5868
      vertex 35.861 -154.711 0
      vertex 35.9668 -154.711 0
    endloop
  endfacet
  facet normal 0 -1 0
    outer loop
      vertex 35.861 -154.711 0
      vertex 34.3397 -154.711 49.8722
      vertex 35.3285 -154.711 0
    endloop
  endfacet
  facet normal 0.407583 0 0.913168
    outer loop
      vertex 34.7473 -152.411 50.7853
      vertex 34.7473 -153.711 50.7853
      vertex 35.3865 -152.411 50.5
    endloop
  endfacet
  facet normal 0.166346 -0.701015 0.693475
    outer loop
      vertex 34.7473 -153.711 50.7853
      vertex 31.0245 -153.711 51.6783
      vertex 34.3397 -154.711 49.8722
    endloop
  endfacet
  facet normal 0.287939 -0.707965 0.644885
    outer loop
      vertex 35.09 -154.439 49.8358
      vertex 34.3397 -154.711 49.8722
      vertex 34.9789 -154.711 49.5868
    endloop
  endfacet
  facet normal 0 -1 0
    outer loop
      vertex 30.7332 -154.711 50.7216
      vertex 34.3397 -154.711 49.8722
      vertex 30.7332 -154.711 50.7217
    endloop
  endfacet
  facet normal 0 -1 0
    outer loop
      vertex 34.7374 -154.711 0
      vertex 34.3397 -154.711 49.8722
      vertex 30.7332 -154.711 50.7216
    endloop
  endfacet
  facet normal 0 -1 0
    outer loop
      vertex 34.3397 -154.711 49.8722
      vertex 34.7374 -154.711 0
      vertex 35.3285 -154.711 0
    endloop
  endfacet
  facet normal 0 -1 0
    outer loop
      vertex 34.7374 -154.711 0
      vertex 30.7332 -154.711 50.7216
      vertex 31.772 -154.711 0
    endloop
  endfacet
  facet normal 0.16226 -0.706495 0.688867
    outer loop
      vertex 34.3397 -154.711 49.8722
      vertex 30.8212 -154.409 51.0107
      vertex 30.7332 -154.711 50.7217
    endloop
  endfacet
  facet normal 0.162332 -0.70631 0.689039
    outer loop
      vertex 30.8212 -154.409 51.0107
      vertex 34.3397 -154.711 49.8722
      vertex 31.0245 -153.711 51.6783
    endloop
  endfacet
  facet normal 0 -1 0
    outer loop
      vertex 31.6628 -154.711 0
      vertex 30.0635 -154.711 50.9256
      vertex 31.103 -154.711 0
    endloop
  endfacet
  facet normal 0.205958 -0.707096 0.676459
    outer loop
      vertex 30.3548 -153.711 51.8822
      vertex 30.0635 -154.711 50.9256
      vertex 31.0245 -153.711 51.6783
    endloop
  endfacet
  facet normal 0 -1 0
    outer loop
      vertex 31.6628 -154.711 0
      vertex 30.7332 -154.711 50.7216
      vertex 30.0635 -154.711 50.9256
    endloop
  endfacet
  facet normal 0 -1 0
    outer loop
      vertex 30.7332 -154.711 50.7216
      vertex 31.6628 -154.711 0
      vertex 31.772 -154.711 0
    endloop
  endfacet
  facet normal 0.205822 -0.70704 0.676559
    outer loop
      vertex 31.0245 -153.711 51.6783
      vertex 30.0635 -154.711 50.9256
      vertex 30.8212 -154.409 51.0107
    endloop
  endfacet
  facet normal 0 -1 0
    outer loop
      vertex 30.0635 -154.711 50.9256
      vertex 30.7332 -154.711 50.7216
      vertex 30.7332 -154.711 50.7217
    endloop
  endfacet
  facet normal 0.101556 -0.702967 0.703934
    outer loop
      vertex 30.3548 -153.711 51.8822
      vertex 26.643 -153.711 52.4177
      vertex 30.0635 -154.711 50.9256
    endloop
  endfacet
  facet normal 0.20592 -0.707225 0.676335
    outer loop
      vertex 30.8212 -154.409 51.0107
      vertex 30.0635 -154.711 50.9256
      vertex 30.7332 -154.711 50.7217
    endloop
  endfacet
  facet normal 0 -1 0
    outer loop
      vertex 30.5208 -154.711 0
      vertex 26.476 -154.711 51.4318
      vertex 27.5491 -154.711 0
    endloop
  endfacet
  facet normal 0 -1 0
    outer loop
      vertex 30.5208 -154.711 0
      vertex 30.0635 -154.711 50.9256
      vertex 26.476 -154.711 51.4318
    endloop
  endfacet
  facet normal 0 -1 0
    outer loop
      vertex 30.0635 -154.711 50.9256
      vertex 30.5208 -154.711 0
      vertex 31.103 -154.711 0
    endloop
  endfacet
  facet normal 0.0988165 -0.706952 0.700324
    outer loop
      vertex 26.643 -153.711 52.4177
      vertex 26.476 -154.711 51.4318
      vertex 30.0635 -154.711 50.9256
    endloop
  endfacet
  facet normal 0.118199 -0.707093 0.697172
    outer loop
      vertex 25.7858 -154.711 51.5488
      vertex 26.643 -153.711 52.4177
      vertex 25.9529 -153.711 52.5347
    endloop
  endfacet
  facet normal 0.118183 -0.707087 0.697181
    outer loop
      vertex 26.643 -153.711 52.4177
      vertex 25.7858 -154.711 51.5488
      vertex 26.476 -154.711 51.4318
    endloop
  endfacet
  facet normal 0 -1 0
    outer loop
      vertex 25.3659 -154.711 0
      vertex 25.2845 -154.711 48.5909
      vertex 25.2845 -154.711 0
    endloop
  endfacet
  facet normal 0 -1 0
    outer loop
      vertex 25.2845 -154.711 48.5909
      vertex 25.3659 -154.711 0
      vertex 25.7858 -154.711 51.5488
    endloop
  endfacet
  facet normal 0 -1 0
    outer loop
      vertex 27.4373 -154.711 0
      vertex 26.476 -154.711 51.4318
      vertex 25.7858 -154.711 51.5488
    endloop
  endfacet
  facet normal 0 -1 0
    outer loop
      vertex 26.476 -154.711 51.4318
      vertex 27.4373 -154.711 0
      vertex 27.5491 -154.711 0
    endloop
  endfacet
  facet normal 0 -1 -0
    outer loop
      vertex 25.7858 -154.711 51.5488
      vertex 25.3659 -154.711 0
      vertex 27.4373 -154.711 0
    endloop
  endfacet
  facet normal -0.697179 -0.707093 0.118157
    outer loop
      vertex 24.7999 -153.711 51.7159
      vertex 24.2986 -153.711 48.758
      vertex 25.2845 -154.711 48.5909
    endloop
  endfacet
  facet normal -0.712919 -0.701246 3.33678e-05
    outer loop
      vertex 25.2845 -154.711 48.5909
      vertex 24.2986 -153.711 0
      vertex 24.4668 -153.882 0
    endloop
  endfacet
  facet normal -0.712109 -0.702069 0
    outer loop
      vertex 24.2986 -153.711 0
      vertex 25.2845 -154.711 48.5909
      vertex 24.2986 -153.711 48.758
    endloop
  endfacet
  facet normal -0.697179 -0.707093 0.118157
    outer loop
      vertex 25.7858 -154.711 51.5488
      vertex 24.7999 -153.711 51.7159
      vertex 25.2845 -154.711 48.5909
    endloop
  endfacet
  facet normal -0.472759 -0.577335 0.66572
    outer loop
      vertex 25.9529 -153.711 52.5347
      vertex 24.7999 -153.711 51.7159
      vertex 25.7858 -154.711 51.5488
    endloop
  endfacet
  facet normal -0.711942 -0.702238 -0
    outer loop
      vertex 25.2845 -154.711 48.5909
      vertex 24.4668 -153.882 0
      vertex 25.2845 -154.711 0
    endloop
  endfacet
  facet normal 0 0 1
    outer loop
      vertex 16.4375 -57.6671 7.5
      vertex 26.4375 -50.7115 7.5
      vertex 21.9345 -50.6346 7.5
    endloop
  endfacet
  facet normal 0 0 1
    outer loop
      vertex 16.4375 -57.6671 7.5
      vertex 21.9345 -50.6346 7.5
      vertex 21.3644 -50.6636 7.5
    endloop
  endfacet
  facet normal 0 0 1
    outer loop
      vertex 26.4375 -50.7115 7.5
      vertex 16.4375 -57.6671 7.5
      vertex 26.4375 -67.6671 7.5
    endloop
  endfacet
  facet normal -0 0 1
    outer loop
      vertex 11.4482 -51.1675 7.5
      vertex 16.4375 -57.6671 7.5
      vertex 21.3644 -50.6636 7.5
    endloop
  endfacet
  facet normal 0 0 1
    outer loop
      vertex 16.4375 -57.6671 7.5
      vertex 11.4482 -51.1675 7.5
      vertex 12.149 -57.1429 7.5
    endloop
  endfacet
  facet normal 0 0 1
    outer loop
      vertex 38.0191 -55.2113 7.5
      vertex 35.6322 -88.7115 7.5
      vertex 35.8173 -88.7115 7.5
    endloop
  endfacet
  facet normal 0 0 1
    outer loop
      vertex 38.0191 -55.2113 7.5
      vertex 26.4375 -67.6671 7.5
      vertex 35.6322 -88.7115 7.5
    endloop
  endfacet
  facet normal 0 0 1
    outer loop
      vertex 35.6322 -88.7115 7.5
      vertex 26.4375 -67.6671 7.5
      vertex 35.1798 -88.7115 7.5
    endloop
  endfacet
  facet normal 0 0 1
    outer loop
      vertex 35.1798 -88.7115 7.5
      vertex 26.4375 -67.6671 7.5
      vertex 34.1453 -88.7115 7.5
    endloop
  endfacet
  facet normal 0 0 1
    outer loop
      vertex 34.1453 -88.7115 7.5
      vertex 26.4375 -67.6671 7.5
      vertex 31.6184 -88.7115 7.5
    endloop
  endfacet
  facet normal 0 0 1
    outer loop
      vertex 31.6184 -88.7115 7.5
      vertex 26.4375 -67.6671 7.5
      vertex 31.4272 -88.7115 7.5
    endloop
  endfacet
  facet normal 0 0 1
    outer loop
      vertex 31.4272 -88.7115 7.5
      vertex 26.4375 -67.6671 7.5
      vertex 30.9499 -88.7115 7.5
    endloop
  endfacet
  facet normal 0 0 1
    outer loop
      vertex 29.007 -50.7766 7.5
      vertex 37.4191 -54.2113 7.5
      vertex 38.7659 -51.1033 7.5
    endloop
  endfacet
  facet normal 0 0 1
    outer loop
      vertex 38.0191 -55.2113 7.5
      vertex 29.007 -50.7766 7.5
      vertex 26.4375 -67.6671 7.5
    endloop
  endfacet
  facet normal 0 0 1
    outer loop
      vertex 30.9499 -88.7115 7.5
      vertex 26.4375 -67.6671 7.5
      vertex 29.9309 -88.7115 7.5
    endloop
  endfacet
  facet normal 0 0 1
    outer loop
      vertex 29.9309 -88.7115 7.5
      vertex 26.4375 -67.6671 7.5
      vertex 27.3926 -88.7115 7.5
    endloop
  endfacet
  facet normal 0 0 1
    outer loop
      vertex 26.4375 -67.6671 7.5
      vertex 29.007 -50.7766 7.5
      vertex 26.4375 -50.7115 7.5
    endloop
  endfacet
  facet normal 0 0 1
    outer loop
      vertex 27.3926 -88.7115 7.5
      vertex 26.4375 -67.6671 7.5
      vertex 27.197 -88.7115 7.5
    endloop
  endfacet
  facet normal 0 0 1
    outer loop
      vertex 27.197 -88.7115 7.5
      vertex 26.4375 -67.6671 7.5
      vertex 26.4375 -88.7115 7.5
    endloop
  endfacet
  facet normal 0 0 1
    outer loop
      vertex 45.5744 -55.2113 7.5
      vertex 43.6951 -88.7115 7.5
      vertex 45.5744 -88.7115 7.5
    endloop
  endfacet
  facet normal 0 0 1
    outer loop
      vertex 45.5744 -55.2113 7.5
      vertex 43.4959 -88.7115 7.5
      vertex 43.6951 -88.7115 7.5
    endloop
  endfacet
  facet normal 0 0 1
    outer loop
      vertex 45.5744 -55.2113 7.5
      vertex 43.0401 -88.7115 7.5
      vertex 43.4959 -88.7115 7.5
    endloop
  endfacet
  facet normal 0 0 1
    outer loop
      vertex 45.5744 -55.2113 7.5
      vertex 42.1047 -88.7115 7.5
      vertex 43.0401 -88.7115 7.5
    endloop
  endfacet
  facet normal -0 0 1
    outer loop
      vertex 38.0191 -55.2113 7.5
      vertex 42.1047 -88.7115 7.5
      vertex 45.5744 -55.2113 7.5
    endloop
  endfacet
  facet normal 0 0 1
    outer loop
      vertex 42.1047 -88.7115 7.5
      vertex 38.0191 -55.2113 7.5
      vertex 39.875 -88.7115 7.5
    endloop
  endfacet
  facet normal 0 0 1
    outer loop
      vertex 39.875 -88.7115 7.5
      vertex 38.0191 -55.2113 7.5
      vertex 39.6896 -88.7115 7.5
    endloop
  endfacet
  facet normal 0 0 1
    outer loop
      vertex 39.6896 -88.7115 7.5
      vertex 38.0191 -55.2113 7.5
      vertex 39.2505 -88.7115 7.5
    endloop
  endfacet
  facet normal 0 0 1
    outer loop
      vertex 39.2505 -88.7115 7.5
      vertex 38.0191 -55.2113 7.5
      vertex 38.2417 -88.7115 7.5
    endloop
  endfacet
  facet normal 0 0 1
    outer loop
      vertex 29.007 -50.7766 7.5
      vertex 38.0191 -55.2113 7.5
      vertex 37.4191 -54.2113 7.5
    endloop
  endfacet
  facet normal 0 0 1
    outer loop
      vertex 38.0191 -55.2113 7.5
      vertex 35.8173 -88.7115 7.5
      vertex 38.2417 -88.7115 7.5
    endloop
  endfacet
  facet normal 0 0 1
    outer loop
      vertex 16.4375 -57.6671 7.5
      vertex 12.149 -57.1429 7.5
      vertex 11.9396 -57.6671 7.5
    endloop
  endfacet
  facet normal 0.0334584 0.99944 -7.48952e-06
    outer loop
      vertex 30.3536 -50.8217 4.87223
      vertex 29.007 -50.7766 7.5
      vertex 38.7659 -51.1033 7.5
    endloop
  endfacet
  facet normal 0.033425 0.999441 0
    outer loop
      vertex 29.007 -50.7766 7.5
      vertex 29.5811 -50.7958 5.1221
      vertex 29.007 -50.7766 5.30777
    endloop
  endfacet
  facet normal 0.0335158 0.999438 2.19484e-05
    outer loop
      vertex 29.007 -50.7766 7.5
      vertex 30.3536 -50.8217 4.87223
      vertex 29.5811 -50.7958 5.1221
    endloop
  endfacet
  facet normal 0.0334561 0.99944 -0
    outer loop
      vertex 38.7659 -51.1033 2.74057
      vertex 30.3536 -50.8217 4.87223
      vertex 38.7659 -51.1033 7.5
    endloop
  endfacet
  facet normal 0.0253275 0.999679 -1.29124e-05
    outer loop
      vertex 26.7209 -50.7187 5.96154
      vertex 26.4375 -50.7115 7.5
      vertex 29.007 -50.7766 7.5
    endloop
  endfacet
  facet normal 0.0253976 0.999677 0
    outer loop
      vertex 26.4375 -50.7115 7.5
      vertex 26.7209 -50.7187 5.96154
      vertex 26.4375 -50.7115 6.063
    endloop
  endfacet
  facet normal 0.0253189 0.999679 0
    outer loop
      vertex 26.7209 -50.7187 5.96154
      vertex 29.007 -50.7766 7.5
      vertex 29.007 -50.7766 5.30777
    endloop
  endfacet
  facet normal 0.0170749 0.999849 -0.00332919
    outer loop
      vertex 26.4375 -50.7115 7.5
      vertex 21.9786 -50.6354 7.48592
      vertex 21.9345 -50.6346 7.5
    endloop
  endfacet
  facet normal 0.0170645 0.999854 0
    outer loop
      vertex 21.9786 -50.6354 7.48592
      vertex 26.4375 -50.7115 7.5
      vertex 26.4375 -50.7115 6.063
    endloop
  endfacet
  facet normal 0 -1 0
    outer loop
      vertex 11.9396 -57.6671 0
      vertex 16.4375 -57.6671 7.5
      vertex 11.9396 -57.6671 7.5
    endloop
  endfacet
  facet normal 0 -1 -0
    outer loop
      vertex 16.4375 -57.6671 7.5
      vertex 11.9396 -57.6671 0
      vertex 16.4375 -57.6671 0
    endloop
  endfacet
  facet normal -0.707107 -0.707107 0
    outer loop
      vertex 26.4375 -67.6671 0
      vertex 16.4375 -57.6671 7.5
      vertex 16.4375 -57.6671 0
    endloop
  endfacet
  facet normal -0.707107 -0.707107 0
    outer loop
      vertex 16.4375 -57.6671 7.5
      vertex 26.4375 -67.6671 0
      vertex 26.4375 -67.6671 7.5
    endloop
  endfacet
  facet normal -1 0 0
    outer loop
      vertex 26.4375 -88.7115 0
      vertex 26.4375 -67.6671 7.5
      vertex 26.4375 -67.6671 0
    endloop
  endfacet
  facet normal -1 -0 0
    outer loop
      vertex 26.4375 -67.6671 7.5
      vertex 26.4375 -88.7115 0
      vertex 26.4375 -88.7115 7.5
    endloop
  endfacet
  facet normal 1 -0 0
    outer loop
      vertex 45.5744 -88.7115 7.5
      vertex 45.5744 -55.2113 0
      vertex 45.5744 -55.2113 7.5
    endloop
  endfacet
  facet normal 1 0 0
    outer loop
      vertex 45.5744 -55.2113 0
      vertex 45.5744 -88.7115 7.5
      vertex 45.5744 -88.7115 0
    endloop
  endfacet
  facet normal -0.0219803 0.976208 -0.215718
    outer loop
      vertex 38.5255 -51.6579 0.254992
      vertex 32.292 -51.8546 0
      vertex 29.3373 -51.7049 0.978518
    endloop
  endfacet
  facet normal -0.0334585 -0.99944 0
    outer loop
      vertex 29.281 -51.7538 0.76298
      vertex 32.292 -51.8546 0
      vertex 29.281 -51.7538 0.762987
    endloop
  endfacet
  facet normal -0.0219855 0.976205 -0.215733
    outer loop
      vertex 29.3373 -51.7049 0.978518
      vertex 32.292 -51.8546 0
      vertex 29.281 -51.7538 0.76298
    endloop
  endfacet
  facet normal -0.0219804 0.976209 -0.215715
    outer loop
      vertex 32.292 -51.8546 0
      vertex 38.5255 -51.6579 0.254992
      vertex 38.5009 -51.7148 0
    endloop
  endfacet
  facet normal -0.0219648 0.976225 -0.215644
    outer loop
      vertex 38.7659 -51.1033 2.74057
      vertex 30.0211 -51.1106 3.59824
      vertex 30.3536 -50.8217 4.87223
    endloop
  endfacet
  facet normal -0.0219691 0.976215 -0.215688
    outer loop
      vertex 30.0211 -51.1106 3.59824
      vertex 38.7659 -51.1033 2.74057
      vertex 38.6377 -51.3991 1.41482
    endloop
  endfacet
  facet normal 0.0334324 0.999441 0
    outer loop
      vertex 29.7623 -51.7699 0
      vertex 29.281 -51.7538 0
      vertex 29.281 -51.7538 0.299204
    endloop
  endfacet
  facet normal 0.0334635 0.99944 1.96457e-05
    outer loop
      vertex 29.7623 -51.7699 0
      vertex 29.281 -51.7538 0.762987
      vertex 32.292 -51.8546 0
    endloop
  endfacet
  facet normal 0.0334324 0.999441 0
    outer loop
      vertex 29.281 -51.7538 0.762987
      vertex 29.7623 -51.7699 0
      vertex 29.281 -51.7538 0.299204
    endloop
  endfacet
  facet normal -0.021973 0.976212 -0.215703
    outer loop
      vertex 38.5255 -51.6579 0.254992
      vertex 30.0211 -51.1106 3.59824
      vertex 38.6377 -51.3991 1.41482
    endloop
  endfacet
  facet normal -0.0219806 0.976208 -0.215721
    outer loop
      vertex 30.0211 -51.1106 3.59824
      vertex 38.5255 -51.6579 0.254992
      vertex 29.3373 -51.7049 0.978518
    endloop
  endfacet
  facet normal -0.0359416 0.976582 -0.212121
    outer loop
      vertex 30.0211 -51.1106 3.59824
      vertex 29.007 -50.7766 5.30777
      vertex 29.5811 -50.7958 5.1221
    endloop
  endfacet
  facet normal -0.0359353 0.976583 -0.212117
    outer loop
      vertex 25.4002 -51.6554 1.87283
      vertex 29.007 -50.7766 5.30777
      vertex 30.0211 -51.1106 3.59824
    endloop
  endfacet
  facet normal -0.0359285 0.976582 -0.212124
    outer loop
      vertex 29.007 -50.7766 5.30777
      vertex 25.4002 -51.6554 1.87283
      vertex 26.7209 -50.7187 5.96154
    endloop
  endfacet
  facet normal -0.199272 0.967249 -0.157224
    outer loop
      vertex 25.6741 -51.4611 2.72102
      vertex 26.7209 -50.7187 5.96154
      vertex 25.4002 -51.6554 1.87283
    endloop
  endfacet
  facet normal -0.0359155 0.976573 -0.212167
    outer loop
      vertex 29.3373 -51.7049 0.978518
      vertex 25.4002 -51.6554 1.87283
      vertex 30.0211 -51.1106 3.59824
    endloop
  endfacet
  facet normal -0.0359178 0.976571 -0.212177
    outer loop
      vertex 25.4002 -51.6554 1.87283
      vertex 29.3373 -51.7049 0.978518
      vertex 29.281 -51.7538 0.76298
    endloop
  endfacet
  facet normal -0.0358623 0.97659 -0.212099
    outer loop
      vertex 30.3536 -50.8217 4.87223
      vertex 30.0211 -51.1106 3.59824
      vertex 29.5811 -50.7958 5.1221
    endloop
  endfacet
  facet normal -0.0253475 -0.999679 0
    outer loop
      vertex 25.4002 -51.6554 1.87283
      vertex 29.281 -51.7538 0.76298
      vertex 29.281 -51.7538 0.762987
    endloop
  endfacet
  facet normal 0.025323 0.999679 0
    outer loop
      vertex 26.0123 -51.671 0
      vertex 29.281 -51.7538 0.762987
      vertex 29.281 -51.7538 0.299204
    endloop
  endfacet
  facet normal 0.025323 0.999679 0
    outer loop
      vertex 26.0123 -51.671 0
      vertex 29.281 -51.7538 0.299204
      vertex 29.281 -51.7538 0
    endloop
  endfacet
  facet normal 0.025334 0.999679 -4.70106e-05
    outer loop
      vertex 29.281 -51.7538 0.762987
      vertex 26.0123 -51.671 0
      vertex 25.4002 -51.6554 1.87283
    endloop
  endfacet
  facet normal 0.0254778 0.999675 0
    outer loop
      vertex 26.0123 -51.671 0
      vertex 25.4002 -51.6554 1.82469
      vertex 25.4002 -51.6554 1.87283
    endloop
  endfacet
  facet normal 0.025484 0.999675 2.08974e-06
    outer loop
      vertex 25.4002 -51.6554 1.82469
      vertex 26.0123 -51.671 0
      vertex 25.4003 -51.6554 0.605208
    endloop
  endfacet
  facet normal 0.0254861 0.999675 4.21113e-06
    outer loop
      vertex 25.4003 -51.6554 0.605208
      vertex 26.0123 -51.671 0
      vertex 25.4004 -51.6554 0
    endloop
  endfacet
  facet normal -0.0495738 0.976915 -0.207796
    outer loop
      vertex 25.6741 -51.4611 2.72102
      vertex 26.4375 -50.7115 6.063
      vertex 26.7209 -50.7187 5.96154
    endloop
  endfacet
  facet normal -0.0496343 0.976915 -0.207782
    outer loop
      vertex 26.4375 -50.7115 6.063
      vertex 25.6741 -51.4611 2.72102
      vertex 21.9786 -50.6354 7.48592
    endloop
  endfacet
  facet normal -0.0496588 0.976223 -0.211004
    outer loop
      vertex 21.9786 -50.6354 7.48592
      vertex 21.3644 -50.6636 7.5
      vertex 21.9345 -50.6346 7.5
    endloop
  endfacet
  facet normal -0.0496139 0.976919 -0.207767
    outer loop
      vertex 25.4002 -51.6554 1.87283
      vertex 21.9786 -50.6354 7.48592
      vertex 25.6741 -51.4611 2.72102
    endloop
  endfacet
  facet normal -0.0496166 0.976919 -0.207769
    outer loop
      vertex 21.9786 -50.6354 7.48592
      vertex 25.4002 -51.6554 1.87283
      vertex 21.3644 -50.6636 7.5
    endloop
  endfacet
  facet normal -0.0496426 0.976911 -0.207797
    outer loop
      vertex 21.3644 -50.6636 7.5
      vertex 11.4775 -51.4179 6.3158
      vertex 11.4482 -51.1675 7.5
    endloop
  endfacet
  facet normal -0.0496439 0.976913 -0.207787
    outer loop
      vertex 11.4775 -51.4179 6.3158
      vertex 21.3644 -50.6636 7.5
      vertex 25.4002 -51.6554 1.87283
    endloop
  endfacet
  facet normal 0.0169941 0.999856 2.80797e-06
    outer loop
      vertex 25.4003 -51.6554 0.605208
      vertex 25.4004 -51.6554 0
      vertex 24.5414 -51.6408 0
    endloop
  endfacet
  facet normal 0.017056 0.999855 0
    outer loop
      vertex 25.4002 -51.6554 1.87283
      vertex 11.4775 -51.4179 2.59534
      vertex 11.4775 -51.4179 6.3158
    endloop
  endfacet
  facet normal 0.016998 0.999856 0
    outer loop
      vertex 24.5414 -51.6408 0
      vertex 25.4002 -51.6554 1.87283
      vertex 25.4002 -51.6554 1.82469
    endloop
  endfacet
  facet normal 0.016995 0.999856 1.39363e-06
    outer loop
      vertex 24.5414 -51.6408 0
      vertex 25.4002 -51.6554 1.82469
      vertex 25.4003 -51.6554 0.605208
    endloop
  endfacet
  facet normal 0.0170546 0.999855 -2.59775e-05
    outer loop
      vertex 25.4002 -51.6554 1.87283
      vertex 24.5414 -51.6408 0
      vertex 11.4775 -51.4179 2.59534
    endloop
  endfacet
  facet normal 0.0170598 0.999854 0
    outer loop
      vertex 11.4775 -51.4179 2.59534
      vertex 24.5414 -51.6408 0
      vertex 11.4775 -51.4179 0
    endloop
  endfacet
  facet normal -0.993191 -0.116494 -0
    outer loop
      vertex 12.149 -57.1429 7.5
      vertex 11.4775 -51.4179 2.59534
      vertex 12.149 -57.1429 0
    endloop
  endfacet
  facet normal -0.993191 -0.116494 0
    outer loop
      vertex 11.4775 -51.4179 2.59534
      vertex 12.149 -57.1429 7.5
      vertex 11.4775 -51.4179 6.3158
    endloop
  endfacet
  facet normal -0.993193 -0.116482 5.62982e-05
    outer loop
      vertex 11.4775 -51.4179 6.3158
      vertex 12.149 -57.1429 7.5
      vertex 11.4482 -51.1675 7.5
    endloop
  endfacet
  facet normal -0.993192 -0.116488 -1.44349e-05
    outer loop
      vertex 12.149 -57.1429 0
      vertex 11.4775 -51.4179 2.59534
      vertex 11.6159 -52.5976 0
    endloop
  endfacet
  facet normal -0.993188 -0.116519 0
    outer loop
      vertex 11.6159 -52.5976 0
      vertex 11.4775 -51.4179 2.59534
      vertex 11.4775 -51.4179 0
    endloop
  endfacet
  facet normal -0.928648 0.370963 0
    outer loop
      vertex 11.9396 -57.6671 0
      vertex 12.149 -57.1429 7.5
      vertex 12.149 -57.1429 0
    endloop
  endfacet
  facet normal -0.928648 0.370963 0
    outer loop
      vertex 12.149 -57.1429 7.5
      vertex 11.9396 -57.6671 0
      vertex 11.9396 -57.6671 7.5
    endloop
  endfacet
  facet normal 0.857493 0.514496 0
    outer loop
      vertex 38.0191 -55.2113 7.5
      vertex 37.4191 -54.2113 0
      vertex 37.4191 -54.2113 7.5
    endloop
  endfacet
  facet normal 0.857493 0.514496 0
    outer loop
      vertex 37.4191 -54.2113 0
      vertex 38.0191 -55.2113 7.5
      vertex 38.0191 -55.2113 0
    endloop
  endfacet
  facet normal 0.917556 -0.397607 0
    outer loop
      vertex 37.4191 -54.2113 7.5
      vertex 38.7659 -51.1033 2.74057
      vertex 38.7659 -51.1033 7.5
    endloop
  endfacet
  facet normal 0.917556 -0.397607 0
    outer loop
      vertex 37.4191 -54.2113 0
      vertex 38.7659 -51.1033 2.74057
      vertex 37.4191 -54.2113 7.5
    endloop
  endfacet
  facet normal 0.917561 -0.397595 -1.72325e-05
    outer loop
      vertex 38.7659 -51.1033 2.74057
      vertex 37.4191 -54.2113 0
      vertex 38.6377 -51.3991 1.41482
    endloop
  endfacet
  facet normal 0.917567 -0.397581 -4.91691e-05
    outer loop
      vertex 38.6377 -51.3991 1.41482
      vertex 37.4191 -54.2113 0
      vertex 38.5255 -51.6579 0.254992
    endloop
  endfacet
  facet normal 0.917558 -0.397602 0.000202541
    outer loop
      vertex 38.5255 -51.6579 0.254992
      vertex 37.4191 -54.2113 0
      vertex 38.5009 -51.7148 0
    endloop
  endfacet
  facet normal 0 1 -0
    outer loop
      vertex 45.5744 -55.2113 0
      vertex 38.0191 -55.2113 7.5
      vertex 45.5744 -55.2113 7.5
    endloop
  endfacet
  facet normal 0 1 0
    outer loop
      vertex 38.0191 -55.2113 7.5
      vertex 45.5744 -55.2113 0
      vertex 38.0191 -55.2113 0
    endloop
  endfacet
  facet normal 0 0 -1
    outer loop
      vertex 56.9536 -154.711 0
      vertex 60.6736 -153.711 0
      vertex 60.5146 -153.889 0
    endloop
  endfacet
  facet normal 0 0 -1
    outer loop
      vertex 53.0432 -154.711 0
      vertex 60.6736 -153.711 0
      vertex 53.574 -154.711 0
    endloop
  endfacet
  facet normal 0 0 -1
    outer loop
      vertex 59.5517 -154.711 0
      vertex 60.5146 -153.889 0
      vertex 59.7787 -154.711 0
    endloop
  endfacet
  facet normal 0 0 -1
    outer loop
      vertex 56.9536 -154.711 0
      vertex 60.5146 -153.889 0
      vertex 59.5517 -154.711 0
    endloop
  endfacet
  facet normal 0 0 -1
    outer loop
      vertex 60.6736 -153.711 0
      vertex 56.9536 -154.711 0
      vertex 56.8484 -154.711 0
    endloop
  endfacet
  facet normal 0 0 -1
    outer loop
      vertex 60.5146 -89.5339 0
      vertex 59.5517 -88.7115 0
      vertex 59.7787 -88.7115 0
    endloop
  endfacet
  facet normal 0 0 -1
    outer loop
      vertex 60.6736 -153.711 0
      vertex 56.8484 -154.711 0
      vertex 54.1249 -154.711 0
    endloop
  endfacet
  facet normal 0 0 -1
    outer loop
      vertex 60.5146 -89.5339 0
      vertex 56.9536 -88.7115 0
      vertex 59.5517 -88.7115 0
    endloop
  endfacet
  facet normal 0 0 -1
    outer loop
      vertex 60.6736 -153.711 0
      vertex 54.1249 -154.711 0
      vertex 53.574 -154.711 0
    endloop
  endfacet
  facet normal 0 0 -1
    outer loop
      vertex 60.6736 -89.7115 0
      vertex 56.9536 -88.7115 0
      vertex 60.5146 -89.5339 0
    endloop
  endfacet
  facet normal 0 0 -1
    outer loop
      vertex 52.9328 -154.711 0
      vertex 60.6736 -153.711 0
      vertex 53.0432 -154.711 0
    endloop
  endfacet
  facet normal -0 -0 -1
    outer loop
      vertex 56.9536 -88.7115 0
      vertex 60.6736 -89.7115 0
      vertex 56.8484 -88.7115 0
    endloop
  endfacet
  facet normal -0 -0 -1
    outer loop
      vertex 54.1249 -88.7115 0
      vertex 60.6736 -89.7115 0
      vertex 53.574 -88.7115 0
    endloop
  endfacet
  facet normal -0 -0 -1
    outer loop
      vertex 56.8484 -88.7115 0
      vertex 60.6736 -89.7115 0
      vertex 54.1249 -88.7115 0
    endloop
  endfacet
  facet normal -0 0 -1
    outer loop
      vertex 60.6736 -153.711 0
      vertex 52.9328 -154.711 0
      vertex 60.6736 -89.7115 0
    endloop
  endfacet
  facet normal 0 0 -1
    outer loop
      vertex 60.6736 -89.7115 0
      vertex 53.0432 -88.7115 0
      vertex 53.574 -88.7115 0
    endloop
  endfacet
  facet normal 0 0 -1
    outer loop
      vertex 52.9327 -88.7115 0
      vertex 60.6736 -89.7115 0
      vertex 52.9328 -154.711 0
    endloop
  endfacet
  facet normal 0 0 -1
    outer loop
      vertex 60.6736 -89.7115 0
      vertex 52.9327 -88.7115 0
      vertex 53.0432 -88.7115 0
    endloop
  endfacet
  facet normal 0 0 -1
    outer loop
      vertex 50.4779 -154.711 0
      vertex 52.9327 -88.7115 0
      vertex 52.9328 -154.711 0
    endloop
  endfacet
  facet normal 0 0 -1
    outer loop
      vertex 50.4779 -154.711 0
      vertex 50.4779 -88.7115 0
      vertex 52.9327 -88.7115 0
    endloop
  endfacet
  facet normal 0 0 -1
    outer loop
      vertex 49.9398 -154.711 0
      vertex 50.4779 -88.7115 0
      vertex 50.4779 -154.711 0
    endloop
  endfacet
  facet normal 0 0 -1
    outer loop
      vertex 49.9398 -154.711 0
      vertex 49.9398 -88.7115 0
      vertex 50.4779 -88.7115 0
    endloop
  endfacet
  facet normal 0 0 -1
    outer loop
      vertex 49.4116 -154.711 0
      vertex 49.9398 -88.7115 0
      vertex 49.9398 -154.711 0
    endloop
  endfacet
  facet normal 0 0 -1
    outer loop
      vertex 49.4116 -154.711 0
      vertex 49.4116 -88.7115 0
      vertex 49.9398 -88.7115 0
    endloop
  endfacet
  facet normal 0 0 -1
    outer loop
      vertex 49.2909 -154.711 0
      vertex 49.4116 -88.7115 0
      vertex 49.4116 -154.711 0
    endloop
  endfacet
  facet normal 0 0 -1
    outer loop
      vertex 49.2909 -154.711 0
      vertex 49.2909 -88.7115 0
      vertex 49.4116 -88.7115 0
    endloop
  endfacet
  facet normal 0 0 -1
    outer loop
      vertex 46.7997 -154.711 0
      vertex 49.2909 -88.7115 0
      vertex 49.2909 -154.711 0
    endloop
  endfacet
  facet normal 0 0 -1
    outer loop
      vertex 46.7997 -154.711 0
      vertex 46.7997 -88.7115 0
      vertex 49.2909 -88.7115 0
    endloop
  endfacet
  facet normal 0 0 -1
    outer loop
      vertex 46.7419 -154.711 0
      vertex 46.7997 -88.7115 0
      vertex 46.7997 -154.711 0
    endloop
  endfacet
  facet normal 0 0 -1
    outer loop
      vertex 46.7419 -154.711 0
      vertex 46.7419 -88.7115 0
      vertex 46.7997 -88.7115 0
    endloop
  endfacet
  facet normal 0 0 -1
    outer loop
      vertex 46.2209 -154.711 0
      vertex 46.7419 -88.7115 0
      vertex 46.7419 -154.711 0
    endloop
  endfacet
  facet normal 0 0 -1
    outer loop
      vertex 46.2209 -154.711 0
      vertex 46.2209 -88.7115 0
      vertex 46.7419 -88.7115 0
    endloop
  endfacet
  facet normal 0 0 -1
    outer loop
      vertex 46.2209 -154.711 0
      vertex 45.5744 -88.7115 0
      vertex 46.2209 -88.7115 0
    endloop
  endfacet
  facet normal 0 0 -1
    outer loop
      vertex 43.8555 -154.711 0
      vertex 45.5744 -88.7115 0
      vertex 46.2209 -154.711 0
    endloop
  endfacet
  facet normal 0 0 -1
    outer loop
      vertex 43.7417 -154.711 0
      vertex 45.5744 -88.7115 0
      vertex 43.8555 -154.711 0
    endloop
  endfacet
  facet normal 0 0 -1
    outer loop
      vertex 43.1999 -154.711 0
      vertex 45.5744 -88.7115 0
      vertex 43.7417 -154.711 0
    endloop
  endfacet
  facet normal 0 0 -1
    outer loop
      vertex 42.6654 -154.711 0
      vertex 45.5744 -88.7115 0
      vertex 43.1999 -154.711 0
    endloop
  endfacet
  facet normal 0 0 -1
    outer loop
      vertex 40.025 -154.711 0
      vertex 45.5744 -88.7115 0
      vertex 42.6654 -154.711 0
    endloop
  endfacet
  facet normal 0 0 -1
    outer loop
      vertex 39.919 -154.711 0
      vertex 45.5744 -88.7115 0
      vertex 40.025 -154.711 0
    endloop
  endfacet
  facet normal 0 0 -1
    outer loop
      vertex 39.3996 -154.711 0
      vertex 45.5744 -88.7115 0
      vertex 39.919 -154.711 0
    endloop
  endfacet
  facet normal 0 0 -1
    outer loop
      vertex 38.8232 -154.711 0
      vertex 45.5744 -88.7115 0
      vertex 39.3996 -154.711 0
    endloop
  endfacet
  facet normal 0 0 -1
    outer loop
      vertex 35.9668 -154.711 0
      vertex 45.5744 -88.7115 0
      vertex 38.8232 -154.711 0
    endloop
  endfacet
  facet normal 0 0 -1
    outer loop
      vertex 26.4375 -67.6671 0
      vertex 45.5744 -88.7115 0
      vertex 26.4375 -88.7115 0
    endloop
  endfacet
  facet normal 0 0 -1
    outer loop
      vertex 45.5744 -88.7115 0
      vertex 26.4375 -67.6671 0
      vertex 45.5744 -55.2113 0
    endloop
  endfacet
  facet normal 0 0 -1
    outer loop
      vertex 45.5744 -88.7115 0
      vertex 35.9668 -154.711 0
      vertex 24.2986 -89.7115 0
    endloop
  endfacet
  facet normal 0 0 -1
    outer loop
      vertex 24.2986 -89.7115 0
      vertex 35.9668 -154.711 0
      vertex 35.861 -154.711 0
    endloop
  endfacet
  facet normal 0 0 -1
    outer loop
      vertex 24.2986 -89.7115 0
      vertex 35.861 -154.711 0
      vertex 35.3285 -154.711 0
    endloop
  endfacet
  facet normal 0 0 -1
    outer loop
      vertex 24.2986 -89.7115 0
      vertex 35.3285 -154.711 0
      vertex 34.7374 -154.711 0
    endloop
  endfacet
  facet normal 0 0 -1
    outer loop
      vertex 37.4191 -54.2113 0
      vertex 32.292 -51.8546 0
      vertex 38.5009 -51.7148 0
    endloop
  endfacet
  facet normal -0 0 -1
    outer loop
      vertex 45.5744 -55.2113 0
      vertex 26.4375 -67.6671 0
      vertex 38.0191 -55.2113 0
    endloop
  endfacet
  facet normal 0 0 -1
    outer loop
      vertex 24.2986 -89.7115 0
      vertex 34.7374 -154.711 0
      vertex 31.772 -154.711 0
    endloop
  endfacet
  facet normal 0 0 -1
    outer loop
      vertex 24.2986 -153.711 0
      vertex 31.772 -154.711 0
      vertex 31.6628 -154.711 0
    endloop
  endfacet
  facet normal 0 0 -1
    outer loop
      vertex 24.2986 -153.711 0
      vertex 31.6628 -154.711 0
      vertex 31.103 -154.711 0
    endloop
  endfacet
  facet normal 0 0 -1
    outer loop
      vertex 24.2986 -153.711 0
      vertex 31.103 -154.711 0
      vertex 30.5208 -154.711 0
    endloop
  endfacet
  facet normal 0 -0 -1
    outer loop
      vertex 32.292 -51.8546 0
      vertex 38.0191 -55.2113 0
      vertex 26.4375 -67.6671 0
    endloop
  endfacet
  facet normal 0 0 -1
    outer loop
      vertex 38.0191 -55.2113 0
      vertex 32.292 -51.8546 0
      vertex 37.4191 -54.2113 0
    endloop
  endfacet
  facet normal 0 0 -1
    outer loop
      vertex 24.2986 -153.711 0
      vertex 30.5208 -154.711 0
      vertex 27.5491 -154.711 0
    endloop
  endfacet
  facet normal 0 0 -1
    outer loop
      vertex 24.2986 -153.711 0
      vertex 27.5491 -154.711 0
      vertex 27.4373 -154.711 0
    endloop
  endfacet
  facet normal -0 0 -1
    outer loop
      vertex 32.292 -51.8546 0
      vertex 26.4375 -67.6671 0
      vertex 29.7623 -51.7699 0
    endloop
  endfacet
  facet normal -0 0 -1
    outer loop
      vertex 29.7623 -51.7699 0
      vertex 26.4375 -67.6671 0
      vertex 29.281 -51.7538 0
    endloop
  endfacet
  facet normal 0 0 -1
    outer loop
      vertex 26.4375 -67.6671 0
      vertex 26.0123 -51.671 0
      vertex 29.281 -51.7538 0
    endloop
  endfacet
  facet normal 0 0 -1
    outer loop
      vertex 26.4375 -67.6671 0
      vertex 25.4004 -51.6554 0
      vertex 26.0123 -51.671 0
    endloop
  endfacet
  facet normal 0 0 -1
    outer loop
      vertex 26.4375 -67.6671 0
      vertex 24.5414 -51.6408 0
      vertex 25.4004 -51.6554 0
    endloop
  endfacet
  facet normal 0 0 -1
    outer loop
      vertex 16.4375 -57.6671 0
      vertex 24.5414 -51.6408 0
      vertex 26.4375 -67.6671 0
    endloop
  endfacet
  facet normal 0 0 -1
    outer loop
      vertex 11.6159 -52.5976 0
      vertex 16.4375 -57.6671 0
      vertex 12.149 -57.1429 0
    endloop
  endfacet
  facet normal 0 0 -1
    outer loop
      vertex 16.4375 -57.6671 0
      vertex 11.6159 -52.5976 0
      vertex 24.5414 -51.6408 0
    endloop
  endfacet
  facet normal -0 0 -1
    outer loop
      vertex 24.5414 -51.6408 0
      vertex 11.6159 -52.5976 0
      vertex 11.4775 -51.4179 0
    endloop
  endfacet
  facet normal 0 0 -1
    outer loop
      vertex 16.4375 -57.6671 0
      vertex 11.9396 -57.6671 0
      vertex 12.149 -57.1429 0
    endloop
  endfacet
  facet normal 0 0 -1
    outer loop
      vertex 24.4668 -153.882 0
      vertex 27.4373 -154.711 0
      vertex 25.3659 -154.711 0
    endloop
  endfacet
  facet normal 0 0 -1
    outer loop
      vertex 31.772 -154.711 0
      vertex 24.2986 -153.711 0
      vertex 24.2986 -89.7115 0
    endloop
  endfacet
  facet normal 0 0 -1
    outer loop
      vertex 24.4668 -153.882 0
      vertex 25.3659 -154.711 0
      vertex 25.2845 -154.711 0
    endloop
  endfacet
  facet normal 0 0 -1
    outer loop
      vertex 27.4373 -154.711 0
      vertex 24.4668 -153.882 0
      vertex 24.2986 -153.711 0
    endloop
  endfacet
  facet normal -0 0 -1
    outer loop
      vertex 45.5744 -88.7115 0
      vertex 24.2986 -89.7115 0
      vertex 26.4375 -88.7115 0
    endloop
  endfacet
  facet normal -0 0 -1
    outer loop
      vertex 25.3659 -88.7115 0
      vertex 24.4668 -89.5408 0
      vertex 25.2845 -88.7115 0
    endloop
  endfacet
  facet normal 0 -0 -1
    outer loop
      vertex 24.4668 -89.5408 0
      vertex 26.4375 -88.7115 0
      vertex 24.2986 -89.7115 0
    endloop
  endfacet
  facet normal -0 0 -1
    outer loop
      vertex 26.4375 -88.7115 0
      vertex 24.4668 -89.5408 0
      vertex 25.3659 -88.7115 0
    endloop
  endfacet
endsolid OpenSCAD_Model
