solid OpenSCAD_Model
  facet normal 0.142791 0 0.989753
    outer loop
      vertex 31.643 -79.7115 52.4177
      vertex 35.3548 -143.711 51.8822
      vertex 35.3548 -79.7115 51.8822
    endloop
  endfacet
  facet normal 0.142791 0 0.989753
    outer loop
      vertex 35.3548 -143.711 51.8822
      vertex 31.643 -79.7115 52.4177
      vertex 31.643 -143.711 52.4177
    endloop
  endfacet
  facet normal 0.167155 0 0.985931
    outer loop
      vertex 30.9529 -79.7115 52.5347
      vertex 31.643 -143.711 52.4177
      vertex 31.643 -79.7115 52.4177
    endloop
  endfacet
  facet normal 0.167155 0 0.985931
    outer loop
      vertex 31.643 -143.711 52.4177
      vertex 30.9529 -79.7115 52.5347
      vertex 30.9529 -143.711 52.5347
    endloop
  endfacet
  facet normal 0.233256 0 0.972415
    outer loop
      vertex 36.0245 -79.7115 51.6783
      vertex 39.7473 -81.0115 50.7853
      vertex 39.7473 -79.7115 50.7853
    endloop
  endfacet
  facet normal 0.233256 0 0.972415
    outer loop
      vertex 39.7473 -81.0115 50.7853
      vertex 36.0245 -79.7115 51.6783
      vertex 39.7473 -142.411 50.7853
    endloop
  endfacet
  facet normal 0.233256 -0 0.972415
    outer loop
      vertex 36.0245 -143.711 51.6783
      vertex 39.7473 -142.411 50.7853
      vertex 36.0245 -79.7115 51.6783
    endloop
  endfacet
  facet normal 0.233256 0 0.972415
    outer loop
      vertex 39.7473 -142.411 50.7853
      vertex 36.0245 -143.711 51.6783
      vertex 39.7473 -143.711 50.7853
    endloop
  endfacet
  facet normal 0.291264 0 0.956643
    outer loop
      vertex 35.3548 -79.7115 51.8822
      vertex 36.0245 -143.711 51.6783
      vertex 36.0245 -79.7115 51.6783
    endloop
  endfacet
  facet normal 0.291264 0 0.956643
    outer loop
      vertex 36.0245 -143.711 51.6783
      vertex 35.3548 -79.7115 51.8822
      vertex 35.3548 -143.711 51.8822
    endloop
  endfacet
  facet normal 0.296591 0 0.955005
    outer loop
      vertex 40.3865 -81.0115 50.5
      vertex 43.8811 -81.0115 49.4147
      vertex 43.8811 -79.7115 49.4147
    endloop
  endfacet
  facet normal 0.296591 0 0.955005
    outer loop
      vertex 43.8811 -81.0115 49.4147
      vertex 40.3865 -81.0115 50.5
      vertex 43.8811 -142.411 49.4147
    endloop
  endfacet
  facet normal 0.296591 -0 0.955005
    outer loop
      vertex 40.3865 -81.0115 50.5
      vertex 43.8811 -79.7115 49.4147
      vertex 40.3865 -79.7115 50.5
    endloop
  endfacet
  facet normal 0.296591 -0 0.955005
    outer loop
      vertex 40.3865 -142.411 50.5
      vertex 43.8811 -142.411 49.4147
      vertex 40.3865 -81.0115 50.5
    endloop
  endfacet
  facet normal 0.296591 0 0.955005
    outer loop
      vertex 43.8811 -142.411 49.4147
      vertex 40.3865 -142.411 50.5
      vertex 43.8811 -143.711 49.4147
    endloop
  endfacet
  facet normal 0.296591 0 0.955005
    outer loop
      vertex 43.8811 -143.711 49.4147
      vertex 40.3865 -142.411 50.5
      vertex 40.3865 -143.711 50.5
    endloop
  endfacet
  facet normal 0.407583 0 0.913168
    outer loop
      vertex 39.7473 -81.0115 50.7853
      vertex 40.3865 -142.411 50.5
      vertex 40.3865 -81.0115 50.5
    endloop
  endfacet
  facet normal 0.407583 0 0.913168
    outer loop
      vertex 40.3865 -142.411 50.5
      vertex 39.7473 -81.0115 50.7853
      vertex 39.7473 -142.411 50.7853
    endloop
  endfacet
  facet normal 0.291705 0 0.956508
    outer loop
      vertex 44.5075 -81.0115 49.1024
      vertex 47.5406 -81.0115 48.1774
      vertex 47.5406 -79.7115 48.1774
    endloop
  endfacet
  facet normal 0.291705 -0 0.956508
    outer loop
      vertex 44.5075 -81.0115 49.1024
      vertex 47.5406 -79.7115 48.1774
      vertex 44.5075 -79.7115 49.1024
    endloop
  endfacet
  facet normal 0.291705 -0 0.956508
    outer loop
      vertex 44.5075 -142.411 49.1024
      vertex 47.5406 -81.0115 48.1774
      vertex 44.5075 -81.0115 49.1024
    endloop
  endfacet
  facet normal 0.291705 0 0.956508
    outer loop
      vertex 47.5406 -81.0115 48.1774
      vertex 44.5075 -142.411 49.1024
      vertex 47.5406 -143.711 48.1774
    endloop
  endfacet
  facet normal 0.291705 0 0.956508
    outer loop
      vertex 47.5406 -143.711 48.1774
      vertex 44.5075 -142.411 49.1024
      vertex 44.5075 -143.711 49.1024
    endloop
  endfacet
  facet normal 0.446185 0 0.894941
    outer loop
      vertex 43.8811 -81.0115 49.4147
      vertex 44.5075 -142.411 49.1024
      vertex 44.5075 -81.0115 49.1024
    endloop
  endfacet
  facet normal 0.446185 0 0.894941
    outer loop
      vertex 44.5075 -142.411 49.1024
      vertex 43.8811 -81.0115 49.4147
      vertex 43.8811 -142.411 49.4147
    endloop
  endfacet
  facet normal 0.172825 -0 0.984953
    outer loop
      vertex 48.1971 -81.0115 47.9345
      vertex 51.6502 -79.7115 47.3286
      vertex 48.1971 -79.7115 47.9345
    endloop
  endfacet
  facet normal 0.172825 0 0.984953
    outer loop
      vertex 51.6502 -79.7115 47.3286
      vertex 48.1971 -81.0115 47.9345
      vertex 51.6502 -143.711 47.3286
    endloop
  endfacet
  facet normal 0.172825 -0 0.984953
    outer loop
      vertex 48.1971 -142.411 47.9345
      vertex 51.6502 -143.711 47.3286
      vertex 48.1971 -81.0115 47.9345
    endloop
  endfacet
  facet normal 0.172825 0 0.984953
    outer loop
      vertex 51.6502 -143.711 47.3286
      vertex 48.1971 -142.411 47.9345
      vertex 48.1971 -143.711 47.9345
    endloop
  endfacet
  facet normal 0.347003 0 0.937864
    outer loop
      vertex 47.5406 -81.0115 48.1774
      vertex 48.1971 -142.411 47.9345
      vertex 48.1971 -81.0115 47.9345
    endloop
  endfacet
  facet normal 0.347003 -0 0.937864
    outer loop
      vertex 47.5406 -143.711 48.1774
      vertex 48.1971 -142.411 47.9345
      vertex 47.5406 -81.0115 48.1774
    endloop
  endfacet
  facet normal 0.347003 0 0.937864
    outer loop
      vertex 48.1971 -142.411 47.9345
      vertex 47.5406 -143.711 48.1774
      vertex 48.1971 -143.711 47.9345
    endloop
  endfacet
  facet normal -0.0365983 0 0.99933
    outer loop
      vertex 51.6502 -79.7115 47.3286
      vertex 55.0388 -143.711 47.4527
      vertex 55.0388 -79.7115 47.4527
    endloop
  endfacet
  facet normal -0.0365983 0 0.99933
    outer loop
      vertex 55.0388 -143.711 47.4527
      vertex 51.6502 -79.7115 47.3286
      vertex 51.6502 -143.711 47.3286
    endloop
  endfacet
  facet normal -0.229064 0 0.973411
    outer loop
      vertex 55.0388 -79.7115 47.4527
      vertex 58.52 -143.711 48.2719
      vertex 58.52 -79.7115 48.2719
    endloop
  endfacet
  facet normal -0.229064 0 0.973411
    outer loop
      vertex 58.52 -143.711 48.2719
      vertex 55.0388 -79.7115 47.4527
      vertex 55.0388 -143.711 47.4527
    endloop
  endfacet
  facet normal -0.302185 0 0.953249
    outer loop
      vertex 59.1623 -79.7115 48.5502
      vertex 62.3673 -143.711 49.5662
      vertex 62.3673 -79.7115 49.5662
    endloop
  endfacet
  facet normal -0.302185 0 0.953249
    outer loop
      vertex 62.3673 -143.711 49.5662
      vertex 59.1623 -79.7115 48.5502
      vertex 59.1623 -143.711 48.5502
    endloop
  endfacet
  facet normal -0.397571 0 0.917571
    outer loop
      vertex 58.52 -79.7115 48.2719
      vertex 59.1623 -143.711 48.5502
      vertex 59.1623 -79.7115 48.5502
    endloop
  endfacet
  facet normal -0.397571 0 0.917571
    outer loop
      vertex 59.1623 -143.711 48.5502
      vertex 58.52 -79.7115 48.2719
      vertex 58.52 -143.711 48.2719
    endloop
  endfacet
  facet normal -0.446299 0 0.894884
    outer loop
      vertex 62.3673 -79.7115 49.5662
      vertex 62.9937 -143.711 49.8786
      vertex 62.9937 -79.7115 49.8786
    endloop
  endfacet
  facet normal -0.446299 0 0.894884
    outer loop
      vertex 62.9937 -143.711 49.8786
      vertex 62.3673 -79.7115 49.5662
      vertex 62.3673 -143.711 49.5662
    endloop
  endfacet
  facet normal -0.579002 0 0.815326
    outer loop
      vertex 29.7999 -79.7115 51.7159
      vertex 30.9529 -143.711 52.5347
      vertex 30.9529 -79.7115 52.5347
    endloop
  endfacet
  facet normal -0.579002 0 0.815326
    outer loop
      vertex 30.9529 -143.711 52.5347
      vertex 29.7999 -79.7115 51.7159
      vertex 29.7999 -143.711 51.7159
    endloop
  endfacet
  facet normal -0.985941 0 0.167096
    outer loop
      vertex 29.2986 -143.711 48.758
      vertex 29.7999 -79.7115 51.7159
      vertex 29.2986 -79.7115 48.758
    endloop
  endfacet
  facet normal -0.985941 0 0.167096
    outer loop
      vertex 29.7999 -79.7115 51.7159
      vertex 29.2986 -143.711 48.758
      vertex 29.7999 -143.711 51.7159
    endloop
  endfacet
  facet normal -1 0 0
    outer loop
      vertex 29.2986 -143.711 0
      vertex 29.2986 -79.7115 48.758
      vertex 29.2986 -79.7115 0
    endloop
  endfacet
  facet normal -1 -0 0
    outer loop
      vertex 29.2986 -79.7115 48.758
      vertex 29.2986 -143.711 0
      vertex 29.2986 -143.711 48.758
    endloop
  endfacet
  facet normal -0.697179 0.707093 0.118157
    outer loop
      vertex 30.2845 -78.7115 48.5909
      vertex 29.2986 -79.7115 48.758
      vertex 29.7999 -79.7115 51.7159
    endloop
  endfacet
  facet normal -0.712069 0.702109 0
    outer loop
      vertex 30.2845 -78.7115 0
      vertex 29.4668 -79.5408 0
      vertex 30.2845 -78.7115 48.5909
    endloop
  endfacet
  facet normal -0.697179 0.707093 0.118157
    outer loop
      vertex 30.2845 -78.7115 48.5909
      vertex 29.7999 -79.7115 51.7159
      vertex 30.7858 -78.7115 51.5488
    endloop
  endfacet
  facet normal 0 1 -0
    outer loop
      vertex 30.3659 -78.7115 0
      vertex 30.2845 -78.7115 48.5909
      vertex 30.7858 -78.7115 51.5488
    endloop
  endfacet
  facet normal 0 1 0
    outer loop
      vertex 30.2845 -78.7115 48.5909
      vertex 30.3659 -78.7115 0
      vertex 30.2845 -78.7115 0
    endloop
  endfacet
  facet normal -0.472759 0.577335 0.66572
    outer loop
      vertex 30.7858 -78.7115 51.5488
      vertex 29.7999 -79.7115 51.7159
      vertex 30.9529 -79.7115 52.5347
    endloop
  endfacet
  facet normal -0.712304 0.701871 7.99772e-06
    outer loop
      vertex 29.2986 -79.7115 0
      vertex 30.2845 -78.7115 48.5909
      vertex 29.4668 -79.5408 0
    endloop
  endfacet
  facet normal -0.712109 0.702069 0
    outer loop
      vertex 30.2845 -78.7115 48.5909
      vertex 29.2986 -79.7115 0
      vertex 29.2986 -79.7115 48.758
    endloop
  endfacet
  facet normal 0 1 -0
    outer loop
      vertex 31.4375 -78.7115 7.5
      vertex 30.7858 -78.7115 51.5488
      vertex 32.197 -78.7115 7.5
    endloop
  endfacet
  facet normal 0 1 0
    outer loop
      vertex 30.3659 -78.7115 0
      vertex 31.4375 -78.7115 7.5
      vertex 31.4375 -78.7115 0
    endloop
  endfacet
  facet normal 0 1 0
    outer loop
      vertex 31.4375 -78.7115 7.5
      vertex 30.3659 -78.7115 0
      vertex 30.7858 -78.7115 51.5488
    endloop
  endfacet
  facet normal 0 1 -0
    outer loop
      vertex 32.197 -78.7115 7.5
      vertex 31.476 -78.7115 51.4318
      vertex 32.3926 -78.7115 7.5
    endloop
  endfacet
  facet normal 0 1 0
    outer loop
      vertex 31.476 -78.7115 51.4318
      vertex 32.197 -78.7115 7.5
      vertex 30.7858 -78.7115 51.5488
    endloop
  endfacet
  facet normal 0.118199 0.707093 0.697172
    outer loop
      vertex 31.643 -79.7115 52.4177
      vertex 30.7858 -78.7115 51.5488
      vertex 30.9529 -79.7115 52.5347
    endloop
  endfacet
  facet normal 0.118183 0.707087 0.697181
    outer loop
      vertex 31.476 -78.7115 51.4318
      vertex 30.7858 -78.7115 51.5488
      vertex 31.643 -79.7115 52.4177
    endloop
  endfacet
  facet normal 0.205988 0.706991 0.676559
    outer loop
      vertex 35.7332 -78.7115 50.7217
      vertex 35.0635 -78.7115 50.9256
      vertex 35.8212 -79.0137 51.0107
    endloop
  endfacet
  facet normal 0 1 0
    outer loop
      vertex 31.476 -78.7115 51.4318
      vertex 34.9309 -78.7115 7.5
      vertex 32.3926 -78.7115 7.5
    endloop
  endfacet
  facet normal 0.0988165 0.706952 0.700324
    outer loop
      vertex 35.0635 -78.7115 50.9256
      vertex 31.476 -78.7115 51.4318
      vertex 31.643 -79.7115 52.4177
    endloop
  endfacet
  facet normal 0 1 -0
    outer loop
      vertex 35.7332 -78.7115 50.7216
      vertex 35.0635 -78.7115 50.9256
      vertex 35.7332 -78.7115 50.7217
    endloop
  endfacet
  facet normal 0 1 0
    outer loop
      vertex 34.9309 -78.7115 7.5
      vertex 35.0635 -78.7115 50.9256
      vertex 35.9499 -78.7115 7.5
    endloop
  endfacet
  facet normal 0 1 0
    outer loop
      vertex 35.0635 -78.7115 50.9256
      vertex 34.9309 -78.7115 7.5
      vertex 31.476 -78.7115 51.4318
    endloop
  endfacet
  facet normal 0.101556 0.702967 0.703934
    outer loop
      vertex 35.0635 -78.7115 50.9256
      vertex 31.643 -79.7115 52.4177
      vertex 35.3548 -79.7115 51.8822
    endloop
  endfacet
  facet normal 0.206069 0.707142 0.676377
    outer loop
      vertex 35.8212 -79.0137 51.0107
      vertex 35.0635 -78.7115 50.9256
      vertex 36.0245 -79.7115 51.6783
    endloop
  endfacet
  facet normal 0.205958 0.707096 0.676459
    outer loop
      vertex 36.0245 -79.7115 51.6783
      vertex 35.0635 -78.7115 50.9256
      vertex 35.3548 -79.7115 51.8822
    endloop
  endfacet
  facet normal 0 1 -0
    outer loop
      vertex 36.4272 -78.7115 7.5
      vertex 35.7332 -78.7115 50.7216
      vertex 36.6184 -78.7115 7.5
    endloop
  endfacet
  facet normal 0 1 0
    outer loop
      vertex 35.7332 -78.7115 50.7216
      vertex 36.4272 -78.7115 7.5
      vertex 35.0635 -78.7115 50.9256
    endloop
  endfacet
  facet normal 0 1 -0
    outer loop
      vertex 35.9499 -78.7115 7.5
      vertex 35.0635 -78.7115 50.9256
      vertex 36.4272 -78.7115 7.5
    endloop
  endfacet
  facet normal 0.162256 0.70641 0.688955
    outer loop
      vertex 39.3397 -78.7115 49.8722
      vertex 35.8212 -79.0137 51.0107
      vertex 36.0245 -79.7115 51.6783
    endloop
  endfacet
  facet normal 0.162314 0.70626 0.689094
    outer loop
      vertex 35.8212 -79.0137 51.0107
      vertex 39.3397 -78.7115 49.8722
      vertex 35.7332 -78.7115 50.7217
    endloop
  endfacet
  facet normal 0 1 0
    outer loop
      vertex 35.7332 -78.7115 50.7216
      vertex 39.1453 -78.7115 7.5
      vertex 36.6184 -78.7115 7.5
    endloop
  endfacet
  facet normal 0 1 0
    outer loop
      vertex 39.3397 -78.7115 49.8722
      vertex 35.7332 -78.7115 50.7216
      vertex 35.7332 -78.7115 50.7217
    endloop
  endfacet
  facet normal 0 1 0
    outer loop
      vertex 39.1453 -78.7115 7.5
      vertex 39.3397 -78.7115 49.8722
      vertex 40.1798 -78.7115 7.5
    endloop
  endfacet
  facet normal 0 1 0
    outer loop
      vertex 39.3397 -78.7115 49.8722
      vertex 39.1453 -78.7115 7.5
      vertex 35.7332 -78.7115 50.7216
    endloop
  endfacet
  facet normal 0.166346 0.701015 0.693475
    outer loop
      vertex 39.3397 -78.7115 49.8722
      vertex 36.0245 -79.7115 51.6783
      vertex 39.7473 -79.7115 50.7853
    endloop
  endfacet
  facet normal 0.288256 0.707186 0.645597
    outer loop
      vertex 39.9789 -78.7115 49.5868
      vertex 39.3397 -78.7115 49.8722
      vertex 40.09 -78.9841 49.8358
    endloop
  endfacet
  facet normal 0 1 -0
    outer loop
      vertex 40.1798 -78.7115 7.5
      vertex 39.3397 -78.7115 49.8722
      vertex 40.6322 -78.7115 7.5
    endloop
  endfacet
  facet normal 0.288162 0.706875 0.64598
    outer loop
      vertex 40.09 -78.9841 49.8358
      vertex 39.3397 -78.7115 49.8722
      vertex 40.1216 -79.0615 49.9064
    endloop
  endfacet
  facet normal 0 1 -0
    outer loop
      vertex 40.6322 -78.7115 7.5
      vertex 39.9789 -78.7115 49.5868
      vertex 40.8173 -78.7115 7.5
    endloop
  endfacet
  facet normal 0 1 0
    outer loop
      vertex 39.9789 -78.7115 49.5868
      vertex 40.6322 -78.7115 7.5
      vertex 39.3397 -78.7115 49.8722
    endloop
  endfacet
  facet normal 0.407583 0 0.913168
    outer loop
      vertex 40.3865 -79.7115 50.5
      vertex 39.7473 -79.7115 50.7853
      vertex 40.3865 -81.0115 50.5
    endloop
  endfacet
  facet normal 0.288195 0.707131 0.645686
    outer loop
      vertex 40.2202 -79.3035 50.1274
      vertex 39.7473 -79.7115 50.7853
      vertex 40.3865 -79.7115 50.5
    endloop
  endfacet
  facet normal 0.288277 0.707104 0.645678
    outer loop
      vertex 39.3397 -78.7115 49.8722
      vertex 40.2202 -79.3035 50.1274
      vertex 40.1216 -79.0615 49.9064
    endloop
  endfacet
  facet normal 0.288259 0.707087 0.645705
    outer loop
      vertex 40.2202 -79.3035 50.1274
      vertex 39.3397 -78.7115 49.8722
      vertex 39.7473 -79.7115 50.7853
    endloop
  endfacet
  facet normal 0.407583 0 0.913168
    outer loop
      vertex 39.7473 -79.7115 50.7853
      vertex 39.7473 -81.0115 50.7853
      vertex 40.3865 -81.0115 50.5
    endloop
  endfacet
  facet normal 0 1 0
    outer loop
      vertex 43.2417 -78.7115 7.5
      vertex 43.4349 -78.7115 48.5197
      vertex 44.2505 -78.7115 7.5
    endloop
  endfacet
  facet normal 0 1 0
    outer loop
      vertex 43.4349 -78.7115 48.5197
      vertex 43.2417 -78.7115 7.5
      vertex 39.9789 -78.7115 49.5868
    endloop
  endfacet
  facet normal 0.211082 0.70249 0.679671
    outer loop
      vertex 43.4349 -78.7115 48.5197
      vertex 40.3865 -79.7115 50.5
      vertex 43.8811 -79.7115 49.4147
    endloop
  endfacet
  facet normal 0.209356 0.704561 0.678059
    outer loop
      vertex 43.4349 -78.7115 48.5197
      vertex 40.2202 -79.3035 50.1274
      vertex 40.3865 -79.7115 50.5
    endloop
  endfacet
  facet normal 0.209501 0.704263 0.678324
    outer loop
      vertex 43.4349 -78.7115 48.5197
      vertex 40.09 -78.9841 49.8358
      vertex 40.1216 -79.0615 49.9064
    endloop
  endfacet
  facet normal 0.209344 0.704622 0.677999
    outer loop
      vertex 40.09 -78.9841 49.8358
      vertex 43.4349 -78.7115 48.5197
      vertex 39.9789 -78.7115 49.5868
    endloop
  endfacet
  facet normal 0.209368 0.70454 0.678077
    outer loop
      vertex 40.2202 -79.3035 50.1274
      vertex 43.4349 -78.7115 48.5197
      vertex 40.1216 -79.0615 49.9064
    endloop
  endfacet
  facet normal 0 1 0
    outer loop
      vertex 39.9789 -78.7115 49.5868
      vertex 43.2417 -78.7115 7.5
      vertex 40.8173 -78.7115 7.5
    endloop
  endfacet
  facet normal 0 1 -0
    outer loop
      vertex 44.6896 -78.7115 7.5
      vertex 44.0614 -78.7115 48.2074
      vertex 44.875 -78.7115 7.5
    endloop
  endfacet
  facet normal 0 1 0
    outer loop
      vertex 44.0614 -78.7115 48.2074
      vertex 44.6896 -78.7115 7.5
      vertex 43.4349 -78.7115 48.5197
    endloop
  endfacet
  facet normal 0.446185 0 0.894941
    outer loop
      vertex 43.8811 -79.7115 49.4147
      vertex 43.8811 -81.0115 49.4147
      vertex 44.5075 -81.0115 49.1024
    endloop
  endfacet
  facet normal 0.315444 0.707142 0.632808
    outer loop
      vertex 44.0614 -78.7115 48.2074
      vertex 43.4349 -78.7115 48.5197
      vertex 44.2175 -79.0615 48.5207
    endloop
  endfacet
  facet normal 0.446185 0 0.894941
    outer loop
      vertex 44.5075 -79.7115 49.1024
      vertex 43.8811 -79.7115 49.4147
      vertex 44.5075 -81.0115 49.1024
    endloop
  endfacet
  facet normal 0.315505 0.707096 0.632828
    outer loop
      vertex 44.2175 -79.0615 48.5207
      vertex 43.8811 -79.7115 49.4147
      vertex 44.5075 -79.7115 49.1024
    endloop
  endfacet
  facet normal 0.315438 0.707128 0.632826
    outer loop
      vertex 43.8811 -79.7115 49.4147
      vertex 44.2175 -79.0615 48.5207
      vertex 43.4349 -78.7115 48.5197
    endloop
  endfacet
  facet normal 0 1 -0
    outer loop
      vertex 44.2505 -78.7115 7.5
      vertex 43.4349 -78.7115 48.5197
      vertex 44.6896 -78.7115 7.5
    endloop
  endfacet
  facet normal 0 1 0
    outer loop
      vertex 47.6654 -78.7115 0
      vertex 45.5744 -78.7115 7.5
      vertex 44.0614 -78.7115 48.2074
    endloop
  endfacet
  facet normal 0 1 0
    outer loop
      vertex 45.5744 -78.7115 7.5
      vertex 47.6654 -78.7115 0
      vertex 45.5744 -78.7115 0
    endloop
  endfacet
  facet normal 0 1 0
    outer loop
      vertex 44.0614 -78.7115 48.2074
      vertex 45.5744 -78.7115 7.5
      vertex 44.875 -78.7115 7.5
    endloop
  endfacet
  facet normal 0.20891 0.706555 0.676118
    outer loop
      vertex 47.1936 -78.7115 47.2396
      vertex 44.0614 -78.7115 48.2074
      vertex 47.5406 -79.7115 48.1774
    endloop
  endfacet
  facet normal 0 1 -0
    outer loop
      vertex 47.6654 -78.7115 0
      vertex 47.1936 -78.7115 47.2396
      vertex 48.1999 -78.7115 0
    endloop
  endfacet
  facet normal 0 1 0
    outer loop
      vertex 47.1936 -78.7115 47.2396
      vertex 47.6654 -78.7115 0
      vertex 44.0614 -78.7115 48.2074
    endloop
  endfacet
  facet normal 0.245283 0.707257 0.663041
    outer loop
      vertex 47.8502 -78.7115 46.9967
      vertex 47.1936 -78.7115 47.2396
      vertex 47.8772 -78.7893 47.0697
    endloop
  endfacet
  facet normal 0.615403 0.660081 0.430782
    outer loop
      vertex 44.0614 -78.7115 48.2074
      vertex 44.2175 -79.0615 48.5207
      vertex 44.5075 -79.7115 49.1024
    endloop
  endfacet
  facet normal 0.207694 0.702179 0.681035
    outer loop
      vertex 47.5406 -79.7115 48.1774
      vertex 44.0614 -78.7115 48.2074
      vertex 44.5075 -79.7115 49.1024
    endloop
  endfacet
  facet normal 0.245322 0.706977 0.663326
    outer loop
      vertex 47.8772 -78.7893 47.0697
      vertex 47.1936 -78.7115 47.2396
      vertex 47.9716 -79.0615 47.3249
    endloop
  endfacet
  facet normal 0.347003 0 0.937864
    outer loop
      vertex 47.5406 -79.7115 48.1774
      vertex 47.5406 -81.0115 48.1774
      vertex 48.1971 -81.0115 47.9345
    endloop
  endfacet
  facet normal 0 1 -0
    outer loop
      vertex 48.7417 -78.7115 0
      vertex 47.8502 -78.7115 46.9967
      vertex 48.8555 -78.7115 0
    endloop
  endfacet
  facet normal 0 1 0
    outer loop
      vertex 47.8502 -78.7115 46.9967
      vertex 48.7417 -78.7115 0
      vertex 47.1936 -78.7115 47.2396
    endloop
  endfacet
  facet normal 0 1 -0
    outer loop
      vertex 48.1999 -78.7115 0
      vertex 47.1936 -78.7115 47.2396
      vertex 48.7417 -78.7115 0
    endloop
  endfacet
  facet normal 0.347003 0 0.937864
    outer loop
      vertex 48.1971 -79.7115 47.9345
      vertex 47.5406 -79.7115 48.1774
      vertex 48.1971 -81.0115 47.9345
    endloop
  endfacet
  facet normal 0.245398 0.707021 0.663251
    outer loop
      vertex 48.0218 -79.206 47.4605
      vertex 47.5406 -79.7115 48.1774
      vertex 48.1971 -79.7115 47.9345
    endloop
  endfacet
  facet normal 0.245534 0.707336 0.662864
    outer loop
      vertex 47.1936 -78.7115 47.2396
      vertex 48.0218 -79.206 47.4605
      vertex 47.9716 -79.0615 47.3249
    endloop
  endfacet
  facet normal 0.245288 0.707085 0.663223
    outer loop
      vertex 48.0218 -79.206 47.4605
      vertex 47.1936 -78.7115 47.2396
      vertex 47.5406 -79.7115 48.1774
    endloop
  endfacet
  facet normal 0.124685 0.706107 0.697041
    outer loop
      vertex 51.5544 -78.7115 46.3341
      vertex 47.8502 -78.7115 46.9967
      vertex 51.646 -79.6176 47.2356
    endloop
  endfacet
  facet normal 0 1 0
    outer loop
      vertex 51.6309 -78.7115 27.4366
      vertex 47.8502 -78.7115 46.9967
      vertex 51.5544 -78.7115 46.3341
    endloop
  endfacet
  facet normal 0 1 -0
    outer loop
      vertex 51.5306 -78.7115 21.2893
      vertex 47.8502 -78.7115 46.9967
      vertex 51.6309 -78.7115 27.4366
    endloop
  endfacet
  facet normal 0 1 0
    outer loop
      vertex 51.7122 -78.7115 7.34801
      vertex 47.8502 -78.7115 46.9967
      vertex 51.5306 -78.7115 21.2893
    endloop
  endfacet
  facet normal 0 1 0
    outer loop
      vertex 51.2209 -78.7115 0
      vertex 51.7122 -78.7115 7.34801
      vertex 51.7419 -78.7115 0
    endloop
  endfacet
  facet normal 0 1 0
    outer loop
      vertex 51.7122 -78.7115 7.34801
      vertex 51.2209 -78.7115 0
      vertex 47.8502 -78.7115 46.9967
    endloop
  endfacet
  facet normal 0 1 0
    outer loop
      vertex 47.8502 -78.7115 46.9967
      vertex 51.2209 -78.7115 0
      vertex 48.8555 -78.7115 0
    endloop
  endfacet
  facet normal 0.123274 0.700871 0.702554
    outer loop
      vertex 51.6475 -79.6588 47.2765
      vertex 48.1971 -79.7115 47.9345
      vertex 51.6502 -79.7115 47.3286
    endloop
  endfacet
  facet normal 0.123167 0.701409 0.702037
    outer loop
      vertex 51.646 -79.6176 47.2356
      vertex 48.1971 -79.7115 47.9345
      vertex 51.6475 -79.6588 47.2765
    endloop
  endfacet
  facet normal 0.123213 0.701203 0.702234
    outer loop
      vertex 51.646 -79.6176 47.2356
      vertex 48.0218 -79.206 47.4605
      vertex 48.1971 -79.7115 47.9345
    endloop
  endfacet
  facet normal 0.123228 0.701506 0.701929
    outer loop
      vertex 51.646 -79.6176 47.2356
      vertex 47.9716 -79.0615 47.3249
      vertex 48.0218 -79.206 47.4605
    endloop
  endfacet
  facet normal 0.123183 0.701151 0.702291
    outer loop
      vertex 51.646 -79.6176 47.2356
      vertex 47.8772 -78.7893 47.0697
      vertex 47.9716 -79.0615 47.3249
    endloop
  endfacet
  facet normal 0.123262 0.701448 0.701981
    outer loop
      vertex 47.8772 -78.7893 47.0697
      vertex 51.646 -79.6176 47.2356
      vertex 47.8502 -78.7115 46.9967
    endloop
  endfacet
  facet normal 0 1 0
    outer loop
      vertex 51.8748 -78.7115 11.5331
      vertex 51.5306 -78.7115 21.2893
      vertex 51.6309 -78.7115 27.4366
    endloop
  endfacet
  facet normal 0 1 -0
    outer loop
      vertex 51.7122 -78.7115 7.34801
      vertex 51.5306 -78.7115 21.2893
      vertex 51.8748 -78.7115 11.5331
    endloop
  endfacet
  facet normal 0 1 0
    outer loop
      vertex 51.7997 -78.7115 0
      vertex 55.1824 -78.7115 39.4937
      vertex 54.2909 -78.7115 0
    endloop
  endfacet
  facet normal 0 1 -0
    outer loop
      vertex 55.1824 -78.7115 39.4937
      vertex 51.7997 -78.7115 0
      vertex 55.2307 -78.7115 45.0407
    endloop
  endfacet
  facet normal 0 1 0
    outer loop
      vertex 55.2307 -78.7115 45.0407
      vertex 51.5544 -78.7115 46.3341
      vertex 55.2252 -78.7115 46.4716
    endloop
  endfacet
  facet normal 0 1 0
    outer loop
      vertex 55.2307 -78.7115 45.0407
      vertex 51.6309 -78.7115 27.4366
      vertex 51.5544 -78.7115 46.3341
    endloop
  endfacet
  facet normal 0 1 0
    outer loop
      vertex 55.2307 -78.7115 45.0407
      vertex 51.8748 -78.7115 11.5331
      vertex 51.6309 -78.7115 27.4366
    endloop
  endfacet
  facet normal 0 1 0
    outer loop
      vertex 51.7997 -78.7115 0
      vertex 51.8748 -78.7115 11.5331
      vertex 55.2307 -78.7115 45.0407
    endloop
  endfacet
  facet normal 0 1 0
    outer loop
      vertex 51.8748 -78.7115 11.5331
      vertex 51.7997 -78.7115 0
      vertex 51.7122 -78.7115 7.34801
    endloop
  endfacet
  facet normal 0 1 0
    outer loop
      vertex 51.7122 -78.7115 7.34801
      vertex 51.7997 -78.7115 0
      vertex 51.7419 -78.7115 0
    endloop
  endfacet
  facet normal -0.0266019 0.703513 0.710184
    outer loop
      vertex 51.5544 -78.7115 46.3341
      vertex 55.2196 -78.7424 46.502
      vertex 55.2252 -78.7115 46.4716
    endloop
  endfacet
  facet normal -0.0266263 0.70378 0.709919
    outer loop
      vertex 55.2196 -78.7424 46.502
      vertex 51.646 -79.6176 47.2356
      vertex 51.6475 -79.6588 47.2765
    endloop
  endfacet
  facet normal -0.0265917 0.703703 0.709996
    outer loop
      vertex 55.2196 -78.7424 46.502
      vertex 51.5544 -78.7115 46.3341
      vertex 51.646 -79.6176 47.2356
    endloop
  endfacet
  facet normal -0.0260393 0.702437 0.711269
    outer loop
      vertex 51.6475 -79.6588 47.2765
      vertex 55.0388 -79.7115 47.4527
      vertex 55.0521 -79.5977 47.3408
    endloop
  endfacet
  facet normal -0.0260393 0.702544 0.711164
    outer loop
      vertex 51.6475 -79.6588 47.2765
      vertex 55.0521 -79.5977 47.3408
      vertex 55.2196 -78.7424 46.502
    endloop
  endfacet
  facet normal -0.0260596 0.702133 0.711569
    outer loop
      vertex 55.0388 -79.7115 47.4527
      vertex 51.6475 -79.6588 47.2765
      vertex 51.6502 -79.7115 47.3286
    endloop
  endfacet
  facet normal 0 1 -0
    outer loop
      vertex 54.9398 -78.7115 0
      vertex 54.4116 -78.7115 0
      vertex 55.5673 -78.7115 33.3598
    endloop
  endfacet
  facet normal 0 1 0
    outer loop
      vertex 54.2909 -78.7115 0
      vertex 55.5673 -78.7115 33.3598
      vertex 54.4116 -78.7115 0
    endloop
  endfacet
  facet normal 0 1 0
    outer loop
      vertex 55.5673 -78.7115 33.3598
      vertex 54.2909 -78.7115 0
      vertex 55.1824 -78.7115 39.4937
    endloop
  endfacet
  facet normal 0 1 0
    outer loop
      vertex 58.9176 -78.7115 47.3543
      vertex 55.2307 -78.7115 45.0407
      vertex 55.2252 -78.7115 46.4716
    endloop
  endfacet
  facet normal 0 1 0
    outer loop
      vertex 58.9176 -78.7115 47.3543
      vertex 55.1824 -78.7115 39.4937
      vertex 55.2307 -78.7115 45.0407
    endloop
  endfacet
  facet normal 0 1 0
    outer loop
      vertex 58.9176 -78.7115 47.3543
      vertex 55.5673 -78.7115 33.3598
      vertex 55.1824 -78.7115 39.4937
    endloop
  endfacet
  facet normal 0 1 0
    outer loop
      vertex 55.4779 -78.7115 0
      vertex 55.5673 -78.7115 33.3598
      vertex 58.9176 -78.7115 47.3543
    endloop
  endfacet
  facet normal 0 1 0
    outer loop
      vertex 55.5673 -78.7115 33.3598
      vertex 55.4779 -78.7115 0
      vertex 54.9398 -78.7115 0
    endloop
  endfacet
  facet normal -0.163248 0.701468 0.693753
    outer loop
      vertex 55.0521 -79.5977 47.3408
      vertex 58.52 -79.7115 48.2719
      vertex 58.7785 -79.0615 47.6755
    endloop
  endfacet
  facet normal -0.16325 0.701509 0.693711
    outer loop
      vertex 55.0521 -79.5977 47.3408
      vertex 58.7785 -79.0615 47.6755
      vertex 58.9176 -78.7115 47.3543
    endloop
  endfacet
  facet normal -0.16328 0.701356 0.693858
    outer loop
      vertex 58.52 -79.7115 48.2719
      vertex 55.0521 -79.5977 47.3408
      vertex 55.0388 -79.7115 47.4527
    endloop
  endfacet
  facet normal -0.164462 0.706882 0.687946
    outer loop
      vertex 58.9176 -78.7115 47.3543
      vertex 55.2196 -78.7424 46.502
      vertex 55.0521 -79.5977 47.3408
    endloop
  endfacet
  facet normal -0.16449 0.706751 0.688074
    outer loop
      vertex 55.2196 -78.7424 46.502
      vertex 58.9176 -78.7115 47.3543
      vertex 55.2252 -78.7115 46.4716
    endloop
  endfacet
  facet normal 0 1 -0
    outer loop
      vertex 57.9327 -78.7115 0
      vertex 55.4779 -78.7115 0
      vertex 58.9176 -78.7115 47.3543
    endloop
  endfacet
  facet normal -0.28119 0.707113 0.648786
    outer loop
      vertex 58.7785 -79.0615 47.6755
      vertex 58.52 -79.7115 48.2719
      vertex 59.5599 -78.7115 47.6327
    endloop
  endfacet
  facet normal 0 1 0
    outer loop
      vertex 58.0432 -78.7115 0
      vertex 58.9176 -78.7115 47.3543
      vertex 59.5599 -78.7115 47.6327
    endloop
  endfacet
  facet normal 0 1 0
    outer loop
      vertex 58.9176 -78.7115 47.3543
      vertex 58.0432 -78.7115 0
      vertex 57.9327 -78.7115 0
    endloop
  endfacet
  facet normal -0.281133 0.707088 0.648838
    outer loop
      vertex 59.5599 -78.7115 47.6327
      vertex 58.52 -79.7115 48.2719
      vertex 59.1623 -79.7115 48.5502
    endloop
  endfacet
  facet normal 0 1 -0
    outer loop
      vertex 58.574 -78.7115 0
      vertex 58.0432 -78.7115 0
      vertex 59.5599 -78.7115 47.6327
    endloop
  endfacet
  facet normal -0.2812 0.707133 0.64876
    outer loop
      vertex 58.9176 -78.7115 47.3543
      vertex 58.7785 -79.0615 47.6755
      vertex 59.5599 -78.7115 47.6327
    endloop
  endfacet
  facet normal 0 1 -0
    outer loop
      vertex 62.8135 -78.7115 48.6712
      vertex 59.5599 -78.7115 47.6327
      vertex 62.8135 -78.7115 48.6713
    endloop
  endfacet
  facet normal 0 1 0
    outer loop
      vertex 59.1249 -78.7115 0
      vertex 59.5599 -78.7115 47.6327
      vertex 62.8135 -78.7115 48.6712
    endloop
  endfacet
  facet normal 0 1 0
    outer loop
      vertex 59.5599 -78.7115 47.6327
      vertex 59.1249 -78.7115 0
      vertex 58.574 -78.7115 0
    endloop
  endfacet
  facet normal 0 1 -0
    outer loop
      vertex 61.8484 -78.7115 0
      vertex 59.1249 -78.7115 0
      vertex 62.8135 -78.7115 48.6712
    endloop
  endfacet
  facet normal -0.215572 0.705317 0.675319
    outer loop
      vertex 59.5599 -78.7115 47.6327
      vertex 59.1623 -79.7115 48.5502
      vertex 62.8135 -78.7115 48.6713
    endloop
  endfacet
  facet normal -0.214975 0.702793 0.678135
    outer loop
      vertex 59.1623 -79.7115 48.5502
      vertex 62.5732 -79.2499 49.1531
      vertex 62.8135 -78.7115 48.6713
    endloop
  endfacet
  facet normal -0.214975 0.702784 0.678145
    outer loop
      vertex 62.5732 -79.2499 49.1531
      vertex 59.1623 -79.7115 48.5502
      vertex 62.3673 -79.7115 49.5662
    endloop
  endfacet
  facet normal 0 1 0
    outer loop
      vertex 64.5518 -78.7115 0
      vertex 61.9536 -78.7115 0
      vertex 63.44 -78.7115 48.9836
    endloop
  endfacet
  facet normal 0 1 0
    outer loop
      vertex 64.5518 -78.7115 0
      vertex 64.7787 -78.7115 46.2989
      vertex 64.7787 -78.7115 0
    endloop
  endfacet
  facet normal 0 1 0
    outer loop
      vertex 64.7787 -78.7115 46.2989
      vertex 64.5518 -78.7115 0
      vertex 63.44 -78.7115 48.9836
    endloop
  endfacet
  facet normal 0 1 0
    outer loop
      vertex 63.44 -78.7115 48.9836
      vertex 62.8135 -78.7115 48.6712
      vertex 62.8135 -78.7115 48.6713
    endloop
  endfacet
  facet normal 0 1 0
    outer loop
      vertex 61.9536 -78.7115 0
      vertex 62.8135 -78.7115 48.6712
      vertex 63.44 -78.7115 48.9836
    endloop
  endfacet
  facet normal 0 1 0
    outer loop
      vertex 62.8135 -78.7115 48.6712
      vertex 61.9536 -78.7115 0
      vertex 61.8484 -78.7115 0
    endloop
  endfacet
  facet normal 0.632795 0.707112 0.315537
    outer loop
      vertex 64.7787 -78.7115 46.2989
      vertex 63.44 -78.7115 48.9836
      vertex 64.3349 -79.7115 49.4299
    endloop
  endfacet
  facet normal 0.745189 0.666853 -0
    outer loop
      vertex 65.6736 -79.7115 0
      vertex 64.9364 -78.8877 0
      vertex 65.6736 -79.7115 46.7452
    endloop
  endfacet
  facet normal -0.31546 0.707107 0.632838
    outer loop
      vertex 62.8135 -78.7115 48.6713
      vertex 62.5732 -79.2499 49.1531
      vertex 63.44 -78.7115 48.9836
    endloop
  endfacet
  facet normal 0.25904 0.577382 0.774292
    outer loop
      vertex 63.44 -78.7115 48.9836
      vertex 62.9937 -79.7115 49.8786
      vertex 64.3349 -79.7115 49.4299
    endloop
  endfacet
  facet normal 1 -0 0
    outer loop
      vertex 65.6736 -143.711 46.7452
      vertex 65.6736 -79.7115 0
      vertex 65.6736 -79.7115 46.7452
    endloop
  endfacet
  facet normal 1 0 0
    outer loop
      vertex 65.6736 -79.7115 0
      vertex 65.6736 -143.711 46.7452
      vertex 65.6736 -143.711 0
    endloop
  endfacet
  facet normal 0.317267 0 0.948336
    outer loop
      vertex 62.9937 -79.7115 49.8786
      vertex 64.3349 -143.711 49.4299
      vertex 64.3349 -79.7115 49.4299
    endloop
  endfacet
  facet normal 0.317267 0 0.948336
    outer loop
      vertex 64.3349 -143.711 49.4299
      vertex 62.9937 -79.7115 49.8786
      vertex 62.9937 -143.711 49.8786
    endloop
  endfacet
  facet normal -0.315592 0.707083 0.632799
    outer loop
      vertex 62.9937 -79.7115 49.8786
      vertex 62.5732 -79.2499 49.1531
      vertex 62.3673 -79.7115 49.5662
    endloop
  endfacet
  facet normal -0.315494 0.707144 0.632781
    outer loop
      vertex 62.5732 -79.2499 49.1531
      vertex 62.9937 -79.7115 49.8786
      vertex 63.44 -78.7115 48.9836
    endloop
  endfacet
  facet normal 0.632795 0.707112 0.315537
    outer loop
      vertex 64.7787 -78.7115 46.2989
      vertex 64.3349 -79.7115 49.4299
      vertex 65.6736 -79.7115 46.7452
    endloop
  endfacet
  facet normal 0.745142 0.666906 0
    outer loop
      vertex 64.7787 -78.7115 46.2989
      vertex 64.9364 -78.8877 0
      vertex 64.7787 -78.7115 0
    endloop
  endfacet
  facet normal 0.745181 0.666862 2.99181e-07
    outer loop
      vertex 64.9364 -78.8877 0
      vertex 64.7787 -78.7115 46.2989
      vertex 65.6736 -79.7115 46.7452
    endloop
  endfacet
  facet normal 0.894913 -0 0.44624
    outer loop
      vertex 64.3349 -143.711 49.4299
      vertex 65.6736 -79.7115 46.7452
      vertex 64.3349 -79.7115 49.4299
    endloop
  endfacet
  facet normal 0.894913 0 0.44624
    outer loop
      vertex 65.6736 -79.7115 46.7452
      vertex 64.3349 -143.711 49.4299
      vertex 65.6736 -143.711 46.7452
    endloop
  endfacet
  facet normal -0.315728 -0.706777 0.633073
    outer loop
      vertex 62.5732 -144.173 49.1531
      vertex 62.9937 -143.711 49.8786
      vertex 62.3673 -143.711 49.5662
    endloop
  endfacet
  facet normal -0.315132 -0.707144 0.632961
    outer loop
      vertex 62.9937 -143.711 49.8786
      vertex 62.5732 -144.173 49.1531
      vertex 63.44 -144.711 48.9836
    endloop
  endfacet
  facet normal 0.632795 -0.707112 0.315537
    outer loop
      vertex 65.6736 -143.711 46.7452
      vertex 64.3349 -143.711 49.4299
      vertex 64.7787 -144.711 46.2989
    endloop
  endfacet
  facet normal 0 -1 -0
    outer loop
      vertex 63.44 -144.711 48.9836
      vertex 61.9536 -144.711 0
      vertex 64.5518 -144.711 0
    endloop
  endfacet
  facet normal 0.25904 -0.577382 0.774292
    outer loop
      vertex 64.3349 -143.711 49.4299
      vertex 62.9937 -143.711 49.8786
      vertex 63.44 -144.711 48.9836
    endloop
  endfacet
  facet normal 0.632795 -0.707112 0.315537
    outer loop
      vertex 64.3349 -143.711 49.4299
      vertex 63.44 -144.711 48.9836
      vertex 64.7787 -144.711 46.2989
    endloop
  endfacet
  facet normal -0.315342 -0.70737 0.632603
    outer loop
      vertex 63.44 -144.711 48.9836
      vertex 62.5732 -144.173 49.1531
      vertex 62.8135 -144.711 48.6713
    endloop
  endfacet
  facet normal 0 -1 0
    outer loop
      vertex 64.5518 -144.711 0
      vertex 64.7787 -144.711 46.2989
      vertex 63.44 -144.711 48.9836
    endloop
  endfacet
  facet normal 0 -1 -0
    outer loop
      vertex 64.7787 -144.711 46.2989
      vertex 64.5518 -144.711 0
      vertex 64.7787 -144.711 0
    endloop
  endfacet
  facet normal 0.74518 -0.666863 3.17498e-06
    outer loop
      vertex 64.7787 -144.711 46.2989
      vertex 64.9364 -144.535 0
      vertex 65.6736 -143.711 46.7452
    endloop
  endfacet
  facet normal 0.744765 -0.667327 0
    outer loop
      vertex 64.9364 -144.535 0
      vertex 64.7787 -144.711 46.2989
      vertex 64.7787 -144.711 0
    endloop
  endfacet
  facet normal 0.74527 -0.666763 0
    outer loop
      vertex 65.6736 -143.711 46.7452
      vertex 64.9364 -144.535 0
      vertex 65.6736 -143.711 0
    endloop
  endfacet
  facet normal 0 -1 0
    outer loop
      vertex 62.8135 -144.711 48.6712
      vertex 63.44 -144.711 48.9836
      vertex 62.8135 -144.711 48.6713
    endloop
  endfacet
  facet normal 0 -1 0
    outer loop
      vertex 61.9536 -144.711 0
      vertex 62.8135 -144.711 48.6712
      vertex 61.8484 -144.711 0
    endloop
  endfacet
  facet normal 0 -1 -0
    outer loop
      vertex 62.8135 -144.711 48.6712
      vertex 61.9536 -144.711 0
      vertex 63.44 -144.711 48.9836
    endloop
  endfacet
  facet normal -0.215067 -0.702476 0.678435
    outer loop
      vertex 59.1623 -143.711 48.5502
      vertex 62.5732 -144.173 49.1531
      vertex 62.3673 -143.711 49.5662
    endloop
  endfacet
  facet normal -0.21504 -0.70307 0.677828
    outer loop
      vertex 62.5732 -144.173 49.1531
      vertex 59.1623 -143.711 48.5502
      vertex 62.8135 -144.711 48.6713
    endloop
  endfacet
  facet normal 0 -1 0
    outer loop
      vertex 59.5599 -144.711 47.6327
      vertex 62.8135 -144.711 48.6712
      vertex 62.8135 -144.711 48.6713
    endloop
  endfacet
  facet normal 0 -1 0
    outer loop
      vertex 59.1249 -144.711 0
      vertex 59.5599 -144.711 47.6327
      vertex 58.574 -144.711 0
    endloop
  endfacet
  facet normal 0 -1 -0
    outer loop
      vertex 59.5599 -144.711 47.6327
      vertex 59.1249 -144.711 0
      vertex 62.8135 -144.711 48.6712
    endloop
  endfacet
  facet normal 0 -1 0
    outer loop
      vertex 62.8135 -144.711 48.6712
      vertex 59.1249 -144.711 0
      vertex 61.8484 -144.711 0
    endloop
  endfacet
  facet normal -0.215572 -0.705317 0.675319
    outer loop
      vertex 62.8135 -144.711 48.6713
      vertex 59.1623 -143.711 48.5502
      vertex 59.5599 -144.711 47.6327
    endloop
  endfacet
  facet normal -0.28119 -0.707113 0.648786
    outer loop
      vertex 59.5599 -144.711 47.6327
      vertex 58.52 -143.711 48.2719
      vertex 58.7785 -144.361 47.6755
    endloop
  endfacet
  facet normal -0.2812 -0.707133 0.64876
    outer loop
      vertex 59.5599 -144.711 47.6327
      vertex 58.7785 -144.361 47.6755
      vertex 58.9176 -144.711 47.3543
    endloop
  endfacet
  facet normal -0.281133 -0.707088 0.648838
    outer loop
      vertex 59.1623 -143.711 48.5502
      vertex 58.52 -143.711 48.2719
      vertex 59.5599 -144.711 47.6327
    endloop
  endfacet
  facet normal 0 -1 0
    outer loop
      vertex 59.5599 -144.711 47.6327
      vertex 58.0432 -144.711 0
      vertex 58.574 -144.711 0
    endloop
  endfacet
  facet normal 0 -1 0
    outer loop
      vertex 58.0432 -144.711 0
      vertex 58.9176 -144.711 47.3543
      vertex 57.9328 -144.711 0
    endloop
  endfacet
  facet normal 0 -1 -0
    outer loop
      vertex 58.9176 -144.711 47.3543
      vertex 58.0432 -144.711 0
      vertex 59.5599 -144.711 47.6327
    endloop
  endfacet
  facet normal -0.16342 -0.70073 0.694457
    outer loop
      vertex 55.0521 -143.825 47.3408
      vertex 58.52 -143.711 48.2719
      vertex 55.0388 -143.711 47.4527
    endloop
  endfacet
  facet normal -0.163211 -0.701464 0.693765
    outer loop
      vertex 58.52 -143.711 48.2719
      vertex 55.0521 -143.825 47.3408
      vertex 58.7785 -144.361 47.6755
    endloop
  endfacet
  facet normal -0.163213 -0.701505 0.693723
    outer loop
      vertex 58.7785 -144.361 47.6755
      vertex 55.0521 -143.825 47.3408
      vertex 58.9176 -144.711 47.3543
    endloop
  endfacet
  facet normal 0 -1 0
    outer loop
      vertex 55.2307 -144.711 45.0406
      vertex 58.9176 -144.711 47.3543
      vertex 55.2252 -144.711 46.4716
    endloop
  endfacet
  facet normal 0 -1 0
    outer loop
      vertex 55.1824 -144.711 39.4937
      vertex 58.9176 -144.711 47.3543
      vertex 55.2307 -144.711 45.0406
    endloop
  endfacet
  facet normal 0 -1 0
    outer loop
      vertex 55.5673 -144.711 33.3598
      vertex 58.9176 -144.711 47.3543
      vertex 55.1824 -144.711 39.4937
    endloop
  endfacet
  facet normal 0 -1 0
    outer loop
      vertex 55.4779 -144.711 0
      vertex 55.5673 -144.711 33.3598
      vertex 54.9398 -144.711 0
    endloop
  endfacet
  facet normal 0 -1 -0
    outer loop
      vertex 55.5673 -144.711 33.3598
      vertex 55.4779 -144.711 0
      vertex 58.9176 -144.711 47.3543
    endloop
  endfacet
  facet normal -0.164361 -0.706596 0.688264
    outer loop
      vertex 55.2196 -144.681 46.502
      vertex 58.9176 -144.711 47.3543
      vertex 55.0521 -143.825 47.3408
    endloop
  endfacet
  facet normal -0.162044 -0.717128 0.677842
    outer loop
      vertex 58.9176 -144.711 47.3543
      vertex 55.2196 -144.681 46.502
      vertex 55.2252 -144.711 46.4716
    endloop
  endfacet
  facet normal 0 -1 0
    outer loop
      vertex 58.9176 -144.711 47.3543
      vertex 55.4779 -144.711 0
      vertex 57.9328 -144.711 0
    endloop
  endfacet
  facet normal 0 -1 0
    outer loop
      vertex 54.2909 -144.711 0
      vertex 55.5673 -144.711 33.3598
      vertex 55.1824 -144.711 39.4937
    endloop
  endfacet
  facet normal 0 -1 0
    outer loop
      vertex 55.5673 -144.711 33.3598
      vertex 54.2909 -144.711 0
      vertex 54.4116 -144.711 0
    endloop
  endfacet
  facet normal 0 -1 0
    outer loop
      vertex 55.5673 -144.711 33.3598
      vertex 54.4116 -144.711 0
      vertex 54.9398 -144.711 0
    endloop
  endfacet
  facet normal 0 -1 0
    outer loop
      vertex 51.7997 -144.711 0
      vertex 55.1824 -144.711 39.4937
      vertex 55.2307 -144.711 45.0406
    endloop
  endfacet
  facet normal 0 -1 0
    outer loop
      vertex 55.1824 -144.711 39.4937
      vertex 51.7997 -144.711 0
      vertex 54.2909 -144.711 0
    endloop
  endfacet
  facet normal 0 -1 0
    outer loop
      vertex 51.5544 -144.711 46.3341
      vertex 55.2307 -144.711 45.0406
      vertex 55.2252 -144.711 46.4716
    endloop
  endfacet
  facet normal 0 -1 0
    outer loop
      vertex 51.6309 -144.711 27.4367
      vertex 55.2307 -144.711 45.0406
      vertex 51.5544 -144.711 46.3341
    endloop
  endfacet
  facet normal 0 -1 0
    outer loop
      vertex 51.8748 -144.711 11.5329
      vertex 55.2307 -144.711 45.0406
      vertex 51.6309 -144.711 27.4367
    endloop
  endfacet
  facet normal 0 -1 0
    outer loop
      vertex 51.7997 -144.711 0
      vertex 51.8748 -144.711 11.5329
      vertex 51.7122 -144.711 7.3478
    endloop
  endfacet
  facet normal 0 -1 0
    outer loop
      vertex 51.7997 -144.711 0
      vertex 51.7122 -144.711 7.3478
      vertex 51.7419 -144.711 0
    endloop
  endfacet
  facet normal 0 -1 -0
    outer loop
      vertex 51.8748 -144.711 11.5329
      vertex 51.7997 -144.711 0
      vertex 55.2307 -144.711 45.0406
    endloop
  endfacet
  facet normal -0.0275499 -0.705469 0.708205
    outer loop
      vertex 51.646 -143.805 47.2356
      vertex 55.2196 -144.681 46.502
      vertex 51.6475 -143.764 47.2765
    endloop
  endfacet
  facet normal -0.0267627 -0.703731 0.709963
    outer loop
      vertex 51.5544 -144.711 46.3341
      vertex 55.2196 -144.681 46.502
      vertex 51.646 -143.805 47.2356
    endloop
  endfacet
  facet normal -0.0262098 -0.713939 0.699717
    outer loop
      vertex 55.2196 -144.681 46.502
      vertex 51.5544 -144.711 46.3341
      vertex 55.2252 -144.711 46.4716
    endloop
  endfacet
  facet normal -0.0261325 -0.700109 0.713557
    outer loop
      vertex 51.6475 -143.764 47.2765
      vertex 55.0388 -143.711 47.4527
      vertex 51.6502 -143.711 47.3286
    endloop
  endfacet
  facet normal -0.0260192 -0.70181 0.711889
    outer loop
      vertex 55.0388 -143.711 47.4527
      vertex 51.6475 -143.764 47.2765
      vertex 55.0521 -143.825 47.3408
    endloop
  endfacet
  facet normal -0.0260189 -0.70225 0.711455
    outer loop
      vertex 55.0521 -143.825 47.3408
      vertex 51.6475 -143.764 47.2765
      vertex 55.2196 -144.681 46.502
    endloop
  endfacet
  facet normal -0 -1 0
    outer loop
      vertex 51.8748 -144.711 11.5329
      vertex 51.5306 -144.711 21.2893
      vertex 51.7122 -144.711 7.3478
    endloop
  endfacet
  facet normal 0 -1 -0
    outer loop
      vertex 51.6309 -144.711 27.4367
      vertex 51.5306 -144.711 21.2893
      vertex 51.8748 -144.711 11.5329
    endloop
  endfacet
  facet normal 0.124678 -0.706146 0.697003
    outer loop
      vertex 47.8502 -144.711 46.9967
      vertex 51.5544 -144.711 46.3341
      vertex 51.646 -143.805 47.2356
    endloop
  endfacet
  facet normal 0 -1 0
    outer loop
      vertex 47.8502 -144.711 46.9967
      vertex 51.6309 -144.711 27.4367
      vertex 51.5544 -144.711 46.3341
    endloop
  endfacet
  facet normal 0 -1 0
    outer loop
      vertex 47.8502 -144.711 46.9967
      vertex 51.5306 -144.711 21.2893
      vertex 51.6309 -144.711 27.4367
    endloop
  endfacet
  facet normal 0 -1 0
    outer loop
      vertex 47.8502 -144.711 46.9967
      vertex 51.7122 -144.711 7.3478
      vertex 51.5306 -144.711 21.2893
    endloop
  endfacet
  facet normal 0 -1 0
    outer loop
      vertex 51.2209 -144.711 0
      vertex 51.7122 -144.711 7.3478
      vertex 47.8502 -144.711 46.9967
    endloop
  endfacet
  facet normal 0 -1 -0
    outer loop
      vertex 51.7122 -144.711 7.3478
      vertex 51.2209 -144.711 0
      vertex 51.7419 -144.711 0
    endloop
  endfacet
  facet normal 0.123617 -0.698845 0.70451
    outer loop
      vertex 48.1971 -143.711 47.9345
      vertex 51.6475 -143.764 47.2765
      vertex 51.6502 -143.711 47.3286
    endloop
  endfacet
  facet normal 0.122761 -0.703149 0.700366
    outer loop
      vertex 48.1971 -143.711 47.9345
      vertex 51.646 -143.805 47.2356
      vertex 51.6475 -143.764 47.2765
    endloop
  endfacet
  facet normal 0.123271 -0.700851 0.702576
    outer loop
      vertex 48.0218 -144.217 47.4605
      vertex 51.646 -143.805 47.2356
      vertex 48.1971 -143.711 47.9345
    endloop
  endfacet
  facet normal 0.123369 -0.702773 0.700635
    outer loop
      vertex 47.9716 -144.361 47.3249
      vertex 51.646 -143.805 47.2356
      vertex 48.0218 -144.217 47.4605
    endloop
  endfacet
  facet normal 0.123028 -0.700073 0.703393
    outer loop
      vertex 47.8772 -144.634 47.0697
      vertex 51.646 -143.805 47.2356
      vertex 47.9716 -144.361 47.3249
    endloop
  endfacet
  facet normal 0.124416 -0.705288 0.697917
    outer loop
      vertex 51.646 -143.805 47.2356
      vertex 47.8772 -144.634 47.0697
      vertex 47.8502 -144.711 46.9967
    endloop
  endfacet
  facet normal 0 -1 0
    outer loop
      vertex 51.2209 -144.711 0
      vertex 47.8502 -144.711 46.9967
      vertex 48.8555 -144.711 0
    endloop
  endfacet
  facet normal 0 -1 0
    outer loop
      vertex 48.7417 -144.711 0
      vertex 47.1936 -144.711 47.2396
      vertex 48.1999 -144.711 0
    endloop
  endfacet
  facet normal 0 -1 0
    outer loop
      vertex 48.7417 -144.711 0
      vertex 47.8502 -144.711 46.9967
      vertex 47.1936 -144.711 47.2396
    endloop
  endfacet
  facet normal 0 -1 0
    outer loop
      vertex 47.8502 -144.711 46.9967
      vertex 48.7417 -144.711 0
      vertex 48.8555 -144.711 0
    endloop
  endfacet
  facet normal 0.245519 -0.706671 0.663578
    outer loop
      vertex 47.5406 -143.711 48.1774
      vertex 48.0218 -144.217 47.4605
      vertex 48.1971 -143.711 47.9345
    endloop
  endfacet
  facet normal 0.244815 -0.707085 0.663398
    outer loop
      vertex 47.1936 -144.711 47.2396
      vertex 48.0218 -144.217 47.4605
      vertex 47.5406 -143.711 48.1774
    endloop
  endfacet
  facet normal 0.246257 -0.70856 0.661287
    outer loop
      vertex 48.0218 -144.217 47.4605
      vertex 47.1936 -144.711 47.2396
      vertex 47.9716 -144.361 47.3249
    endloop
  endfacet
  facet normal 0.244708 -0.705938 0.664657
    outer loop
      vertex 47.9716 -144.361 47.3249
      vertex 47.1936 -144.711 47.2396
      vertex 47.8772 -144.634 47.0697
    endloop
  endfacet
  facet normal 0 -1 0
    outer loop
      vertex 47.6654 -144.711 0
      vertex 47.1936 -144.711 47.2396
      vertex 44.0614 -144.711 48.2074
    endloop
  endfacet
  facet normal 0 -1 0
    outer loop
      vertex 47.1936 -144.711 47.2396
      vertex 47.6654 -144.711 0
      vertex 48.1999 -144.711 0
    endloop
  endfacet
  facet normal 0.615403 -0.660081 0.430782
    outer loop
      vertex 44.0614 -144.711 48.2074
      vertex 44.5075 -143.711 49.1024
      vertex 44.2175 -144.361 48.5207
    endloop
  endfacet
  facet normal 0 -1 0
    outer loop
      vertex 44.0614 -144.711 48.2074
      vertex 45.025 -144.711 0
      vertex 47.6654 -144.711 0
    endloop
  endfacet
  facet normal 0.244011 -0.710901 0.659604
    outer loop
      vertex 47.8772 -144.634 47.0697
      vertex 47.1936 -144.711 47.2396
      vertex 47.8502 -144.711 46.9967
    endloop
  endfacet
  facet normal 0.207694 -0.702179 0.681035
    outer loop
      vertex 44.5075 -143.711 49.1024
      vertex 44.0614 -144.711 48.2074
      vertex 47.5406 -143.711 48.1774
    endloop
  endfacet
  facet normal 0.20891 -0.706555 0.676118
    outer loop
      vertex 47.5406 -143.711 48.1774
      vertex 44.0614 -144.711 48.2074
      vertex 47.1936 -144.711 47.2396
    endloop
  endfacet
  facet normal 0 -1 0
    outer loop
      vertex 44.919 -144.711 0
      vertex 44.0614 -144.711 48.2074
      vertex 43.4349 -144.711 48.5197
    endloop
  endfacet
  facet normal 0 -1 0
    outer loop
      vertex 44.0614 -144.711 48.2074
      vertex 44.919 -144.711 0
      vertex 45.025 -144.711 0
    endloop
  endfacet
  facet normal 0.446185 0 0.894941
    outer loop
      vertex 44.5075 -142.411 49.1024
      vertex 43.8811 -143.711 49.4147
      vertex 44.5075 -143.711 49.1024
    endloop
  endfacet
  facet normal 0 -1 0
    outer loop
      vertex 44.919 -144.711 0
      vertex 43.4349 -144.711 48.5197
      vertex 44.3996 -144.711 0
    endloop
  endfacet
  facet normal 0.315444 -0.707142 0.632808
    outer loop
      vertex 44.2175 -144.361 48.5207
      vertex 43.4349 -144.711 48.5197
      vertex 44.0614 -144.711 48.2074
    endloop
  endfacet
  facet normal 0.315505 -0.707096 0.632828
    outer loop
      vertex 43.8811 -143.711 49.4147
      vertex 44.2175 -144.361 48.5207
      vertex 44.5075 -143.711 49.1024
    endloop
  endfacet
  facet normal 0.315438 -0.707128 0.632826
    outer loop
      vertex 44.2175 -144.361 48.5207
      vertex 43.8811 -143.711 49.4147
      vertex 43.4349 -144.711 48.5197
    endloop
  endfacet
  facet normal 0.446185 0 0.894941
    outer loop
      vertex 43.8811 -142.411 49.4147
      vertex 43.8811 -143.711 49.4147
      vertex 44.5075 -142.411 49.1024
    endloop
  endfacet
  facet normal 0 -1 0
    outer loop
      vertex 43.8232 -144.711 0
      vertex 43.4349 -144.711 48.5197
      vertex 39.9789 -144.711 49.5868
    endloop
  endfacet
  facet normal 0 -1 0
    outer loop
      vertex 43.4349 -144.711 48.5197
      vertex 43.8232 -144.711 0
      vertex 44.3996 -144.711 0
    endloop
  endfacet
  facet normal 0.208673 -0.705991 0.676781
    outer loop
      vertex 43.4349 -144.711 48.5197
      vertex 40.2202 -144.12 50.1274
      vertex 40.1216 -144.361 49.9064
    endloop
  endfacet
  facet normal 0.209115 -0.705403 0.677257
    outer loop
      vertex 43.4349 -144.711 48.5197
      vertex 40.09 -144.439 49.8358
      vertex 39.9789 -144.711 49.5868
    endloop
  endfacet
  facet normal 0.210057 -0.70372 0.678715
    outer loop
      vertex 40.2202 -144.12 50.1274
      vertex 43.4349 -144.711 48.5197
      vertex 40.3865 -143.711 50.5
    endloop
  endfacet
  facet normal 0.210795 -0.701548 0.680731
    outer loop
      vertex 40.09 -144.439 49.8358
      vertex 43.4349 -144.711 48.5197
      vertex 40.1216 -144.361 49.9064
    endloop
  endfacet
  facet normal 0 -1 0
    outer loop
      vertex 43.8232 -144.711 0
      vertex 39.9789 -144.711 49.5868
      vertex 40.9668 -144.711 0
    endloop
  endfacet
  facet normal 0.211082 -0.70249 0.679671
    outer loop
      vertex 43.8811 -143.711 49.4147
      vertex 40.3865 -143.711 50.5
      vertex 43.4349 -144.711 48.5197
    endloop
  endfacet
  facet normal 0.407583 0 0.913168
    outer loop
      vertex 39.7473 -142.411 50.7853
      vertex 39.7473 -143.711 50.7853
      vertex 40.3865 -142.411 50.5
    endloop
  endfacet
  facet normal 0 -1 0
    outer loop
      vertex 40.861 -144.711 0
      vertex 39.3397 -144.711 49.8722
      vertex 40.3285 -144.711 0
    endloop
  endfacet
  facet normal 0 -1 0
    outer loop
      vertex 40.861 -144.711 0
      vertex 39.9789 -144.711 49.5868
      vertex 39.3397 -144.711 49.8722
    endloop
  endfacet
  facet normal 0 -1 0
    outer loop
      vertex 39.9789 -144.711 49.5868
      vertex 40.861 -144.711 0
      vertex 40.9668 -144.711 0
    endloop
  endfacet
  facet normal 0.407583 0 0.913168
    outer loop
      vertex 40.3865 -142.411 50.5
      vertex 39.7473 -143.711 50.7853
      vertex 40.3865 -143.711 50.5
    endloop
  endfacet
  facet normal 0.288547 -0.706265 0.646476
    outer loop
      vertex 39.7473 -143.711 50.7853
      vertex 40.2202 -144.12 50.1274
      vertex 40.3865 -143.711 50.5
    endloop
  endfacet
  facet normal 0.287336 -0.707087 0.646116
    outer loop
      vertex 39.3397 -144.711 49.8722
      vertex 40.2202 -144.12 50.1274
      vertex 39.7473 -143.711 50.7853
    endloop
  endfacet
  facet normal 0.289016 -0.708565 0.643743
    outer loop
      vertex 40.2202 -144.12 50.1274
      vertex 39.3397 -144.711 49.8722
      vertex 40.1216 -144.361 49.9064
    endloop
  endfacet
  facet normal 0.286778 -0.704134 0.649579
    outer loop
      vertex 40.1216 -144.361 49.9064
      vertex 39.3397 -144.711 49.8722
      vertex 40.09 -144.439 49.8358
    endloop
  endfacet
  facet normal 0.16226 -0.706495 0.688867
    outer loop
      vertex 39.3397 -144.711 49.8722
      vertex 35.8212 -144.409 51.0107
      vertex 35.7332 -144.711 50.7217
    endloop
  endfacet
  facet normal 0.162332 -0.70631 0.689039
    outer loop
      vertex 35.8212 -144.409 51.0107
      vertex 39.3397 -144.711 49.8722
      vertex 36.0245 -143.711 51.6783
    endloop
  endfacet
  facet normal 0.166346 -0.701015 0.693475
    outer loop
      vertex 39.7473 -143.711 50.7853
      vertex 36.0245 -143.711 51.6783
      vertex 39.3397 -144.711 49.8722
    endloop
  endfacet
  facet normal 0 -1 0
    outer loop
      vertex 35.7332 -144.711 50.7216
      vertex 39.3397 -144.711 49.8722
      vertex 35.7332 -144.711 50.7217
    endloop
  endfacet
  facet normal 0 -1 0
    outer loop
      vertex 39.7374 -144.711 0
      vertex 39.3397 -144.711 49.8722
      vertex 35.7332 -144.711 50.7216
    endloop
  endfacet
  facet normal 0 -1 0
    outer loop
      vertex 39.3397 -144.711 49.8722
      vertex 39.7374 -144.711 0
      vertex 40.3285 -144.711 0
    endloop
  endfacet
  facet normal 0 -1 0
    outer loop
      vertex 39.7374 -144.711 0
      vertex 35.7332 -144.711 50.7216
      vertex 36.772 -144.711 0
    endloop
  endfacet
  facet normal 0.287939 -0.707965 0.644885
    outer loop
      vertex 40.09 -144.439 49.8358
      vertex 39.3397 -144.711 49.8722
      vertex 39.9789 -144.711 49.5868
    endloop
  endfacet
  facet normal 0.205822 -0.70704 0.676559
    outer loop
      vertex 36.0245 -143.711 51.6783
      vertex 35.0635 -144.711 50.9256
      vertex 35.8212 -144.409 51.0107
    endloop
  endfacet
  facet normal 0 -1 0
    outer loop
      vertex 36.6628 -144.711 0
      vertex 35.7332 -144.711 50.7216
      vertex 35.0635 -144.711 50.9256
    endloop
  endfacet
  facet normal 0 -1 0
    outer loop
      vertex 35.7332 -144.711 50.7216
      vertex 36.6628 -144.711 0
      vertex 36.772 -144.711 0
    endloop
  endfacet
  facet normal 0.205958 -0.707096 0.676459
    outer loop
      vertex 35.3548 -143.711 51.8822
      vertex 35.0635 -144.711 50.9256
      vertex 36.0245 -143.711 51.6783
    endloop
  endfacet
  facet normal 0 -1 0
    outer loop
      vertex 36.6628 -144.711 0
      vertex 35.0635 -144.711 50.9256
      vertex 36.103 -144.711 0
    endloop
  endfacet
  facet normal 0 -1 0
    outer loop
      vertex 35.0635 -144.711 50.9256
      vertex 35.7332 -144.711 50.7216
      vertex 35.7332 -144.711 50.7217
    endloop
  endfacet
  facet normal 0.101556 -0.702967 0.703934
    outer loop
      vertex 35.3548 -143.711 51.8822
      vertex 31.643 -143.711 52.4177
      vertex 35.0635 -144.711 50.9256
    endloop
  endfacet
  facet normal 0.20592 -0.707225 0.676335
    outer loop
      vertex 35.8212 -144.409 51.0107
      vertex 35.0635 -144.711 50.9256
      vertex 35.7332 -144.711 50.7217
    endloop
  endfacet
  facet normal 0 -1 0
    outer loop
      vertex 35.5208 -144.711 0
      vertex 31.476 -144.711 51.4318
      vertex 32.549 -144.711 0
    endloop
  endfacet
  facet normal 0 -1 0
    outer loop
      vertex 35.5208 -144.711 0
      vertex 35.0635 -144.711 50.9256
      vertex 31.476 -144.711 51.4318
    endloop
  endfacet
  facet normal 0 -1 0
    outer loop
      vertex 35.0635 -144.711 50.9256
      vertex 35.5208 -144.711 0
      vertex 36.103 -144.711 0
    endloop
  endfacet
  facet normal 0.0988165 -0.706952 0.700324
    outer loop
      vertex 31.643 -143.711 52.4177
      vertex 31.476 -144.711 51.4318
      vertex 35.0635 -144.711 50.9256
    endloop
  endfacet
  facet normal 0.118199 -0.707093 0.697172
    outer loop
      vertex 30.7858 -144.711 51.5488
      vertex 31.643 -143.711 52.4177
      vertex 30.9529 -143.711 52.5347
    endloop
  endfacet
  facet normal 0.118183 -0.707087 0.697181
    outer loop
      vertex 31.643 -143.711 52.4177
      vertex 30.7858 -144.711 51.5488
      vertex 31.476 -144.711 51.4318
    endloop
  endfacet
  facet normal 0 -1 0
    outer loop
      vertex 30.3659 -144.711 0
      vertex 30.2845 -144.711 48.5909
      vertex 30.2845 -144.711 0
    endloop
  endfacet
  facet normal 0 -1 0
    outer loop
      vertex 30.2845 -144.711 48.5909
      vertex 30.3659 -144.711 0
      vertex 30.7858 -144.711 51.5488
    endloop
  endfacet
  facet normal 0 -1 0
    outer loop
      vertex 32.4373 -144.711 0
      vertex 31.476 -144.711 51.4318
      vertex 30.7858 -144.711 51.5488
    endloop
  endfacet
  facet normal 0 -1 0
    outer loop
      vertex 31.476 -144.711 51.4318
      vertex 32.4373 -144.711 0
      vertex 32.549 -144.711 0
    endloop
  endfacet
  facet normal 0 -1 -0
    outer loop
      vertex 30.7858 -144.711 51.5488
      vertex 30.3659 -144.711 0
      vertex 32.4373 -144.711 0
    endloop
  endfacet
  facet normal -0.711942 -0.702238 -0
    outer loop
      vertex 30.2845 -144.711 48.5909
      vertex 29.4668 -143.882 0
      vertex 30.2845 -144.711 0
    endloop
  endfacet
  facet normal -0.697179 -0.707093 0.118157
    outer loop
      vertex 30.7858 -144.711 51.5488
      vertex 29.7999 -143.711 51.7159
      vertex 30.2845 -144.711 48.5909
    endloop
  endfacet
  facet normal -0.712919 -0.701246 3.33678e-05
    outer loop
      vertex 30.2845 -144.711 48.5909
      vertex 29.2986 -143.711 0
      vertex 29.4668 -143.882 0
    endloop
  endfacet
  facet normal -0.712109 -0.702069 0
    outer loop
      vertex 29.2986 -143.711 0
      vertex 30.2845 -144.711 48.5909
      vertex 29.2986 -143.711 48.758
    endloop
  endfacet
  facet normal -0.697179 -0.707093 0.118157
    outer loop
      vertex 29.7999 -143.711 51.7159
      vertex 29.2986 -143.711 48.758
      vertex 30.2845 -144.711 48.5909
    endloop
  endfacet
  facet normal -0.472759 -0.577335 0.66572
    outer loop
      vertex 30.9529 -143.711 52.5347
      vertex 29.7999 -143.711 51.7159
      vertex 30.7858 -144.711 51.5488
    endloop
  endfacet
  facet normal 0 0 1
    outer loop
      vertex 21.3644 -50.6636 7.5
      vertex 11.4482 -51.1675 7.5
      vertex 12.149 -57.1429 7.5
    endloop
  endfacet
  facet normal 0 0 1
    outer loop
      vertex 38.0191 -55.2113 7.5
      vertex 36.4272 -78.7115 7.5
      vertex 36.6184 -78.7115 7.5
    endloop
  endfacet
  facet normal 0 0 1
    outer loop
      vertex 38.0191 -55.2113 7.5
      vertex 31.4375 -67.6671 7.5
      vertex 36.4272 -78.7115 7.5
    endloop
  endfacet
  facet normal 0 0 1
    outer loop
      vertex 36.4272 -78.7115 7.5
      vertex 31.4375 -67.6671 7.5
      vertex 35.9499 -78.7115 7.5
    endloop
  endfacet
  facet normal 0 0 1
    outer loop
      vertex 35.9499 -78.7115 7.5
      vertex 31.4375 -67.6671 7.5
      vertex 34.9309 -78.7115 7.5
    endloop
  endfacet
  facet normal 0 0 1
    outer loop
      vertex 34.9309 -78.7115 7.5
      vertex 31.4375 -67.6671 7.5
      vertex 32.3926 -78.7115 7.5
    endloop
  endfacet
  facet normal 0 0 1
    outer loop
      vertex 32.3926 -78.7115 7.5
      vertex 31.4375 -67.6671 7.5
      vertex 32.197 -78.7115 7.5
    endloop
  endfacet
  facet normal 0 0 1
    outer loop
      vertex 29.007 -50.7766 7.5
      vertex 37.4191 -54.2113 7.5
      vertex 38.7659 -51.1033 7.5
    endloop
  endfacet
  facet normal 0 0 1
    outer loop
      vertex 38.0191 -55.2113 7.5
      vertex 29.007 -50.7766 7.5
      vertex 31.4375 -67.6671 7.5
    endloop
  endfacet
  facet normal 0 0 1
    outer loop
      vertex 21.4375 -57.6671 7.5
      vertex 29.007 -50.7766 7.5
      vertex 26.4375 -50.7115 7.5
    endloop
  endfacet
  facet normal 0 0 1
    outer loop
      vertex 21.4375 -57.6671 7.5
      vertex 26.4375 -50.7115 7.5
      vertex 21.9345 -50.6346 7.5
    endloop
  endfacet
  facet normal 0 0 1
    outer loop
      vertex 29.007 -50.7766 7.5
      vertex 21.4375 -57.6671 7.5
      vertex 31.4375 -67.6671 7.5
    endloop
  endfacet
  facet normal -0 0 1
    outer loop
      vertex 21.3644 -50.6636 7.5
      vertex 21.4375 -57.6671 7.5
      vertex 21.9345 -50.6346 7.5
    endloop
  endfacet
  facet normal -0 0 1
    outer loop
      vertex 12.149 -57.1429 7.5
      vertex 21.4375 -57.6671 7.5
      vertex 21.3644 -50.6636 7.5
    endloop
  endfacet
  facet normal 0 0 1
    outer loop
      vertex 21.4375 -57.6671 7.5
      vertex 12.149 -57.1429 7.5
      vertex 11.9396 -57.6671 7.5
    endloop
  endfacet
  facet normal 0 0 1
    outer loop
      vertex 45.5744 -55.2113 7.5
      vertex 44.875 -78.7115 7.5
      vertex 45.5744 -78.7115 7.5
    endloop
  endfacet
  facet normal 0 0 1
    outer loop
      vertex 45.5744 -55.2113 7.5
      vertex 44.6896 -78.7115 7.5
      vertex 44.875 -78.7115 7.5
    endloop
  endfacet
  facet normal 0 0 1
    outer loop
      vertex 45.5744 -55.2113 7.5
      vertex 44.2505 -78.7115 7.5
      vertex 44.6896 -78.7115 7.5
    endloop
  endfacet
  facet normal 0 0 1
    outer loop
      vertex 45.5744 -55.2113 7.5
      vertex 43.2417 -78.7115 7.5
      vertex 44.2505 -78.7115 7.5
    endloop
  endfacet
  facet normal 0 0 1
    outer loop
      vertex 45.5744 -55.2113 7.5
      vertex 40.8173 -78.7115 7.5
      vertex 43.2417 -78.7115 7.5
    endloop
  endfacet
  facet normal -0 0 1
    outer loop
      vertex 38.0191 -55.2113 7.5
      vertex 40.8173 -78.7115 7.5
      vertex 45.5744 -55.2113 7.5
    endloop
  endfacet
  facet normal 0 0 1
    outer loop
      vertex 40.8173 -78.7115 7.5
      vertex 38.0191 -55.2113 7.5
      vertex 40.6322 -78.7115 7.5
    endloop
  endfacet
  facet normal 0 0 1
    outer loop
      vertex 40.6322 -78.7115 7.5
      vertex 38.0191 -55.2113 7.5
      vertex 40.1798 -78.7115 7.5
    endloop
  endfacet
  facet normal 0 0 1
    outer loop
      vertex 40.1798 -78.7115 7.5
      vertex 38.0191 -55.2113 7.5
      vertex 39.1453 -78.7115 7.5
    endloop
  endfacet
  facet normal 0 0 1
    outer loop
      vertex 29.007 -50.7766 7.5
      vertex 38.0191 -55.2113 7.5
      vertex 37.4191 -54.2113 7.5
    endloop
  endfacet
  facet normal 0 0 1
    outer loop
      vertex 38.0191 -55.2113 7.5
      vertex 36.6184 -78.7115 7.5
      vertex 39.1453 -78.7115 7.5
    endloop
  endfacet
  facet normal 0 0 1
    outer loop
      vertex 32.197 -78.7115 7.5
      vertex 31.4375 -67.6671 7.5
      vertex 31.4375 -78.7115 7.5
    endloop
  endfacet
  facet normal 0.0334584 0.99944 -7.48952e-06
    outer loop
      vertex 30.3536 -50.8217 4.87223
      vertex 29.007 -50.7766 7.5
      vertex 38.7659 -51.1033 7.5
    endloop
  endfacet
  facet normal 0.033425 0.999441 0
    outer loop
      vertex 29.007 -50.7766 7.5
      vertex 29.5811 -50.7958 5.1221
      vertex 29.007 -50.7766 5.30777
    endloop
  endfacet
  facet normal 0.0335158 0.999438 2.19484e-05
    outer loop
      vertex 29.007 -50.7766 7.5
      vertex 30.3536 -50.8217 4.87223
      vertex 29.5811 -50.7958 5.1221
    endloop
  endfacet
  facet normal 0.0334561 0.99944 -0
    outer loop
      vertex 38.7659 -51.1033 2.74057
      vertex 30.3536 -50.8217 4.87223
      vertex 38.7659 -51.1033 7.5
    endloop
  endfacet
  facet normal 0.0253275 0.999679 -1.29124e-05
    outer loop
      vertex 26.7209 -50.7187 5.96154
      vertex 26.4375 -50.7115 7.5
      vertex 29.007 -50.7766 7.5
    endloop
  endfacet
  facet normal 0.0253976 0.999677 0
    outer loop
      vertex 26.4375 -50.7115 7.5
      vertex 26.7209 -50.7187 5.96154
      vertex 26.4375 -50.7115 6.063
    endloop
  endfacet
  facet normal 0.0253189 0.999679 0
    outer loop
      vertex 26.7209 -50.7187 5.96154
      vertex 29.007 -50.7766 7.5
      vertex 29.007 -50.7766 5.30777
    endloop
  endfacet
  facet normal 0.0170749 0.999849 -0.00332919
    outer loop
      vertex 26.4375 -50.7115 7.5
      vertex 21.9786 -50.6354 7.48592
      vertex 21.9345 -50.6346 7.5
    endloop
  endfacet
  facet normal 0.0170645 0.999854 0
    outer loop
      vertex 21.9786 -50.6354 7.48592
      vertex 26.4375 -50.7115 7.5
      vertex 26.4375 -50.7115 6.063
    endloop
  endfacet
  facet normal 0 -1 0
    outer loop
      vertex 11.9396 -57.6671 0
      vertex 21.4375 -57.6671 7.5
      vertex 11.9396 -57.6671 7.5
    endloop
  endfacet
  facet normal 0 -1 -0
    outer loop
      vertex 21.4375 -57.6671 7.5
      vertex 11.9396 -57.6671 0
      vertex 21.4375 -57.6671 0
    endloop
  endfacet
  facet normal -0.707107 -0.707107 0
    outer loop
      vertex 31.4375 -67.6671 0
      vertex 21.4375 -57.6671 7.5
      vertex 21.4375 -57.6671 0
    endloop
  endfacet
  facet normal -0.707107 -0.707107 0
    outer loop
      vertex 21.4375 -57.6671 7.5
      vertex 31.4375 -67.6671 0
      vertex 31.4375 -67.6671 7.5
    endloop
  endfacet
  facet normal -1 0 0
    outer loop
      vertex 31.4375 -78.7115 0
      vertex 31.4375 -67.6671 7.5
      vertex 31.4375 -67.6671 0
    endloop
  endfacet
  facet normal -1 -0 0
    outer loop
      vertex 31.4375 -67.6671 7.5
      vertex 31.4375 -78.7115 0
      vertex 31.4375 -78.7115 7.5
    endloop
  endfacet
  facet normal 1 -0 0
    outer loop
      vertex 45.5744 -78.7115 7.5
      vertex 45.5744 -55.2113 0
      vertex 45.5744 -55.2113 7.5
    endloop
  endfacet
  facet normal 1 0 0
    outer loop
      vertex 45.5744 -55.2113 0
      vertex 45.5744 -78.7115 7.5
      vertex 45.5744 -78.7115 0
    endloop
  endfacet
  facet normal -0.0219803 0.976208 -0.215718
    outer loop
      vertex 38.5255 -51.6579 0.254992
      vertex 32.292 -51.8546 0
      vertex 29.3373 -51.7049 0.978518
    endloop
  endfacet
  facet normal -0.0334585 -0.99944 0
    outer loop
      vertex 29.281 -51.7538 0.76298
      vertex 32.292 -51.8546 0
      vertex 29.281 -51.7538 0.762987
    endloop
  endfacet
  facet normal -0.0219855 0.976205 -0.215733
    outer loop
      vertex 29.3373 -51.7049 0.978518
      vertex 32.292 -51.8546 0
      vertex 29.281 -51.7538 0.76298
    endloop
  endfacet
  facet normal -0.0219804 0.976209 -0.215715
    outer loop
      vertex 32.292 -51.8546 0
      vertex 38.5255 -51.6579 0.254992
      vertex 38.5009 -51.7148 0
    endloop
  endfacet
  facet normal -0.0219648 0.976225 -0.215644
    outer loop
      vertex 38.7659 -51.1033 2.74057
      vertex 30.0211 -51.1106 3.59824
      vertex 30.3536 -50.8217 4.87223
    endloop
  endfacet
  facet normal -0.0219691 0.976215 -0.215688
    outer loop
      vertex 30.0211 -51.1106 3.59824
      vertex 38.7659 -51.1033 2.74057
      vertex 38.6377 -51.3991 1.41482
    endloop
  endfacet
  facet normal 0.0334324 0.999441 0
    outer loop
      vertex 29.7623 -51.7699 0
      vertex 29.281 -51.7538 0
      vertex 29.281 -51.7538 0.299204
    endloop
  endfacet
  facet normal 0.0334635 0.99944 1.96457e-05
    outer loop
      vertex 29.7623 -51.7699 0
      vertex 29.281 -51.7538 0.762987
      vertex 32.292 -51.8546 0
    endloop
  endfacet
  facet normal 0.0334324 0.999441 0
    outer loop
      vertex 29.281 -51.7538 0.762987
      vertex 29.7623 -51.7699 0
      vertex 29.281 -51.7538 0.299204
    endloop
  endfacet
  facet normal -0.021973 0.976212 -0.215703
    outer loop
      vertex 38.5255 -51.6579 0.254992
      vertex 30.0211 -51.1106 3.59824
      vertex 38.6377 -51.3991 1.41482
    endloop
  endfacet
  facet normal -0.0219806 0.976208 -0.215721
    outer loop
      vertex 30.0211 -51.1106 3.59824
      vertex 38.5255 -51.6579 0.254992
      vertex 29.3373 -51.7049 0.978518
    endloop
  endfacet
  facet normal -0.0359416 0.976582 -0.212121
    outer loop
      vertex 30.0211 -51.1106 3.59824
      vertex 29.007 -50.7766 5.30777
      vertex 29.5811 -50.7958 5.1221
    endloop
  endfacet
  facet normal -0.0359353 0.976583 -0.212117
    outer loop
      vertex 25.4002 -51.6554 1.87283
      vertex 29.007 -50.7766 5.30777
      vertex 30.0211 -51.1106 3.59824
    endloop
  endfacet
  facet normal -0.0359285 0.976582 -0.212124
    outer loop
      vertex 29.007 -50.7766 5.30777
      vertex 25.4002 -51.6554 1.87283
      vertex 26.7209 -50.7187 5.96154
    endloop
  endfacet
  facet normal -0.199272 0.967249 -0.157224
    outer loop
      vertex 25.6741 -51.4611 2.72102
      vertex 26.7209 -50.7187 5.96154
      vertex 25.4002 -51.6554 1.87283
    endloop
  endfacet
  facet normal -0.0359155 0.976573 -0.212167
    outer loop
      vertex 29.3373 -51.7049 0.978518
      vertex 25.4002 -51.6554 1.87283
      vertex 30.0211 -51.1106 3.59824
    endloop
  endfacet
  facet normal -0.0359178 0.976571 -0.212177
    outer loop
      vertex 25.4002 -51.6554 1.87283
      vertex 29.3373 -51.7049 0.978518
      vertex 29.281 -51.7538 0.76298
    endloop
  endfacet
  facet normal -0.0358623 0.97659 -0.212099
    outer loop
      vertex 30.3536 -50.8217 4.87223
      vertex 30.0211 -51.1106 3.59824
      vertex 29.5811 -50.7958 5.1221
    endloop
  endfacet
  facet normal -0.0253475 -0.999679 0
    outer loop
      vertex 25.4002 -51.6554 1.87283
      vertex 29.281 -51.7538 0.76298
      vertex 29.281 -51.7538 0.762987
    endloop
  endfacet
  facet normal 0.025323 0.999679 0
    outer loop
      vertex 26.0123 -51.671 0
      vertex 29.281 -51.7538 0.762987
      vertex 29.281 -51.7538 0.299204
    endloop
  endfacet
  facet normal 0.025323 0.999679 0
    outer loop
      vertex 26.0123 -51.671 0
      vertex 29.281 -51.7538 0.299204
      vertex 29.281 -51.7538 0
    endloop
  endfacet
  facet normal 0.025334 0.999679 -4.70106e-05
    outer loop
      vertex 29.281 -51.7538 0.762987
      vertex 26.0123 -51.671 0
      vertex 25.4002 -51.6554 1.87283
    endloop
  endfacet
  facet normal 0.0254778 0.999675 0
    outer loop
      vertex 26.0123 -51.671 0
      vertex 25.4002 -51.6554 1.82469
      vertex 25.4002 -51.6554 1.87283
    endloop
  endfacet
  facet normal 0.025484 0.999675 2.08974e-06
    outer loop
      vertex 25.4002 -51.6554 1.82469
      vertex 26.0123 -51.671 0
      vertex 25.4003 -51.6554 0.605208
    endloop
  endfacet
  facet normal 0.0254861 0.999675 4.21113e-06
    outer loop
      vertex 25.4003 -51.6554 0.605208
      vertex 26.0123 -51.671 0
      vertex 25.4004 -51.6554 0
    endloop
  endfacet
  facet normal -0.0495738 0.976915 -0.207796
    outer loop
      vertex 25.6741 -51.4611 2.72102
      vertex 26.4375 -50.7115 6.063
      vertex 26.7209 -50.7187 5.96154
    endloop
  endfacet
  facet normal -0.0496343 0.976915 -0.207782
    outer loop
      vertex 26.4375 -50.7115 6.063
      vertex 25.6741 -51.4611 2.72102
      vertex 21.9786 -50.6354 7.48592
    endloop
  endfacet
  facet normal -0.0496588 0.976223 -0.211004
    outer loop
      vertex 21.9786 -50.6354 7.48592
      vertex 21.3644 -50.6636 7.5
      vertex 21.9345 -50.6346 7.5
    endloop
  endfacet
  facet normal -0.0496139 0.976919 -0.207767
    outer loop
      vertex 25.4002 -51.6554 1.87283
      vertex 21.9786 -50.6354 7.48592
      vertex 25.6741 -51.4611 2.72102
    endloop
  endfacet
  facet normal -0.0496166 0.976919 -0.207769
    outer loop
      vertex 21.9786 -50.6354 7.48592
      vertex 25.4002 -51.6554 1.87283
      vertex 21.3644 -50.6636 7.5
    endloop
  endfacet
  facet normal -0.0496426 0.976911 -0.207797
    outer loop
      vertex 21.3644 -50.6636 7.5
      vertex 11.4775 -51.4179 6.3158
      vertex 11.4482 -51.1675 7.5
    endloop
  endfacet
  facet normal -0.0496439 0.976913 -0.207787
    outer loop
      vertex 11.4775 -51.4179 6.3158
      vertex 21.3644 -50.6636 7.5
      vertex 25.4002 -51.6554 1.87283
    endloop
  endfacet
  facet normal 0.0169941 0.999856 2.80797e-06
    outer loop
      vertex 25.4003 -51.6554 0.605208
      vertex 25.4004 -51.6554 0
      vertex 24.5414 -51.6408 0
    endloop
  endfacet
  facet normal 0.017056 0.999855 0
    outer loop
      vertex 25.4002 -51.6554 1.87283
      vertex 11.4775 -51.4179 2.59534
      vertex 11.4775 -51.4179 6.3158
    endloop
  endfacet
  facet normal 0.016998 0.999856 0
    outer loop
      vertex 24.5414 -51.6408 0
      vertex 25.4002 -51.6554 1.87283
      vertex 25.4002 -51.6554 1.82469
    endloop
  endfacet
  facet normal 0.016995 0.999856 1.39363e-06
    outer loop
      vertex 24.5414 -51.6408 0
      vertex 25.4002 -51.6554 1.82469
      vertex 25.4003 -51.6554 0.605208
    endloop
  endfacet
  facet normal 0.0170546 0.999855 -2.59775e-05
    outer loop
      vertex 25.4002 -51.6554 1.87283
      vertex 24.5414 -51.6408 0
      vertex 11.4775 -51.4179 2.59534
    endloop
  endfacet
  facet normal 0.0170598 0.999854 0
    outer loop
      vertex 11.4775 -51.4179 2.59534
      vertex 24.5414 -51.6408 0
      vertex 11.4775 -51.4179 0
    endloop
  endfacet
  facet normal -0.993191 -0.116494 -0
    outer loop
      vertex 12.149 -57.1429 7.5
      vertex 11.4775 -51.4179 2.59534
      vertex 12.149 -57.1429 0
    endloop
  endfacet
  facet normal -0.993191 -0.116494 0
    outer loop
      vertex 11.4775 -51.4179 2.59534
      vertex 12.149 -57.1429 7.5
      vertex 11.4775 -51.4179 6.3158
    endloop
  endfacet
  facet normal -0.993193 -0.116482 5.62982e-05
    outer loop
      vertex 11.4775 -51.4179 6.3158
      vertex 12.149 -57.1429 7.5
      vertex 11.4482 -51.1675 7.5
    endloop
  endfacet
  facet normal -0.993192 -0.116488 -1.44349e-05
    outer loop
      vertex 12.149 -57.1429 0
      vertex 11.4775 -51.4179 2.59534
      vertex 11.6159 -52.5976 0
    endloop
  endfacet
  facet normal -0.993188 -0.116519 0
    outer loop
      vertex 11.6159 -52.5976 0
      vertex 11.4775 -51.4179 2.59534
      vertex 11.4775 -51.4179 0
    endloop
  endfacet
  facet normal -0.928648 0.370963 0
    outer loop
      vertex 11.9396 -57.6671 0
      vertex 12.149 -57.1429 7.5
      vertex 12.149 -57.1429 0
    endloop
  endfacet
  facet normal -0.928648 0.370963 0
    outer loop
      vertex 12.149 -57.1429 7.5
      vertex 11.9396 -57.6671 0
      vertex 11.9396 -57.6671 7.5
    endloop
  endfacet
  facet normal 0 1 -0
    outer loop
      vertex 45.5744 -55.2113 0
      vertex 38.0191 -55.2113 7.5
      vertex 45.5744 -55.2113 7.5
    endloop
  endfacet
  facet normal 0 1 0
    outer loop
      vertex 38.0191 -55.2113 7.5
      vertex 45.5744 -55.2113 0
      vertex 38.0191 -55.2113 0
    endloop
  endfacet
  facet normal 0.857493 0.514496 0
    outer loop
      vertex 38.0191 -55.2113 7.5
      vertex 37.4191 -54.2113 0
      vertex 37.4191 -54.2113 7.5
    endloop
  endfacet
  facet normal 0.857493 0.514496 0
    outer loop
      vertex 37.4191 -54.2113 0
      vertex 38.0191 -55.2113 7.5
      vertex 38.0191 -55.2113 0
    endloop
  endfacet
  facet normal 0.917556 -0.397607 0
    outer loop
      vertex 37.4191 -54.2113 7.5
      vertex 38.7659 -51.1033 2.74057
      vertex 38.7659 -51.1033 7.5
    endloop
  endfacet
  facet normal 0.917556 -0.397607 0
    outer loop
      vertex 37.4191 -54.2113 0
      vertex 38.7659 -51.1033 2.74057
      vertex 37.4191 -54.2113 7.5
    endloop
  endfacet
  facet normal 0.917561 -0.397595 -1.72325e-05
    outer loop
      vertex 38.7659 -51.1033 2.74057
      vertex 37.4191 -54.2113 0
      vertex 38.6377 -51.3991 1.41482
    endloop
  endfacet
  facet normal 0.917567 -0.397581 -4.91691e-05
    outer loop
      vertex 38.6377 -51.3991 1.41482
      vertex 37.4191 -54.2113 0
      vertex 38.5255 -51.6579 0.254992
    endloop
  endfacet
  facet normal 0.917558 -0.397602 0.000202541
    outer loop
      vertex 38.5255 -51.6579 0.254992
      vertex 37.4191 -54.2113 0
      vertex 38.5009 -51.7148 0
    endloop
  endfacet
  facet normal 0 0 -1
    outer loop
      vertex 64.5518 -144.711 0
      vertex 65.6736 -143.711 0
      vertex 64.9364 -144.535 0
    endloop
  endfacet
  facet normal 0 0 -1
    outer loop
      vertex 59.1249 -144.711 0
      vertex 65.6736 -143.711 0
      vertex 61.8484 -144.711 0
    endloop
  endfacet
  facet normal 0 0 -1
    outer loop
      vertex 58.574 -144.711 0
      vertex 65.6736 -143.711 0
      vertex 59.1249 -144.711 0
    endloop
  endfacet
  facet normal 0 0 -1
    outer loop
      vertex 64.5518 -144.711 0
      vertex 64.9364 -144.535 0
      vertex 64.7787 -144.711 0
    endloop
  endfacet
  facet normal 0 0 -1
    outer loop
      vertex 65.6736 -143.711 0
      vertex 64.5518 -144.711 0
      vertex 61.9536 -144.711 0
    endloop
  endfacet
  facet normal 0 0 -1
    outer loop
      vertex 65.6736 -143.711 0
      vertex 61.9536 -144.711 0
      vertex 61.8484 -144.711 0
    endloop
  endfacet
  facet normal 0 0 -1
    outer loop
      vertex 64.9364 -78.8877 0
      vertex 64.5518 -78.7115 0
      vertex 64.7787 -78.7115 0
    endloop
  endfacet
  facet normal -0 -0 -1
    outer loop
      vertex 61.9536 -78.7115 0
      vertex 65.6736 -79.7115 0
      vertex 61.8484 -78.7115 0
    endloop
  endfacet
  facet normal -0 -0 -1
    outer loop
      vertex 64.5518 -78.7115 0
      vertex 65.6736 -79.7115 0
      vertex 61.9536 -78.7115 0
    endloop
  endfacet
  facet normal 0 0 -1
    outer loop
      vertex 65.6736 -79.7115 0
      vertex 64.5518 -78.7115 0
      vertex 64.9364 -78.8877 0
    endloop
  endfacet
  facet normal 0 0 -1
    outer loop
      vertex 58.0432 -144.711 0
      vertex 65.6736 -143.711 0
      vertex 58.574 -144.711 0
    endloop
  endfacet
  facet normal 0 0 -1
    outer loop
      vertex 65.6736 -79.7115 0
      vertex 59.1249 -78.7115 0
      vertex 61.8484 -78.7115 0
    endloop
  endfacet
  facet normal 0 0 -1
    outer loop
      vertex 57.9328 -144.711 0
      vertex 65.6736 -143.711 0
      vertex 58.0432 -144.711 0
    endloop
  endfacet
  facet normal 0 0 -1
    outer loop
      vertex 65.6736 -79.7115 0
      vertex 58.574 -78.7115 0
      vertex 59.1249 -78.7115 0
    endloop
  endfacet
  facet normal -0 0 -1
    outer loop
      vertex 65.6736 -143.711 0
      vertex 57.9328 -144.711 0
      vertex 65.6736 -79.7115 0
    endloop
  endfacet
  facet normal 0 0 -1
    outer loop
      vertex 65.6736 -79.7115 0
      vertex 58.0432 -78.7115 0
      vertex 58.574 -78.7115 0
    endloop
  endfacet
  facet normal 0 0 -1
    outer loop
      vertex 57.9327 -78.7115 0
      vertex 65.6736 -79.7115 0
      vertex 57.9328 -144.711 0
    endloop
  endfacet
  facet normal 0 0 -1
    outer loop
      vertex 65.6736 -79.7115 0
      vertex 57.9327 -78.7115 0
      vertex 58.0432 -78.7115 0
    endloop
  endfacet
  facet normal 0 0 -1
    outer loop
      vertex 55.4779 -144.711 0
      vertex 57.9327 -78.7115 0
      vertex 57.9328 -144.711 0
    endloop
  endfacet
  facet normal 0 0 -1
    outer loop
      vertex 55.4779 -144.711 0
      vertex 55.4779 -78.7115 0
      vertex 57.9327 -78.7115 0
    endloop
  endfacet
  facet normal 0 0 -1
    outer loop
      vertex 54.9398 -144.711 0
      vertex 55.4779 -78.7115 0
      vertex 55.4779 -144.711 0
    endloop
  endfacet
  facet normal 0 0 -1
    outer loop
      vertex 54.9398 -144.711 0
      vertex 54.9398 -78.7115 0
      vertex 55.4779 -78.7115 0
    endloop
  endfacet
  facet normal 0 0 -1
    outer loop
      vertex 54.4116 -144.711 0
      vertex 54.9398 -78.7115 0
      vertex 54.9398 -144.711 0
    endloop
  endfacet
  facet normal 0 0 -1
    outer loop
      vertex 54.4116 -144.711 0
      vertex 54.4116 -78.7115 0
      vertex 54.9398 -78.7115 0
    endloop
  endfacet
  facet normal 0 0 -1
    outer loop
      vertex 54.2909 -144.711 0
      vertex 54.4116 -78.7115 0
      vertex 54.4116 -144.711 0
    endloop
  endfacet
  facet normal 0 0 -1
    outer loop
      vertex 54.2909 -144.711 0
      vertex 54.2909 -78.7115 0
      vertex 54.4116 -78.7115 0
    endloop
  endfacet
  facet normal 0 0 -1
    outer loop
      vertex 51.7997 -144.711 0
      vertex 54.2909 -78.7115 0
      vertex 54.2909 -144.711 0
    endloop
  endfacet
  facet normal 0 0 -1
    outer loop
      vertex 51.7997 -144.711 0
      vertex 51.7997 -78.7115 0
      vertex 54.2909 -78.7115 0
    endloop
  endfacet
  facet normal 0 0 -1
    outer loop
      vertex 51.7419 -144.711 0
      vertex 51.7997 -78.7115 0
      vertex 51.7997 -144.711 0
    endloop
  endfacet
  facet normal 0 0 -1
    outer loop
      vertex 51.7419 -144.711 0
      vertex 51.7419 -78.7115 0
      vertex 51.7997 -78.7115 0
    endloop
  endfacet
  facet normal 0 0 -1
    outer loop
      vertex 51.2209 -144.711 0
      vertex 51.7419 -78.7115 0
      vertex 51.7419 -144.711 0
    endloop
  endfacet
  facet normal 0 0 -1
    outer loop
      vertex 51.2209 -144.711 0
      vertex 51.2209 -78.7115 0
      vertex 51.7419 -78.7115 0
    endloop
  endfacet
  facet normal 0 0 -1
    outer loop
      vertex 48.8555 -144.711 0
      vertex 51.2209 -78.7115 0
      vertex 51.2209 -144.711 0
    endloop
  endfacet
  facet normal 0 0 -1
    outer loop
      vertex 48.8555 -144.711 0
      vertex 48.8555 -78.7115 0
      vertex 51.2209 -78.7115 0
    endloop
  endfacet
  facet normal 0 0 -1
    outer loop
      vertex 48.7417 -144.711 0
      vertex 48.8555 -78.7115 0
      vertex 48.8555 -144.711 0
    endloop
  endfacet
  facet normal 0 0 -1
    outer loop
      vertex 48.7417 -144.711 0
      vertex 48.7417 -78.7115 0
      vertex 48.8555 -78.7115 0
    endloop
  endfacet
  facet normal 0 0 -1
    outer loop
      vertex 48.1999 -144.711 0
      vertex 48.7417 -78.7115 0
      vertex 48.7417 -144.711 0
    endloop
  endfacet
  facet normal 0 0 -1
    outer loop
      vertex 48.1999 -144.711 0
      vertex 48.1999 -78.7115 0
      vertex 48.7417 -78.7115 0
    endloop
  endfacet
  facet normal 0 0 -1
    outer loop
      vertex 47.6654 -144.711 0
      vertex 48.1999 -78.7115 0
      vertex 48.1999 -144.711 0
    endloop
  endfacet
  facet normal 0 0 -1
    outer loop
      vertex 47.6654 -144.711 0
      vertex 47.6654 -78.7115 0
      vertex 48.1999 -78.7115 0
    endloop
  endfacet
  facet normal 0 0 -1
    outer loop
      vertex 47.6654 -144.711 0
      vertex 45.5744 -78.7115 0
      vertex 47.6654 -78.7115 0
    endloop
  endfacet
  facet normal 0 0 -1
    outer loop
      vertex 45.025 -144.711 0
      vertex 45.5744 -78.7115 0
      vertex 47.6654 -144.711 0
    endloop
  endfacet
  facet normal 0 0 -1
    outer loop
      vertex 44.919 -144.711 0
      vertex 45.5744 -78.7115 0
      vertex 45.025 -144.711 0
    endloop
  endfacet
  facet normal 0 0 -1
    outer loop
      vertex 44.3996 -144.711 0
      vertex 45.5744 -78.7115 0
      vertex 44.919 -144.711 0
    endloop
  endfacet
  facet normal 0 0 -1
    outer loop
      vertex 43.8232 -144.711 0
      vertex 45.5744 -78.7115 0
      vertex 44.3996 -144.711 0
    endloop
  endfacet
  facet normal 0 0 -1
    outer loop
      vertex 40.9668 -144.711 0
      vertex 45.5744 -78.7115 0
      vertex 43.8232 -144.711 0
    endloop
  endfacet
  facet normal 0 0 -1
    outer loop
      vertex 40.861 -144.711 0
      vertex 45.5744 -78.7115 0
      vertex 40.9668 -144.711 0
    endloop
  endfacet
  facet normal 0 0 -1
    outer loop
      vertex 40.3285 -144.711 0
      vertex 45.5744 -78.7115 0
      vertex 40.861 -144.711 0
    endloop
  endfacet
  facet normal 0 0 -1
    outer loop
      vertex 39.7374 -144.711 0
      vertex 45.5744 -78.7115 0
      vertex 40.3285 -144.711 0
    endloop
  endfacet
  facet normal 0 0 -1
    outer loop
      vertex 45.5744 -78.7115 0
      vertex 39.7374 -144.711 0
      vertex 29.2986 -79.7115 0
    endloop
  endfacet
  facet normal 0 0 -1
    outer loop
      vertex 31.4375 -67.6671 0
      vertex 45.5744 -78.7115 0
      vertex 31.4375 -78.7115 0
    endloop
  endfacet
  facet normal 0 0 -1
    outer loop
      vertex 45.5744 -78.7115 0
      vertex 31.4375 -67.6671 0
      vertex 45.5744 -55.2113 0
    endloop
  endfacet
  facet normal 0 0 -1
    outer loop
      vertex 29.2986 -79.7115 0
      vertex 39.7374 -144.711 0
      vertex 36.772 -144.711 0
    endloop
  endfacet
  facet normal 0 0 -1
    outer loop
      vertex 29.2986 -143.711 0
      vertex 36.772 -144.711 0
      vertex 36.6628 -144.711 0
    endloop
  endfacet
  facet normal 0 0 -1
    outer loop
      vertex 29.2986 -143.711 0
      vertex 36.6628 -144.711 0
      vertex 36.103 -144.711 0
    endloop
  endfacet
  facet normal 0 0 -1
    outer loop
      vertex 29.2986 -143.711 0
      vertex 36.103 -144.711 0
      vertex 35.5208 -144.711 0
    endloop
  endfacet
  facet normal 0 0 -1
    outer loop
      vertex 29.2986 -143.711 0
      vertex 35.5208 -144.711 0
      vertex 32.549 -144.711 0
    endloop
  endfacet
  facet normal 0 0 -1
    outer loop
      vertex 29.2986 -143.711 0
      vertex 32.549 -144.711 0
      vertex 32.4373 -144.711 0
    endloop
  endfacet
  facet normal 0 0 -1
    outer loop
      vertex 37.4191 -54.2113 0
      vertex 32.292 -51.8546 0
      vertex 38.5009 -51.7148 0
    endloop
  endfacet
  facet normal -0 0 -1
    outer loop
      vertex 45.5744 -55.2113 0
      vertex 31.4375 -67.6671 0
      vertex 38.0191 -55.2113 0
    endloop
  endfacet
  facet normal 0 -0 -1
    outer loop
      vertex 32.292 -51.8546 0
      vertex 38.0191 -55.2113 0
      vertex 31.4375 -67.6671 0
    endloop
  endfacet
  facet normal 0 0 -1
    outer loop
      vertex 29.4668 -143.882 0
      vertex 32.4373 -144.711 0
      vertex 30.3659 -144.711 0
    endloop
  endfacet
  facet normal 0 0 -1
    outer loop
      vertex 36.772 -144.711 0
      vertex 29.2986 -143.711 0
      vertex 29.2986 -79.7115 0
    endloop
  endfacet
  facet normal 0 0 -1
    outer loop
      vertex 29.4668 -143.882 0
      vertex 30.3659 -144.711 0
      vertex 30.2845 -144.711 0
    endloop
  endfacet
  facet normal 0 0 -1
    outer loop
      vertex 32.4373 -144.711 0
      vertex 29.4668 -143.882 0
      vertex 29.2986 -143.711 0
    endloop
  endfacet
  facet normal -0 0 -1
    outer loop
      vertex 45.5744 -78.7115 0
      vertex 29.2986 -79.7115 0
      vertex 31.4375 -78.7115 0
    endloop
  endfacet
  facet normal -0 0 -1
    outer loop
      vertex 30.3659 -78.7115 0
      vertex 29.4668 -79.5408 0
      vertex 30.2845 -78.7115 0
    endloop
  endfacet
  facet normal 0 -0 -1
    outer loop
      vertex 29.4668 -79.5408 0
      vertex 31.4375 -78.7115 0
      vertex 29.2986 -79.7115 0
    endloop
  endfacet
  facet normal -0 0 -1
    outer loop
      vertex 31.4375 -78.7115 0
      vertex 29.4668 -79.5408 0
      vertex 30.3659 -78.7115 0
    endloop
  endfacet
  facet normal 0 0 -1
    outer loop
      vertex 21.4375 -57.6671 0
      vertex 11.9396 -57.6671 0
      vertex 12.149 -57.1429 0
    endloop
  endfacet
  facet normal 0 0 -1
    outer loop
      vertex 38.0191 -55.2113 0
      vertex 32.292 -51.8546 0
      vertex 37.4191 -54.2113 0
    endloop
  endfacet
  facet normal 0 0 -1
    outer loop
      vertex 31.4375 -67.6671 0
      vertex 29.7623 -51.7699 0
      vertex 32.292 -51.8546 0
    endloop
  endfacet
  facet normal 0 0 -1
    outer loop
      vertex 31.4375 -67.6671 0
      vertex 29.281 -51.7538 0
      vertex 29.7623 -51.7699 0
    endloop
  endfacet
  facet normal 0 0 -1
    outer loop
      vertex 21.4375 -57.6671 0
      vertex 29.281 -51.7538 0
      vertex 31.4375 -67.6671 0
    endloop
  endfacet
  facet normal -0 0 -1
    outer loop
      vertex 29.281 -51.7538 0
      vertex 21.4375 -57.6671 0
      vertex 26.0123 -51.671 0
    endloop
  endfacet
  facet normal -0 0 -1
    outer loop
      vertex 26.0123 -51.671 0
      vertex 21.4375 -57.6671 0
      vertex 25.4004 -51.6554 0
    endloop
  endfacet
  facet normal -0 0 -1
    outer loop
      vertex 25.4004 -51.6554 0
      vertex 21.4375 -57.6671 0
      vertex 24.5414 -51.6408 0
    endloop
  endfacet
  facet normal 0 0 -1
    outer loop
      vertex 11.6159 -52.5976 0
      vertex 21.4375 -57.6671 0
      vertex 12.149 -57.1429 0
    endloop
  endfacet
  facet normal 0 0 -1
    outer loop
      vertex 21.4375 -57.6671 0
      vertex 11.6159 -52.5976 0
      vertex 24.5414 -51.6408 0
    endloop
  endfacet
  facet normal -0 0 -1
    outer loop
      vertex 24.5414 -51.6408 0
      vertex 11.6159 -52.5976 0
      vertex 11.4775 -51.4179 0
    endloop
  endfacet
endsolid OpenSCAD_Model
